<svg width="295" height="24" viewBox="0 0 295 24" fill="none" xmlns="http://www.w3.org/2000/svg">
<path d="M19.4781 6.67041H4.49523C4.0815 6.67041 3.74609 6.90951 3.74609 7.20445V17.8852C3.74609 18.1801 4.0815 18.4192 4.49523 18.4192H19.4781C19.8918 18.4192 20.2272 18.1801 20.2272 17.8852V7.20445C20.2272 6.90951 19.8918 6.67041 19.4781 6.67041Z" stroke="#FF9F0D" stroke-width="1.5" stroke-linecap="round" stroke-linejoin="round"/>
<path d="M16.4814 5.60205V7.73819" stroke="#FF9F0D" stroke-width="1.5" stroke-linecap="round" stroke-linejoin="round"/>
<path d="M7.49121 5.60205V7.73819" stroke="#FF9F0D" stroke-width="1.5" stroke-linecap="round" stroke-linejoin="round"/>
<path d="M3.74609 9.87451H20.2272" stroke="#FF9F0D" stroke-width="1.5" stroke-linecap="round" stroke-linejoin="round"/>
<path d="M8.61523 12.5444H11.2372L9.73895 13.8795C9.9853 13.8795 10.2279 13.9228 10.4451 14.0056C10.6624 14.0884 10.8477 14.2081 10.9846 14.3541C11.1215 14.5001 11.2058 14.6679 11.23 14.8427C11.2542 15.0174 11.2176 15.1938 11.1234 15.356C11.0291 15.5183 10.8803 15.6615 10.6899 15.773C10.4995 15.8844 10.2735 15.9607 10.0319 15.995C9.79032 16.0294 9.54057 16.0207 9.30478 15.9698C9.069 15.919 8.85445 15.8274 8.68015 15.7033" stroke="#FF9F0D" stroke-width="1.5" stroke-linecap="round" stroke-linejoin="round"/>
<path d="M13.4844 13.3455L14.9827 12.5444V16.0157" stroke="#FF9F0D" stroke-width="1.5" stroke-linecap="round" stroke-linejoin="round"/>
<path d="M29.4091 18V6.36364H36.3864V7.61364H30.8182V11.5455H35.8636V12.7955H30.8182V18H29.4091ZM41.6364 18.1818C40.7955 18.1818 40.0701 17.9962 39.4602 17.625C38.8542 17.25 38.3864 16.7273 38.0568 16.0568C37.7311 15.3826 37.5682 14.5985 37.5682 13.7045C37.5682 12.8106 37.7311 12.0227 38.0568 11.3409C38.3864 10.6553 38.8447 10.1212 39.4318 9.73864C40.0227 9.35227 40.7121 9.15909 41.5 9.15909C41.9545 9.15909 42.4034 9.23485 42.8466 9.38636C43.2898 9.53788 43.6932 9.78409 44.0568 10.125C44.4205 10.4621 44.7102 10.9091 44.9261 11.4659C45.142 12.0227 45.25 12.7083 45.25 13.5227V14.0909H38.5227V12.9318H43.8864C43.8864 12.4394 43.7879 12 43.5909 11.6136C43.3977 11.2273 43.1212 10.9223 42.7614 10.6989C42.4053 10.4754 41.9848 10.3636 41.5 10.3636C40.9659 10.3636 40.5038 10.4962 40.1136 10.7614C39.7273 11.0227 39.4299 11.3636 39.2216 11.7841C39.0133 12.2045 38.9091 12.6553 38.9091 13.1364V13.9091C38.9091 14.5682 39.0227 15.1269 39.25 15.5852C39.4811 16.0398 39.8011 16.3864 40.2102 16.625C40.6193 16.8598 41.0947 16.9773 41.6364 16.9773C41.9886 16.9773 42.3068 16.928 42.5909 16.8295C42.8788 16.7273 43.1269 16.5758 43.3352 16.375C43.5436 16.1705 43.7045 15.9167 43.8182 15.6136L45.1136 15.9773C44.9773 16.4167 44.7481 16.803 44.4261 17.1364C44.1042 17.4659 43.7064 17.7235 43.233 17.9091C42.7595 18.0909 42.2273 18.1818 41.6364 18.1818ZM47.4716 18V6.36364H48.8125V10.6591H48.9261C49.0246 10.5076 49.161 10.3144 49.3352 10.0795C49.5133 9.84091 49.767 9.62879 50.0966 9.44318C50.4299 9.25379 50.8807 9.15909 51.4489 9.15909C52.1837 9.15909 52.8314 9.3428 53.392 9.71023C53.9527 10.0777 54.3902 10.5985 54.7045 11.2727C55.0189 11.947 55.1761 12.7424 55.1761 13.6591C55.1761 14.5833 55.0189 15.3845 54.7045 16.0625C54.3902 16.7367 53.9545 17.2595 53.3977 17.6307C52.8409 17.9981 52.1989 18.1818 51.4716 18.1818C50.911 18.1818 50.4621 18.089 50.125 17.9034C49.7879 17.714 49.5284 17.5 49.3466 17.2614C49.1648 17.0189 49.0246 16.8182 48.9261 16.6591H48.767V18H47.4716ZM48.7898 13.6364C48.7898 14.2955 48.8864 14.8769 49.0795 15.3807C49.2727 15.8807 49.5549 16.2727 49.9261 16.5568C50.2973 16.8371 50.7519 16.9773 51.2898 16.9773C51.8504 16.9773 52.3182 16.8295 52.6932 16.5341C53.072 16.2348 53.3561 15.8333 53.5455 15.3295C53.7386 14.822 53.8352 14.2576 53.8352 13.6364C53.8352 13.0227 53.7405 12.4697 53.5511 11.9773C53.3655 11.4811 53.0833 11.089 52.7045 10.8011C52.3295 10.5095 51.858 10.3636 51.2898 10.3636C50.7443 10.3636 50.286 10.5019 49.9148 10.7784C49.5436 11.0511 49.2633 11.4337 49.0739 11.9261C48.8845 12.4148 48.7898 12.9848 48.7898 13.6364ZM65.7955 6.36364V18H64.3864V7.84091H64.3182L61.4773 9.72727V8.29545L64.3864 6.36364H65.7955ZM68.8693 15.6136V14.4545L73.983 6.36364H74.8239V8.15909H74.2557L70.392 14.2727V14.3636H77.2784V15.6136H68.8693ZM74.3466 18V15.2614V14.7216V6.36364H75.6875V18H74.3466ZM80.8835 16.4091L80.7926 17.0227C80.7282 17.4545 80.6297 17.9167 80.4972 18.4091C80.3684 18.9015 80.2339 19.3655 80.0938 19.8011C79.9536 20.2367 79.8381 20.5833 79.7472 20.8409H78.7244C78.7737 20.5985 78.8381 20.2784 78.9176 19.8807C78.9972 19.483 79.0767 19.0379 79.1562 18.5455C79.2396 18.0568 79.3078 17.5568 79.3608 17.0455L79.429 16.4091H80.8835ZM87.8452 18V16.9773L91.6861 12.7727C92.1368 12.2803 92.508 11.8523 92.7997 11.4886C93.0914 11.1212 93.3073 10.7765 93.4474 10.4545C93.5914 10.1288 93.6634 9.78788 93.6634 9.43182C93.6634 9.02273 93.5649 8.66856 93.3679 8.36932C93.1747 8.07008 92.9096 7.83901 92.5724 7.67614C92.2353 7.51326 91.8565 7.43182 91.4361 7.43182C90.9891 7.43182 90.599 7.52462 90.2656 7.71023C89.9361 7.89205 89.6804 8.14773 89.4986 8.47727C89.3205 8.80682 89.2315 9.19318 89.2315 9.63636H87.8906C87.8906 8.95455 88.0478 8.35606 88.3622 7.84091C88.6766 7.32576 89.1046 6.92424 89.6463 6.63636C90.1918 6.34848 90.8035 6.20455 91.4815 6.20455C92.1634 6.20455 92.7675 6.34848 93.294 6.63636C93.8205 6.92424 94.2334 7.3125 94.5327 7.80114C94.8319 8.28977 94.9815 8.83333 94.9815 9.43182C94.9815 9.85985 94.9039 10.2784 94.7486 10.6875C94.5971 11.0928 94.3319 11.5455 93.9531 12.0455C93.5781 12.5417 93.0573 13.1477 92.3906 13.8636L89.777 16.6591V16.75H95.1861V18H87.8452ZM101.328 18.1591C100.472 18.1591 99.7429 17.9261 99.1406 17.4602C98.5384 16.9905 98.0781 16.3106 97.7599 15.4205C97.4418 14.5265 97.2827 13.447 97.2827 12.1818C97.2827 10.9242 97.4418 9.85038 97.7599 8.96023C98.0819 8.06629 98.544 7.38447 99.1463 6.91477C99.7524 6.44129 100.48 6.20455 101.328 6.20455C102.177 6.20455 102.902 6.44129 103.504 6.91477C104.11 7.38447 104.572 8.06629 104.891 8.96023C105.213 9.85038 105.374 10.9242 105.374 12.1818C105.374 13.447 105.214 14.5265 104.896 15.4205C104.578 16.3106 104.118 16.9905 103.516 17.4602C102.913 17.9261 102.184 18.1591 101.328 18.1591ZM101.328 16.9091C102.177 16.9091 102.836 16.5 103.305 15.6818C103.775 14.8636 104.01 13.697 104.01 12.1818C104.01 11.1742 103.902 10.3163 103.686 9.60795C103.474 8.89962 103.167 8.35985 102.766 7.98864C102.368 7.61742 101.889 7.43182 101.328 7.43182C100.487 7.43182 99.83 7.84659 99.3565 8.67614C98.883 9.50189 98.6463 10.6705 98.6463 12.1818C98.6463 13.1894 98.7524 14.0455 98.9645 14.75C99.1766 15.4545 99.4815 15.9905 99.8793 16.358C100.281 16.7254 100.764 16.9091 101.328 16.9091ZM107.533 18V16.9773L111.374 12.7727C111.824 12.2803 112.196 11.8523 112.487 11.4886C112.779 11.1212 112.995 10.7765 113.135 10.4545C113.279 10.1288 113.351 9.78788 113.351 9.43182C113.351 9.02273 113.252 8.66856 113.055 8.36932C112.862 8.07008 112.597 7.83901 112.26 7.67614C111.923 7.51326 111.544 7.43182 111.124 7.43182C110.677 7.43182 110.286 7.52462 109.953 7.71023C109.624 7.89205 109.368 8.14773 109.186 8.47727C109.008 8.80682 108.919 9.19318 108.919 9.63636H107.578C107.578 8.95455 107.735 8.35606 108.05 7.84091C108.364 7.32576 108.792 6.92424 109.334 6.63636C109.879 6.34848 110.491 6.20455 111.169 6.20455C111.851 6.20455 112.455 6.34848 112.982 6.63636C113.508 6.92424 113.921 7.3125 114.22 7.80114C114.519 8.28977 114.669 8.83333 114.669 9.43182C114.669 9.85985 114.591 10.2784 114.436 10.6875C114.285 11.0928 114.019 11.5455 113.641 12.0455C113.266 12.5417 112.745 13.1477 112.078 13.8636L109.464 16.6591V16.75H114.874V18H107.533ZM117.22 18V16.9773L121.061 12.7727C121.512 12.2803 121.883 11.8523 122.175 11.4886C122.466 11.1212 122.682 10.7765 122.822 10.4545C122.966 10.1288 123.038 9.78788 123.038 9.43182C123.038 9.02273 122.94 8.66856 122.743 8.36932C122.55 8.07008 122.285 7.83901 121.947 7.67614C121.61 7.51326 121.232 7.43182 120.811 7.43182C120.364 7.43182 119.974 7.52462 119.641 7.71023C119.311 7.89205 119.055 8.14773 118.874 8.47727C118.696 8.80682 118.607 9.19318 118.607 9.63636H117.266C117.266 8.95455 117.423 8.35606 117.737 7.84091C118.052 7.32576 118.48 6.92424 119.021 6.63636C119.567 6.34848 120.179 6.20455 120.857 6.20455C121.538 6.20455 122.143 6.34848 122.669 6.63636C123.196 6.92424 123.608 7.3125 123.908 7.80114C124.207 8.28977 124.357 8.83333 124.357 9.43182C124.357 9.85985 124.279 10.2784 124.124 10.6875C123.972 11.0928 123.707 11.5455 123.328 12.0455C122.953 12.5417 122.432 13.1477 121.766 13.8636L119.152 16.6591V16.75H124.561V18H117.22ZM135.544 5.81818L131.794 19.75H130.567L134.317 5.81818H135.544ZM186.043 18.1591C185.293 18.1591 184.624 18.0303 184.037 17.7727C183.454 17.5152 182.99 17.1572 182.645 16.6989C182.304 16.2367 182.118 15.7008 182.088 15.0909H183.52C183.55 15.4659 183.679 15.7898 183.906 16.0625C184.134 16.3314 184.431 16.5398 184.798 16.6875C185.166 16.8352 185.573 16.9091 186.02 16.9091C186.52 16.9091 186.963 16.822 187.349 16.6477C187.736 16.4735 188.039 16.2311 188.259 15.9205C188.478 15.6098 188.588 15.25 188.588 14.8409C188.588 14.4129 188.482 14.036 188.27 13.7102C188.058 13.3807 187.747 13.1231 187.338 12.9375C186.929 12.7519 186.429 12.6591 185.838 12.6591H184.906V11.4091H185.838C186.3 11.4091 186.705 11.3258 187.054 11.1591C187.406 10.9924 187.681 10.7576 187.878 10.4545C188.079 10.1515 188.179 9.79545 188.179 9.38636C188.179 8.99242 188.092 8.64962 187.918 8.35795C187.743 8.06629 187.497 7.83901 187.179 7.67614C186.865 7.51326 186.493 7.43182 186.065 7.43182C185.664 7.43182 185.285 7.50568 184.929 7.65341C184.577 7.79735 184.289 8.00758 184.065 8.28409C183.842 8.55682 183.721 8.88636 183.702 9.27273H182.338C182.361 8.66288 182.545 8.12879 182.889 7.67045C183.234 7.20833 183.685 6.84848 184.241 6.59091C184.802 6.33333 185.418 6.20455 186.088 6.20455C186.808 6.20455 187.425 6.35038 187.94 6.64205C188.455 6.92992 188.851 7.31061 189.128 7.78409C189.404 8.25758 189.543 8.76894 189.543 9.31818C189.543 9.97348 189.37 10.5322 189.026 10.9943C188.685 11.4564 188.221 11.7765 187.634 11.9545V12.0455C188.368 12.1667 188.942 12.4792 189.355 12.983C189.768 13.483 189.974 14.1023 189.974 14.8409C189.974 15.4735 189.802 16.0417 189.457 16.5455C189.116 17.0455 188.651 17.4394 188.06 17.7273C187.469 18.0152 186.796 18.1591 186.043 18.1591ZM200.935 5.81818L197.185 19.75H195.957L199.707 5.81818H200.935ZM248.183 18H246.706L250.979 6.36364H252.433L256.706 18H255.229L251.751 8.20455H251.661L248.183 18ZM248.729 13.4545H254.683V14.7045H248.729V13.4545ZM261.632 18.1818C260.905 18.1818 260.263 17.9981 259.706 17.6307C259.149 17.2595 258.714 16.7367 258.399 16.0625C258.085 15.3845 257.928 14.5833 257.928 13.6591C257.928 12.7424 258.085 11.947 258.399 11.2727C258.714 10.5985 259.151 10.0777 259.712 9.71023C260.272 9.3428 260.92 9.15909 261.655 9.15909C262.223 9.15909 262.672 9.25379 263.001 9.44318C263.335 9.62879 263.589 9.84091 263.763 10.0795C263.941 10.3144 264.079 10.5076 264.178 10.6591H264.291V6.36364H265.632V18H264.337V16.6591H264.178C264.079 16.8182 263.939 17.0189 263.757 17.2614C263.575 17.5 263.316 17.714 262.979 17.9034C262.642 18.089 262.193 18.1818 261.632 18.1818ZM261.814 16.9773C262.352 16.9773 262.806 16.8371 263.178 16.5568C263.549 16.2727 263.831 15.8807 264.024 15.3807C264.217 14.8769 264.314 14.2955 264.314 13.6364C264.314 12.9848 264.219 12.4148 264.03 11.9261C263.84 11.4337 263.56 11.0511 263.189 10.7784C262.818 10.5019 262.359 10.3636 261.814 10.3636C261.246 10.3636 260.772 10.5095 260.393 10.8011C260.018 11.089 259.736 11.4811 259.547 11.9773C259.361 12.4697 259.268 13.0227 259.268 13.6364C259.268 14.2576 259.363 14.822 259.553 15.3295C259.746 15.8333 260.03 16.2348 260.405 16.5341C260.784 16.8295 261.253 16.9773 261.814 16.9773ZM268.274 18V9.27273H269.57V10.6364H269.683C269.865 10.1705 270.159 9.80871 270.564 9.55114C270.969 9.28977 271.456 9.15909 272.024 9.15909C272.6 9.15909 273.079 9.28977 273.462 9.55114C273.848 9.80871 274.149 10.1705 274.365 10.6364H274.456C274.679 10.1856 275.015 9.82765 275.462 9.5625C275.909 9.29356 276.445 9.15909 277.07 9.15909C277.85 9.15909 278.488 9.40341 278.984 9.89205C279.481 10.3769 279.729 11.1326 279.729 12.1591V18H278.388V12.1591C278.388 11.5152 278.212 11.0549 277.859 10.7784C277.507 10.5019 277.092 10.3636 276.615 10.3636C276.001 10.3636 275.526 10.5492 275.189 10.9205C274.852 11.2879 274.683 11.7538 274.683 12.3182V18H273.32V12.0227C273.32 11.5265 273.159 11.1269 272.837 10.8239C272.515 10.517 272.1 10.3636 271.592 10.3636C271.244 10.3636 270.918 10.4564 270.615 10.642C270.316 10.8277 270.073 11.0852 269.888 11.4148C269.706 11.7405 269.615 12.1174 269.615 12.5455V18H268.274ZM282.18 18V9.27273H283.521V18H282.18ZM282.862 7.81818C282.601 7.81818 282.375 7.72917 282.186 7.55114C282 7.37311 281.908 7.15909 281.908 6.90909C281.908 6.65909 282 6.44508 282.186 6.26705C282.375 6.08902 282.601 6 282.862 6C283.124 6 283.347 6.08902 283.533 6.26705C283.722 6.44508 283.817 6.65909 283.817 6.90909C283.817 7.15909 283.722 7.37311 283.533 7.55114C283.347 7.72917 283.124 7.81818 282.862 7.81818ZM287.318 12.75V18H285.977V9.27273H287.273V10.6364H287.386C287.591 10.1932 287.902 9.83712 288.318 9.56818C288.735 9.29545 289.273 9.15909 289.932 9.15909C290.523 9.15909 291.04 9.2803 291.483 9.52273C291.926 9.76136 292.271 10.125 292.517 10.6136C292.763 11.0985 292.886 11.7121 292.886 12.4545V18H291.545V12.5455C291.545 11.8598 291.367 11.3258 291.011 10.9432C290.655 10.5568 290.167 10.3636 289.545 10.3636C289.117 10.3636 288.735 10.4564 288.398 10.642C288.064 10.8277 287.801 11.0985 287.608 11.4545C287.415 11.8106 287.318 12.2424 287.318 12.75Z" fill="#4F4F4F"/>
<path d="M152.569 9.61287L148.862 11.749V3.20445C148.862 3.06281 148.941 2.92698 149.082 2.82683C149.222 2.72667 149.413 2.67041 149.611 2.67041H161.598C161.796 2.67041 161.987 2.72667 162.127 2.82683C162.268 2.92698 162.347 3.06281 162.347 3.20445V9.07884C162.347 9.22047 162.268 9.35631 162.127 9.45646C161.987 9.55661 161.796 9.61287 161.598 9.61287H152.569Z" stroke="#FF9F0D" stroke-width="1.5" stroke-linecap="round" stroke-linejoin="round"/>
<path d="M153.356 9.61276V12.2829C153.356 12.4246 153.435 12.5604 153.576 12.6606C153.716 12.7607 153.907 12.817 154.106 12.817H163.134L166.841 14.9531V6.40855C166.841 6.26691 166.762 6.13108 166.622 6.03093C166.481 5.93078 166.291 5.87451 166.092 5.87451H162.346" stroke="#FF9F0D" stroke-width="1.5" stroke-linecap="round" stroke-linejoin="round"/>
<path d="M225.773 10.6807C227.842 10.6807 229.519 9.48521 229.519 8.01051C229.519 6.53581 227.842 5.34033 225.773 5.34033C223.704 5.34033 222.027 6.53581 222.027 8.01051C222.027 9.48521 223.704 10.6807 225.773 10.6807Z" stroke="#FF9F0D" stroke-width="1.5" stroke-miterlimit="10"/>
<path d="M219.762 13.3091C220.326 12.5182 221.186 11.854 222.247 11.3901C223.308 10.9262 224.529 10.6807 225.774 10.6807C227.018 10.6807 228.239 10.9262 229.3 11.3901C230.361 11.854 231.221 12.5181 231.786 13.309" stroke="#FF9F0D" stroke-width="1.5" stroke-linecap="round" stroke-linejoin="round"/>
<path d="M230.269 3.73828H234.763" stroke="#FF9F0D" stroke-width="1.5" stroke-linecap="round" stroke-linejoin="round"/>
<path d="M232.516 2.13623V5.34044" stroke="#FF9F0D" stroke-width="1.5" stroke-linecap="round" stroke-linejoin="round"/>
<path d="M234.652 7.53386C234.949 8.86932 234.646 10.2377 233.786 11.4427C232.925 12.6477 231.551 13.6276 229.861 14.2417C228.171 14.8559 226.252 15.0728 224.378 14.8614C222.505 14.65 220.773 14.0212 219.432 13.065C218.091 12.1089 217.209 10.8745 216.912 9.53895C216.616 8.20337 216.92 6.83516 217.782 5.63047C218.643 4.42579 220.018 3.4465 221.708 2.83302C223.398 2.21954 225.318 2.00337 227.191 2.21551" stroke="#FF9F0D" stroke-width="1.5" stroke-linecap="round" stroke-linejoin="round"/>
</svg>
