<svg width="278" height="144" viewBox="0 0 278 144" fill="none" xmlns="http://www.w3.org/2000/svg">
<path d="M8.74432 128.182C8.66761 127.534 8.35653 127.031 7.81108 126.673C7.26563 126.315 6.59659 126.136 5.80398 126.136C5.22443 126.136 4.71733 126.23 4.28267 126.418C3.85227 126.605 3.51563 126.863 3.27273 127.191C3.03409 127.519 2.91477 127.892 2.91477 128.31C2.91477 128.659 2.99787 128.96 3.16406 129.211C3.33452 129.458 3.55185 129.665 3.81605 129.831C4.08026 129.993 4.35724 130.127 4.64702 130.234C4.93679 130.336 5.20312 130.419 5.44602 130.483L6.77557 130.841C7.11648 130.93 7.49574 131.054 7.91335 131.212C8.33523 131.369 8.73793 131.585 9.12145 131.857C9.50923 132.126 9.82884 132.471 10.0803 132.893C10.3317 133.315 10.4574 133.832 10.4574 134.446C10.4574 135.153 10.272 135.793 9.90128 136.364C9.5348 136.935 8.99787 137.388 8.29048 137.725C7.58736 138.062 6.73295 138.23 5.72727 138.23C4.78977 138.23 3.97798 138.079 3.2919 137.776C2.61009 137.474 2.07315 137.052 1.68111 136.511C1.29332 135.969 1.07386 135.341 1.02273 134.625H2.65909C2.7017 135.119 2.8679 135.528 3.15767 135.852C3.4517 136.172 3.82244 136.411 4.26989 136.568C4.72159 136.722 5.20739 136.798 5.72727 136.798C6.33239 136.798 6.87571 136.7 7.35724 136.504C7.83878 136.304 8.22017 136.027 8.50142 135.673C8.78267 135.315 8.9233 134.898 8.9233 134.42C8.9233 133.986 8.80185 133.632 8.55895 133.359C8.31605 133.087 7.99645 132.865 7.60014 132.695C7.20384 132.524 6.77557 132.375 6.31534 132.247L4.70455 131.787C3.68182 131.493 2.87216 131.073 2.27557 130.528C1.67898 129.982 1.38068 129.268 1.38068 128.386C1.38068 127.653 1.57884 127.014 1.97514 126.469C2.37571 125.919 2.91264 125.493 3.58594 125.19C4.26349 124.884 5.01989 124.73 5.85511 124.73C6.69886 124.73 7.44886 124.881 8.10511 125.184C8.76136 125.482 9.28125 125.891 9.66477 126.411C10.0526 126.931 10.2571 127.521 10.2784 128.182H8.74432ZM14.3677 132.094V138H12.8592V124.909H14.3677V129.716H14.4956C14.7257 129.209 15.0708 128.806 15.5311 128.508C15.9956 128.205 16.6135 128.054 17.3848 128.054C18.0538 128.054 18.6397 128.188 19.1426 128.457C19.6454 128.721 20.0353 129.128 20.3123 129.678C20.5936 130.223 20.7342 130.918 20.7342 131.761V138H19.2257V131.864C19.2257 131.084 19.0233 130.481 18.6184 130.055C18.2179 129.624 17.6618 129.409 16.9501 129.409C16.4558 129.409 16.0126 129.513 15.6206 129.722C15.2328 129.931 14.926 130.236 14.7001 130.636C14.4785 131.037 14.3677 131.523 14.3677 132.094ZM26.3832 138.23C25.761 138.23 25.1964 138.113 24.6893 137.879C24.1822 137.64 23.7795 137.297 23.4812 136.849C23.1829 136.398 23.0337 135.852 23.0337 135.213C23.0337 134.651 23.1445 134.195 23.3661 133.845C23.5877 133.491 23.8839 133.214 24.2546 133.014C24.6254 132.814 25.0344 132.665 25.4819 132.567C25.9336 132.464 26.3874 132.384 26.8434 132.324C27.44 132.247 27.9237 132.19 28.2944 132.151C28.6694 132.109 28.9421 132.038 29.1126 131.94C29.2873 131.842 29.3746 131.672 29.3746 131.429V131.378C29.3746 130.747 29.2021 130.257 28.8569 129.908C28.516 129.558 27.9982 129.384 27.3036 129.384C26.5835 129.384 26.0188 129.541 25.6097 129.857C25.2006 130.172 24.913 130.509 24.7468 130.866L23.315 130.355C23.5707 129.759 23.9116 129.294 24.3377 128.962C24.7681 128.625 25.2369 128.391 25.744 128.259C26.2553 128.122 26.7582 128.054 27.2525 128.054C27.5678 128.054 27.93 128.092 28.3391 128.169C28.7525 128.241 29.1509 128.393 29.5344 128.623C29.9222 128.853 30.244 129.2 30.4996 129.665C30.7553 130.129 30.8832 130.751 30.8832 131.531V138H29.3746V136.67H29.2979C29.1957 136.884 29.0252 137.112 28.7866 137.354C28.5479 137.597 28.2305 137.804 27.8342 137.974C27.4379 138.145 26.9542 138.23 26.3832 138.23ZM26.6133 136.875C27.2099 136.875 27.7127 136.758 28.1218 136.523C28.5352 136.289 28.8462 135.987 29.055 135.616C29.2681 135.245 29.3746 134.855 29.3746 134.446V133.065C29.3107 133.142 29.1701 133.212 28.9528 133.276C28.7397 133.336 28.4925 133.389 28.2113 133.436C27.9343 133.479 27.6637 133.517 27.3995 133.551C27.1396 133.581 26.9286 133.607 26.7667 133.628C26.3746 133.679 26.0082 133.762 25.6673 133.877C25.3306 133.988 25.0579 134.156 24.8491 134.382C24.6445 134.604 24.5423 134.906 24.5423 135.29C24.5423 135.814 24.7362 136.21 25.1239 136.479C25.516 136.743 26.0124 136.875 26.6133 136.875ZM33.6365 138V128.182H35.0939V129.665H35.1962C35.3752 129.179 35.699 128.785 36.1678 128.482C36.6365 128.18 37.165 128.028 37.753 128.028C37.8638 128.028 38.0023 128.031 38.1685 128.035C38.3347 128.039 38.4604 128.045 38.5456 128.054V129.588C38.4945 129.575 38.3773 129.556 38.1941 129.531C38.0151 129.501 37.8255 129.486 37.6252 129.486C37.1479 129.486 36.7218 129.586 36.3468 129.786C35.976 129.982 35.682 130.255 35.4647 130.604C35.2516 130.95 35.1451 131.344 35.1451 131.787V138H33.6365ZM44.1515 138.205C43.2054 138.205 42.3894 137.996 41.7033 137.578C41.0215 137.156 40.4952 136.568 40.1245 135.814C39.758 135.055 39.5748 134.173 39.5748 133.168C39.5748 132.162 39.758 131.276 40.1245 130.509C40.4952 129.737 41.0108 129.136 41.6713 128.706C42.3361 128.271 43.1117 128.054 43.998 128.054C44.5094 128.054 45.0144 128.139 45.513 128.31C46.0115 128.48 46.4654 128.757 46.8745 129.141C47.2836 129.52 47.6096 130.023 47.8525 130.649C48.0953 131.276 48.2168 132.047 48.2168 132.963V133.602H40.6486V132.298H46.6827C46.6827 131.744 46.5719 131.25 46.3503 130.815C46.133 130.381 45.8219 130.038 45.4171 129.786C45.0165 129.535 44.5435 129.409 43.998 129.409C43.3972 129.409 42.8773 129.558 42.4384 129.857C42.0037 130.151 41.6692 130.534 41.4348 131.007C41.2005 131.48 41.0833 131.987 41.0833 132.528V133.398C41.0833 134.139 41.2111 134.768 41.4668 135.283C41.7267 135.795 42.0868 136.185 42.5471 136.453C43.0073 136.717 43.5421 136.849 44.1515 136.849C44.5478 136.849 44.9057 136.794 45.2253 136.683C45.5492 136.568 45.8283 136.398 46.0627 136.172C46.2971 135.942 46.4782 135.656 46.606 135.315L48.0634 135.724C47.91 136.219 47.6522 136.653 47.29 137.028C46.9277 137.399 46.4803 137.689 45.9476 137.898C45.415 138.102 44.8162 138.205 44.1515 138.205ZM56.6735 138.102C56.3581 138.102 56.0875 137.989 55.8617 137.763C55.6358 137.538 55.5229 137.267 55.5229 136.952C55.5229 136.636 55.6358 136.366 55.8617 136.14C56.0875 135.914 56.3581 135.801 56.6735 135.801C56.9888 135.801 57.2594 135.914 57.4853 136.14C57.7111 136.366 57.824 136.636 57.824 136.952C57.824 137.161 57.7708 137.352 57.6642 137.527C57.562 137.702 57.4235 137.842 57.2488 137.949C57.0783 138.051 56.8865 138.102 56.6735 138.102ZM56.6735 130.815C56.3581 130.815 56.0875 130.702 55.8617 130.477C55.6358 130.251 55.5229 129.98 55.5229 129.665C55.5229 129.349 55.6358 129.079 55.8617 128.853C56.0875 128.627 56.3581 128.514 56.6735 128.514C56.9888 128.514 57.2594 128.627 57.4853 128.853C57.7111 129.079 57.824 129.349 57.824 129.665C57.824 129.874 57.7708 130.065 57.6642 130.24C57.562 130.415 57.4235 130.555 57.2488 130.662C57.0783 130.764 56.8865 130.815 56.6735 130.815Z" fill="#333333"/>
<g clip-path="url(#clip0_9030_9211)">
<path d="M117.522 119.002C111.16 119.002 106.002 124.272 106.002 130.773C106.002 136.647 110.214 141.516 115.722 142.402V134.176H112.796V130.773H115.722V128.179C115.722 125.227 117.443 123.599 120.073 123.599C121.333 123.599 122.654 123.828 122.654 123.828V126.723H121.197C119.769 126.723 119.322 127.632 119.322 128.563V130.77H122.514L122.004 134.173H119.322V142.4C124.83 141.518 129.042 136.648 129.042 130.773C129.042 124.272 123.884 119.002 117.522 119.002Z" fill="#4F4F4F"/>
</g>
<g clip-path="url(#clip1_9030_9211)">
<path d="M249.325 125.907C249.312 124.924 249.127 123.951 248.78 123.032C248.479 122.256 248.019 121.552 247.43 120.964C246.841 120.376 246.136 119.917 245.359 119.616C244.45 119.275 243.489 119.091 242.518 119.071C241.268 119.016 240.872 119 237.699 119C234.526 119 234.119 119 232.878 119.071C231.907 119.091 230.947 119.276 230.039 119.616C229.262 119.917 228.556 120.375 227.967 120.964C227.378 121.552 226.918 122.256 226.617 123.032C226.275 123.939 226.091 124.897 226.073 125.866C226.017 127.116 226 127.511 226 130.679C226 133.847 226 134.252 226.073 135.492C226.092 136.462 226.275 137.42 226.617 138.329C226.919 139.105 227.379 139.809 227.968 140.397C228.557 140.985 229.263 141.443 230.04 141.744C230.946 142.098 231.906 142.295 232.879 142.327C234.13 142.383 234.527 142.4 237.7 142.4C240.873 142.4 241.28 142.4 242.521 142.327C243.492 142.308 244.452 142.124 245.361 141.784C246.138 141.483 246.843 141.024 247.432 140.436C248.022 139.848 248.481 139.143 248.783 138.368C249.125 137.46 249.308 136.503 249.327 135.531C249.383 134.283 249.4 133.887 249.4 130.718C249.397 127.55 249.397 127.148 249.325 125.907ZM237.691 136.67C234.372 136.67 231.684 133.986 231.684 130.673C231.684 127.36 234.372 124.676 237.691 124.676C239.284 124.676 240.812 125.307 241.939 126.432C243.065 127.557 243.698 129.082 243.698 130.673C243.698 132.263 243.065 133.789 241.939 134.913C240.812 136.038 239.284 136.67 237.691 136.67ZM243.937 125.852C243.161 125.852 242.536 125.227 242.536 124.454C242.536 124.27 242.573 124.088 242.643 123.919C242.713 123.749 242.817 123.595 242.947 123.465C243.077 123.335 243.231 123.233 243.401 123.162C243.571 123.092 243.753 123.056 243.937 123.056C244.12 123.056 244.303 123.092 244.472 123.162C244.642 123.233 244.797 123.335 244.927 123.465C245.057 123.595 245.16 123.749 245.23 123.919C245.3 124.088 245.337 124.27 245.337 124.454C245.337 125.227 244.71 125.852 243.937 125.852Z" fill="#4F4F4F"/>
<path d="M237.691 134.569C239.846 134.569 241.593 132.825 241.593 130.673C241.593 128.521 239.846 126.777 237.691 126.777C235.536 126.777 233.789 128.521 233.789 130.673C233.789 132.825 235.536 134.569 237.691 134.569Z" fill="#4F4F4F"/>
</g>
<g clip-path="url(#clip2_9030_9211)">
<path d="M158 119.48C151.638 119.48 146.48 124.638 146.48 131C146.48 137.362 151.638 142.52 158 142.52C164.363 142.52 169.52 137.362 169.52 131C169.52 124.638 164.363 119.48 158 119.48ZM162.686 128.917C162.691 129.015 162.692 129.114 162.692 129.21C162.692 132.21 160.411 135.667 156.238 135.667C155.004 135.669 153.797 135.315 152.76 134.647C152.936 134.668 153.118 134.677 153.301 134.677C154.364 134.677 155.342 134.316 156.119 133.706C155.646 133.697 155.187 133.54 154.807 133.258C154.428 132.976 154.145 132.582 154 132.132C154.339 132.196 154.689 132.183 155.023 132.092C154.51 131.988 154.048 131.71 153.716 131.304C153.384 130.899 153.203 130.391 153.203 129.867V129.84C153.509 130.009 153.859 130.112 154.231 130.124C153.75 129.803 153.409 129.311 153.279 128.748C153.148 128.184 153.238 127.592 153.529 127.093C154.099 127.794 154.81 128.367 155.616 128.776C156.421 129.184 157.304 129.419 158.206 129.465C158.091 128.978 158.14 128.467 158.346 128.011C158.552 127.556 158.902 127.18 159.343 126.944C159.784 126.708 160.291 126.624 160.784 126.706C161.278 126.788 161.731 127.03 162.072 127.395C162.58 127.295 163.067 127.108 163.512 126.844C163.343 127.37 162.988 127.817 162.515 128.101C162.965 128.047 163.404 127.926 163.818 127.742C163.514 128.198 163.131 128.596 162.686 128.917V128.917Z" fill="#4F4F4F"/>
</g>
<g clip-path="url(#clip3_9030_9211)">
<path d="M79.9241 130.8L77.2289 129.542C76.9937 129.433 76.8005 129.555 76.8005 129.816V132.184C76.8005 132.445 76.9937 132.567 77.2289 132.458L79.9229 131.2C80.1593 131.09 80.1593 130.91 79.9241 130.8ZM78.0005 119.48C71.6381 119.48 66.4805 124.638 66.4805 131C66.4805 137.362 71.6381 142.52 78.0005 142.52C84.3629 142.52 89.5205 137.362 89.5205 131C89.5205 124.638 84.3629 119.48 78.0005 119.48ZM78.0005 135.68C72.1037 135.68 72.0005 135.148 72.0005 131C72.0005 126.852 72.1037 126.32 78.0005 126.32C83.8973 126.32 84.0005 126.852 84.0005 131C84.0005 135.148 83.8973 135.68 78.0005 135.68Z" fill="#4F4F4F"/>
</g>
<g clip-path="url(#clip4_9030_9211)">
<path d="M198 119.48C191.638 119.48 186.48 124.638 186.48 131C186.48 137.362 191.638 142.52 198 142.52C204.363 142.52 209.52 137.362 209.52 131C209.52 124.638 204.363 119.48 198 119.48ZM202.431 132.477C202.431 132.477 203.45 133.483 203.7 133.95C203.708 133.959 203.711 133.969 203.714 133.974C203.816 134.145 203.84 134.278 203.789 134.378C203.705 134.544 203.417 134.625 203.319 134.632H201.519C201.394 134.632 201.132 134.6 200.816 134.382C200.572 134.211 200.332 133.932 200.098 133.659C199.749 133.254 199.446 132.903 199.142 132.903C199.103 132.903 199.064 132.909 199.028 132.921C198.797 132.996 198.502 133.324 198.502 134.2C198.502 134.474 198.286 134.631 198.134 134.631H197.309C197.028 134.631 195.566 134.533 194.27 133.166C192.683 131.492 191.255 128.134 191.243 128.103C191.153 127.886 191.339 127.77 191.542 127.77H193.36C193.602 127.77 193.682 127.917 193.737 128.048C193.802 128.2 194.039 128.806 194.429 129.488C195.062 130.599 195.449 131.05 195.76 131.05C195.818 131.05 195.876 131.035 195.927 131.007C196.332 130.782 196.257 129.336 196.239 129.036C196.239 128.979 196.238 128.389 196.03 128.106C195.881 127.9 195.628 127.822 195.474 127.794C195.537 127.708 195.619 127.638 195.713 127.591C195.992 127.452 196.493 127.431 196.991 127.431H197.268C197.808 127.438 197.948 127.473 198.143 127.522C198.539 127.617 198.548 127.873 198.513 128.748C198.502 128.996 198.491 129.277 198.491 129.608C198.491 129.68 198.488 129.757 198.488 129.838C198.476 130.284 198.461 130.789 198.776 130.996C198.817 131.022 198.864 131.036 198.912 131.036C199.022 131.036 199.35 131.036 200.241 129.508C200.515 129.017 200.754 128.506 200.955 127.98C200.973 127.948 201.026 127.852 201.088 127.815C201.134 127.792 201.185 127.78 201.237 127.78H203.374C203.607 127.78 203.766 127.815 203.796 127.905C203.849 128.048 203.787 128.484 202.811 129.805L202.376 130.38C201.491 131.539 201.491 131.598 202.431 132.477V132.477Z" fill="#4F4F4F"/>
</g>
<path d="M12.1193 45H10.5341C10.4403 44.544 10.2763 44.1435 10.0419 43.7983C9.81179 43.4531 9.53054 43.1634 9.19815 42.929C8.87003 42.6903 8.50568 42.5114 8.10511 42.392C7.70455 42.2727 7.28693 42.2131 6.85227 42.2131C6.05966 42.2131 5.34162 42.4134 4.69815 42.8139C4.05895 43.2145 3.54972 43.8047 3.17045 44.5845C2.79545 45.3643 2.60795 46.321 2.60795 47.4545C2.60795 48.5881 2.79545 49.5447 3.17045 50.3246C3.54972 51.1044 4.05895 51.6946 4.69815 52.0952C5.34162 52.4957 6.05966 52.696 6.85227 52.696C7.28693 52.696 7.70455 52.6364 8.10511 52.517C8.50568 52.3977 8.87003 52.2209 9.19815 51.9865C9.53054 51.7479 9.81179 51.456 10.0419 51.1108C10.2763 50.7614 10.4403 50.3608 10.5341 49.9091H12.1193C12 50.5781 11.7827 51.1768 11.4673 51.7053C11.152 52.2337 10.7599 52.6832 10.2912 53.054C9.82244 53.4205 9.29617 53.6996 8.71236 53.8913C8.13281 54.0831 7.51278 54.179 6.85227 54.179C5.7358 54.179 4.7429 53.9062 3.87358 53.3608C3.00426 52.8153 2.32031 52.0398 1.82173 51.0341C1.32315 50.0284 1.07386 48.8352 1.07386 47.4545C1.07386 46.0739 1.32315 44.8807 1.82173 43.875C2.32031 42.8693 3.00426 42.0938 3.87358 41.5483C4.7429 41.0028 5.7358 40.7301 6.85227 40.7301C7.51278 40.7301 8.13281 40.826 8.71236 41.0178C9.29617 41.2095 9.82244 41.4908 10.2912 41.8615C10.7599 42.228 11.152 42.6754 11.4673 43.2038C11.7827 43.728 12 44.3267 12.1193 45ZM17.3656 54.2301C16.7434 54.2301 16.1788 54.1129 15.6717 53.8786C15.1646 53.6399 14.7619 53.2969 14.4636 52.8494C14.1653 52.3977 14.0162 51.8523 14.0162 51.2131C14.0162 50.6506 14.127 50.1946 14.3485 49.8452C14.5701 49.4915 14.8663 49.2145 15.237 49.0142C15.6078 48.8139 16.0169 48.6648 16.4643 48.5668C16.916 48.4645 17.3699 48.3835 17.8258 48.3239C18.4224 48.2472 18.9061 48.1896 19.2768 48.1513C19.6518 48.1087 19.9245 48.0384 20.095 47.9403C20.2697 47.8423 20.3571 47.6719 20.3571 47.429V47.3778C20.3571 46.7472 20.1845 46.2571 19.8393 45.9077C19.4984 45.5582 18.9806 45.3835 18.286 45.3835C17.5659 45.3835 17.0012 45.5412 16.5922 45.8565C16.1831 46.1719 15.8954 46.5085 15.7292 46.8665L14.2974 46.3551C14.5531 45.7585 14.894 45.294 15.3201 44.9616C15.7505 44.625 16.2193 44.3906 16.7264 44.2585C17.2377 44.1222 17.7406 44.054 18.2349 44.054C18.5502 44.054 18.9125 44.0923 19.3216 44.169C19.7349 44.2415 20.1333 44.3928 20.5169 44.6229C20.9047 44.853 21.2264 45.2003 21.4821 45.6648C21.7377 46.1293 21.8656 46.7514 21.8656 47.5312V54H20.3571V52.6705H20.2804C20.1781 52.8835 20.0076 53.1115 19.769 53.3544C19.5304 53.5973 19.2129 53.804 18.8166 53.9744C18.4203 54.1449 17.9366 54.2301 17.3656 54.2301ZM17.5957 52.875C18.1923 52.875 18.6951 52.7578 19.1042 52.5234C19.5176 52.2891 19.8287 51.9865 20.0375 51.6158C20.2505 51.245 20.3571 50.8551 20.3571 50.446V49.0653C20.2931 49.142 20.1525 49.2124 19.9352 49.2763C19.7221 49.3359 19.475 49.3892 19.1937 49.4361C18.9167 49.4787 18.6461 49.517 18.3819 49.5511C18.122 49.581 17.911 49.6065 17.7491 49.6278C17.3571 49.679 16.9906 49.7621 16.6497 49.8771C16.313 49.9879 16.0403 50.1562 15.8315 50.3821C15.627 50.6037 15.5247 50.9062 15.5247 51.2898C15.5247 51.8139 15.7186 52.2102 16.1064 52.4787C16.4984 52.7429 16.9949 52.875 17.5957 52.875ZM28.8888 44.1818V45.4602H23.8008V44.1818H28.8888ZM25.2837 41.8295H26.7923V51.1875C26.7923 51.6136 26.854 51.9332 26.9776 52.1463C27.1055 52.3551 27.2674 52.4957 27.4634 52.5682C27.6637 52.6364 27.8746 52.6705 28.0962 52.6705C28.2624 52.6705 28.3988 52.6619 28.5053 52.6449C28.6119 52.6236 28.6971 52.6065 28.761 52.5938L29.0678 53.9489C28.9656 53.9872 28.8228 54.0256 28.6396 54.0639C28.4563 54.1065 28.2241 54.1278 27.9428 54.1278C27.5167 54.1278 27.0991 54.0362 26.69 53.853C26.2852 53.6697 25.9485 53.3906 25.68 53.0156C25.4158 52.6406 25.2837 52.1676 25.2837 51.5966V41.8295ZM35.169 54.2045C34.223 54.2045 33.407 53.9957 32.7209 53.5781C32.0391 53.1562 31.5128 52.5682 31.142 51.8139C30.7756 51.0554 30.5923 50.1733 30.5923 49.1676C30.5923 48.1619 30.7756 47.2756 31.142 46.5085C31.5128 45.7372 32.0284 45.1364 32.6889 44.706C33.3537 44.2713 34.1293 44.054 35.0156 44.054C35.527 44.054 36.032 44.1392 36.5305 44.3097C37.0291 44.4801 37.483 44.7571 37.892 45.1406C38.3011 45.5199 38.6271 46.0227 38.87 46.6491C39.1129 47.2756 39.2344 48.0469 39.2344 48.9631V49.6023H31.6662V48.2983H37.7003C37.7003 47.7443 37.5895 47.25 37.3679 46.8153C37.1506 46.3807 36.8395 46.0376 36.4347 45.7862C36.0341 45.5348 35.5611 45.4091 35.0156 45.4091C34.4148 45.4091 33.8949 45.5582 33.456 45.8565C33.0213 46.1506 32.6868 46.5341 32.4524 47.0071C32.218 47.4801 32.1009 47.9872 32.1009 48.5284V49.3977C32.1009 50.1392 32.2287 50.7678 32.4844 51.2834C32.7443 51.7947 33.1044 52.1847 33.5646 52.4531C34.0249 52.7173 34.5597 52.8494 35.169 52.8494C35.5653 52.8494 35.9233 52.794 36.2429 52.6832C36.5668 52.5682 36.8459 52.3977 37.0803 52.1719C37.3146 51.9418 37.4957 51.6562 37.6236 51.3153L39.081 51.7244C38.9276 52.2188 38.6697 52.6534 38.3075 53.0284C37.9453 53.3991 37.4979 53.6889 36.9652 53.8977C36.4325 54.1023 35.8338 54.2045 35.169 54.2045ZM45.4922 57.8864C44.7635 57.8864 44.1371 57.7926 43.6129 57.6051C43.0888 57.4219 42.652 57.179 42.3026 56.8764C41.9574 56.5781 41.6825 56.2585 41.478 55.9176L42.6797 55.0739C42.8161 55.2528 42.9886 55.4574 43.1974 55.6875C43.4063 55.9219 43.6918 56.1243 44.054 56.2947C44.4205 56.4695 44.8999 56.5568 45.4922 56.5568C46.2848 56.5568 46.9389 56.3651 47.4545 55.9815C47.9702 55.598 48.228 54.9972 48.228 54.179V52.1847H48.1001C47.9893 52.3636 47.8317 52.5852 47.6271 52.8494C47.4268 53.1094 47.1371 53.3416 46.7578 53.5462C46.3828 53.7464 45.8757 53.8466 45.2365 53.8466C44.4439 53.8466 43.7322 53.6591 43.1016 53.2841C42.4751 52.9091 41.9787 52.3636 41.6122 51.6477C41.25 50.9318 41.0689 50.0625 41.0689 49.0398C41.0689 48.0341 41.2457 47.1584 41.5994 46.4126C41.9531 45.6626 42.4453 45.0831 43.076 44.674C43.7067 44.2607 44.4354 44.054 45.2621 44.054C45.9013 44.054 46.4084 44.1605 46.7834 44.3736C47.1626 44.5824 47.4524 44.821 47.6527 45.0895C47.8572 45.3537 48.0149 45.571 48.1257 45.7415H48.2791V44.1818H49.7365V54.2812C49.7365 55.125 49.5447 55.8111 49.1612 56.3395C48.782 56.8722 48.2706 57.2621 47.6271 57.5092C46.9879 57.7607 46.2763 57.8864 45.4922 57.8864ZM45.4411 52.4915C46.0462 52.4915 46.5575 52.353 46.9751 52.076C47.3928 51.799 47.7102 51.4006 47.9276 50.8807C48.1449 50.3608 48.2536 49.7386 48.2536 49.0142C48.2536 48.3068 48.147 47.6825 47.9339 47.1413C47.7209 46.6001 47.4055 46.1761 46.9879 45.8693C46.5703 45.5625 46.0547 45.4091 45.4411 45.4091C44.8018 45.4091 44.2692 45.571 43.843 45.8949C43.4212 46.2187 43.1037 46.6534 42.8906 47.1989C42.6818 47.7443 42.5774 48.3494 42.5774 49.0142C42.5774 49.696 42.6839 50.299 42.897 50.8232C43.1143 51.343 43.4339 51.7521 43.8558 52.0504C44.282 52.3445 44.8104 52.4915 45.4411 52.4915ZM56.4865 54.2045C55.6001 54.2045 54.8224 53.9936 54.1534 53.5717C53.4886 53.1499 52.9688 52.5597 52.5938 51.8011C52.223 51.0426 52.0376 50.1562 52.0376 49.142C52.0376 48.1193 52.223 47.2266 52.5938 46.4638C52.9688 45.701 53.4886 45.1087 54.1534 44.6868C54.8224 44.2649 55.6001 44.054 56.4865 44.054C57.3729 44.054 58.1484 44.2649 58.8132 44.6868C59.4822 45.1087 60.0021 45.701 60.3729 46.4638C60.7479 47.2266 60.9354 48.1193 60.9354 49.142C60.9354 50.1562 60.7479 51.0426 60.3729 51.8011C60.0021 52.5597 59.4822 53.1499 58.8132 53.5717C58.1484 53.9936 57.3729 54.2045 56.4865 54.2045ZM56.4865 52.8494C57.1598 52.8494 57.7138 52.6768 58.1484 52.3317C58.5831 51.9865 58.9048 51.5327 59.1136 50.9702C59.3224 50.4077 59.4268 49.7983 59.4268 49.142C59.4268 48.4858 59.3224 47.8743 59.1136 47.3075C58.9048 46.7408 58.5831 46.2827 58.1484 45.9332C57.7138 45.5838 57.1598 45.4091 56.4865 45.4091C55.8132 45.4091 55.2592 45.5838 54.8246 45.9332C54.3899 46.2827 54.0682 46.7408 53.8594 47.3075C53.6506 47.8743 53.5462 48.4858 53.5462 49.142C53.5462 49.7983 53.6506 50.4077 53.8594 50.9702C54.0682 51.5327 54.3899 51.9865 54.8246 52.3317C55.2592 52.6768 55.8132 52.8494 56.4865 52.8494ZM63.2381 54V44.1818H64.6955V45.6648H64.7978C64.9767 45.179 65.3006 44.7848 65.7694 44.4822C66.2381 44.1797 66.7665 44.0284 67.3546 44.0284C67.4654 44.0284 67.6039 44.0305 67.7701 44.0348C67.9363 44.0391 68.062 44.0455 68.1472 44.054V45.5881C68.0961 45.5753 67.9789 45.5561 67.7956 45.5305C67.6167 45.5007 67.427 45.4858 67.2267 45.4858C66.7495 45.4858 66.3233 45.5859 65.9483 45.7862C65.5776 45.9822 65.2836 46.255 65.0662 46.6044C64.8532 46.9496 64.7466 47.3437 64.7466 47.7869V54H63.2381ZM71.2058 57.6818C70.9501 57.6818 70.7221 57.6605 70.5218 57.6179C70.3216 57.5795 70.1831 57.5412 70.1064 57.5028L70.4899 56.1733C70.8564 56.267 71.1802 56.3011 71.4615 56.2756C71.7427 56.25 71.992 56.1243 72.2093 55.8984C72.4309 55.6768 72.6333 55.3168 72.8166 54.8182L73.0978 54.0511L69.4672 44.1818H71.1035L73.8137 52.0057H73.916L76.6262 44.1818H78.2626L74.095 55.4318C73.9075 55.9389 73.6752 56.3587 73.3983 56.6911C73.1213 57.0277 72.7995 57.277 72.4331 57.4389C72.0708 57.6009 71.6618 57.6818 71.2058 57.6818ZM81.3532 54.1023C81.0378 54.1023 80.7672 53.9893 80.5414 53.7635C80.3155 53.5376 80.2026 53.267 80.2026 52.9517C80.2026 52.6364 80.3155 52.3658 80.5414 52.1399C80.7672 51.9141 81.0378 51.8011 81.3532 51.8011C81.6685 51.8011 81.9391 51.9141 82.165 52.1399C82.3908 52.3658 82.5037 52.6364 82.5037 52.9517C82.5037 53.1605 82.4505 53.3523 82.3439 53.527C82.2417 53.7017 82.1032 53.8423 81.9284 53.9489C81.758 54.0511 81.5662 54.1023 81.3532 54.1023ZM81.3532 46.8153C81.0378 46.8153 80.7672 46.7024 80.5414 46.4766C80.3155 46.2507 80.2026 45.9801 80.2026 45.6648C80.2026 45.3494 80.3155 45.0788 80.5414 44.853C80.7672 44.6271 81.0378 44.5142 81.3532 44.5142C81.6685 44.5142 81.9391 44.6271 82.165 44.853C82.3908 45.0788 82.5037 45.3494 82.5037 45.6648C82.5037 45.8736 82.4505 46.0653 82.3439 46.2401C82.2417 46.4148 82.1032 46.5554 81.9284 46.6619C81.758 46.7642 81.5662 46.8153 81.3532 46.8153Z" fill="#333333"/>
<path d="M93.5852 54V40.9091H98.0085C99.0355 40.9091 99.875 41.0945 100.527 41.4652C101.183 41.8317 101.669 42.3281 101.984 42.9545C102.3 43.581 102.457 44.2798 102.457 45.0511C102.457 45.8224 102.3 46.5234 101.984 47.1541C101.673 47.7848 101.192 48.2876 100.54 48.6626C99.8878 49.0334 99.0526 49.2188 98.0341 49.2188H94.8636V47.8125H97.983C98.6861 47.8125 99.2507 47.6911 99.6768 47.4482C100.103 47.2053 100.412 46.8771 100.604 46.4638C100.8 46.0462 100.898 45.5753 100.898 45.0511C100.898 44.527 100.8 44.0582 100.604 43.6449C100.412 43.2315 100.101 42.9077 99.6705 42.6733C99.2401 42.4347 98.669 42.3153 97.9574 42.3153H95.1705V54H93.5852ZM104.806 54V44.1818H106.315V54H104.806ZM105.574 42.5455C105.279 42.5455 105.026 42.4453 104.813 42.245C104.604 42.0447 104.5 41.804 104.5 41.5227C104.5 41.2415 104.604 41.0007 104.813 40.8004C105.026 40.6001 105.279 40.5 105.574 40.5C105.868 40.5 106.119 40.6001 106.328 40.8004C106.541 41.0007 106.647 41.2415 106.647 41.5227C106.647 41.804 106.541 42.0447 106.328 42.245C106.119 42.4453 105.868 42.5455 105.574 42.5455ZM108.797 54V52.8494L114.371 45.6903V45.5881H108.976V44.1818H116.314V45.3835L110.893 52.4915V52.5938H116.493V54H108.797ZM118.535 54V52.8494L124.109 45.6903V45.5881H118.714V44.1818H126.052V45.3835L120.632 52.4915V52.5938H126.231V54H118.535ZM131.444 54.2301C130.822 54.2301 130.257 54.1129 129.75 53.8786C129.243 53.6399 128.84 53.2969 128.542 52.8494C128.243 52.3977 128.094 51.8523 128.094 51.2131C128.094 50.6506 128.205 50.1946 128.427 49.8452C128.648 49.4915 128.944 49.2145 129.315 49.0142C129.686 48.8139 130.095 48.6648 130.542 48.5668C130.994 48.4645 131.448 48.3835 131.904 48.3239C132.501 48.2472 132.984 48.1896 133.355 48.1513C133.73 48.1087 134.003 48.0384 134.173 47.9403C134.348 47.8423 134.435 47.6719 134.435 47.429V47.3778C134.435 46.7472 134.263 46.2571 133.917 45.9077C133.577 45.5582 133.059 45.3835 132.364 45.3835C131.644 45.3835 131.079 45.5412 130.67 45.8565C130.261 46.1719 129.974 46.5085 129.807 46.8665L128.376 46.3551C128.631 45.7585 128.972 45.294 129.398 44.9616C129.829 44.625 130.297 44.3906 130.805 44.2585C131.316 44.1222 131.819 44.054 132.313 44.054C132.628 44.054 132.991 44.0923 133.4 44.169C133.813 44.2415 134.211 44.3928 134.595 44.6229C134.983 44.853 135.305 45.2003 135.56 45.6648C135.816 46.1293 135.944 46.7514 135.944 47.5312V54H134.435V52.6705H134.358C134.256 52.8835 134.086 53.1115 133.847 53.3544C133.608 53.5973 133.291 53.804 132.895 53.9744C132.498 54.1449 132.015 54.2301 131.444 54.2301ZM131.674 52.875C132.27 52.875 132.773 52.7578 133.182 52.5234C133.596 52.2891 133.907 51.9865 134.116 51.6158C134.329 51.245 134.435 50.8551 134.435 50.446V49.0653C134.371 49.142 134.231 49.2124 134.013 49.2763C133.8 49.3359 133.553 49.3892 133.272 49.4361C132.995 49.4787 132.724 49.517 132.46 49.5511C132.2 49.581 131.989 49.6065 131.827 49.6278C131.435 49.679 131.069 49.7621 130.728 49.8771C130.391 49.9879 130.118 50.1562 129.91 50.3821C129.705 50.6037 129.603 50.9062 129.603 51.2898C129.603 51.8139 129.797 52.2102 130.184 52.4787C130.577 52.7429 131.073 52.875 131.674 52.875Z" fill="#4F4F4F"/>
<path d="M0.869318 76.3153V74.9091H10.6875V76.3153H6.57102V88H4.9858V76.3153H0.869318ZM14.4828 88.2301C13.8606 88.2301 13.296 88.1129 12.7889 87.8786C12.2818 87.6399 11.8791 87.2969 11.5808 86.8494C11.2825 86.3977 11.1333 85.8523 11.1333 85.2131C11.1333 84.6506 11.2441 84.1946 11.4657 83.8452C11.6873 83.4915 11.9835 83.2145 12.3542 83.0142C12.725 82.8139 13.1341 82.6648 13.5815 82.5668C14.0332 82.4645 14.487 82.3835 14.943 82.3239C15.5396 82.2472 16.0233 82.1896 16.394 82.1513C16.769 82.1087 17.0417 82.0384 17.2122 81.9403C17.3869 81.8423 17.4743 81.6719 17.4743 81.429V81.3778C17.4743 80.7472 17.3017 80.2571 16.9565 79.9077C16.6156 79.5582 16.0978 79.3835 15.4032 79.3835C14.6831 79.3835 14.1184 79.5412 13.7093 79.8565C13.3002 80.1719 13.0126 80.5085 12.8464 80.8665L11.4146 80.3551C11.6703 79.7585 12.0112 79.294 12.4373 78.9616C12.8677 78.625 13.3365 78.3906 13.8436 78.2585C14.3549 78.1222 14.8578 78.054 15.3521 78.054C15.6674 78.054 16.0297 78.0923 16.4387 78.169C16.8521 78.2415 17.2505 78.3928 17.6341 78.6229C18.0218 78.853 18.3436 79.2003 18.5993 79.6648C18.8549 80.1293 18.9828 80.7514 18.9828 81.5312V88H17.4743V86.6705H17.3976C17.2953 86.8835 17.1248 87.1115 16.8862 87.3544C16.6475 87.5973 16.3301 87.804 15.9338 87.9744C15.5375 88.1449 15.0538 88.2301 14.4828 88.2301ZM14.7129 86.875C15.3095 86.875 15.8123 86.7578 16.2214 86.5234C16.6348 86.2891 16.9458 85.9865 17.1547 85.6158C17.3677 85.245 17.4743 84.8551 17.4743 84.446V83.0653C17.4103 83.142 17.2697 83.2124 17.0524 83.2763C16.8393 83.3359 16.5922 83.3892 16.3109 83.4361C16.0339 83.4787 15.7633 83.517 15.4991 83.5511C15.2392 83.581 15.0282 83.6065 14.8663 83.6278C14.4743 83.679 14.1078 83.7621 13.7669 83.8771C13.4302 83.9879 13.1575 84.1562 12.9487 84.3821C12.7441 84.6037 12.6419 84.9062 12.6419 85.2898C12.6419 85.8139 12.8358 86.2102 13.2235 86.4787C13.6156 86.7429 14.112 86.875 14.7129 86.875ZM25.6992 91.8864C24.9705 91.8864 24.3441 91.7926 23.82 91.6051C23.2958 91.4219 22.859 91.179 22.5096 90.8764C22.1644 90.5781 21.8896 90.2585 21.685 89.9176L22.8867 89.0739C23.0231 89.2528 23.1957 89.4574 23.4045 89.6875C23.6133 89.9219 23.8988 90.1243 24.261 90.2947C24.6275 90.4695 25.1069 90.5568 25.6992 90.5568C26.4918 90.5568 27.146 90.3651 27.6616 89.9815C28.1772 89.598 28.435 88.9972 28.435 88.179V86.1847H28.3072C28.1964 86.3636 28.0387 86.5852 27.8342 86.8494C27.6339 87.1094 27.3441 87.3416 26.9648 87.5462C26.5898 87.7464 26.0827 87.8466 25.4435 87.8466C24.6509 87.8466 23.9393 87.6591 23.3086 87.2841C22.6822 86.9091 22.1857 86.3636 21.8192 85.6477C21.457 84.9318 21.2759 84.0625 21.2759 83.0398C21.2759 82.0341 21.4528 81.1584 21.8065 80.4126C22.1602 79.6626 22.6523 79.0831 23.283 78.674C23.9137 78.2607 24.6424 78.054 25.4691 78.054C26.1083 78.054 26.6154 78.1605 26.9904 78.3736C27.3697 78.5824 27.6594 78.821 27.8597 79.0895C28.0643 79.3537 28.2219 79.571 28.3327 79.7415H28.4862V78.1818H29.9435V88.2812C29.9435 89.125 29.7518 89.8111 29.3683 90.3395C28.989 90.8722 28.4776 91.2621 27.8342 91.5092C27.195 91.7607 26.4833 91.8864 25.6992 91.8864ZM25.6481 86.4915C26.2532 86.4915 26.7646 86.353 27.1822 86.076C27.5998 85.799 27.9173 85.4006 28.1346 84.8807C28.3519 84.3608 28.4606 83.7386 28.4606 83.0142C28.4606 82.3068 28.354 81.6825 28.141 81.1413C27.9279 80.6001 27.6126 80.1761 27.195 79.8693C26.7773 79.5625 26.2617 79.4091 25.6481 79.4091C25.0089 79.4091 24.4762 79.571 24.0501 79.8949C23.6282 80.2187 23.3107 80.6534 23.0977 81.1989C22.8888 81.7443 22.7844 82.3494 22.7844 83.0142C22.7844 83.696 22.891 84.299 23.104 84.8232C23.3214 85.343 23.641 85.7521 24.0629 86.0504C24.489 86.3445 25.0174 86.4915 25.6481 86.4915ZM33.8043 88.1023C33.489 88.1023 33.2184 87.9893 32.9925 87.7635C32.7667 87.5376 32.6538 87.267 32.6538 86.9517C32.6538 86.6364 32.7667 86.3658 32.9925 86.1399C33.2184 85.9141 33.489 85.8011 33.8043 85.8011C34.1197 85.8011 34.3903 85.9141 34.6161 86.1399C34.842 86.3658 34.9549 86.6364 34.9549 86.9517C34.9549 87.1605 34.9016 87.3523 34.7951 87.527C34.6928 87.7017 34.5543 87.8423 34.3796 87.9489C34.2092 88.0511 34.0174 88.1023 33.8043 88.1023ZM33.8043 80.8153C33.489 80.8153 33.2184 80.7024 32.9925 80.4766C32.7667 80.2507 32.6538 79.9801 32.6538 79.6648C32.6538 79.3494 32.7667 79.0788 32.9925 78.853C33.2184 78.6271 33.489 78.5142 33.8043 78.5142C34.1197 78.5142 34.3903 78.6271 34.6161 78.853C34.842 79.0788 34.9549 79.3494 34.9549 79.6648C34.9549 79.8736 34.9016 80.0653 34.7951 80.2401C34.6928 80.4148 34.5543 80.5554 34.3796 80.6619C34.2092 80.7642 34.0174 80.8153 33.8043 80.8153Z" fill="#333333"/>
<path d="M57.6307 81.4545C57.6307 82.8352 57.3814 84.0284 56.8828 85.0341C56.3842 86.0398 55.7003 86.8153 54.831 87.3608C53.9616 87.9062 52.9688 88.179 51.8523 88.179C50.7358 88.179 49.7429 87.9062 48.8736 87.3608C48.0043 86.8153 47.3203 86.0398 46.8217 85.0341C46.3232 84.0284 46.0739 82.8352 46.0739 81.4545C46.0739 80.0739 46.3232 78.8807 46.8217 77.875C47.3203 76.8693 48.0043 76.0938 48.8736 75.5483C49.7429 75.0028 50.7358 74.7301 51.8523 74.7301C52.9688 74.7301 53.9616 75.0028 54.831 75.5483C55.7003 76.0938 56.3842 76.8693 56.8828 77.875C57.3814 78.8807 57.6307 80.0739 57.6307 81.4545ZM56.0966 81.4545C56.0966 80.321 55.907 79.3643 55.5277 78.5845C55.1527 77.8047 54.6435 77.2145 54 76.8139C53.3608 76.4134 52.6449 76.2131 51.8523 76.2131C51.0597 76.2131 50.3416 76.4134 49.6982 76.8139C49.0589 77.2145 48.5497 77.8047 48.1705 78.5845C47.7955 79.3643 47.608 80.321 47.608 81.4545C47.608 82.5881 47.7955 83.5447 48.1705 84.3246C48.5497 85.1044 49.0589 85.6946 49.6982 86.0952C50.3416 86.4957 51.0597 86.696 51.8523 86.696C52.6449 86.696 53.3608 86.4957 54 86.0952C54.6435 85.6946 55.1527 85.1044 55.5277 84.3246C55.907 83.5447 56.0966 82.5881 56.0966 81.4545ZM66.2791 83.9858V78.1818H67.7876V88H66.2791V86.3381H66.1768C65.9467 86.8366 65.5888 87.2607 65.103 87.6101C64.6172 87.9553 64.0036 88.1278 63.2621 88.1278C62.6484 88.1278 62.103 87.9936 61.6257 87.7251C61.1484 87.4524 60.7734 87.0433 60.5007 86.4979C60.228 85.9482 60.0916 85.2557 60.0916 84.4205V78.1818H61.6001V84.3182C61.6001 85.0341 61.8004 85.6051 62.201 86.0312C62.6058 86.4574 63.1214 86.6705 63.7479 86.6705C64.1229 86.6705 64.5043 86.5746 64.892 86.3828C65.2841 86.1911 65.6122 85.897 65.8764 85.5007C66.1449 85.1044 66.2791 84.5994 66.2791 83.9858ZM70.5506 88V78.1818H72.008V79.6648H72.1103C72.2892 79.179 72.6131 78.7848 73.0819 78.4822C73.5506 78.1797 74.079 78.0284 74.6671 78.0284C74.7779 78.0284 74.9164 78.0305 75.0826 78.0348C75.2488 78.0391 75.3745 78.0455 75.4597 78.054V79.5881C75.4086 79.5753 75.2914 79.5561 75.1081 79.5305C74.9292 79.5007 74.7395 79.4858 74.5392 79.4858C74.062 79.4858 73.6358 79.5859 73.2608 79.7862C72.8901 79.9822 72.5961 80.255 72.3787 80.6044C72.1657 80.9496 72.0591 81.3437 72.0591 81.7869V88H70.5506ZM89.674 78.1818C89.5973 77.5341 89.2862 77.0312 88.7408 76.6733C88.1953 76.3153 87.5263 76.1364 86.7337 76.1364C86.1541 76.1364 85.647 76.2301 85.2124 76.4176C84.782 76.6051 84.4453 76.8629 84.2024 77.1911C83.9638 77.5192 83.8445 77.892 83.8445 78.3097C83.8445 78.6591 83.9276 78.9595 84.0938 79.2109C84.2642 79.4581 84.4815 79.6648 84.7457 79.831C85.0099 79.9929 85.2869 80.1271 85.5767 80.2337C85.8665 80.3359 86.1328 80.419 86.3757 80.483L87.7053 80.8409C88.0462 80.9304 88.4254 81.054 88.843 81.2116C89.2649 81.3693 89.6676 81.5845 90.0511 81.8572C90.4389 82.1257 90.7585 82.4709 91.0099 82.8928C91.2614 83.3146 91.3871 83.8324 91.3871 84.446C91.3871 85.1534 91.2017 85.7926 90.831 86.3636C90.4645 86.9347 89.9276 87.3885 89.2202 87.7251C88.517 88.0618 87.6626 88.2301 86.657 88.2301C85.7195 88.2301 84.9077 88.0788 84.2216 87.7763C83.5398 87.4737 83.0028 87.0518 82.6108 86.5107C82.223 85.9695 82.0036 85.3409 81.9524 84.625H83.5888C83.6314 85.1193 83.7976 85.5284 84.0874 85.8523C84.3814 86.1719 84.7521 86.4105 85.1996 86.5682C85.6513 86.7216 86.1371 86.7983 86.657 86.7983C87.2621 86.7983 87.8054 86.7003 88.2869 86.5043C88.7685 86.304 89.1499 86.027 89.4311 85.6733C89.7124 85.3153 89.853 84.8977 89.853 84.4205C89.853 83.9858 89.7315 83.6321 89.4886 83.3594C89.2457 83.0866 88.9261 82.8651 88.5298 82.6946C88.1335 82.5241 87.7053 82.375 87.245 82.2472L85.6342 81.7869C84.6115 81.4929 83.8018 81.0732 83.2053 80.5277C82.6087 79.9822 82.3104 79.2685 82.3104 78.3864C82.3104 77.6534 82.5085 77.0142 82.9048 76.4688C83.3054 75.919 83.8423 75.4929 84.5156 75.1903C85.1932 74.8835 85.9496 74.7301 86.7848 74.7301C87.6286 74.7301 88.3786 74.8814 89.0348 75.1839C89.6911 75.4822 90.2109 75.8913 90.5945 76.4112C90.9822 76.9311 91.1868 77.5213 91.2081 78.1818H89.674ZM95.2974 82.0938V88H93.7889V74.9091H95.2974V79.7159H95.4252C95.6554 79.2088 96.0005 78.8061 96.4608 78.5078C96.9252 78.2053 97.5431 78.054 98.3145 78.054C98.9835 78.054 99.5694 78.1882 100.072 78.4567C100.575 78.7209 100.965 79.1278 101.242 79.6776C101.523 80.223 101.664 80.9176 101.664 81.7614V88H100.155V81.8636C100.155 81.0838 99.9529 80.4808 99.5481 80.0547C99.1475 79.6243 98.5914 79.4091 97.8798 79.4091C97.3855 79.4091 96.9423 79.5135 96.5502 79.7223C96.1625 79.9311 95.8556 80.2358 95.6298 80.6364C95.4082 81.0369 95.2974 81.5227 95.2974 82.0938ZM108.412 88.2045C107.526 88.2045 106.748 87.9936 106.079 87.5717C105.414 87.1499 104.895 86.5597 104.52 85.8011C104.149 85.0426 103.963 84.1562 103.963 83.142C103.963 82.1193 104.149 81.2266 104.52 80.4638C104.895 79.701 105.414 79.1087 106.079 78.6868C106.748 78.2649 107.526 78.054 108.412 78.054C109.299 78.054 110.074 78.2649 110.739 78.6868C111.408 79.1087 111.928 79.701 112.299 80.4638C112.674 81.2266 112.861 82.1193 112.861 83.142C112.861 84.1562 112.674 85.0426 112.299 85.8011C111.928 86.5597 111.408 87.1499 110.739 87.5717C110.074 87.9936 109.299 88.2045 108.412 88.2045ZM108.412 86.8494C109.086 86.8494 109.64 86.6768 110.074 86.3317C110.509 85.9865 110.831 85.5327 111.039 84.9702C111.248 84.4077 111.353 83.7983 111.353 83.142C111.353 82.4858 111.248 81.8743 111.039 81.3075C110.831 80.7408 110.509 80.2827 110.074 79.9332C109.64 79.5838 109.086 79.4091 108.412 79.4091C107.739 79.4091 107.185 79.5838 106.75 79.9332C106.316 80.2827 105.994 80.7408 105.785 81.3075C105.576 81.8743 105.472 82.4858 105.472 83.142C105.472 83.7983 105.576 84.4077 105.785 84.9702C105.994 85.5327 106.316 85.9865 106.75 86.3317C107.185 86.6768 107.739 86.8494 108.412 86.8494ZM115.164 91.6818V78.1818H116.621V79.7415H116.8C116.911 79.571 117.064 79.3537 117.26 79.0895C117.461 78.821 117.746 78.5824 118.117 78.3736C118.492 78.1605 118.999 78.054 119.638 78.054C120.465 78.054 121.194 78.2607 121.824 78.674C122.455 79.0874 122.947 79.6733 123.301 80.4318C123.655 81.1903 123.831 82.0852 123.831 83.1165C123.831 84.1562 123.655 85.0575 123.301 85.8203C122.947 86.5788 122.457 87.1669 121.831 87.5845C121.204 87.9979 120.482 88.2045 119.664 88.2045C119.033 88.2045 118.528 88.1001 118.149 87.8913C117.77 87.6783 117.478 87.4375 117.273 87.169C117.069 86.8963 116.911 86.6705 116.8 86.4915H116.672V91.6818H115.164ZM116.647 83.0909C116.647 83.8324 116.756 84.4865 116.973 85.0533C117.19 85.6158 117.508 86.0568 117.925 86.3764C118.343 86.6918 118.854 86.8494 119.459 86.8494C120.09 86.8494 120.616 86.6832 121.038 86.3509C121.464 86.0142 121.784 85.5625 121.997 84.9957C122.214 84.4247 122.323 83.7898 122.323 83.0909C122.323 82.4006 122.216 81.7784 122.003 81.2244C121.795 80.6662 121.477 80.2251 121.051 79.9013C120.629 79.5732 120.099 79.4091 119.459 79.4091C118.846 79.4091 118.33 79.5646 117.912 79.8757C117.495 80.1825 117.18 80.6129 116.966 81.1669C116.753 81.7166 116.647 82.358 116.647 83.0909Z" fill="#4F4F4F"/>
<path d="M30.1222 20H28.4602L33.267 6.90909H34.9034L39.7102 20H38.0483L34.1364 8.98011H34.0341L30.1222 20ZM30.7358 14.8864H37.4347V16.2926H30.7358V14.8864ZM45.2521 20.2045C44.4339 20.2045 43.7116 19.9979 43.0852 19.5845C42.4588 19.1669 41.9688 18.5788 41.6151 17.8203C41.2614 17.0575 41.0845 16.1562 41.0845 15.1165C41.0845 14.0852 41.2614 13.1903 41.6151 12.4318C41.9688 11.6733 42.4609 11.0874 43.0916 10.674C43.7223 10.2607 44.451 10.054 45.2777 10.054C45.9169 10.054 46.4219 10.1605 46.7926 10.3736C47.1676 10.5824 47.4531 10.821 47.6491 11.0895C47.8494 11.3537 48.005 11.571 48.1158 11.7415H48.2436V6.90909H49.7521V20H48.2947V18.4915H48.1158C48.005 18.6705 47.8473 18.8963 47.6428 19.169C47.4382 19.4375 47.1463 19.6783 46.767 19.8913C46.3878 20.1001 45.8828 20.2045 45.2521 20.2045ZM45.4567 18.8494C46.0618 18.8494 46.5732 18.6918 46.9908 18.3764C47.4084 18.0568 47.7259 17.6158 47.9432 17.0533C48.1605 16.4865 48.2692 15.8324 48.2692 15.0909C48.2692 14.358 48.1626 13.7166 47.9496 13.1669C47.7365 12.6129 47.4212 12.1825 47.0036 11.8757C46.5859 11.5646 46.0703 11.4091 45.4567 11.4091C44.8175 11.4091 44.2848 11.5732 43.8587 11.9013C43.4368 12.2251 43.1193 12.6662 42.9062 13.2244C42.6974 13.7784 42.593 14.4006 42.593 15.0909C42.593 15.7898 42.6996 16.4247 42.9126 16.9957C43.13 17.5625 43.4496 18.0142 43.8714 18.3509C44.2976 18.6832 44.826 18.8494 45.4567 18.8494ZM56.4318 20.2045C55.6136 20.2045 54.8913 19.9979 54.2649 19.5845C53.6385 19.1669 53.1484 18.5788 52.7947 17.8203C52.4411 17.0575 52.2642 16.1562 52.2642 15.1165C52.2642 14.0852 52.4411 13.1903 52.7947 12.4318C53.1484 11.6733 53.6406 11.0874 54.2713 10.674C54.902 10.2607 55.6307 10.054 56.4574 10.054C57.0966 10.054 57.6016 10.1605 57.9723 10.3736C58.3473 10.5824 58.6328 10.821 58.8288 11.0895C59.0291 11.3537 59.1847 11.571 59.2955 11.7415H59.4233V6.90909H60.9318V20H59.4744V18.4915H59.2955C59.1847 18.6705 59.027 18.8963 58.8224 19.169C58.6179 19.4375 58.326 19.6783 57.9467 19.8913C57.5675 20.1001 57.0625 20.2045 56.4318 20.2045ZM56.6364 18.8494C57.2415 18.8494 57.7528 18.6918 58.1705 18.3764C58.5881 18.0568 58.9055 17.6158 59.1229 17.0533C59.3402 16.4865 59.4489 15.8324 59.4489 15.0909C59.4489 14.358 59.3423 13.7166 59.1293 13.1669C58.9162 12.6129 58.6009 12.1825 58.1832 11.8757C57.7656 11.5646 57.25 11.4091 56.6364 11.4091C55.9972 11.4091 55.4645 11.5732 55.0384 11.9013C54.6165 12.2251 54.299 12.6662 54.0859 13.2244C53.8771 13.7784 53.7727 14.4006 53.7727 15.0909C53.7727 15.7898 53.8793 16.4247 54.0923 16.9957C54.3097 17.5625 54.6293 18.0142 55.0511 18.3509C55.4773 18.6832 56.0057 18.8494 56.6364 18.8494ZM73.2365 10.1818V11.4602H68.1484V10.1818H73.2365ZM69.6314 7.82955H71.1399V17.1875C71.1399 17.6136 71.2017 17.9332 71.3253 18.1463C71.4531 18.3551 71.6151 18.4957 71.8111 18.5682C72.0114 18.6364 72.2223 18.6705 72.4439 18.6705C72.6101 18.6705 72.7464 18.6619 72.853 18.6449C72.9595 18.6236 73.0447 18.6065 73.1087 18.5938L73.4155 19.9489C73.3132 19.9872 73.1705 20.0256 72.9872 20.0639C72.804 20.1065 72.5717 20.1278 72.2905 20.1278C71.8643 20.1278 71.4467 20.0362 71.0376 19.853C70.6328 19.6697 70.2962 19.3906 70.0277 19.0156C69.7635 18.6406 69.6314 18.1676 69.6314 17.5966V7.82955ZM79.3888 20.2045C78.5025 20.2045 77.7248 19.9936 77.0558 19.5717C76.391 19.1499 75.8711 18.5597 75.4961 17.8011C75.1254 17.0426 74.94 16.1562 74.94 15.142C74.94 14.1193 75.1254 13.2266 75.4961 12.4638C75.8711 11.701 76.391 11.1087 77.0558 10.6868C77.7248 10.2649 78.5025 10.054 79.3888 10.054C80.2752 10.054 81.0508 10.2649 81.7156 10.6868C82.3846 11.1087 82.9045 11.701 83.2752 12.4638C83.6502 13.2266 83.8377 14.1193 83.8377 15.142C83.8377 16.1562 83.6502 17.0426 83.2752 17.8011C82.9045 18.5597 82.3846 19.1499 81.7156 19.5717C81.0508 19.9936 80.2752 20.2045 79.3888 20.2045ZM79.3888 18.8494C80.0621 18.8494 80.6161 18.6768 81.0508 18.3317C81.4854 17.9865 81.8072 17.5327 82.016 16.9702C82.2248 16.4077 82.3292 15.7983 82.3292 15.142C82.3292 14.4858 82.2248 13.8743 82.016 13.3075C81.8072 12.7408 81.4854 12.2827 81.0508 11.9332C80.6161 11.5838 80.0621 11.4091 79.3888 11.4091C78.7156 11.4091 78.1616 11.5838 77.7269 11.9332C77.2923 12.2827 76.9705 12.7408 76.7617 13.3075C76.5529 13.8743 76.4485 14.4858 76.4485 15.142C76.4485 15.7983 76.5529 16.4077 76.7617 16.9702C76.9705 17.5327 77.2923 17.9865 77.7269 18.3317C78.1616 18.6768 78.7156 18.8494 79.3888 18.8494ZM93.7853 20L90.2058 6.90909H91.8166L94.5524 17.571H94.6802L97.4672 6.90909H99.2569L102.044 17.571H102.172L104.907 6.90909H106.518L102.939 20H101.302L98.4132 9.56818H98.3109L95.4217 20H93.7853ZM108.289 20V10.1818H109.797V20H108.289ZM109.056 8.54545C108.762 8.54545 108.508 8.44531 108.295 8.24503C108.086 8.04474 107.982 7.80398 107.982 7.52273C107.982 7.24148 108.086 7.00071 108.295 6.80043C108.508 6.60014 108.762 6.5 109.056 6.5C109.35 6.5 109.601 6.60014 109.81 6.80043C110.023 7.00071 110.13 7.24148 110.13 7.52273C110.13 7.80398 110.023 8.04474 109.81 8.24503C109.601 8.44531 109.35 8.54545 109.056 8.54545ZM119.515 12.3807L118.16 12.7642C118.075 12.5384 117.949 12.3189 117.783 12.1058C117.621 11.8885 117.399 11.7095 117.118 11.5689C116.837 11.4283 116.477 11.358 116.038 11.358C115.437 11.358 114.936 11.4964 114.536 11.7734C114.139 12.0462 113.941 12.3935 113.941 12.8153C113.941 13.1903 114.077 13.4865 114.35 13.7038C114.623 13.9212 115.049 14.1023 115.629 14.2472L117.086 14.6051C117.964 14.8182 118.618 15.1442 119.048 15.5831C119.479 16.0178 119.694 16.5781 119.694 17.2642C119.694 17.8267 119.532 18.3295 119.208 18.7727C118.888 19.2159 118.441 19.5653 117.866 19.821C117.29 20.0767 116.621 20.2045 115.859 20.2045C114.857 20.2045 114.028 19.9872 113.372 19.5526C112.716 19.1179 112.3 18.483 112.126 17.6477L113.558 17.2898C113.694 17.8182 113.952 18.2145 114.331 18.4787C114.714 18.7429 115.215 18.875 115.833 18.875C116.536 18.875 117.094 18.7259 117.508 18.4276C117.925 18.125 118.134 17.7628 118.134 17.3409C118.134 17 118.015 16.7145 117.776 16.4844C117.538 16.25 117.171 16.0753 116.677 15.9602L115.04 15.5767C114.141 15.3636 113.481 15.0334 113.059 14.5859C112.641 14.1342 112.433 13.5696 112.433 12.892C112.433 12.3381 112.588 11.848 112.899 11.4219C113.214 10.9957 113.643 10.6612 114.184 10.4183C114.729 10.1754 115.347 10.054 116.038 10.054C117.009 10.054 117.772 10.267 118.326 10.6932C118.884 11.1193 119.281 11.6818 119.515 12.3807ZM123.473 14.0938V20H121.965V6.90909H123.473V11.7159H123.601C123.831 11.2088 124.176 10.8061 124.637 10.5078C125.101 10.2053 125.719 10.054 126.49 10.054C127.159 10.054 127.745 10.1882 128.248 10.4567C128.751 10.7209 129.141 11.1278 129.418 11.6776C129.699 12.223 129.84 12.9176 129.84 13.7614V20H128.331V13.8636C128.331 13.0838 128.129 12.4808 127.724 12.0547C127.323 11.6243 126.767 11.4091 126.056 11.4091C125.561 11.4091 125.118 11.5135 124.726 11.7223C124.338 11.9311 124.031 12.2358 123.806 12.6364C123.584 13.0369 123.473 13.5227 123.473 14.0938ZM134.108 6.90909V20H132.599V6.90909H134.108ZM136.871 20V10.1818H138.379V20H136.871ZM137.638 8.54545C137.344 8.54545 137.09 8.44531 136.877 8.24503C136.669 8.04474 136.564 7.80398 136.564 7.52273C136.564 7.24148 136.669 7.00071 136.877 6.80043C137.09 6.60014 137.344 6.5 137.638 6.5C137.932 6.5 138.183 6.60014 138.392 6.80043C138.605 7.00071 138.712 7.24148 138.712 7.52273C138.712 7.80398 138.605 8.04474 138.392 8.24503C138.183 8.44531 137.932 8.54545 137.638 8.54545ZM148.097 12.3807L146.742 12.7642C146.657 12.5384 146.531 12.3189 146.365 12.1058C146.203 11.8885 145.981 11.7095 145.7 11.5689C145.419 11.4283 145.059 11.358 144.62 11.358C144.019 11.358 143.518 11.4964 143.118 11.7734C142.721 12.0462 142.523 12.3935 142.523 12.8153C142.523 13.1903 142.659 13.4865 142.932 13.7038C143.205 13.9212 143.631 14.1023 144.211 14.2472L145.668 14.6051C146.546 14.8182 147.2 15.1442 147.63 15.5831C148.061 16.0178 148.276 16.5781 148.276 17.2642C148.276 17.8267 148.114 18.3295 147.79 18.7727C147.471 19.2159 147.023 19.5653 146.448 19.821C145.873 20.0767 145.203 20.2045 144.441 20.2045C143.439 20.2045 142.61 19.9872 141.954 19.5526C141.298 19.1179 140.882 18.483 140.708 17.6477L142.14 17.2898C142.276 17.8182 142.534 18.2145 142.913 18.4787C143.297 18.7429 143.797 18.875 144.415 18.875C145.118 18.875 145.676 18.7259 146.09 18.4276C146.507 18.125 146.716 17.7628 146.716 17.3409C146.716 17 146.597 16.7145 146.358 16.4844C146.12 16.25 145.753 16.0753 145.259 15.9602L143.623 15.5767C142.723 15.3636 142.063 15.0334 141.641 14.5859C141.223 14.1342 141.015 13.5696 141.015 12.892C141.015 12.3381 141.17 11.848 141.481 11.4219C141.797 10.9957 142.225 10.6612 142.766 10.4183C143.311 10.1754 143.929 10.054 144.62 10.054C145.591 10.054 146.354 10.267 146.908 10.6932C147.466 11.1193 147.863 11.6818 148.097 12.3807ZM154.817 10.1818V11.4602H149.729V10.1818H154.817ZM151.211 7.82955H152.72V17.1875C152.72 17.6136 152.782 17.9332 152.905 18.1463C153.033 18.3551 153.195 18.4957 153.391 18.5682C153.591 18.6364 153.802 18.6705 154.024 18.6705C154.19 18.6705 154.327 18.6619 154.433 18.6449C154.54 18.6236 154.625 18.6065 154.689 18.5938L154.996 19.9489C154.893 19.9872 154.751 20.0256 154.567 20.0639C154.384 20.1065 154.152 20.1278 153.871 20.1278C153.444 20.1278 153.027 20.0362 152.618 19.853C152.213 19.6697 151.876 19.3906 151.608 19.0156C151.344 18.6406 151.211 18.1676 151.211 17.5966V7.82955Z" fill="#4F4F4F"/>
<path d="M212.119 11H210.534C210.44 10.544 210.276 10.1435 210.042 9.7983C209.812 9.45312 209.531 9.16335 209.198 8.92898C208.87 8.69034 208.506 8.51136 208.105 8.39205C207.705 8.27273 207.287 8.21307 206.852 8.21307C206.06 8.21307 205.342 8.41335 204.698 8.81392C204.059 9.21449 203.55 9.80469 203.17 10.5845C202.795 11.3643 202.608 12.321 202.608 13.4545C202.608 14.5881 202.795 15.5447 203.17 16.3246C203.55 17.1044 204.059 17.6946 204.698 18.0952C205.342 18.4957 206.06 18.696 206.852 18.696C207.287 18.696 207.705 18.6364 208.105 18.517C208.506 18.3977 208.87 18.2209 209.198 17.9865C209.531 17.7479 209.812 17.456 210.042 17.1108C210.276 16.7614 210.44 16.3608 210.534 15.9091H212.119C212 16.5781 211.783 17.1768 211.467 17.7053C211.152 18.2337 210.76 18.6832 210.291 19.054C209.822 19.4205 209.296 19.6996 208.712 19.8913C208.133 20.0831 207.513 20.179 206.852 20.179C205.736 20.179 204.743 19.9062 203.874 19.3608C203.004 18.8153 202.32 18.0398 201.822 17.0341C201.323 16.0284 201.074 14.8352 201.074 13.4545C201.074 12.0739 201.323 10.8807 201.822 9.875C202.32 8.86932 203.004 8.09375 203.874 7.5483C204.743 7.00284 205.736 6.73011 206.852 6.73011C207.513 6.73011 208.133 6.82599 208.712 7.01776C209.296 7.20952 209.822 7.49077 210.291 7.86151C210.76 8.22798 211.152 8.67543 211.467 9.20384C211.783 9.72798 212 10.3267 212.119 11ZM218.465 20.2045C217.579 20.2045 216.801 19.9936 216.132 19.5717C215.467 19.1499 214.947 18.5597 214.572 17.8011C214.202 17.0426 214.016 16.1562 214.016 15.142C214.016 14.1193 214.202 13.2266 214.572 12.4638C214.947 11.701 215.467 11.1087 216.132 10.6868C216.801 10.2649 217.579 10.054 218.465 10.054C219.351 10.054 220.127 10.2649 220.792 10.6868C221.461 11.1087 221.981 11.701 222.351 12.4638C222.726 13.2266 222.914 14.1193 222.914 15.142C222.914 16.1562 222.726 17.0426 222.351 17.8011C221.981 18.5597 221.461 19.1499 220.792 19.5717C220.127 19.9936 219.351 20.2045 218.465 20.2045ZM218.465 18.8494C219.138 18.8494 219.692 18.6768 220.127 18.3317C220.562 17.9865 220.883 17.5327 221.092 16.9702C221.301 16.4077 221.405 15.7983 221.405 15.142C221.405 14.4858 221.301 13.8743 221.092 13.3075C220.883 12.7408 220.562 12.2827 220.127 11.9332C219.692 11.5838 219.138 11.4091 218.465 11.4091C217.792 11.4091 217.238 11.5838 216.803 11.9332C216.368 12.2827 216.047 12.7408 215.838 13.3075C215.629 13.8743 215.525 14.4858 215.525 15.142C215.525 15.7983 215.629 16.4077 215.838 16.9702C216.047 17.5327 216.368 17.9865 216.803 18.3317C217.238 18.6768 217.792 18.8494 218.465 18.8494ZM225.217 20V10.1818H226.674V11.7159H226.802C227.006 11.1918 227.337 10.7848 227.793 10.495C228.249 10.201 228.796 10.054 229.435 10.054C230.083 10.054 230.622 10.201 231.053 10.495C231.487 10.7848 231.826 11.1918 232.069 11.7159H232.171C232.423 11.2088 232.8 10.8061 233.303 10.5078C233.805 10.2053 234.408 10.054 235.112 10.054C235.989 10.054 236.707 10.3288 237.266 10.8786C237.824 11.424 238.103 12.2741 238.103 13.429V20H236.594V13.429C236.594 12.7045 236.396 12.1868 236 11.8757C235.604 11.5646 235.137 11.4091 234.6 11.4091C233.91 11.4091 233.375 11.6179 232.996 12.0355C232.616 12.4489 232.427 12.973 232.427 13.608V20H230.893V13.2756C230.893 12.7173 230.712 12.2678 230.349 11.9268C229.987 11.5817 229.521 11.4091 228.95 11.4091C228.558 11.4091 228.191 11.5135 227.85 11.7223C227.513 11.9311 227.241 12.2209 227.032 12.5916C226.827 12.9581 226.725 13.3821 226.725 13.8636V20H225.217ZM240.861 23.6818V10.1818H242.319V11.7415H242.498C242.608 11.571 242.762 11.3537 242.958 11.0895C243.158 10.821 243.444 10.5824 243.814 10.3736C244.189 10.1605 244.696 10.054 245.336 10.054C246.162 10.054 246.891 10.2607 247.522 10.674C248.152 11.0874 248.645 11.6733 248.998 12.4318C249.352 13.1903 249.529 14.0852 249.529 15.1165C249.529 16.1562 249.352 17.0575 248.998 17.8203C248.645 18.5788 248.154 19.1669 247.528 19.5845C246.902 19.9979 246.179 20.2045 245.361 20.2045C244.73 20.2045 244.225 20.1001 243.846 19.8913C243.467 19.6783 243.175 19.4375 242.971 19.169C242.766 18.8963 242.608 18.6705 242.498 18.4915H242.37V23.6818H240.861ZM242.344 15.0909C242.344 15.8324 242.453 16.4865 242.67 17.0533C242.887 17.6158 243.205 18.0568 243.623 18.3764C244.04 18.6918 244.551 18.8494 245.157 18.8494C245.787 18.8494 246.314 18.6832 246.735 18.3509C247.162 18.0142 247.481 17.5625 247.694 16.9957C247.912 16.4247 248.02 15.7898 248.02 15.0909C248.02 14.4006 247.914 13.7784 247.701 13.2244C247.492 12.6662 247.174 12.2251 246.748 11.9013C246.326 11.5732 245.796 11.4091 245.157 11.4091C244.543 11.4091 244.027 11.5646 243.61 11.8757C243.192 12.1825 242.877 12.6129 242.664 13.1669C242.451 13.7166 242.344 14.358 242.344 15.0909ZM254.719 20.2301C254.097 20.2301 253.532 20.1129 253.025 19.8786C252.518 19.6399 252.115 19.2969 251.817 18.8494C251.519 18.3977 251.37 17.8523 251.37 17.2131C251.37 16.6506 251.48 16.1946 251.702 15.8452C251.924 15.4915 252.22 15.2145 252.591 15.0142C252.961 14.8139 253.37 14.6648 253.818 14.5668C254.27 14.4645 254.723 14.3835 255.179 14.3239C255.776 14.2472 256.26 14.1896 256.63 14.1513C257.005 14.1087 257.278 14.0384 257.449 13.9403C257.623 13.8423 257.711 13.6719 257.711 13.429V13.3778C257.711 12.7472 257.538 12.2571 257.193 11.9077C256.852 11.5582 256.334 11.3835 255.64 11.3835C254.919 11.3835 254.355 11.5412 253.946 11.8565C253.537 12.1719 253.249 12.5085 253.083 12.8665L251.651 12.3551C251.907 11.7585 252.248 11.294 252.674 10.9616C253.104 10.625 253.573 10.3906 254.08 10.2585C254.591 10.1222 255.094 10.054 255.588 10.054C255.904 10.054 256.266 10.0923 256.675 10.169C257.088 10.2415 257.487 10.3928 257.87 10.6229C258.258 10.853 258.58 11.2003 258.836 11.6648C259.091 12.1293 259.219 12.7514 259.219 13.5312V20H257.711V18.6705H257.634C257.532 18.8835 257.361 19.1115 257.123 19.3544C256.884 19.5973 256.566 19.804 256.17 19.9744C255.774 20.1449 255.29 20.2301 254.719 20.2301ZM254.949 18.875C255.546 18.875 256.049 18.7578 256.458 18.5234C256.871 18.2891 257.182 17.9865 257.391 17.6158C257.604 17.245 257.711 16.8551 257.711 16.446V15.0653C257.647 15.142 257.506 15.2124 257.289 15.2763C257.076 15.3359 256.828 15.3892 256.547 15.4361C256.27 15.4787 256 15.517 255.735 15.5511C255.475 15.581 255.265 15.6065 255.103 15.6278C254.711 15.679 254.344 15.7621 254.003 15.8771C253.667 15.9879 253.394 16.1562 253.185 16.3821C252.98 16.6037 252.878 16.9062 252.878 17.2898C252.878 17.8139 253.072 18.2102 253.46 18.4787C253.852 18.7429 254.348 18.875 254.949 18.875ZM261.972 20V10.1818H263.43V11.6648H263.532C263.711 11.179 264.035 10.7848 264.504 10.4822C264.972 10.1797 265.501 10.0284 266.089 10.0284C266.2 10.0284 266.338 10.0305 266.504 10.0348C266.671 10.0391 266.796 10.0455 266.882 10.054V11.5881C266.83 11.5753 266.713 11.5561 266.53 11.5305C266.351 11.5007 266.161 11.4858 265.961 11.4858C265.484 11.4858 265.058 11.5859 264.683 11.7862C264.312 11.9822 264.018 12.255 263.801 12.6044C263.588 12.9496 263.481 13.3437 263.481 13.7869V20H261.972ZM272.487 20.2045C271.541 20.2045 270.725 19.9957 270.039 19.5781C269.357 19.1562 268.831 18.5682 268.46 17.8139C268.094 17.0554 267.911 16.1733 267.911 15.1676C267.911 14.1619 268.094 13.2756 268.46 12.5085C268.831 11.7372 269.347 11.1364 270.007 10.706C270.672 10.2713 271.448 10.054 272.334 10.054C272.845 10.054 273.35 10.1392 273.849 10.3097C274.347 10.4801 274.801 10.7571 275.21 11.1406C275.619 11.5199 275.945 12.0227 276.188 12.6491C276.431 13.2756 276.553 14.0469 276.553 14.9631V15.6023H268.985V14.2983H275.019C275.019 13.7443 274.908 13.25 274.686 12.8153C274.469 12.3807 274.158 12.0376 273.753 11.7862C273.352 11.5348 272.879 11.4091 272.334 11.4091C271.733 11.4091 271.213 11.5582 270.774 11.8565C270.34 12.1506 270.005 12.5341 269.771 13.0071C269.536 13.4801 269.419 13.9872 269.419 14.5284V15.3977C269.419 16.1392 269.547 16.7678 269.803 17.2834C270.063 17.7947 270.423 18.1847 270.883 18.4531C271.343 18.7173 271.878 18.8494 272.487 18.8494C272.884 18.8494 273.242 18.794 273.561 18.6832C273.885 18.5682 274.164 18.3977 274.399 18.1719C274.633 17.9418 274.814 17.6562 274.942 17.3153L276.399 17.7244C276.246 18.2188 275.988 18.6534 275.626 19.0284C275.264 19.3991 274.816 19.6889 274.284 19.8977C273.751 20.1023 273.152 20.2045 272.487 20.2045Z" fill="#4F4F4F"/>
<path d="M10 19.875C10 19.875 2.1875 15.5 2.1875 10.1875C2.18766 9.24855 2.51301 8.33863 3.10824 7.61244C3.70347 6.88626 4.53183 6.38863 5.45249 6.20418C6.37315 6.01972 7.32928 6.15982 8.15832 6.60066C8.98736 7.04149 9.63814 7.75585 10 8.62227L9.99999 8.62228C10.3619 7.75585 11.0126 7.04149 11.8417 6.60066C12.6707 6.15983 13.6268 6.01973 14.5475 6.20418C15.4682 6.38863 16.2965 6.88625 16.8918 7.61244C17.487 8.33863 17.8123 9.24855 17.8125 10.1875C17.8125 15.5 10 19.875 10 19.875Z" stroke="#4F4F4F" stroke-width="1.5" stroke-linecap="round" stroke-linejoin="round"/>
<path d="M187.312 19.875C188.521 19.875 189.5 18.8956 189.5 17.6875C189.5 16.4794 188.521 15.5 187.312 15.5C186.104 15.5 185.125 16.4794 185.125 17.6875C185.125 18.8956 186.104 19.875 187.312 19.875Z" stroke="#4F4F4F" stroke-width="1.5" stroke-linecap="round" stroke-linejoin="round"/>
<path d="M187.313 15.5L187.313 12.3657C187.313 11.3712 186.917 10.4174 186.214 9.71421L183.25 6.75" stroke="#4F4F4F" stroke-width="1.5" stroke-linecap="round" stroke-linejoin="round"/>
<path d="M183.25 9.875V6.75H186.375" stroke="#4F4F4F" stroke-width="1.5" stroke-linecap="round" stroke-linejoin="round"/>
<path d="M176.688 10.5C177.896 10.5 178.875 9.52062 178.875 8.3125C178.875 7.10438 177.896 6.125 176.688 6.125C175.479 6.125 174.5 7.10438 174.5 8.3125C174.5 9.52062 175.479 10.5 176.688 10.5Z" stroke="#4F4F4F" stroke-width="1.5" stroke-linecap="round" stroke-linejoin="round"/>
<path d="M176.688 10.5L176.688 13.6343C176.688 14.6288 177.083 15.5826 177.786 16.2858L180.75 19.25" stroke="#4F4F4F" stroke-width="1.5" stroke-linecap="round" stroke-linejoin="round"/>
<path d="M180.75 16.125V19.25H177.625" stroke="#4F4F4F" stroke-width="1.5" stroke-linecap="round" stroke-linejoin="round"/>
<defs>
<clipPath id="clip0_9030_9211">
<rect width="24" height="24" fill="white" transform="translate(106 119)"/>
</clipPath>
<clipPath id="clip1_9030_9211">
<rect width="24" height="24" fill="white" transform="translate(226 119)"/>
</clipPath>
<clipPath id="clip2_9030_9211">
<rect width="24" height="24" fill="white" transform="translate(146 119)"/>
</clipPath>
<clipPath id="clip3_9030_9211">
<rect width="24" height="24" fill="white" transform="translate(66 119)"/>
</clipPath>
<clipPath id="clip4_9030_9211">
<rect width="24" height="24" fill="white" transform="translate(186 119)"/>
</clipPath>
</defs>
</svg>
