<svg width="308" height="47" viewBox="0 0 308 47" fill="none" xmlns="http://www.w3.org/2000/svg">
<path d="M244 0.494751H192V47H244V0.494751Z" fill="#FAF7F2"/>
<path d="M308 0.494751H256V47H308V0.494751Z" fill="#FAF7F2"/>
<path d="M286.684 24.7329H284.047V32.6079H280.531V24.7329H277.648V21.4985H280.531V19.0024C280.531 16.1899 282.219 14.6079 284.785 14.6079C286.016 14.6079 287.316 14.854 287.316 14.854V17.6313H285.875C284.469 17.6313 284.047 18.4751 284.047 19.3892V21.4985H287.176L286.684 24.7329Z" fill="#333333"/>
<path d="M52 0.494751H0V47H52V0.494751Z" fill="#FAF7F2"/>
<path d="M116 0.494751H64V47H116V0.494751Z" fill="#FAF7F2"/>
<path d="M180 0.494751H128V47H180V0.494751Z" fill="#FF9F0D"/>
<path d="M33.1367 19.9517C33.1367 20.1274 33.1367 20.2681 33.1367 20.4438C33.1367 25.3306 29.4453 30.9204 22.6602 30.9204C20.5508 30.9204 18.6172 30.3228 17 29.2681C17.2812 29.3032 17.5625 29.3384 17.8789 29.3384C19.6016 29.3384 21.1836 28.7407 22.4492 27.7563C20.832 27.7212 19.4609 26.6665 19.0039 25.1899C19.25 25.2251 19.4609 25.2603 19.707 25.2603C20.0234 25.2603 20.375 25.1899 20.6562 25.1196C18.9688 24.7681 17.7031 23.2915 17.7031 21.4985V21.4634C18.1953 21.7446 18.793 21.8853 19.3906 21.9204C18.3711 21.2524 17.7383 20.1274 17.7383 18.8618C17.7383 18.1587 17.9141 17.5259 18.2305 16.9985C20.0586 19.2134 22.8008 20.6899 25.8594 20.8657C25.7891 20.5845 25.7539 20.3032 25.7539 20.022C25.7539 17.9829 27.4062 16.3306 29.4453 16.3306C30.5 16.3306 31.4492 16.7524 32.1523 17.4907C32.9609 17.3149 33.7695 16.9985 34.4727 16.5767C34.1914 17.4556 33.6289 18.1587 32.8555 18.6157C33.5938 18.5454 34.332 18.3345 34.9648 18.0532C34.4727 18.7915 33.8398 19.4243 33.1367 19.9517Z" fill="#333333"/>
<path d="M99.6758 19.0024C100.098 20.479 100.098 23.6431 100.098 23.6431C100.098 23.6431 100.098 26.772 99.6758 28.2837C99.4648 29.1274 98.7969 29.7603 97.9883 29.9712C96.4766 30.3579 90.5 30.3579 90.5 30.3579C90.5 30.3579 84.4883 30.3579 82.9766 29.9712C82.168 29.7603 81.5 29.1274 81.2891 28.2837C80.8672 26.772 80.8672 23.6431 80.8672 23.6431C80.8672 23.6431 80.8672 20.479 81.2891 19.0024C81.5 18.1587 82.168 17.4907 82.9766 17.2798C84.4883 16.8579 90.5 16.8579 90.5 16.8579C90.5 16.8579 96.4766 16.8579 97.9883 17.2798C98.7969 17.4907 99.4648 18.1587 99.6758 19.0024ZM88.5312 26.4907L93.5234 23.6431L88.5312 20.7954V26.4907Z" fill="#333333"/>
<path d="M163.219 23.6079C163.219 28.4243 159.316 32.3267 154.5 32.3267C153.586 32.3267 152.707 32.2212 151.898 31.9399C152.25 31.3774 152.777 30.4282 152.988 29.6548C153.094 29.2681 153.516 27.5806 153.516 27.5806C153.797 28.1431 154.641 28.6001 155.52 28.6001C158.156 28.6001 160.055 26.1743 160.055 23.186C160.055 20.3032 157.699 18.1235 154.676 18.1235C150.914 18.1235 148.91 20.6548 148.91 23.397C148.91 24.6978 149.578 26.2798 150.668 26.8071C150.844 26.8774 150.949 26.8423 150.984 26.6665C150.984 26.561 151.16 25.9634 151.23 25.6821C151.23 25.6118 151.23 25.5063 151.16 25.436C150.809 25.0142 150.527 24.2056 150.527 23.4321C150.527 21.5337 151.969 19.6704 154.465 19.6704C156.574 19.6704 158.086 21.1118 158.086 23.2212C158.086 25.5767 156.891 27.1938 155.344 27.1938C154.5 27.1938 153.867 26.4907 154.043 25.647C154.289 24.5923 154.781 23.4673 154.781 22.729C154.781 22.061 154.43 21.4985 153.691 21.4985C152.812 21.4985 152.109 22.4126 152.109 23.6079C152.109 24.3813 152.355 24.9087 152.355 24.9087C152.355 24.9087 151.512 28.5649 151.336 29.2329C151.16 30.0063 151.23 31.061 151.301 31.729C148.066 30.4634 145.781 27.3345 145.781 23.6079C145.781 18.7915 149.684 14.8892 154.5 14.8892C159.316 14.8892 163.219 18.7915 163.219 23.6079Z" fill="white"/>
<path d="M215.875 19.5649C218.09 19.5649 219.918 21.3931 219.918 23.6079C219.918 25.8579 218.09 27.6509 215.875 27.6509C213.625 27.6509 211.832 25.8579 211.832 23.6079C211.832 21.3931 213.625 19.5649 215.875 19.5649ZM215.875 26.2446C217.316 26.2446 218.477 25.0845 218.477 23.6079C218.477 22.1665 217.316 21.0063 215.875 21.0063C214.398 21.0063 213.238 22.1665 213.238 23.6079C213.238 25.0845 214.434 26.2446 215.875 26.2446ZM221.008 19.4243C221.008 19.9517 220.586 20.3735 220.059 20.3735C219.531 20.3735 219.109 19.9517 219.109 19.4243C219.109 18.897 219.531 18.4751 220.059 18.4751C220.586 18.4751 221.008 18.897 221.008 19.4243ZM223.68 20.3735C223.75 21.6743 223.75 25.5767 223.68 26.8774C223.609 28.1431 223.328 29.2329 222.414 30.1821C221.5 31.0962 220.375 31.3774 219.109 31.4478C217.809 31.5181 213.906 31.5181 212.605 31.4478C211.34 31.3774 210.25 31.0962 209.301 30.1821C208.387 29.2329 208.105 28.1431 208.035 26.8774C207.965 25.5767 207.965 21.6743 208.035 20.3735C208.105 19.1079 208.387 17.9829 209.301 17.0688C210.25 16.1548 211.34 15.8735 212.605 15.8032C213.906 15.7329 217.809 15.7329 219.109 15.8032C220.375 15.8735 221.5 16.1548 222.414 17.0688C223.328 17.9829 223.609 19.1079 223.68 20.3735ZM221.992 28.2485C222.414 27.229 222.309 24.7681 222.309 23.6079C222.309 22.4829 222.414 20.022 221.992 18.9673C221.711 18.2993 221.184 17.7368 220.516 17.4907C219.461 17.0688 217 17.1743 215.875 17.1743C214.715 17.1743 212.254 17.0688 211.234 17.4907C210.531 17.772 210.004 18.2993 209.723 18.9673C209.301 20.022 209.406 22.4829 209.406 23.6079C209.406 24.7681 209.301 27.229 209.723 28.2485C210.004 28.9517 210.531 29.479 211.234 29.7603C212.254 30.1821 214.715 30.0767 215.875 30.0767C217 30.0767 219.461 30.1821 220.516 29.7603C221.184 29.479 221.746 28.9517 221.992 28.2485Z" fill="#333333"/>
</svg>
