<svg width="236" height="46" viewBox="0 0 236 46" fill="none" xmlns="http://www.w3.org/2000/svg">
<path d="M29.9659 16.9091V30H28.4318L21.2983 19.7216H21.1705V30H19.5852V16.9091H21.1193L28.2784 27.2131H28.4062V16.9091H29.9659ZM37.0499 30.2045C36.1039 30.2045 35.2878 29.9957 34.6017 29.5781C33.9199 29.1562 33.3936 28.5682 33.0229 27.8139C32.6564 27.0554 32.4732 26.1733 32.4732 25.1676C32.4732 24.1619 32.6564 23.2756 33.0229 22.5085C33.3936 21.7372 33.9093 21.1364 34.5698 20.706C35.2346 20.2713 36.0101 20.054 36.8965 20.054C37.4078 20.054 37.9128 20.1392 38.4114 20.3097C38.91 20.4801 39.3638 20.7571 39.7729 21.1406C40.182 21.5199 40.508 22.0227 40.7509 22.6491C40.9938 23.2756 41.1152 24.0469 41.1152 24.9631V25.6023H33.5471V24.2983H39.5811C39.5811 23.7443 39.4703 23.25 39.2488 22.8153C39.0314 22.3807 38.7203 22.0376 38.3155 21.7862C37.915 21.5348 37.4419 21.4091 36.8965 21.4091C36.2956 21.4091 35.7757 21.5582 35.3368 21.8565C34.9022 22.1506 34.5676 22.5341 34.3333 23.0071C34.0989 23.4801 33.9817 23.9872 33.9817 24.5284V25.3977C33.9817 26.1392 34.1096 26.7678 34.3652 27.2834C34.6252 27.7947 34.9853 28.1847 35.4455 28.4531C35.9057 28.7173 36.4405 28.8494 37.0499 28.8494C37.4462 28.8494 37.8042 28.794 38.1238 28.6832C38.4476 28.5682 38.7267 28.3977 38.9611 28.1719C39.1955 27.9418 39.3766 27.6562 39.5044 27.3153L40.9618 27.7244C40.8084 28.2188 40.5506 28.6534 40.1884 29.0284C39.8262 29.3991 39.3787 29.6889 38.8461 29.8977C38.3134 30.1023 37.7147 30.2045 37.0499 30.2045ZM45.6344 30L42.6429 20.1818H44.2282L46.3503 27.6989H46.4526L48.5492 20.1818H50.16L52.231 27.6733H52.3333L54.4554 20.1818H56.0407L53.0492 30H51.5662L49.4185 22.4574H49.2651L47.1174 30H45.6344ZM61.8175 30.2045C60.8714 30.2045 60.0554 29.9957 59.3693 29.5781C58.6875 29.1562 58.1612 28.5682 57.7905 27.8139C57.424 27.0554 57.2408 26.1733 57.2408 25.1676C57.2408 24.1619 57.424 23.2756 57.7905 22.5085C58.1612 21.7372 58.6768 21.1364 59.3374 20.706C60.0021 20.2713 60.7777 20.054 61.6641 20.054C62.1754 20.054 62.6804 20.1392 63.179 20.3097C63.6776 20.4801 64.1314 20.7571 64.5405 21.1406C64.9496 21.5199 65.2756 22.0227 65.5185 22.6491C65.7614 23.2756 65.8828 24.0469 65.8828 24.9631V25.6023H58.3146V24.2983H64.3487C64.3487 23.7443 64.2379 23.25 64.0163 22.8153C63.799 22.3807 63.4879 22.0376 63.0831 21.7862C62.6825 21.5348 62.2095 21.4091 61.6641 21.4091C61.0632 21.4091 60.5433 21.5582 60.1044 21.8565C59.6697 22.1506 59.3352 22.5341 59.1009 23.0071C58.8665 23.4801 58.7493 23.9872 58.7493 24.5284V25.3977C58.7493 26.1392 58.8771 26.7678 59.1328 27.2834C59.3928 27.7947 59.7528 28.1847 60.2131 28.4531C60.6733 28.7173 61.2081 28.8494 61.8175 28.8494C62.2138 28.8494 62.5717 28.794 62.8913 28.6832C63.2152 28.5682 63.4943 28.3977 63.7287 28.1719C63.9631 27.9418 64.1442 27.6562 64.272 27.3153L65.7294 27.7244C65.576 28.2188 65.3182 28.6534 64.956 29.0284C64.5938 29.3991 64.1463 29.6889 63.6136 29.8977C63.081 30.1023 62.4822 30.2045 61.8175 30.2045ZM75.1321 22.3807L73.777 22.7642C73.6918 22.5384 73.5661 22.3189 73.3999 22.1058C73.2379 21.8885 73.0163 21.7095 72.7351 21.5689C72.4538 21.4283 72.0938 21.358 71.6548 21.358C71.054 21.358 70.5533 21.4964 70.1527 21.7734C69.7564 22.0462 69.5582 22.3935 69.5582 22.8153C69.5582 23.1903 69.6946 23.4865 69.9673 23.7038C70.2401 23.9212 70.6662 24.1023 71.2457 24.2472L72.7031 24.6051C73.581 24.8182 74.2351 25.1442 74.6655 25.5831C75.0959 26.0178 75.3111 26.5781 75.3111 27.2642C75.3111 27.8267 75.1491 28.3295 74.8253 28.7727C74.5057 29.2159 74.0582 29.5653 73.483 29.821C72.9077 30.0767 72.2386 30.2045 71.4759 30.2045C70.4744 30.2045 69.6456 29.9872 68.9893 29.5526C68.3331 29.1179 67.9176 28.483 67.7429 27.6477L69.1747 27.2898C69.3111 27.8182 69.5689 28.2145 69.9482 28.4787C70.3317 28.7429 70.8324 28.875 71.4503 28.875C72.1534 28.875 72.7116 28.7259 73.125 28.4276C73.5426 28.125 73.7514 27.7628 73.7514 27.3409C73.7514 27 73.6321 26.7145 73.3935 26.4844C73.1548 26.25 72.7884 26.0753 72.294 25.9602L70.6577 25.5767C69.7585 25.3636 69.098 25.0334 68.6761 24.5859C68.2585 24.1342 68.0497 23.5696 68.0497 22.892C68.0497 22.3381 68.2053 21.848 68.5163 21.4219C68.8317 20.9957 69.2599 20.6612 69.8011 20.4183C70.3466 20.1754 70.9645 20.054 71.6548 20.054C72.6264 20.054 73.3892 20.267 73.9432 20.6932C74.5014 21.1193 74.8977 21.6818 75.1321 22.3807ZM81.8517 20.1818V21.4602H76.7637V20.1818H81.8517ZM78.2466 17.8295H79.7551V27.1875C79.7551 27.6136 79.8169 27.9332 79.9405 28.1463C80.0684 28.3551 80.2303 28.4957 80.4263 28.5682C80.6266 28.6364 80.8375 28.6705 81.0591 28.6705C81.2253 28.6705 81.3617 28.6619 81.4682 28.6449C81.5748 28.6236 81.66 28.6065 81.7239 28.5938L82.0307 29.9489C81.9284 29.9872 81.7857 30.0256 81.6025 30.0639C81.4192 30.1065 81.187 30.1278 80.9057 30.1278C80.4796 30.1278 80.062 30.0362 79.6529 29.853C79.248 29.6697 78.9114 29.3906 78.6429 29.0156C78.3787 28.6406 78.2466 28.1676 78.2466 27.5966V17.8295Z" fill="#BDBDBD"/>
<path d="M214.25 20.5L208 26.75L201.75 20.5" stroke="#BDBDBD" stroke-width="1.5" stroke-linecap="round" stroke-linejoin="round"/>
<rect x="0.5" y="0.5" width="235" height="45" rx="5.5" stroke="#E0E0E0"/>
</svg>
