<svg width="152" height="26" viewBox="0 0 152 26" fill="none" xmlns="http://www.w3.org/2000/svg">
<path d="M29.5852 20V6.90909H34.0085C35.0355 6.90909 35.875 7.09446 36.527 7.4652C37.1832 7.83168 37.669 8.32812 37.9844 8.95455C38.2997 9.58097 38.4574 10.2798 38.4574 11.0511C38.4574 11.8224 38.2997 12.5234 37.9844 13.1541C37.6733 13.7848 37.1918 14.2876 36.5398 14.6626C35.8878 15.0334 35.0526 15.2188 34.0341 15.2188H30.8636V13.8125H33.983C34.6861 13.8125 35.2507 13.6911 35.6768 13.4482C36.103 13.2053 36.4119 12.8771 36.6037 12.4638C36.7997 12.0462 36.8977 11.5753 36.8977 11.0511C36.8977 10.527 36.7997 10.0582 36.6037 9.64489C36.4119 9.23153 36.1009 8.90767 35.6705 8.6733C35.2401 8.43466 34.669 8.31534 33.9574 8.31534H31.1705V20H29.5852ZM40.8065 20V10.1818H42.2638V11.6648H42.3661C42.5451 11.179 42.869 10.7848 43.3377 10.4822C43.8065 10.1797 44.3349 10.0284 44.9229 10.0284C45.0337 10.0284 45.1722 10.0305 45.3384 10.0348C45.5046 10.0391 45.6303 10.0455 45.7156 10.054V11.5881C45.6644 11.5753 45.5472 11.5561 45.364 11.5305C45.185 11.5007 44.9954 11.4858 44.7951 11.4858C44.3178 11.4858 43.8917 11.5859 43.5167 11.7862C43.146 11.9822 42.8519 12.255 42.6346 12.6044C42.4215 12.9496 42.315 13.3437 42.315 13.7869V20H40.8065ZM51.3214 20.2045C50.3754 20.2045 49.5593 19.9957 48.8732 19.5781C48.1914 19.1562 47.6651 18.5682 47.2944 17.8139C46.9279 17.0554 46.7447 16.1733 46.7447 15.1676C46.7447 14.1619 46.9279 13.2756 47.2944 12.5085C47.6651 11.7372 48.1808 11.1364 48.8413 10.706C49.506 10.2713 50.2816 10.054 51.168 10.054C51.6793 10.054 52.1843 10.1392 52.6829 10.3097C53.1815 10.4801 53.6353 10.7571 54.0444 11.1406C54.4535 11.5199 54.7795 12.0227 55.0224 12.6491C55.2653 13.2756 55.3867 14.0469 55.3867 14.9631V15.6023H47.8185V14.2983H53.8526C53.8526 13.7443 53.7418 13.25 53.5202 12.8153C53.3029 12.3807 52.9918 12.0376 52.587 11.7862C52.1864 11.5348 51.7134 11.4091 51.168 11.4091C50.5671 11.4091 50.0472 11.5582 49.6083 11.8565C49.1737 12.1506 48.8391 12.5341 48.6048 13.0071C48.3704 13.4801 48.2532 13.9872 48.2532 14.5284V15.3977C48.2532 16.1392 48.381 16.7678 48.6367 17.2834C48.8967 17.7947 49.2567 18.1847 49.717 18.4531C50.1772 18.7173 50.712 18.8494 51.3214 18.8494C51.7177 18.8494 52.0756 18.794 52.3952 18.6832C52.7191 18.5682 52.9982 18.3977 53.2326 18.1719C53.467 17.9418 53.6481 17.6562 53.7759 17.3153L55.2333 17.7244C55.0799 18.2188 54.8221 18.6534 54.4599 19.0284C54.0977 19.3991 53.6502 19.6889 53.1175 19.8977C52.5849 20.1023 51.9862 20.2045 51.3214 20.2045ZM65.411 10.1818L61.7804 20H60.2463L56.6156 10.1818H58.252L60.9622 18.0057H61.0645L63.7747 10.1818H65.411Z" fill="#828282"/>
<path d="M94.9659 6.90909V20H93.4318L86.2983 9.72159H86.1705V20H84.5852V6.90909H86.1193L93.2784 17.2131H93.4062V6.90909H94.9659ZM102.05 20.2045C101.104 20.2045 100.288 19.9957 99.6017 19.5781C98.9199 19.1562 98.3936 18.5682 98.0229 17.8139C97.6564 17.0554 97.4732 16.1733 97.4732 15.1676C97.4732 14.1619 97.6564 13.2756 98.0229 12.5085C98.3936 11.7372 98.9093 11.1364 99.5698 10.706C100.235 10.2713 101.01 10.054 101.896 10.054C102.408 10.054 102.913 10.1392 103.411 10.3097C103.91 10.4801 104.364 10.7571 104.773 11.1406C105.182 11.5199 105.508 12.0227 105.751 12.6491C105.994 13.2756 106.115 14.0469 106.115 14.9631V15.6023H98.5471V14.2983H104.581C104.581 13.7443 104.47 13.25 104.249 12.8153C104.031 12.3807 103.72 12.0376 103.316 11.7862C102.915 11.5348 102.442 11.4091 101.896 11.4091C101.296 11.4091 100.776 11.5582 100.337 11.8565C99.9022 12.1506 99.5676 12.5341 99.3333 13.0071C99.0989 13.4801 98.9817 13.9872 98.9817 14.5284V15.3977C98.9817 16.1392 99.1096 16.7678 99.3652 17.2834C99.6252 17.7947 99.9853 18.1847 100.445 18.4531C100.906 18.7173 101.441 18.8494 102.05 18.8494C102.446 18.8494 102.804 18.794 103.124 18.6832C103.448 18.5682 103.727 18.3977 103.961 18.1719C104.195 17.9418 104.377 17.6562 104.504 17.3153L105.962 17.7244C105.808 18.2188 105.551 18.6534 105.188 19.0284C104.826 19.3991 104.379 19.6889 103.846 19.8977C103.313 20.1023 102.715 20.2045 102.05 20.2045ZM109.271 10.1818L111.624 14.196L113.976 10.1818H115.714L112.544 15.0909L115.714 20H113.976L111.624 16.1903L109.271 20H107.533L110.652 15.0909L107.533 10.1818H109.271ZM122.137 10.1818V11.4602H117.049V10.1818H122.137ZM118.532 7.82955H120.04V17.1875C120.04 17.6136 120.102 17.9332 120.226 18.1463C120.354 18.3551 120.515 18.4957 120.711 18.5682C120.912 18.6364 121.123 18.6705 121.344 18.6705C121.51 18.6705 121.647 18.6619 121.753 18.6449C121.86 18.6236 121.945 18.6065 122.009 18.5938L122.316 19.9489C122.214 19.9872 122.071 20.0256 121.888 20.0639C121.704 20.1065 121.472 20.1278 121.191 20.1278C120.765 20.1278 120.347 20.0362 119.938 19.853C119.533 19.6697 119.197 19.3906 118.928 19.0156C118.664 18.6406 118.532 18.1676 118.532 17.5966V7.82955Z" fill="#828282"/>
<path d="M20.25 13L3.75 13" stroke="#828282" stroke-width="1.5" stroke-linecap="round" stroke-linejoin="round"/>
<path d="M10.5 19.75L3.75 13L10.5 6.25" stroke="#828282" stroke-width="1.5" stroke-linecap="round" stroke-linejoin="round"/>
<path d="M131.75 13L148.25 13" stroke="#828282" stroke-width="1.5" stroke-linecap="round" stroke-linejoin="round"/>
<path d="M141.5 6.25L148.25 13L141.5 19.75" stroke="#828282" stroke-width="1.5" stroke-linecap="round" stroke-linejoin="round"/>
</svg>
