<svg width="360" height="32" viewBox="0 0 360 32" fill="none" xmlns="http://www.w3.org/2000/svg">
<line y1="15.5" x2="168" y2="15.5" stroke="#E0E0E0"/>
<line x1="199" y1="15.5" x2="360" y2="15.5" stroke="#E0E0E0"/>
<rect x="168.5" y="0.5" width="31" height="31" stroke="#E0E0E0"/>
<path d="M178.4 10.6846C180.173 10.6846 181.486 11.2542 182.338 12.3936C183.003 13.2822 183.336 14.4193 183.336 15.8047C183.336 17.304 182.955 18.5505 182.194 19.5439C181.301 20.7106 180.027 21.2939 178.373 21.2939C176.828 21.2939 175.614 20.7835 174.729 19.7627C173.941 18.7783 173.547 17.5342 173.547 16.0303C173.547 14.6722 173.884 13.5101 174.559 12.5439C175.424 11.3044 176.705 10.6846 178.4 10.6846ZM178.537 20.0771C179.736 20.0771 180.602 19.6488 181.135 18.792C181.673 17.9307 181.941 16.9417 181.941 15.8252C181.941 14.6449 181.632 13.6947 181.012 12.9746C180.396 12.2546 179.553 11.8945 178.482 11.8945C177.443 11.8945 176.596 12.2523 175.939 12.9678C175.283 13.6787 174.955 14.7292 174.955 16.1191C174.955 17.2311 175.235 18.1699 175.796 18.9355C176.361 19.6966 177.275 20.0771 178.537 20.0771ZM189.632 15.5586C190.27 15.5586 190.773 15.431 191.143 15.1758C191.516 14.9206 191.703 14.4603 191.703 13.7949C191.703 13.0794 191.443 12.5918 190.924 12.332C190.646 12.1953 190.274 12.127 189.81 12.127H186.487V15.5586H189.632ZM185.127 10.958H189.775C190.541 10.958 191.172 11.0697 191.669 11.293C192.612 11.7214 193.084 12.512 193.084 13.665C193.084 14.2666 192.959 14.7588 192.708 15.1416C192.462 15.5244 192.116 15.832 191.669 16.0645C192.061 16.224 192.355 16.4336 192.551 16.6934C192.751 16.9531 192.863 17.3747 192.886 17.958L192.934 19.3047C192.947 19.6875 192.979 19.9723 193.029 20.1592C193.111 20.4782 193.257 20.6833 193.467 20.7744V21H191.799C191.753 20.9134 191.717 20.8018 191.689 20.665C191.662 20.5283 191.639 20.264 191.621 19.8721L191.539 18.1973C191.507 17.541 191.263 17.1012 190.808 16.8779C190.548 16.7549 190.14 16.6934 189.584 16.6934H186.487V21H185.127V10.958Z" fill="#4F4F4F"/>
</svg>
