<svg width="306" height="51" viewBox="0 0 306 51" fill="none" xmlns="http://www.w3.org/2000/svg">
<path d="M0.5 49.5V0.5H49.5V49.5H0.5Z" fill="white" stroke="#F2F2F2"/>
<path d="M49 1H1V49H49V1Z" stroke="#F2F2F2" stroke-width="2"/>
<path d="M25.4375 25.127C25.1738 25.3906 25.1738 25.8301 25.4375 26.123L29.4219 30.1074C29.7148 30.3711 30.1543 30.3711 30.418 30.1074L31.0918 29.4336C31.3555 29.1406 31.3555 28.7012 31.0918 28.4375L28.25 25.5957L31.0918 22.7832C31.3555 22.5195 31.3555 22.0801 31.0918 21.7871L30.418 21.1426C30.1543 20.8496 29.7148 20.8496 29.4219 21.1426L25.4375 25.127ZM19.8125 26.123L23.7969 30.1074C24.0898 30.3711 24.5293 30.3711 24.793 30.1074L25.4668 29.4336C25.7305 29.1699 25.7305 28.7012 25.4668 28.4375L22.625 25.625L25.4668 22.7832C25.7305 22.5195 25.7305 22.0801 25.4668 21.7871L24.793 21.1426C24.5293 20.8496 24.0605 20.8496 23.7969 21.1426L19.8125 25.127C19.5488 25.3906 19.5488 25.8301 19.8125 26.123Z" fill="#FF9F0D"/>
<path d="M64.5 49.5V0.5H113.5V49.5H64.5Z" fill="white" stroke="#F2F2F2"/>
<path d="M113 1H65V49H113V1Z" stroke="#F2F2F2" stroke-width="2"/>
<mask id="path-6-inside-1_308_10951" fill="white">
<path d="M90.2955 19.3636V31H88.8864V20.8409H88.8182L85.9773 22.7273V21.2955L88.8864 19.3636H90.2955Z"/>
</mask>
<path d="M90.2955 19.3636V31H88.8864V20.8409H88.8182L85.9773 22.7273V21.2955L88.8864 19.3636H90.2955Z" fill="#FF9F0D"/>
<path d="M90.2955 19.3636H91.2955V18.3636H90.2955V19.3636ZM90.2955 31V32H91.2955V31H90.2955ZM88.8864 31H87.8864V32H88.8864V31ZM88.8864 20.8409H89.8864V19.8409H88.8864V20.8409ZM88.8182 20.8409V19.8409H88.5164L88.265 20.0078L88.8182 20.8409ZM85.9773 22.7273H84.9773V24.5916L86.5304 23.5603L85.9773 22.7273ZM85.9773 21.2955L85.4241 20.4624L84.9773 20.7591V21.2955H85.9773ZM88.8864 19.3636V18.3636H88.5846L88.3332 18.5306L88.8864 19.3636ZM89.2955 19.3636V31H91.2955V19.3636H89.2955ZM90.2955 30H88.8864V32H90.2955V30ZM89.8864 31V20.8409H87.8864V31H89.8864ZM88.8864 19.8409H88.8182V21.8409H88.8864V19.8409ZM88.265 20.0078L85.4241 21.8942L86.5304 23.5603L89.3713 21.674L88.265 20.0078ZM86.9773 22.7273V21.2955H84.9773V22.7273H86.9773ZM86.5305 22.1285L89.4396 20.1967L88.3332 18.5306L85.4241 20.4624L86.5305 22.1285ZM88.8864 20.3636H90.2955V18.3636H88.8864V20.3636Z" fill="#FF9F0D" mask="url(#path-6-inside-1_308_10951)"/>
<path d="M128.5 49.5V0.5H177.5V49.5H128.5Z" fill="#FF9F0D" stroke="#F2F2F2"/>
<mask id="path-9-inside-2_308_10951" fill="white">
<path d="M149.205 31V29.9773L153.045 25.7727C153.496 25.2803 153.867 24.8523 154.159 24.4886C154.451 24.1212 154.667 23.7765 154.807 23.4545C154.951 23.1288 155.023 22.7879 155.023 22.4318C155.023 22.0227 154.924 21.6686 154.727 21.3693C154.534 21.0701 154.269 20.839 153.932 20.6761C153.595 20.5133 153.216 20.4318 152.795 20.4318C152.348 20.4318 151.958 20.5246 151.625 20.7102C151.295 20.892 151.04 21.1477 150.858 21.4773C150.68 21.8068 150.591 22.1932 150.591 22.6364H149.25C149.25 21.9545 149.407 21.3561 149.722 20.8409C150.036 20.3258 150.464 19.9242 151.006 19.6364C151.551 19.3485 152.163 19.2045 152.841 19.2045C153.523 19.2045 154.127 19.3485 154.653 19.6364C155.18 19.9242 155.593 20.3125 155.892 20.8011C156.191 21.2898 156.341 21.8333 156.341 22.4318C156.341 22.8598 156.263 23.2784 156.108 23.6875C155.956 24.0928 155.691 24.5455 155.312 25.0455C154.938 25.5417 154.417 26.1477 153.75 26.8636L151.136 29.6591V29.75H156.545V31H149.205Z"/>
</mask>
<path d="M149.205 31V29.9773L153.045 25.7727C153.496 25.2803 153.867 24.8523 154.159 24.4886C154.451 24.1212 154.667 23.7765 154.807 23.4545C154.951 23.1288 155.023 22.7879 155.023 22.4318C155.023 22.0227 154.924 21.6686 154.727 21.3693C154.534 21.0701 154.269 20.839 153.932 20.6761C153.595 20.5133 153.216 20.4318 152.795 20.4318C152.348 20.4318 151.958 20.5246 151.625 20.7102C151.295 20.892 151.04 21.1477 150.858 21.4773C150.68 21.8068 150.591 22.1932 150.591 22.6364H149.25C149.25 21.9545 149.407 21.3561 149.722 20.8409C150.036 20.3258 150.464 19.9242 151.006 19.6364C151.551 19.3485 152.163 19.2045 152.841 19.2045C153.523 19.2045 154.127 19.3485 154.653 19.6364C155.18 19.9242 155.593 20.3125 155.892 20.8011C156.191 21.2898 156.341 21.8333 156.341 22.4318C156.341 22.8598 156.263 23.2784 156.108 23.6875C155.956 24.0928 155.691 24.5455 155.312 25.0455C154.938 25.5417 154.417 26.1477 153.75 26.8636L151.136 29.6591V29.75H156.545V31H149.205Z" fill="white"/>
<path d="M149.205 31H148.205V32H149.205V31ZM149.205 29.9773L148.466 29.3028L148.205 29.5893V29.9773H149.205ZM153.045 25.7727L152.308 25.0975L152.307 25.0983L153.045 25.7727ZM154.159 24.4886L154.939 25.1143L154.942 25.1104L154.159 24.4886ZM154.807 23.4545L153.892 23.0504L153.89 23.0554L154.807 23.4545ZM154.727 21.3693L153.887 21.9117L153.892 21.9191L154.727 21.3693ZM153.932 20.6761L154.367 19.7757L154.367 19.7757L153.932 20.6761ZM151.625 20.7102L152.108 21.5858L152.111 21.5839L151.625 20.7102ZM150.858 21.4773L149.982 20.9942L149.978 21.002L150.858 21.4773ZM150.591 22.6364V23.6364H151.591V22.6364H150.591ZM149.25 22.6364H148.25V23.6364H149.25V22.6364ZM149.722 20.8409L150.575 21.3619L150.575 21.3619L149.722 20.8409ZM151.006 19.6364L150.539 18.752L150.536 18.7533L151.006 19.6364ZM154.653 19.6364L155.133 18.759L154.653 19.6364ZM155.892 20.8011L155.039 21.3234L155.892 20.8011ZM156.108 23.6875L155.173 23.3326L155.171 23.3373L156.108 23.6875ZM155.312 25.0455L154.515 24.4416L154.515 24.4425L155.312 25.0455ZM153.75 26.8636L154.48 27.5466L154.482 27.5451L153.75 26.8636ZM151.136 29.6591L150.406 28.9761L150.136 29.2644V29.6591H151.136ZM151.136 29.75H150.136V30.75H151.136V29.75ZM156.545 29.75H157.545V28.75H156.545V29.75ZM156.545 31V32H157.545V31H156.545ZM150.205 31V29.9773H148.205V31H150.205ZM149.943 30.6517L153.784 26.4472L152.307 25.0983L148.466 29.3028L149.943 30.6517ZM153.783 26.4479C154.243 25.9457 154.629 25.5004 154.939 25.1143L153.379 23.863C153.105 24.2041 152.75 24.6149 152.308 25.0975L153.783 26.4479ZM154.942 25.1104C155.271 24.6961 155.539 24.2769 155.724 23.8537L153.89 23.0554C153.794 23.2761 153.63 23.5463 153.376 23.8669L154.942 25.1104ZM155.722 23.8587C155.922 23.4057 156.023 22.9271 156.023 22.4318H154.023C154.023 22.6487 153.98 22.8519 153.892 23.0504L155.722 23.8587ZM156.023 22.4318C156.023 21.8558 155.882 21.3043 155.563 20.8195L153.892 21.9191C153.967 22.0328 154.023 22.1896 154.023 22.4318H156.023ZM155.567 20.8269C155.269 20.3654 154.86 20.0142 154.367 19.7757L153.497 21.5766C153.677 21.6638 153.799 21.7748 153.887 21.9117L155.567 20.8269ZM154.367 19.7757C153.878 19.5396 153.348 19.4318 152.795 19.4318V21.4318C153.084 21.4318 153.311 21.4869 153.497 21.5766L154.367 19.7757ZM152.795 19.4318C152.208 19.4318 151.644 19.5549 151.139 19.8365L152.111 21.5839C152.272 21.4943 152.489 21.4318 152.795 21.4318V19.4318ZM151.142 19.8346C150.647 20.1076 150.255 20.4994 149.982 20.9942L151.734 21.9603C151.824 21.7961 151.944 21.6764 152.108 21.5858L151.142 19.8346ZM149.978 21.002C149.708 21.5021 149.591 22.0576 149.591 22.6364H151.591C151.591 22.3287 151.652 22.1115 151.738 21.9526L149.978 21.002ZM150.591 21.6364H149.25V23.6364H150.591V21.6364ZM150.25 22.6364C150.25 22.1139 150.369 21.7005 150.575 21.3619L148.868 20.32C148.446 21.0116 148.25 21.7952 148.25 22.6364H150.25ZM150.575 21.3619C150.795 21.0023 151.089 20.7246 151.475 20.5194L150.536 18.7533C149.839 19.1238 149.277 19.6493 148.868 20.32L150.575 21.3619ZM151.472 20.5207C151.86 20.3161 152.309 20.2045 152.841 20.2045V18.2045C152.017 18.2045 151.242 18.3808 150.539 18.752L151.472 20.5207ZM152.841 20.2045C153.378 20.2045 153.813 20.3167 154.174 20.5138L155.133 18.759C154.44 18.3802 153.667 18.2045 152.841 18.2045V20.2045ZM154.174 20.5138C154.554 20.722 154.836 20.9908 155.039 21.3234L156.745 20.2789C156.35 19.6342 155.805 19.1265 155.133 18.759L154.174 20.5138ZM155.039 21.3234C155.238 21.6477 155.341 22.0091 155.341 22.4318H157.341C157.341 21.6576 157.145 20.9319 156.745 20.2789L155.039 21.3234ZM155.341 22.4318C155.341 22.7358 155.286 23.0343 155.173 23.3326L157.043 24.0424C157.24 23.5225 157.341 22.9838 157.341 22.4318H155.341ZM155.171 23.3373C155.065 23.621 154.859 23.9875 154.515 24.4416L156.11 25.6493C156.523 25.1035 156.848 24.5646 157.045 24.0377L155.171 23.3373ZM154.515 24.4425C154.169 24.9006 153.673 25.4789 153.018 26.1821L154.482 27.5451C155.16 26.8166 155.706 26.1827 156.11 25.6484L154.515 24.4425ZM153.02 26.1807L150.406 28.9761L151.867 30.342L154.48 27.5466L153.02 26.1807ZM150.136 29.6591V29.75H152.136V29.6591H150.136ZM151.136 30.75H156.545V28.75H151.136V30.75ZM155.545 29.75V31H157.545V29.75H155.545ZM156.545 30H149.205V32H156.545V30Z" fill="white" mask="url(#path-9-inside-2_308_10951)"/>
<path d="M192.5 49.5V0.5H241.5V49.5H192.5Z" fill="white" stroke="#F2F2F2"/>
<path d="M241 1H193V49H241V1Z" stroke="#F2F2F2" stroke-width="2"/>
<mask id="path-13-inside-3_308_10951" fill="white">
<path d="M217.136 31.1591C216.386 31.1591 215.718 31.0303 215.131 30.7727C214.547 30.5152 214.083 30.1572 213.739 29.6989C213.398 29.2367 213.212 28.7008 213.182 28.0909H214.614C214.644 28.4659 214.773 28.7898 215 29.0625C215.227 29.3314 215.525 29.5398 215.892 29.6875C216.259 29.8352 216.667 29.9091 217.114 29.9091C217.614 29.9091 218.057 29.822 218.443 29.6477C218.83 29.4735 219.133 29.2311 219.352 28.9205C219.572 28.6098 219.682 28.25 219.682 27.8409C219.682 27.4129 219.576 27.036 219.364 26.7102C219.152 26.3807 218.841 26.1231 218.432 25.9375C218.023 25.7519 217.523 25.6591 216.932 25.6591H216V24.4091H216.932C217.394 24.4091 217.799 24.3258 218.148 24.1591C218.5 23.9924 218.775 23.7576 218.972 23.4545C219.172 23.1515 219.273 22.7955 219.273 22.3864C219.273 21.9924 219.186 21.6496 219.011 21.358C218.837 21.0663 218.591 20.839 218.273 20.6761C217.958 20.5133 217.587 20.4318 217.159 20.4318C216.758 20.4318 216.379 20.5057 216.023 20.6534C215.67 20.7973 215.383 21.0076 215.159 21.2841C214.936 21.5568 214.814 21.8864 214.795 22.2727H213.432C213.455 21.6629 213.638 21.1288 213.983 20.6705C214.328 20.2083 214.778 19.8485 215.335 19.5909C215.896 19.3333 216.511 19.2045 217.182 19.2045C217.902 19.2045 218.519 19.3504 219.034 19.642C219.549 19.9299 219.945 20.3106 220.222 20.7841C220.498 21.2576 220.636 21.7689 220.636 22.3182C220.636 22.9735 220.464 23.5322 220.119 23.9943C219.778 24.4564 219.314 24.7765 218.727 24.9545V25.0455C219.462 25.1667 220.036 25.4792 220.449 25.983C220.862 26.483 221.068 27.1023 221.068 27.8409C221.068 28.4735 220.896 29.0417 220.551 29.5455C220.21 30.0455 219.744 30.4394 219.153 30.7273C218.563 31.0152 217.89 31.1591 217.136 31.1591Z"/>
</mask>
<path d="M217.136 31.1591C216.386 31.1591 215.718 31.0303 215.131 30.7727C214.547 30.5152 214.083 30.1572 213.739 29.6989C213.398 29.2367 213.212 28.7008 213.182 28.0909H214.614C214.644 28.4659 214.773 28.7898 215 29.0625C215.227 29.3314 215.525 29.5398 215.892 29.6875C216.259 29.8352 216.667 29.9091 217.114 29.9091C217.614 29.9091 218.057 29.822 218.443 29.6477C218.83 29.4735 219.133 29.2311 219.352 28.9205C219.572 28.6098 219.682 28.25 219.682 27.8409C219.682 27.4129 219.576 27.036 219.364 26.7102C219.152 26.3807 218.841 26.1231 218.432 25.9375C218.023 25.7519 217.523 25.6591 216.932 25.6591H216V24.4091H216.932C217.394 24.4091 217.799 24.3258 218.148 24.1591C218.5 23.9924 218.775 23.7576 218.972 23.4545C219.172 23.1515 219.273 22.7955 219.273 22.3864C219.273 21.9924 219.186 21.6496 219.011 21.358C218.837 21.0663 218.591 20.839 218.273 20.6761C217.958 20.5133 217.587 20.4318 217.159 20.4318C216.758 20.4318 216.379 20.5057 216.023 20.6534C215.67 20.7973 215.383 21.0076 215.159 21.2841C214.936 21.5568 214.814 21.8864 214.795 22.2727H213.432C213.455 21.6629 213.638 21.1288 213.983 20.6705C214.328 20.2083 214.778 19.8485 215.335 19.5909C215.896 19.3333 216.511 19.2045 217.182 19.2045C217.902 19.2045 218.519 19.3504 219.034 19.642C219.549 19.9299 219.945 20.3106 220.222 20.7841C220.498 21.2576 220.636 21.7689 220.636 22.3182C220.636 22.9735 220.464 23.5322 220.119 23.9943C219.778 24.4564 219.314 24.7765 218.727 24.9545V25.0455C219.462 25.1667 220.036 25.4792 220.449 25.983C220.862 26.483 221.068 27.1023 221.068 27.8409C221.068 28.4735 220.896 29.0417 220.551 29.5455C220.21 30.0455 219.744 30.4394 219.153 30.7273C218.563 31.0152 217.89 31.1591 217.136 31.1591Z" fill="#FF9F0D"/>
<path d="M215.131 30.7727L214.727 31.6875L214.729 31.6885L215.131 30.7727ZM213.739 29.6989L212.934 30.2925L212.939 30.2999L213.739 29.6989ZM213.182 28.0909V27.0909H212.131L212.183 28.1405L213.182 28.0909ZM214.614 28.0909L215.61 28.0104L215.536 27.0909H214.614V28.0909ZM215 29.0625L214.232 29.7027L214.236 29.708L215 29.0625ZM215.892 29.6875L215.519 30.6153H215.519L215.892 29.6875ZM219.352 28.9205L218.536 28.343L219.352 28.9205ZM219.364 26.7102L218.523 27.2515L218.526 27.2559L219.364 26.7102ZM218.432 25.9375L218.019 26.8482H218.019L218.432 25.9375ZM216 25.6591H215V26.6591H216V25.6591ZM216 24.4091V23.4091H215V24.4091H216ZM218.148 24.1591L217.72 23.2551L217.716 23.257L218.148 24.1591ZM218.972 23.4545L218.138 22.9022L218.133 22.9096L218.972 23.4545ZM219.011 21.358L219.87 20.8451L219.87 20.8451L219.011 21.358ZM218.273 20.6761L217.813 21.5641L217.817 21.5663L218.273 20.6761ZM216.023 20.6534L216.401 21.5791L216.406 21.5771L216.023 20.6534ZM215.159 21.2841L215.933 21.9179L215.937 21.9127L215.159 21.2841ZM214.795 22.2727V23.2727H215.748L215.794 22.3217L214.795 22.2727ZM213.432 22.2727L212.433 22.2355L212.394 23.2727H213.432V22.2727ZM213.983 20.6705L214.782 21.2715L214.785 21.2683L213.983 20.6705ZM215.335 19.5909L214.918 18.6822L214.915 18.6833L215.335 19.5909ZM219.034 19.642L218.541 20.5123L218.546 20.515L219.034 19.642ZM220.222 20.7841L219.358 21.2884L219.358 21.2884L220.222 20.7841ZM220.119 23.9943L219.318 23.3964L219.315 23.4007L220.119 23.9943ZM218.727 24.9545L218.437 23.9976L217.727 24.2128V24.9545H218.727ZM218.727 25.0455H217.727V25.894L218.565 26.0321L218.727 25.0455ZM220.449 25.983L219.675 26.6168L219.678 26.6197L220.449 25.983ZM220.551 29.5455L219.726 28.9808L219.725 28.9821L220.551 29.5455ZM219.153 30.7273L219.591 31.6263H219.591L219.153 30.7273ZM217.136 30.1591C216.501 30.1591 215.973 30.0504 215.532 29.857L214.729 31.6885C215.462 32.0102 216.271 32.1591 217.136 32.1591V30.1591ZM215.535 29.8579C215.09 29.6615 214.769 29.4047 214.538 29.0978L212.939 30.2999C213.398 30.9097 214.005 31.3688 214.727 31.6875L215.535 29.8579ZM214.543 29.1052C214.327 28.8116 214.202 28.4677 214.181 28.0413L212.183 28.1405C212.222 28.9338 212.469 29.6619 212.934 30.2925L214.543 29.1052ZM213.182 29.0909H214.614V27.0909H213.182V29.0909ZM213.617 28.1715C213.663 28.7391 213.864 29.2617 214.232 29.7027L215.768 28.4223C215.681 28.3178 215.625 28.1927 215.61 28.0104L213.617 28.1715ZM214.236 29.708C214.581 30.1163 215.019 30.4144 215.519 30.6153L216.265 28.7597C216.03 28.6651 215.873 28.5466 215.764 28.417L214.236 29.708ZM215.519 30.6153C216.019 30.8165 216.555 30.9091 217.114 30.9091V28.9091C216.778 28.9091 216.5 28.854 216.265 28.7597L215.519 30.6153ZM217.114 30.9091C217.73 30.9091 218.318 30.8014 218.854 30.5593L218.032 28.7361C217.796 28.8426 217.497 28.9091 217.114 28.9091V30.9091ZM218.854 30.5593C219.384 30.3204 219.835 29.9701 220.169 29.4979L218.536 28.343C218.43 28.492 218.275 28.6266 218.032 28.7361L218.854 30.5593ZM220.169 29.4979C220.517 29.0055 220.682 28.4404 220.682 27.8409H218.682C218.682 28.0596 218.627 28.2142 218.536 28.343L220.169 29.4979ZM220.682 27.8409C220.682 27.2395 220.53 26.6689 220.202 26.1646L218.526 27.2559C218.621 27.4031 218.682 27.5863 218.682 27.8409H220.682ZM220.205 26.169C219.874 25.6551 219.403 25.28 218.845 25.0268L218.019 26.8482C218.279 26.9662 218.429 27.1063 218.523 27.2515L220.205 26.169ZM218.845 25.0268C218.272 24.7669 217.622 24.6591 216.932 24.6591V26.6591C217.423 26.6591 217.773 26.7369 218.019 26.8482L218.845 25.0268ZM216.932 24.6591H216V26.6591H216.932V24.6591ZM217 25.6591V24.4091H215V25.6591H217ZM216 25.4091H216.932V23.4091H216V25.4091ZM216.932 25.4091C217.514 25.4091 218.072 25.3037 218.579 25.0612L217.716 23.257C217.526 23.3478 217.274 23.4091 216.932 23.4091V25.4091ZM218.575 25.063C219.082 24.8235 219.504 24.4701 219.81 23.9995L218.133 22.9096C218.045 23.045 217.918 23.1613 217.72 23.2552L218.575 25.063ZM219.805 24.0068C220.128 23.52 220.273 22.9664 220.273 22.3864H218.273C218.273 22.6245 218.217 22.783 218.138 22.9023L219.805 24.0068ZM220.273 22.3864C220.273 21.8411 220.151 21.3151 219.87 20.8451L218.153 21.8708C218.221 21.9841 218.273 22.1438 218.273 22.3864H220.273ZM219.87 20.8451C219.594 20.3838 219.204 20.0297 218.728 19.786L217.817 21.5663C217.977 21.6483 218.08 21.7488 218.153 21.8708L219.87 20.8451ZM218.733 19.7882C218.249 19.5378 217.714 19.4318 217.159 19.4318V21.4318C217.46 21.4318 217.667 21.4887 217.813 21.5641L218.733 19.7882ZM217.159 19.4318C216.632 19.4318 216.122 19.5295 215.64 19.7298L216.406 21.5771C216.635 21.4818 216.884 21.4318 217.159 21.4318V19.4318ZM215.644 19.7277C215.147 19.9308 214.718 20.2387 214.381 20.6555L215.937 21.9127C216.047 21.7765 216.193 21.6639 216.401 21.5791L215.644 19.7277ZM214.386 20.6503C214.013 21.105 213.825 21.6453 213.797 22.2238L215.794 22.3217C215.804 22.1275 215.858 22.0087 215.933 21.9179L214.386 20.6503ZM214.795 21.2727H213.432V23.2727H214.795V21.2727ZM214.431 22.31C214.447 21.8903 214.568 21.556 214.782 21.2715L213.184 20.0694C212.708 20.7016 212.462 21.4355 212.433 22.2355L214.431 22.31ZM214.785 21.2683C215.023 20.9482 215.339 20.6908 215.755 20.4985L214.915 18.6833C214.218 19.0061 213.632 19.4685 213.181 20.0726L214.785 21.2683ZM215.753 20.4996C216.171 20.3073 216.643 20.2045 217.182 20.2045V18.2045C216.38 18.2045 215.62 18.3594 214.918 18.6822L215.753 20.4996ZM217.182 20.2045C217.766 20.2045 218.206 20.3222 218.541 20.5122L219.527 18.7718C218.832 18.3785 218.037 18.2045 217.182 18.2045V20.2045ZM218.546 20.515C218.918 20.7226 219.178 20.9809 219.358 21.2884L221.085 20.2798C220.712 19.6403 220.181 19.1372 219.522 18.7691L218.546 20.515ZM219.358 21.2884C219.545 21.6086 219.636 21.9458 219.636 22.3182H221.636C221.636 21.592 221.451 20.9066 221.085 20.2798L219.358 21.2884ZM219.636 22.3182C219.636 22.7888 219.516 23.1301 219.318 23.3964L220.921 24.5922C221.412 23.9342 221.636 23.1582 221.636 22.3182H219.636ZM219.315 23.4007C219.111 23.6772 218.833 23.8775 218.437 23.9976L219.017 25.9115C219.796 25.6755 220.446 25.2357 220.924 24.588L219.315 23.4007ZM217.727 24.9545V25.0455H219.727V24.9545H217.727ZM218.565 26.0321C219.096 26.1198 219.439 26.3277 219.675 26.6168L221.222 25.3491C220.633 24.6306 219.828 24.2135 218.89 24.0588L218.565 26.0321ZM219.678 26.6197C219.922 26.9158 220.068 27.3005 220.068 27.8409H222.068C222.068 26.9041 221.801 26.0501 221.22 25.3462L219.678 26.6197ZM220.068 27.8409C220.068 28.2797 219.952 28.6496 219.726 28.9808L221.376 30.1101C221.839 29.4337 222.068 28.6673 222.068 27.8409H220.068ZM219.725 28.9821C219.49 29.3261 219.164 29.6098 218.715 29.8283L219.591 31.6263C220.325 31.2689 220.93 30.7648 221.377 30.1088L219.725 28.9821ZM218.715 29.8283C218.28 30.0406 217.761 30.1591 217.136 30.1591V32.1591C218.02 32.1591 218.845 31.9897 219.591 31.6263L218.715 29.8283Z" fill="#FF9F0D" mask="url(#path-13-inside-3_308_10951)"/>
<path d="M256.5 50.5V1.5H305.5V50.5H256.5Z" fill="white" stroke="#F2F2F2"/>
<path d="M305 2H257V50H305V2Z" stroke="#F2F2F2" stroke-width="2"/>
<path d="M280.562 25.873C280.826 25.6094 280.826 25.1699 280.562 24.877L276.578 20.8926C276.285 20.6289 275.846 20.6289 275.582 20.8926L274.908 21.5664C274.645 21.8594 274.645 22.2988 274.908 22.5625L277.75 25.4043L274.908 28.2168C274.645 28.4805 274.645 28.9199 274.908 29.2129L275.582 29.8574C275.846 30.1504 276.285 30.1504 276.578 29.8574L280.562 25.873ZM286.188 24.877L282.203 20.8926C281.91 20.6289 281.471 20.6289 281.207 20.8926L280.533 21.5664C280.27 21.8301 280.27 22.2988 280.533 22.5625L283.375 25.375L280.533 28.2168C280.27 28.4805 280.27 28.9199 280.533 29.2129L281.207 29.8574C281.471 30.1504 281.939 30.1504 282.203 29.8574L286.188 25.873C286.451 25.6094 286.451 25.1699 286.188 24.877Z" fill="#FF9F0D"/>
</svg>
