<svg width="333" height="24" viewBox="0 0 333 24" fill="none" xmlns="http://www.w3.org/2000/svg">
<line x1="130.5" y1="4" x2="130.5" y2="20" stroke="#A9A9A9"/>
<line x1="238.5" y1="4" x2="238.5" y2="20" stroke="#A9A9A9"/>
<path d="M150.841 18.1591C150.174 18.1591 149.574 18.0265 149.04 17.7614C148.506 17.4962 148.078 17.1326 147.756 16.6705C147.434 16.2083 147.258 15.6818 147.227 15.0909H148.591C148.644 15.6174 148.883 16.053 149.307 16.3977C149.735 16.7386 150.246 16.9091 150.841 16.9091C151.318 16.9091 151.742 16.7973 152.114 16.5739C152.489 16.3504 152.782 16.0436 152.994 15.6534C153.21 15.2595 153.318 14.8144 153.318 14.3182C153.318 13.8106 153.206 13.358 152.983 12.9602C152.763 12.5587 152.46 12.2424 152.074 12.0114C151.688 11.7803 151.246 11.6629 150.75 11.6591C150.394 11.6553 150.028 11.7102 149.653 11.8239C149.278 11.9337 148.97 12.0758 148.727 12.25L147.409 12.0909L148.114 6.36364H154.159V7.61364H149.295L148.886 11.0455H148.955C149.193 10.8561 149.492 10.6989 149.852 10.5739C150.212 10.4489 150.587 10.3864 150.977 10.3864C151.689 10.3864 152.324 10.5568 152.881 10.8977C153.441 11.2348 153.881 11.697 154.199 12.2841C154.521 12.8712 154.682 13.5417 154.682 14.2955C154.682 15.0379 154.515 15.7008 154.182 16.2841C153.852 16.8636 153.398 17.322 152.818 17.6591C152.239 17.9924 151.58 18.1591 150.841 18.1591ZM157.501 18.0909C157.221 18.0909 156.981 17.9905 156.78 17.7898C156.579 17.589 156.479 17.3485 156.479 17.0682C156.479 16.7879 156.579 16.5473 156.78 16.3466C156.981 16.1458 157.221 16.0455 157.501 16.0455C157.782 16.0455 158.022 16.1458 158.223 16.3466C158.424 16.5473 158.524 16.7879 158.524 17.0682C158.524 17.2538 158.477 17.4242 158.382 17.5795C158.291 17.7348 158.168 17.8598 158.013 17.9545C157.861 18.0455 157.691 18.0909 157.501 18.0909ZM164.297 18.1591C163.441 18.1591 162.712 17.9261 162.109 17.4602C161.507 16.9905 161.047 16.3106 160.729 15.4205C160.411 14.5265 160.251 13.447 160.251 12.1818C160.251 10.9242 160.411 9.85038 160.729 8.96023C161.051 8.06629 161.513 7.38447 162.115 6.91477C162.721 6.44129 163.448 6.20455 164.297 6.20455C165.145 6.20455 165.871 6.44129 166.473 6.91477C167.079 7.38447 167.541 8.06629 167.859 8.96023C168.181 9.85038 168.342 10.9242 168.342 12.1818C168.342 13.447 168.183 14.5265 167.865 15.4205C167.547 16.3106 167.087 16.9905 166.484 17.4602C165.882 17.9261 165.153 18.1591 164.297 18.1591ZM164.297 16.9091C165.145 16.9091 165.804 16.5 166.274 15.6818C166.744 14.8636 166.979 13.697 166.979 12.1818C166.979 11.1742 166.871 10.3163 166.655 9.60795C166.443 8.89962 166.136 8.35985 165.734 7.98864C165.337 7.61742 164.857 7.43182 164.297 7.43182C163.456 7.43182 162.799 7.84659 162.325 8.67614C161.852 9.50189 161.615 10.6705 161.615 12.1818C161.615 13.1894 161.721 14.0455 161.933 14.75C162.145 15.4545 162.45 15.9905 162.848 16.358C163.25 16.7254 163.732 16.9091 164.297 16.9091ZM175.206 18V6.36364H179.138C180.047 6.36364 180.793 6.51894 181.376 6.82955C181.96 7.13636 182.392 7.55871 182.672 8.09659C182.952 8.63447 183.092 9.24621 183.092 9.93182C183.092 10.6174 182.952 11.2254 182.672 11.7557C182.392 12.286 181.962 12.7027 181.382 13.0057C180.803 13.3049 180.062 13.4545 179.161 13.4545H175.979V12.1818H179.115C179.736 12.1818 180.236 12.0909 180.615 11.9091C180.998 11.7273 181.274 11.4697 181.445 11.1364C181.619 10.7992 181.706 10.3977 181.706 9.93182C181.706 9.46591 181.619 9.05871 181.445 8.71023C181.27 8.36174 180.992 8.0928 180.609 7.90341C180.227 7.71023 179.721 7.61364 179.092 7.61364H176.615V18H175.206ZM180.683 12.7727L183.547 18H181.911L179.092 12.7727H180.683ZM187.827 18.2045C187.274 18.2045 186.772 18.1004 186.321 17.892C185.87 17.6799 185.512 17.375 185.247 16.9773C184.982 16.5758 184.849 16.0909 184.849 15.5227C184.849 15.0227 184.948 14.6174 185.145 14.3068C185.342 13.9924 185.605 13.7462 185.935 13.5682C186.264 13.3902 186.628 13.2576 187.026 13.1705C187.427 13.0795 187.83 13.0076 188.236 12.9545C188.766 12.8864 189.196 12.8352 189.526 12.8011C189.859 12.7633 190.101 12.7008 190.253 12.6136C190.408 12.5265 190.486 12.375 190.486 12.1591V12.1136C190.486 11.553 190.332 11.1174 190.026 10.8068C189.723 10.4962 189.262 10.3409 188.645 10.3409C188.005 10.3409 187.503 10.4811 187.139 10.7614C186.776 11.0417 186.52 11.3409 186.372 11.6591L185.099 11.2045C185.327 10.6742 185.63 10.2614 186.009 9.96591C186.391 9.66667 186.808 9.45833 187.259 9.34091C187.713 9.2197 188.16 9.15909 188.599 9.15909C188.88 9.15909 189.202 9.19318 189.565 9.26136C189.933 9.32576 190.287 9.46023 190.628 9.66477C190.973 9.86932 191.259 10.178 191.486 10.5909C191.713 11.0038 191.827 11.5568 191.827 12.25V18H190.486V16.8182H190.418C190.327 17.0076 190.175 17.2102 189.963 17.4261C189.751 17.642 189.469 17.8258 189.116 17.9773C188.764 18.1288 188.334 18.2045 187.827 18.2045ZM188.031 17C188.562 17 189.009 16.8958 189.372 16.6875C189.74 16.4792 190.016 16.2102 190.202 15.8807C190.391 15.5511 190.486 15.2045 190.486 14.8409V13.6136C190.429 13.6818 190.304 13.7443 190.111 13.8011C189.921 13.8542 189.702 13.9015 189.452 13.9432C189.205 13.9811 188.965 14.0152 188.73 14.0455C188.499 14.072 188.312 14.0947 188.168 14.1136C187.819 14.1591 187.493 14.233 187.19 14.3352C186.891 14.4337 186.649 14.5833 186.463 14.7841C186.281 14.9811 186.19 15.25 186.19 15.5909C186.19 16.0568 186.363 16.4091 186.707 16.6477C187.056 16.8826 187.497 17 188.031 17ZM198.07 9.27273V10.4091H193.547V9.27273H198.07ZM194.865 7.18182H196.206V15.5C196.206 15.8788 196.261 16.1629 196.371 16.3523C196.484 16.5379 196.628 16.6629 196.803 16.7273C196.981 16.7879 197.168 16.8182 197.365 16.8182C197.513 16.8182 197.634 16.8106 197.729 16.7955C197.823 16.7765 197.899 16.7614 197.956 16.75L198.229 17.9545C198.138 17.9886 198.011 18.0227 197.848 18.0568C197.685 18.0947 197.479 18.1136 197.229 18.1136C196.85 18.1136 196.479 18.0322 196.115 17.8693C195.755 17.7064 195.456 17.4583 195.217 17.125C194.982 16.7917 194.865 16.3712 194.865 15.8636V7.18182ZM200.087 18V9.27273H201.428V18H200.087ZM200.768 7.81818C200.507 7.81818 200.282 7.72917 200.092 7.55114C199.907 7.37311 199.814 7.15909 199.814 6.90909C199.814 6.65909 199.907 6.44508 200.092 6.26705C200.282 6.08902 200.507 6 200.768 6C201.03 6 201.253 6.08902 201.439 6.26705C201.628 6.44508 201.723 6.65909 201.723 6.90909C201.723 7.15909 201.628 7.37311 201.439 7.55114C201.253 7.72917 201.03 7.81818 200.768 7.81818ZM205.224 12.75V18H203.884V9.27273H205.179V10.6364H205.293C205.497 10.1932 205.808 9.83712 206.224 9.56818C206.641 9.29545 207.179 9.15909 207.838 9.15909C208.429 9.15909 208.946 9.2803 209.389 9.52273C209.832 9.76136 210.177 10.125 210.423 10.6136C210.67 11.0985 210.793 11.7121 210.793 12.4545V18H209.452V12.5455C209.452 11.8598 209.274 11.3258 208.918 10.9432C208.562 10.5568 208.073 10.3636 207.452 10.3636C207.024 10.3636 206.641 10.4564 206.304 10.642C205.971 10.8277 205.707 11.0985 205.514 11.4545C205.321 11.8106 205.224 12.2424 205.224 12.75ZM216.766 21.4545C216.118 21.4545 215.561 21.3712 215.095 21.2045C214.629 21.0417 214.241 20.8258 213.93 20.5568C213.624 20.2917 213.379 20.0076 213.197 19.7045L214.266 18.9545C214.387 19.1136 214.54 19.2955 214.726 19.5C214.911 19.7083 215.165 19.8883 215.487 20.0398C215.813 20.1951 216.239 20.2727 216.766 20.2727C217.47 20.2727 218.052 20.1023 218.51 19.7614C218.968 19.4205 219.197 18.8864 219.197 18.1591V16.3864H219.084C218.985 16.5455 218.845 16.7424 218.663 16.9773C218.485 17.2083 218.228 17.4148 217.891 17.5966C217.557 17.7746 217.107 17.8636 216.538 17.8636C215.834 17.8636 215.201 17.697 214.641 17.3636C214.084 17.0303 213.643 16.5455 213.317 15.9091C212.995 15.2727 212.834 14.5 212.834 13.5909C212.834 12.697 212.991 11.9186 213.305 11.2557C213.62 10.589 214.057 10.0739 214.618 9.71023C215.179 9.3428 215.826 9.15909 216.561 9.15909C217.129 9.15909 217.58 9.25379 217.913 9.44318C218.25 9.62879 218.508 9.84091 218.686 10.0795C218.868 10.3144 219.008 10.5076 219.107 10.6591H219.243V9.27273H220.538V18.25C220.538 19 220.368 19.6098 220.027 20.0795C219.69 20.553 219.235 20.8996 218.663 21.1193C218.095 21.3428 217.463 21.4545 216.766 21.4545ZM216.72 16.6591C217.258 16.6591 217.713 16.536 218.084 16.2898C218.455 16.0436 218.737 15.6894 218.93 15.2273C219.124 14.7652 219.22 14.2121 219.22 13.5682C219.22 12.9394 219.125 12.3845 218.936 11.9034C218.747 11.4223 218.466 11.0455 218.095 10.7727C217.724 10.5 217.266 10.3636 216.72 10.3636C216.152 10.3636 215.679 10.5076 215.3 10.7955C214.925 11.0833 214.643 11.4697 214.453 11.9545C214.268 12.4394 214.175 12.9773 214.175 13.5682C214.175 14.1742 214.269 14.7102 214.459 15.1761C214.652 15.6383 214.936 16.0019 215.311 16.267C215.69 16.5284 216.16 16.6591 216.72 16.6591Z" fill="#828282"/>
<path d="M255.205 18V16.9773L259.045 12.7727C259.496 12.2803 259.867 11.8523 260.159 11.4886C260.451 11.1212 260.667 10.7765 260.807 10.4545C260.951 10.1288 261.023 9.78788 261.023 9.43182C261.023 9.02273 260.924 8.66856 260.727 8.36932C260.534 8.07008 260.269 7.83901 259.932 7.67614C259.595 7.51326 259.216 7.43182 258.795 7.43182C258.348 7.43182 257.958 7.52462 257.625 7.71023C257.295 7.89205 257.04 8.14773 256.858 8.47727C256.68 8.80682 256.591 9.19318 256.591 9.63636H255.25C255.25 8.95455 255.407 8.35606 255.722 7.84091C256.036 7.32576 256.464 6.92424 257.006 6.63636C257.551 6.34848 258.163 6.20455 258.841 6.20455C259.523 6.20455 260.127 6.34848 260.653 6.63636C261.18 6.92424 261.593 7.3125 261.892 7.80114C262.191 8.28977 262.341 8.83333 262.341 9.43182C262.341 9.85985 262.263 10.2784 262.108 10.6875C261.956 11.0928 261.691 11.5455 261.312 12.0455C260.938 12.5417 260.417 13.1477 259.75 13.8636L257.136 16.6591V16.75H262.545V18H255.205ZM264.892 18V16.9773L268.733 12.7727C269.184 12.2803 269.555 11.8523 269.847 11.4886C270.138 11.1212 270.354 10.7765 270.494 10.4545C270.638 10.1288 270.71 9.78788 270.71 9.43182C270.71 9.02273 270.612 8.66856 270.415 8.36932C270.222 8.07008 269.956 7.83901 269.619 7.67614C269.282 7.51326 268.903 7.43182 268.483 7.43182C268.036 7.43182 267.646 7.52462 267.312 7.71023C266.983 7.89205 266.727 8.14773 266.545 8.47727C266.367 8.80682 266.278 9.19318 266.278 9.63636H264.938C264.938 8.95455 265.095 8.35606 265.409 7.84091C265.723 7.32576 266.152 6.92424 266.693 6.63636C267.239 6.34848 267.85 6.20455 268.528 6.20455C269.21 6.20455 269.814 6.34848 270.341 6.63636C270.867 6.92424 271.28 7.3125 271.58 7.80114C271.879 8.28977 272.028 8.83333 272.028 9.43182C272.028 9.85985 271.951 10.2784 271.795 10.6875C271.644 11.0928 271.379 11.5455 271 12.0455C270.625 12.5417 270.104 13.1477 269.438 13.8636L266.824 16.6591V16.75H272.233V18H264.892ZM279.284 18V6.36364H283.216C284.125 6.36364 284.871 6.51894 285.455 6.82955C286.038 7.13636 286.47 7.55871 286.75 8.09659C287.03 8.63447 287.17 9.24621 287.17 9.93182C287.17 10.6174 287.03 11.2254 286.75 11.7557C286.47 12.286 286.04 12.7027 285.46 13.0057C284.881 13.3049 284.14 13.4545 283.239 13.4545H280.057V12.1818H283.193C283.814 12.1818 284.314 12.0909 284.693 11.9091C285.076 11.7273 285.352 11.4697 285.523 11.1364C285.697 10.7992 285.784 10.3977 285.784 9.93182C285.784 9.46591 285.697 9.05871 285.523 8.71023C285.348 8.36174 285.07 8.0928 284.688 7.90341C284.305 7.71023 283.799 7.61364 283.17 7.61364H280.693V18H279.284ZM284.761 12.7727L287.625 18H285.989L283.17 12.7727H284.761ZM292.902 18.1818C292.061 18.1818 291.336 17.9962 290.726 17.625C290.12 17.25 289.652 16.7273 289.322 16.0568C288.997 15.3826 288.834 14.5985 288.834 13.7045C288.834 12.8106 288.997 12.0227 289.322 11.3409C289.652 10.6553 290.11 10.1212 290.697 9.73864C291.288 9.35227 291.978 9.15909 292.766 9.15909C293.22 9.15909 293.669 9.23485 294.112 9.38636C294.555 9.53788 294.959 9.78409 295.322 10.125C295.686 10.4621 295.976 10.9091 296.192 11.4659C296.408 12.0227 296.516 12.7083 296.516 13.5227V14.0909H289.788V12.9318H295.152C295.152 12.4394 295.054 12 294.857 11.6136C294.663 11.2273 294.387 10.9223 294.027 10.6989C293.671 10.4754 293.25 10.3636 292.766 10.3636C292.232 10.3636 291.769 10.4962 291.379 10.7614C290.993 11.0227 290.696 11.3636 290.487 11.7841C290.279 12.2045 290.175 12.6553 290.175 13.1364V13.9091C290.175 14.5682 290.288 15.1269 290.516 15.5852C290.747 16.0398 291.067 16.3864 291.476 16.625C291.885 16.8598 292.36 16.9773 292.902 16.9773C293.254 16.9773 293.572 16.928 293.857 16.8295C294.144 16.7273 294.393 16.5758 294.601 16.375C294.809 16.1705 294.97 15.9167 295.084 15.6136L296.379 15.9773C296.243 16.4167 296.014 16.803 295.692 17.1364C295.37 17.4659 294.972 17.7235 294.499 17.9091C294.025 18.0909 293.493 18.1818 292.902 18.1818ZM305.426 9.27273L302.199 18H300.835L297.608 9.27273H299.062L301.472 16.2273H301.562L303.972 9.27273H305.426ZM307.196 18V9.27273H308.537V18H307.196ZM307.878 7.81818C307.616 7.81818 307.391 7.72917 307.202 7.55114C307.016 7.37311 306.923 7.15909 306.923 6.90909C306.923 6.65909 307.016 6.44508 307.202 6.26705C307.391 6.08902 307.616 6 307.878 6C308.139 6 308.363 6.08902 308.548 6.26705C308.738 6.44508 308.832 6.65909 308.832 6.90909C308.832 7.15909 308.738 7.37311 308.548 7.55114C308.363 7.72917 308.139 7.81818 307.878 7.81818ZM314.652 18.1818C313.811 18.1818 313.086 17.9962 312.476 17.625C311.87 17.25 311.402 16.7273 311.072 16.0568C310.747 15.3826 310.584 14.5985 310.584 13.7045C310.584 12.8106 310.747 12.0227 311.072 11.3409C311.402 10.6553 311.86 10.1212 312.447 9.73864C313.038 9.35227 313.728 9.15909 314.516 9.15909C314.97 9.15909 315.419 9.23485 315.862 9.38636C316.305 9.53788 316.709 9.78409 317.072 10.125C317.436 10.4621 317.726 10.9091 317.942 11.4659C318.158 12.0227 318.266 12.7083 318.266 13.5227V14.0909H311.538V12.9318H316.902C316.902 12.4394 316.804 12 316.607 11.6136C316.413 11.2273 316.137 10.9223 315.777 10.6989C315.421 10.4754 315 10.3636 314.516 10.3636C313.982 10.3636 313.519 10.4962 313.129 10.7614C312.743 11.0227 312.446 11.3636 312.237 11.7841C312.029 12.2045 311.925 12.6553 311.925 13.1364V13.9091C311.925 14.5682 312.038 15.1269 312.266 15.5852C312.497 16.0398 312.817 16.3864 313.226 16.625C313.635 16.8598 314.11 16.9773 314.652 16.9773C315.004 16.9773 315.322 16.928 315.607 16.8295C315.894 16.7273 316.143 16.5758 316.351 16.375C316.559 16.1705 316.72 15.9167 316.834 15.6136L318.129 15.9773C317.993 16.4167 317.764 16.803 317.442 17.1364C317.12 17.4659 316.722 17.7235 316.249 17.9091C315.775 18.0909 315.243 18.1818 314.652 18.1818ZM322.283 18L319.624 9.27273H321.033L322.919 15.9545H323.01L324.874 9.27273H326.305L328.146 15.9318H328.237L330.124 9.27273H331.533L328.874 18H327.555L325.646 11.2955H325.51L323.601 18H322.283Z" fill="#828282"/>
<path d="M10.3439 16.8985L14.2814 19.3985C14.7892 19.7188 15.4142 19.2422 15.2657 18.6563L14.1251 14.1719C14.0943 14.0476 14.0992 13.9171 14.1393 13.7955C14.1793 13.6738 14.253 13.566 14.3517 13.4844L17.8829 10.5391C18.3439 10.1563 18.1095 9.38283 17.5079 9.34377L12.8986 9.04689C12.7728 9.03958 12.6519 8.99578 12.5506 8.92086C12.4493 8.84594 12.372 8.74314 12.3282 8.62502L10.6095 4.29689C10.564 4.17182 10.4811 4.06377 10.3721 3.98742C10.2631 3.91107 10.1332 3.87012 10.0001 3.87012C9.86703 3.87012 9.73716 3.91107 9.62814 3.98742C9.51912 4.06377 9.43624 4.17182 9.39074 4.29689L7.67199 8.62502C7.62819 8.74314 7.55093 8.84594 7.44964 8.92086C7.34836 8.99578 7.22745 9.03958 7.10168 9.04689L2.49231 9.34377C1.89074 9.38283 1.65637 10.1563 2.11731 10.5391L5.64856 13.4844C5.74726 13.566 5.82089 13.6738 5.86097 13.7955C5.90106 13.9171 5.90596 14.0476 5.87512 14.1719L4.82043 18.3281C4.64074 19.0313 5.39074 19.6016 5.99231 19.2188L9.65637 16.8985C9.75912 16.8331 9.87836 16.7984 10.0001 16.7984C10.1219 16.7984 10.2411 16.8331 10.3439 16.8985Z" fill="#FF9F0D"/>
<path d="M34.3439 16.8985L38.2814 19.3985C38.7892 19.7188 39.4142 19.2422 39.2657 18.6563L38.1251 14.1719C38.0943 14.0476 38.0992 13.9171 38.1393 13.7955C38.1793 13.6738 38.253 13.566 38.3517 13.4844L41.8829 10.5391C42.3439 10.1563 42.1095 9.38283 41.5079 9.34377L36.8986 9.04689C36.7728 9.03958 36.6519 8.99578 36.5506 8.92086C36.4493 8.84594 36.372 8.74314 36.3282 8.62502L34.6095 4.29689C34.564 4.17182 34.4811 4.06377 34.3721 3.98742C34.2631 3.91107 34.1332 3.87012 34.0001 3.87012C33.867 3.87012 33.7372 3.91107 33.6281 3.98742C33.5191 4.06377 33.4362 4.17182 33.3907 4.29689L31.672 8.62502C31.6282 8.74314 31.5509 8.84594 31.4496 8.92086C31.3484 8.99578 31.2274 9.03958 31.1017 9.04689L26.4923 9.34377C25.8907 9.38283 25.6564 10.1563 26.1173 10.5391L29.6486 13.4844C29.7473 13.566 29.8209 13.6738 29.861 13.7955C29.9011 13.9171 29.906 14.0476 29.8751 14.1719L28.8204 18.3281C28.6407 19.0313 29.3907 19.6016 29.9923 19.2188L33.6564 16.8985C33.7591 16.8331 33.8784 16.7984 34.0001 16.7984C34.1219 16.7984 34.2411 16.8331 34.3439 16.8985Z" fill="#FF9F0D"/>
<path d="M58.3434 16.8985L62.2809 19.3985C62.7887 19.7188 63.4137 19.2422 63.2653 18.6563L62.1246 14.1719C62.0938 14.0476 62.0987 13.9171 62.1388 13.7955C62.1789 13.6738 62.2525 13.566 62.3512 13.4844L65.8824 10.5391C66.3434 10.1563 66.109 9.38283 65.5074 9.34377L60.8981 9.04689C60.7723 9.03958 60.6514 8.99578 60.5501 8.92086C60.4488 8.84594 60.3716 8.74314 60.3278 8.62502L58.609 4.29689C58.5635 4.17182 58.4806 4.06377 58.3716 3.98742C58.2626 3.91107 58.1327 3.87012 57.9996 3.87012C57.8665 3.87012 57.7367 3.91107 57.6277 3.98742C57.5186 4.06377 57.4358 4.17182 57.3903 4.29689L55.6715 8.62502C55.6277 8.74314 55.5504 8.84594 55.4492 8.92086C55.3479 8.99578 55.227 9.03958 55.1012 9.04689L50.4918 9.34377C49.8903 9.38283 49.6559 10.1563 50.1168 10.5391L53.6481 13.4844C53.7468 13.566 53.8204 13.6738 53.8605 13.7955C53.9006 13.9171 53.9055 14.0476 53.8746 14.1719L52.8199 18.3281C52.6403 19.0313 53.3903 19.6016 53.9918 19.2188L57.6559 16.8985C57.7586 16.8331 57.8779 16.7984 57.9996 16.7984C58.1214 16.7984 58.2406 16.8331 58.3434 16.8985Z" fill="#FF9F0D"/>
<path d="M82.3434 16.8985L86.2809 19.3985C86.7887 19.7188 87.4137 19.2422 87.2653 18.6563L86.1246 14.1719C86.0938 14.0476 86.0987 13.9171 86.1388 13.7955C86.1789 13.6738 86.2525 13.566 86.3512 13.4844L89.8824 10.5391C90.3434 10.1563 90.109 9.38283 89.5074 9.34377L84.8981 9.04689C84.7723 9.03958 84.6514 8.99578 84.5501 8.92086C84.4488 8.84594 84.3716 8.74314 84.3278 8.62502L82.609 4.29689C82.5635 4.17182 82.4806 4.06377 82.3716 3.98742C82.2626 3.91107 82.1327 3.87012 81.9996 3.87012C81.8665 3.87012 81.7367 3.91107 81.6277 3.98742C81.5186 4.06377 81.4358 4.17182 81.3903 4.29689L79.6715 8.62502C79.6277 8.74314 79.5504 8.84594 79.4492 8.92086C79.3479 8.99578 79.227 9.03958 79.1012 9.04689L74.4918 9.34377C73.8903 9.38283 73.6559 10.1563 74.1168 10.5391L77.6481 13.4844C77.7468 13.566 77.8204 13.6738 77.8605 13.7955C77.9006 13.9171 77.9055 14.0476 77.8746 14.1719L76.8199 18.3281C76.6403 19.0313 77.3903 19.6016 77.9918 19.2188L81.6559 16.8985C81.7586 16.8331 81.8779 16.7984 81.9996 16.7984C82.1214 16.7984 82.2406 16.8331 82.3434 16.8985Z" fill="#FF9F0D"/>
<path d="M106.343 16.8985L110.281 19.3985C110.789 19.7188 111.414 19.2422 111.265 18.6563L110.125 14.1719C110.094 14.0476 110.099 13.9171 110.139 13.7955C110.179 13.6738 110.252 13.566 110.351 13.4844L113.882 10.5391C114.343 10.1563 114.109 9.38283 113.507 9.34377L108.898 9.04689C108.772 9.03958 108.651 8.99578 108.55 8.92086C108.449 8.84594 108.372 8.74314 108.328 8.62502L106.609 4.29689C106.564 4.17182 106.481 4.06377 106.372 3.98742C106.263 3.91107 106.133 3.87012 106 3.87012C105.867 3.87012 105.737 3.91107 105.628 3.98742C105.519 4.06377 105.436 4.17182 105.39 4.29689L103.672 8.62502C103.628 8.74314 103.55 8.84594 103.449 8.92086C103.348 8.99578 103.227 9.03958 103.101 9.04689L98.4918 9.34377C97.8903 9.38283 97.6559 10.1563 98.1168 10.5391L101.648 13.4844C101.747 13.566 101.82 13.6738 101.86 13.7955C101.901 13.9171 101.905 14.0476 101.875 14.1719L100.82 18.3281C100.64 19.0313 101.39 19.6016 101.992 19.2188L105.656 16.8985C105.759 16.8331 105.878 16.7984 106 16.7984C106.121 16.7984 106.241 16.8331 106.343 16.8985Z" fill="#FF9F0D"/>
</svg>
