<svg width="248" height="46" viewBox="0 0 248 46" fill="none" xmlns="http://www.w3.org/2000/svg">
<rect width="248" height="46" fill="#FF9F0D" fill-opacity="0.1"/>
<path d="M248 0H202V46H248V0Z" fill="#FF9F0D"/>
<path d="M27.7727 20.2727C27.7045 19.697 27.428 19.25 26.9432 18.9318C26.4583 18.6136 25.8636 18.4545 25.1591 18.4545C24.6439 18.4545 24.1932 18.5379 23.8068 18.7045C23.4242 18.8712 23.125 19.1004 22.9091 19.392C22.697 19.6837 22.5909 20.0152 22.5909 20.3864C22.5909 20.697 22.6648 20.964 22.8125 21.1875C22.964 21.4072 23.1572 21.5909 23.392 21.7386C23.6269 21.8826 23.8731 22.0019 24.1307 22.0966C24.3883 22.1875 24.625 22.2614 24.8409 22.3182L26.0227 22.6364C26.3258 22.7159 26.6629 22.8258 27.0341 22.9659C27.4091 23.1061 27.767 23.2973 28.108 23.5398C28.4527 23.7784 28.7367 24.0852 28.9602 24.4602C29.1837 24.8352 29.2955 25.2955 29.2955 25.8409C29.2955 26.4697 29.1307 27.0379 28.8011 27.5455C28.4754 28.053 27.9981 28.4564 27.3693 28.7557C26.7443 29.0549 25.9848 29.2045 25.0909 29.2045C24.2576 29.2045 23.536 29.0701 22.9261 28.8011C22.3201 28.5322 21.8428 28.1572 21.4943 27.6761C21.1496 27.1951 20.9545 26.6364 20.9091 26H22.3636C22.4015 26.4394 22.5492 26.803 22.8068 27.0909C23.0682 27.375 23.3977 27.5871 23.7955 27.7273C24.197 27.8636 24.6288 27.9318 25.0909 27.9318C25.6288 27.9318 26.1117 27.8447 26.5398 27.6705C26.9678 27.4924 27.3068 27.2462 27.5568 26.9318C27.8068 26.6136 27.9318 26.2424 27.9318 25.8182C27.9318 25.4318 27.8239 25.1174 27.608 24.875C27.392 24.6326 27.108 24.4356 26.7557 24.2841C26.4034 24.1326 26.0227 24 25.6136 23.8864L24.1818 23.4773C23.2727 23.2159 22.553 22.8428 22.0227 22.358C21.4924 21.8731 21.2273 21.2386 21.2273 20.4545C21.2273 19.803 21.4034 19.2348 21.7557 18.75C22.1117 18.2614 22.589 17.8826 23.1875 17.6136C23.7898 17.3409 24.4621 17.2045 25.2045 17.2045C25.9545 17.2045 26.6212 17.339 27.2045 17.608C27.7879 17.8731 28.25 18.2367 28.5909 18.6989C28.9356 19.161 29.1174 19.6856 29.1364 20.2727H27.7727ZM35.0895 29.1818C34.2486 29.1818 33.5232 28.9962 32.9134 28.625C32.3073 28.25 31.8395 27.7273 31.5099 27.0568C31.1842 26.3826 31.0213 25.5985 31.0213 24.7045C31.0213 23.8106 31.1842 23.0227 31.5099 22.3409C31.8395 21.6553 32.2978 21.1212 32.8849 20.7386C33.4759 20.3523 34.1652 20.1591 34.9531 20.1591C35.4077 20.1591 35.8565 20.2348 36.2997 20.3864C36.7429 20.5379 37.1463 20.7841 37.5099 21.125C37.8736 21.4621 38.1634 21.9091 38.3793 22.4659C38.5952 23.0227 38.7031 23.7083 38.7031 24.5227V25.0909H31.9759V23.9318H37.3395C37.3395 23.4394 37.241 23 37.044 22.6136C36.8509 22.2273 36.5743 21.9223 36.2145 21.6989C35.8584 21.4754 35.438 21.3636 34.9531 21.3636C34.419 21.3636 33.9569 21.4962 33.5668 21.7614C33.1804 22.0227 32.883 22.3636 32.6747 22.7841C32.4664 23.2045 32.3622 23.6553 32.3622 24.1364V24.9091C32.3622 25.5682 32.4759 26.1269 32.7031 26.5852C32.9342 27.0398 33.2543 27.3864 33.6634 27.625C34.0724 27.8598 34.5478 27.9773 35.0895 27.9773C35.4418 27.9773 35.7599 27.928 36.044 27.8295C36.3319 27.7273 36.58 27.5758 36.7884 27.375C36.9967 27.1705 37.1577 26.9167 37.2713 26.6136L38.5668 26.9773C38.4304 27.4167 38.2012 27.803 37.8793 28.1364C37.5573 28.4659 37.1596 28.7235 36.6861 28.9091C36.2126 29.0909 35.6804 29.1818 35.0895 29.1818ZM43.3111 29.2045C42.758 29.2045 42.2562 29.1004 41.8054 28.892C41.3546 28.6799 40.9967 28.375 40.7315 27.9773C40.4664 27.5758 40.3338 27.0909 40.3338 26.5227C40.3338 26.0227 40.4323 25.6174 40.6293 25.3068C40.8262 24.9924 41.0895 24.7462 41.419 24.5682C41.7486 24.3902 42.1122 24.2576 42.5099 24.1705C42.9115 24.0795 43.3149 24.0076 43.7202 23.9545C44.2505 23.8864 44.6804 23.8352 45.0099 23.8011C45.3433 23.7633 45.5857 23.7008 45.7372 23.6136C45.8925 23.5265 45.9702 23.375 45.9702 23.1591V23.1136C45.9702 22.553 45.8168 22.1174 45.5099 21.8068C45.2069 21.4962 44.7467 21.3409 44.1293 21.3409C43.4891 21.3409 42.9872 21.4811 42.6236 21.7614C42.2599 22.0417 42.0043 22.3409 41.8565 22.6591L40.5838 22.2045C40.8111 21.6742 41.1141 21.2614 41.4929 20.9659C41.8755 20.6667 42.2921 20.4583 42.7429 20.3409C43.1974 20.2197 43.6444 20.1591 44.0838 20.1591C44.3641 20.1591 44.6861 20.1932 45.0497 20.2614C45.4171 20.3258 45.7713 20.4602 46.1122 20.6648C46.4569 20.8693 46.7429 21.178 46.9702 21.5909C47.1974 22.0038 47.3111 22.5568 47.3111 23.25V29H45.9702V27.8182H45.902C45.8111 28.0076 45.6596 28.2102 45.4474 28.4261C45.2353 28.642 44.9531 28.8258 44.6009 28.9773C44.2486 29.1288 43.8187 29.2045 43.3111 29.2045ZM43.5156 28C44.0459 28 44.4929 27.8958 44.8565 27.6875C45.224 27.4792 45.5005 27.2102 45.6861 26.8807C45.8755 26.5511 45.9702 26.2045 45.9702 25.8409V24.6136C45.9134 24.6818 45.7884 24.7443 45.5952 24.8011C45.4058 24.8542 45.1861 24.9015 44.9361 24.9432C44.6899 24.9811 44.4493 25.0152 44.2145 25.0455C43.9834 25.072 43.7959 25.0947 43.652 25.1136C43.3035 25.1591 42.9777 25.233 42.6747 25.3352C42.3755 25.4337 42.133 25.5833 41.9474 25.7841C41.7656 25.9811 41.6747 26.25 41.6747 26.5909C41.6747 27.0568 41.8471 27.4091 42.1918 27.6477C42.5402 27.8826 42.9815 28 43.5156 28ZM49.7585 29V20.2727H51.054V21.5909H51.1449C51.304 21.1591 51.5919 20.8087 52.0085 20.5398C52.4252 20.2708 52.8949 20.1364 53.4176 20.1364C53.5161 20.1364 53.6392 20.1383 53.7869 20.142C53.9347 20.1458 54.0464 20.1515 54.1222 20.1591V21.5227C54.0767 21.5114 53.9725 21.4943 53.8097 21.4716C53.6506 21.4451 53.482 21.4318 53.304 21.4318C52.8797 21.4318 52.5009 21.5208 52.1676 21.6989C51.8381 21.8731 51.5767 22.1155 51.3835 22.4261C51.1941 22.733 51.0994 23.0833 51.0994 23.4773V29H49.7585ZM58.9915 29.1818C58.1733 29.1818 57.4688 28.9886 56.8778 28.6023C56.2869 28.2159 55.8324 27.6837 55.5142 27.0057C55.196 26.3277 55.0369 25.553 55.0369 24.6818C55.0369 23.7955 55.1998 23.0133 55.5256 22.3352C55.8551 21.6534 56.3134 21.1212 56.9006 20.7386C57.4915 20.3523 58.1809 20.1591 58.9688 20.1591C59.5824 20.1591 60.1354 20.2727 60.6278 20.5C61.1203 20.7273 61.5237 21.0455 61.8381 21.4545C62.1525 21.8636 62.3475 22.3409 62.4233 22.8864H61.0824C60.9801 22.4886 60.7528 22.1364 60.4006 21.8295C60.0521 21.5189 59.5824 21.3636 58.9915 21.3636C58.4688 21.3636 58.0104 21.5 57.6165 21.7727C57.2263 22.0417 56.9214 22.4223 56.7017 22.9148C56.4858 23.4034 56.3778 23.9773 56.3778 24.6364C56.3778 25.3106 56.4839 25.8977 56.696 26.3977C56.9119 26.8977 57.215 27.286 57.6051 27.5625C57.9991 27.839 58.4612 27.9773 58.9915 27.9773C59.34 27.9773 59.6562 27.9167 59.9403 27.7955C60.2244 27.6742 60.465 27.5 60.6619 27.2727C60.8589 27.0455 60.9991 26.7727 61.0824 26.4545H62.4233C62.3475 26.9697 62.16 27.4337 61.8608 27.8466C61.5653 28.2557 61.1733 28.5814 60.6847 28.8239C60.1998 29.0625 59.6354 29.1818 58.9915 29.1818ZM65.7244 23.75V29H64.3835V17.3636H65.7244V21.6364H65.8381C66.0426 21.1856 66.3494 20.8277 66.7585 20.5625C67.1714 20.2936 67.7206 20.1591 68.4062 20.1591C69.0009 20.1591 69.5218 20.2784 69.9688 20.517C70.4157 20.7519 70.7623 21.1136 71.0085 21.6023C71.2585 22.0871 71.3835 22.7045 71.3835 23.4545V29H70.0426V23.5455C70.0426 22.8523 69.8627 22.3163 69.5028 21.9375C69.1468 21.5549 68.6525 21.3636 68.0199 21.3636C67.5805 21.3636 67.1866 21.4564 66.8381 21.642C66.4934 21.8277 66.2206 22.0985 66.0199 22.4545C65.8229 22.8106 65.7244 23.2424 65.7244 23.75ZM78.5185 29V17.3636H82.4503C83.3632 17.3636 84.1094 17.5284 84.6889 17.858C85.2723 18.1837 85.7041 18.625 85.9844 19.1818C86.2647 19.7386 86.4048 20.3598 86.4048 21.0455C86.4048 21.7311 86.2647 22.3542 85.9844 22.9148C85.7079 23.4754 85.2798 23.9223 84.7003 24.2557C84.1207 24.5852 83.3783 24.75 82.473 24.75H79.6548V23.5H82.4276C83.0526 23.5 83.5545 23.392 83.9332 23.1761C84.312 22.9602 84.5866 22.6686 84.7571 22.3011C84.9313 21.9299 85.0185 21.5114 85.0185 21.0455C85.0185 20.5795 84.9313 20.1629 84.7571 19.7955C84.5866 19.428 84.3101 19.1402 83.9276 18.9318C83.545 18.7197 83.0374 18.6136 82.4048 18.6136H79.9276V29H78.5185ZM88.4929 29V20.2727H89.7884V21.5909H89.8793C90.0384 21.1591 90.3262 20.8087 90.7429 20.5398C91.1596 20.2708 91.6293 20.1364 92.152 20.1364C92.2505 20.1364 92.3736 20.1383 92.5213 20.142C92.669 20.1458 92.7808 20.1515 92.8565 20.1591V21.5227C92.8111 21.5114 92.7069 21.4943 92.544 21.4716C92.3849 21.4451 92.2164 21.4318 92.0384 21.4318C91.6141 21.4318 91.2353 21.5208 90.902 21.6989C90.5724 21.8731 90.3111 22.1155 90.1179 22.4261C89.9285 22.733 89.8338 23.0833 89.8338 23.4773V29H88.4929ZM97.7259 29.1818C96.938 29.1818 96.2467 28.9943 95.652 28.6193C95.0611 28.2443 94.599 27.7197 94.2656 27.0455C93.9361 26.3712 93.7713 25.5833 93.7713 24.6818C93.7713 23.7727 93.9361 22.9792 94.2656 22.3011C94.599 21.6231 95.0611 21.0966 95.652 20.7216C96.2467 20.3466 96.938 20.1591 97.7259 20.1591C98.5137 20.1591 99.2031 20.3466 99.794 20.7216C100.389 21.0966 100.851 21.6231 101.18 22.3011C101.514 22.9792 101.68 23.7727 101.68 24.6818C101.68 25.5833 101.514 26.3712 101.18 27.0455C100.851 27.7197 100.389 28.2443 99.794 28.6193C99.2031 28.9943 98.5137 29.1818 97.7259 29.1818ZM97.7259 27.9773C98.3243 27.9773 98.8168 27.8239 99.2031 27.517C99.5895 27.2102 99.8755 26.8068 100.061 26.3068C100.247 25.8068 100.339 25.2652 100.339 24.6818C100.339 24.0985 100.247 23.5549 100.061 23.0511C99.8755 22.5473 99.5895 22.1402 99.2031 21.8295C98.8168 21.5189 98.3243 21.3636 97.7259 21.3636C97.1274 21.3636 96.6349 21.5189 96.2486 21.8295C95.8622 22.1402 95.5762 22.5473 95.3906 23.0511C95.205 23.5549 95.1122 24.0985 95.1122 24.6818C95.1122 25.2652 95.205 25.8068 95.3906 26.3068C95.5762 26.8068 95.8622 27.2102 96.2486 27.517C96.6349 27.8239 97.1274 27.9773 97.7259 27.9773ZM107.023 29.1818C106.295 29.1818 105.653 28.9981 105.097 28.6307C104.54 28.2595 104.104 27.7367 103.79 27.0625C103.475 26.3845 103.318 25.5833 103.318 24.6591C103.318 23.7424 103.475 22.947 103.79 22.2727C104.104 21.5985 104.542 21.0777 105.102 20.7102C105.663 20.3428 106.311 20.1591 107.045 20.1591C107.614 20.1591 108.063 20.2538 108.392 20.4432C108.725 20.6288 108.979 20.8409 109.153 21.0795C109.331 21.3144 109.47 21.5076 109.568 21.6591H109.682V17.3636H111.023V29H109.727V27.6591H109.568C109.47 27.8182 109.33 28.0189 109.148 28.2614C108.966 28.5 108.706 28.714 108.369 28.9034C108.032 29.089 107.583 29.1818 107.023 29.1818ZM107.205 27.9773C107.742 27.9773 108.197 27.8371 108.568 27.5568C108.939 27.2727 109.222 26.8807 109.415 26.3807C109.608 25.8769 109.705 25.2955 109.705 24.6364C109.705 23.9848 109.61 23.4148 109.42 22.9261C109.231 22.4337 108.951 22.0511 108.58 21.7784C108.208 21.5019 107.75 21.3636 107.205 21.3636C106.636 21.3636 106.163 21.5095 105.784 21.8011C105.409 22.089 105.127 22.4811 104.938 22.9773C104.752 23.4697 104.659 24.0227 104.659 24.6364C104.659 25.2576 104.754 25.822 104.943 26.3295C105.136 26.8333 105.42 27.2348 105.795 27.5341C106.174 27.8295 106.644 27.9773 107.205 27.9773ZM119.165 25.4318V20.2727H120.506V29H119.165V27.5227H119.074C118.869 27.9659 118.551 28.3428 118.119 28.6534C117.688 28.9602 117.142 29.1136 116.483 29.1136C115.938 29.1136 115.453 28.9943 115.028 28.7557C114.604 28.5133 114.271 28.1496 114.028 27.6648C113.786 27.1761 113.665 26.5606 113.665 25.8182V20.2727H115.006V25.7273C115.006 26.3636 115.184 26.8712 115.54 27.25C115.9 27.6288 116.358 27.8182 116.915 27.8182C117.248 27.8182 117.587 27.733 117.932 27.5625C118.28 27.392 118.572 27.1307 118.807 26.7784C119.045 26.4261 119.165 25.9773 119.165 25.4318ZM126.507 29.1818C125.689 29.1818 124.984 28.9886 124.393 28.6023C123.803 28.2159 123.348 27.6837 123.03 27.0057C122.712 26.3277 122.553 25.553 122.553 24.6818C122.553 23.7955 122.715 23.0133 123.041 22.3352C123.371 21.6534 123.829 21.1212 124.416 20.7386C125.007 20.3523 125.696 20.1591 126.484 20.1591C127.098 20.1591 127.651 20.2727 128.143 20.5C128.636 20.7273 129.039 21.0455 129.354 21.4545C129.668 21.8636 129.863 22.3409 129.939 22.8864H128.598C128.496 22.4886 128.268 22.1364 127.916 21.8295C127.568 21.5189 127.098 21.3636 126.507 21.3636C125.984 21.3636 125.526 21.5 125.132 21.7727C124.742 22.0417 124.437 22.4223 124.217 22.9148C124.001 23.4034 123.893 23.9773 123.893 24.6364C123.893 25.3106 124 25.8977 124.212 26.3977C124.428 26.8977 124.731 27.286 125.121 27.5625C125.515 27.839 125.977 27.9773 126.507 27.9773C126.856 27.9773 127.172 27.9167 127.456 27.7955C127.74 27.6742 127.981 27.5 128.178 27.2727C128.375 27.0455 128.515 26.7727 128.598 26.4545H129.939C129.863 26.9697 129.676 27.4337 129.376 27.8466C129.081 28.2557 128.689 28.5814 128.2 28.8239C127.715 29.0625 127.151 29.1818 126.507 29.1818ZM135.695 20.2727V21.4091H131.172V20.2727H135.695ZM132.49 18.1818H133.831V26.5C133.831 26.8788 133.886 27.1629 133.996 27.3523C134.109 27.5379 134.253 27.6629 134.428 27.7273C134.606 27.7879 134.793 27.8182 134.99 27.8182C135.138 27.8182 135.259 27.8106 135.354 27.7955C135.448 27.7765 135.524 27.7614 135.581 27.75L135.854 28.9545C135.763 28.9886 135.636 29.0227 135.473 29.0568C135.31 29.0947 135.104 29.1136 134.854 29.1136C134.475 29.1136 134.104 29.0322 133.74 28.8693C133.38 28.7064 133.081 28.4583 132.842 28.125C132.607 27.7917 132.49 27.3712 132.49 26.8636V18.1818Z" fill="#828282"/>
<path d="M224.062 28.625C227.687 28.625 230.625 25.6869 230.625 22.0625C230.625 18.4381 227.687 15.5 224.062 15.5C220.438 15.5 217.5 18.4381 217.5 22.0625C217.5 25.6869 220.438 28.625 224.062 28.625Z" stroke="white" stroke-width="1.5" stroke-linecap="round" stroke-linejoin="round"/>
<path d="M228.703 26.7031L232.5 30.5" stroke="white" stroke-width="1.5" stroke-linecap="round" stroke-linejoin="round"/>
</svg>
