<svg width="223" height="110" viewBox="0 0 223 110" fill="none" xmlns="http://www.w3.org/2000/svg">
<path d="M7.77273 9.27273C7.70455 8.69697 7.42803 8.25 6.94318 7.93182C6.45833 7.61364 5.86364 7.45455 5.15909 7.45455C4.64394 7.45455 4.19318 7.53788 3.80682 7.70455C3.42424 7.87121 3.125 8.10038 2.90909 8.39205C2.69697 8.68371 2.59091 9.01515 2.59091 9.38636C2.59091 9.69697 2.66477 9.96401 2.8125 10.1875C2.96402 10.4072 3.1572 10.5909 3.39205 10.7386C3.62689 10.8826 3.87311 11.0019 4.13068 11.0966C4.38826 11.1875 4.625 11.2614 4.84091 11.3182L6.02273 11.6364C6.32576 11.7159 6.66288 11.8258 7.03409 11.9659C7.40909 12.1061 7.76705 12.2973 8.10795 12.5398C8.45265 12.7784 8.73674 13.0852 8.96023 13.4602C9.18371 13.8352 9.29545 14.2955 9.29545 14.8409C9.29545 15.4697 9.13068 16.0379 8.80114 16.5455C8.47538 17.053 7.99811 17.4564 7.36932 17.7557C6.74432 18.0549 5.98485 18.2045 5.09091 18.2045C4.25758 18.2045 3.53598 18.0701 2.92614 17.8011C2.32008 17.5322 1.8428 17.1572 1.49432 16.6761C1.14962 16.1951 0.954545 15.6364 0.909091 15H2.36364C2.40152 15.4394 2.54924 15.803 2.80682 16.0909C3.06818 16.375 3.39773 16.5871 3.79545 16.7273C4.19697 16.8636 4.62879 16.9318 5.09091 16.9318C5.62879 16.9318 6.11174 16.8447 6.53977 16.6705C6.9678 16.4924 7.30682 16.2462 7.55682 15.9318C7.80682 15.6136 7.93182 15.2424 7.93182 14.8182C7.93182 14.4318 7.82386 14.1174 7.60795 13.875C7.39205 13.6326 7.10795 13.4356 6.75568 13.2841C6.40341 13.1326 6.02273 13 5.61364 12.8864L4.18182 12.4773C3.27273 12.2159 2.55303 11.8428 2.02273 11.358C1.49242 10.8731 1.22727 10.2386 1.22727 9.45455C1.22727 8.80303 1.40341 8.23485 1.75568 7.75C2.11174 7.26136 2.58902 6.88258 3.1875 6.61364C3.78977 6.34091 4.46212 6.20455 5.20455 6.20455C5.95455 6.20455 6.62121 6.33901 7.20455 6.60795C7.78788 6.87311 8.25 7.23674 8.59091 7.69886C8.93561 8.16098 9.11742 8.68561 9.13636 9.27273H7.77273ZM15.0895 18.1818C14.2486 18.1818 13.5232 17.9962 12.9134 17.625C12.3073 17.25 11.8395 16.7273 11.5099 16.0568C11.1842 15.3826 11.0213 14.5985 11.0213 13.7045C11.0213 12.8106 11.1842 12.0227 11.5099 11.3409C11.8395 10.6553 12.2978 10.1212 12.8849 9.73864C13.4759 9.35227 14.1652 9.15909 14.9531 9.15909C15.4077 9.15909 15.8565 9.23485 16.2997 9.38636C16.7429 9.53788 17.1463 9.78409 17.5099 10.125C17.8736 10.4621 18.1634 10.9091 18.3793 11.4659C18.5952 12.0227 18.7031 12.7083 18.7031 13.5227V14.0909H11.9759V12.9318H17.3395C17.3395 12.4394 17.241 12 17.044 11.6136C16.8509 11.2273 16.5743 10.9223 16.2145 10.6989C15.8584 10.4754 15.438 10.3636 14.9531 10.3636C14.419 10.3636 13.9569 10.4962 13.5668 10.7614C13.1804 11.0227 12.883 11.3636 12.6747 11.7841C12.4664 12.2045 12.3622 12.6553 12.3622 13.1364V13.9091C12.3622 14.5682 12.4759 15.1269 12.7031 15.5852C12.9342 16.0398 13.2543 16.3864 13.6634 16.625C14.0724 16.8598 14.5478 16.9773 15.0895 16.9773C15.4418 16.9773 15.7599 16.928 16.044 16.8295C16.3319 16.7273 16.58 16.5758 16.7884 16.375C16.9967 16.1705 17.1577 15.9167 17.2713 15.6136L18.5668 15.9773C18.4304 16.4167 18.2012 16.803 17.8793 17.1364C17.5573 17.4659 17.1596 17.7235 16.6861 17.9091C16.2126 18.0909 15.6804 18.1818 15.0895 18.1818ZM20.7429 18V9.27273H22.0384V10.5909H22.1293C22.2884 10.1591 22.5762 9.80871 22.9929 9.53977C23.4096 9.27083 23.8793 9.13636 24.402 9.13636C24.5005 9.13636 24.6236 9.13826 24.7713 9.14205C24.919 9.14583 25.0308 9.15152 25.1065 9.15909V10.5227C25.0611 10.5114 24.9569 10.4943 24.794 10.4716C24.6349 10.4451 24.4664 10.4318 24.2884 10.4318C23.8641 10.4318 23.4853 10.5208 23.152 10.6989C22.8224 10.8731 22.5611 11.1155 22.3679 11.4261C22.1785 11.733 22.0838 12.0833 22.0838 12.4773V18H20.7429ZM34.098 9.27273L30.8707 18H29.5071L26.2798 9.27273H27.7344L30.1435 16.2273H30.2344L32.6435 9.27273H34.098ZM35.8679 18V9.27273H37.2088V18H35.8679ZM36.5497 7.81818C36.2884 7.81818 36.063 7.72917 35.8736 7.55114C35.688 7.37311 35.5952 7.15909 35.5952 6.90909C35.5952 6.65909 35.688 6.44508 35.8736 6.26705C36.063 6.08902 36.2884 6 36.5497 6C36.8111 6 37.0346 6.08902 37.2202 6.26705C37.4096 6.44508 37.5043 6.65909 37.5043 6.90909C37.5043 7.15909 37.4096 7.37311 37.2202 7.55114C37.0346 7.72917 36.8111 7.81818 36.5497 7.81818ZM43.2102 18.1818C42.392 18.1818 41.6875 17.9886 41.0966 17.6023C40.5057 17.2159 40.0511 16.6837 39.733 16.0057C39.4148 15.3277 39.2557 14.553 39.2557 13.6818C39.2557 12.7955 39.4186 12.0133 39.7443 11.3352C40.0739 10.6534 40.5322 10.1212 41.1193 9.73864C41.7102 9.35227 42.3996 9.15909 43.1875 9.15909C43.8011 9.15909 44.3542 9.27273 44.8466 9.5C45.339 9.72727 45.7424 10.0455 46.0568 10.4545C46.3712 10.8636 46.5663 11.3409 46.642 11.8864H45.3011C45.1989 11.4886 44.9716 11.1364 44.6193 10.8295C44.2708 10.5189 43.8011 10.3636 43.2102 10.3636C42.6875 10.3636 42.2292 10.5 41.8352 10.7727C41.4451 11.0417 41.1402 11.4223 40.9205 11.9148C40.7045 12.4034 40.5966 12.9773 40.5966 13.6364C40.5966 14.3106 40.7027 14.8977 40.9148 15.3977C41.1307 15.8977 41.4337 16.286 41.8239 16.5625C42.2178 16.839 42.6799 16.9773 43.2102 16.9773C43.5587 16.9773 43.875 16.9167 44.1591 16.7955C44.4432 16.6742 44.6837 16.5 44.8807 16.2727C45.0777 16.0455 45.2178 15.7727 45.3011 15.4545H46.642C46.5663 15.9697 46.3788 16.4337 46.0795 16.8466C45.7841 17.2557 45.392 17.5814 44.9034 17.8239C44.4186 18.0625 43.8542 18.1818 43.2102 18.1818ZM52.2614 18.1818C51.4205 18.1818 50.6951 17.9962 50.0852 17.625C49.4792 17.25 49.0114 16.7273 48.6818 16.0568C48.3561 15.3826 48.1932 14.5985 48.1932 13.7045C48.1932 12.8106 48.3561 12.0227 48.6818 11.3409C49.0114 10.6553 49.4697 10.1212 50.0568 9.73864C50.6477 9.35227 51.3371 9.15909 52.125 9.15909C52.5795 9.15909 53.0284 9.23485 53.4716 9.38636C53.9148 9.53788 54.3182 9.78409 54.6818 10.125C55.0455 10.4621 55.3352 10.9091 55.5511 11.4659C55.767 12.0227 55.875 12.7083 55.875 13.5227V14.0909H49.1477V12.9318H54.5114C54.5114 12.4394 54.4129 12 54.2159 11.6136C54.0227 11.2273 53.7462 10.9223 53.3864 10.6989C53.0303 10.4754 52.6098 10.3636 52.125 10.3636C51.5909 10.3636 51.1288 10.4962 50.7386 10.7614C50.3523 11.0227 50.0549 11.3636 49.8466 11.7841C49.6383 12.2045 49.5341 12.6553 49.5341 13.1364V13.9091C49.5341 14.5682 49.6477 15.1269 49.875 15.5852C50.1061 16.0398 50.4261 16.3864 50.8352 16.625C51.2443 16.8598 51.7197 16.9773 52.2614 16.9773C52.6136 16.9773 52.9318 16.928 53.2159 16.8295C53.5038 16.7273 53.7519 16.5758 53.9602 16.375C54.1686 16.1705 54.3295 15.9167 54.4432 15.6136L55.7386 15.9773C55.6023 16.4167 55.3731 16.803 55.0511 17.1364C54.7292 17.4659 54.3314 17.7235 53.858 17.9091C53.3845 18.0909 52.8523 18.1818 52.2614 18.1818ZM64.0966 11.2273L62.892 11.5682C62.8163 11.3674 62.7045 11.1723 62.5568 10.983C62.4129 10.7898 62.2159 10.6307 61.9659 10.5057C61.7159 10.3807 61.3958 10.3182 61.0057 10.3182C60.4716 10.3182 60.0265 10.4413 59.6705 10.6875C59.3182 10.9299 59.142 11.2386 59.142 11.6136C59.142 11.947 59.2633 12.2102 59.5057 12.4034C59.7481 12.5966 60.1269 12.7576 60.642 12.8864L61.9375 13.2045C62.7178 13.3939 63.2992 13.6837 63.6818 14.0739C64.0644 14.4602 64.2557 14.9583 64.2557 15.5682C64.2557 16.0682 64.1117 16.5152 63.8239 16.9091C63.5398 17.303 63.142 17.6136 62.6307 17.8409C62.1193 18.0682 61.5246 18.1818 60.8466 18.1818C59.9564 18.1818 59.2197 17.9886 58.6364 17.6023C58.053 17.2159 57.6837 16.6515 57.5284 15.9091L58.8011 15.5909C58.9223 16.0606 59.1515 16.4129 59.4886 16.6477C59.8295 16.8826 60.2746 17 60.8239 17C61.4489 17 61.9451 16.8674 62.3125 16.6023C62.6837 16.3333 62.8693 16.0114 62.8693 15.6364C62.8693 15.3333 62.7633 15.0795 62.5511 14.875C62.339 14.6667 62.0133 14.5114 61.5739 14.4091L60.1193 14.0682C59.3201 13.8788 58.733 13.5852 58.358 13.1875C57.9867 12.786 57.8011 12.2841 57.8011 11.6818C57.8011 11.1894 57.9394 10.7538 58.2159 10.375C58.4962 9.99621 58.8769 9.69886 59.358 9.48295C59.8428 9.26705 60.392 9.15909 61.0057 9.15909C61.8693 9.15909 62.5473 9.34848 63.0398 9.72727C63.536 10.1061 63.8883 10.6061 64.0966 11.2273Z" fill="#4F4F4F"/>
<line y1="25.5" x2="70" y2="25.5" stroke="#F2F2F2"/>
<path d="M10.7727 52H9.36364C9.2803 51.5947 9.13447 51.2386 8.92614 50.9318C8.72159 50.625 8.47159 50.3674 8.17614 50.1591C7.88447 49.947 7.56061 49.7879 7.20455 49.6818C6.84849 49.5758 6.47727 49.5227 6.09091 49.5227C5.38636 49.5227 4.74811 49.7008 4.17614 50.0568C3.60795 50.4129 3.1553 50.9375 2.81818 51.6307C2.48485 52.3239 2.31818 53.1742 2.31818 54.1818C2.31818 55.1894 2.48485 56.0398 2.81818 56.733C3.1553 57.4261 3.60795 57.9508 4.17614 58.3068C4.74811 58.6629 5.38636 58.8409 6.09091 58.8409C6.47727 58.8409 6.84849 58.7879 7.20455 58.6818C7.56061 58.5758 7.88447 58.4186 8.17614 58.2102C8.47159 57.9981 8.72159 57.7386 8.92614 57.4318C9.13447 57.1212 9.2803 56.7652 9.36364 56.3636H10.7727C10.6667 56.9583 10.4735 57.4905 10.1932 57.9602C9.91288 58.4299 9.56439 58.8295 9.14773 59.1591C8.73106 59.4848 8.26326 59.733 7.74432 59.9034C7.22917 60.0739 6.67803 60.1591 6.09091 60.1591C5.09849 60.1591 4.21591 59.9167 3.44318 59.4318C2.67045 58.947 2.0625 58.2576 1.61932 57.3636C1.17614 56.4697 0.954545 55.4091 0.954545 54.1818C0.954545 52.9545 1.17614 51.8939 1.61932 51C2.0625 50.1061 2.67045 49.4167 3.44318 48.9318C4.21591 48.447 5.09849 48.2045 6.09091 48.2045C6.67803 48.2045 7.22917 48.2898 7.74432 48.4602C8.26326 48.6307 8.73106 48.8807 9.14773 49.2102C9.56439 49.536 9.91288 49.9337 10.1932 50.4034C10.4735 50.8693 10.6667 51.4015 10.7727 52ZM18.3679 56.4318V51.2727H19.7088V60H18.3679V58.5227H18.277C18.0724 58.9659 17.7543 59.3428 17.3224 59.6534C16.8906 59.9602 16.3452 60.1136 15.6861 60.1136C15.1406 60.1136 14.6558 59.9943 14.2315 59.7557C13.8073 59.5133 13.474 59.1496 13.2315 58.6648C12.9891 58.1761 12.8679 57.5606 12.8679 56.8182V51.2727H14.2088V56.7273C14.2088 57.3636 14.3868 57.8712 14.7429 58.25C15.1027 58.6288 15.5611 58.8182 16.1179 58.8182C16.4512 58.8182 16.7902 58.733 17.1349 58.5625C17.4834 58.392 17.7751 58.1307 18.0099 57.7784C18.2486 57.4261 18.3679 56.9773 18.3679 56.4318ZM22.1648 63.2727V51.2727H23.4602V52.6591H23.6193C23.7178 52.5076 23.8542 52.3144 24.0284 52.0795C24.2064 51.8409 24.4602 51.6288 24.7898 51.4432C25.1231 51.2538 25.5739 51.1591 26.142 51.1591C26.8769 51.1591 27.5246 51.3428 28.0852 51.7102C28.6458 52.0777 29.0833 52.5985 29.3977 53.2727C29.7121 53.947 29.8693 54.7424 29.8693 55.6591C29.8693 56.5833 29.7121 57.3845 29.3977 58.0625C29.0833 58.7367 28.6477 59.2595 28.0909 59.6307C27.5341 59.9981 26.892 60.1818 26.1648 60.1818C25.6042 60.1818 25.1553 60.089 24.8182 59.9034C24.4811 59.714 24.2216 59.5 24.0398 59.2614C23.858 59.0189 23.7178 58.8182 23.6193 58.6591H23.5057V63.2727H22.1648ZM23.483 55.6364C23.483 56.2955 23.5795 56.8769 23.7727 57.3807C23.9659 57.8807 24.2481 58.2727 24.6193 58.5568C24.9905 58.8371 25.4451 58.9773 25.983 58.9773C26.5436 58.9773 27.0114 58.8295 27.3864 58.5341C27.7652 58.2348 28.0492 57.8333 28.2386 57.3295C28.4318 56.822 28.5284 56.2576 28.5284 55.6364C28.5284 55.0227 28.4337 54.4697 28.2443 53.9773C28.0587 53.4811 27.7765 53.089 27.3977 52.8011C27.0227 52.5095 26.5511 52.3636 25.983 52.3636C25.4375 52.3636 24.9792 52.5019 24.608 52.7784C24.2367 53.0511 23.9564 53.4337 23.767 53.9261C23.5777 54.4148 23.483 54.9848 23.483 55.6364ZM35.4602 60.1818C34.642 60.1818 33.9375 59.9886 33.3466 59.6023C32.7557 59.2159 32.3011 58.6837 31.983 58.0057C31.6648 57.3277 31.5057 56.553 31.5057 55.6818C31.5057 54.7955 31.6686 54.0133 31.9943 53.3352C32.3239 52.6534 32.7822 52.1212 33.3693 51.7386C33.9602 51.3523 34.6496 51.1591 35.4375 51.1591C36.0511 51.1591 36.6042 51.2727 37.0966 51.5C37.589 51.7273 37.9924 52.0455 38.3068 52.4545C38.6212 52.8636 38.8163 53.3409 38.892 53.8864H37.5511C37.4489 53.4886 37.2216 53.1364 36.8693 52.8295C36.5208 52.5189 36.0511 52.3636 35.4602 52.3636C34.9375 52.3636 34.4792 52.5 34.0852 52.7727C33.6951 53.0417 33.3902 53.4223 33.1705 53.9148C32.9545 54.4034 32.8466 54.9773 32.8466 55.6364C32.8466 56.3106 32.9527 56.8977 33.1648 57.3977C33.3807 57.8977 33.6837 58.286 34.0739 58.5625C34.4678 58.839 34.9299 58.9773 35.4602 58.9773C35.8087 58.9773 36.125 58.9167 36.4091 58.7955C36.6932 58.6742 36.9337 58.5 37.1307 58.2727C37.3277 58.0455 37.4678 57.7727 37.5511 57.4545H38.892C38.8163 57.9697 38.6288 58.4337 38.3295 58.8466C38.0341 59.2557 37.642 59.5814 37.1534 59.8239C36.6686 60.0625 36.1042 60.1818 35.4602 60.1818ZM43.4205 60.2045C42.8674 60.2045 42.3655 60.1004 41.9148 59.892C41.464 59.6799 41.1061 59.375 40.8409 58.9773C40.5758 58.5758 40.4432 58.0909 40.4432 57.5227C40.4432 57.0227 40.5417 56.6174 40.7386 56.3068C40.9356 55.9924 41.1989 55.7462 41.5284 55.5682C41.858 55.3902 42.2216 55.2576 42.6193 55.1705C43.0208 55.0795 43.4242 55.0076 43.8295 54.9545C44.3598 54.8864 44.7898 54.8352 45.1193 54.8011C45.4527 54.7633 45.6951 54.7008 45.8466 54.6136C46.0019 54.5265 46.0795 54.375 46.0795 54.1591V54.1136C46.0795 53.553 45.9261 53.1174 45.6193 52.8068C45.3163 52.4962 44.8561 52.3409 44.2386 52.3409C43.5985 52.3409 43.0966 52.4811 42.733 52.7614C42.3693 53.0417 42.1136 53.3409 41.9659 53.6591L40.6932 53.2045C40.9205 52.6742 41.2235 52.2614 41.6023 51.9659C41.9848 51.6667 42.4015 51.4583 42.8523 51.3409C43.3068 51.2197 43.7538 51.1591 44.1932 51.1591C44.4735 51.1591 44.7955 51.1932 45.1591 51.2614C45.5265 51.3258 45.8807 51.4602 46.2216 51.6648C46.5663 51.8693 46.8523 52.178 47.0795 52.5909C47.3068 53.0038 47.4205 53.5568 47.4205 54.25V60H46.0795V58.8182H46.0114C45.9205 59.0076 45.7689 59.2102 45.5568 59.4261C45.3447 59.642 45.0625 59.8258 44.7102 59.9773C44.358 60.1288 43.928 60.2045 43.4205 60.2045ZM43.625 59C44.1553 59 44.6023 58.8958 44.9659 58.6875C45.3333 58.4792 45.6098 58.2102 45.7955 57.8807C45.9848 57.5511 46.0795 57.2045 46.0795 56.8409V55.6136C46.0227 55.6818 45.8977 55.7443 45.7045 55.8011C45.5152 55.8542 45.2955 55.9015 45.0455 55.9432C44.7992 55.9811 44.5587 56.0152 44.3239 56.0455C44.0928 56.072 43.9053 56.0947 43.7614 56.1136C43.4129 56.1591 43.0871 56.233 42.7841 56.3352C42.4848 56.4337 42.2424 56.5833 42.0568 56.7841C41.875 56.9811 41.7841 57.25 41.7841 57.5909C41.7841 58.0568 41.9564 58.4091 42.3011 58.6477C42.6496 58.8826 43.0909 59 43.625 59ZM51.1179 56.8182L51.0952 55.1591H51.3679L55.1861 51.2727H56.8452L52.777 55.3864H52.6634L51.1179 56.8182ZM49.8679 60V48.3636H51.2088V60H49.8679ZM55.4134 60L52.0043 55.6818L52.9588 54.75L57.1179 60H55.4134ZM61.8707 60.1818C61.0298 60.1818 60.3045 59.9962 59.6946 59.625C59.0885 59.25 58.6207 58.7273 58.2912 58.0568C57.9654 57.3826 57.8026 56.5985 57.8026 55.7045C57.8026 54.8106 57.9654 54.0227 58.2912 53.3409C58.6207 52.6553 59.0791 52.1212 59.6662 51.7386C60.2571 51.3523 60.9465 51.1591 61.7344 51.1591C62.1889 51.1591 62.6378 51.2348 63.081 51.3864C63.5241 51.5379 63.9276 51.7841 64.2912 52.125C64.6548 52.4621 64.9446 52.9091 65.1605 53.4659C65.3764 54.0227 65.4844 54.7083 65.4844 55.5227V56.0909H58.7571V54.9318H64.1207C64.1207 54.4394 64.0223 54 63.8253 53.6136C63.6321 53.2273 63.3556 52.9223 62.9957 52.6989C62.6397 52.4754 62.2192 52.3636 61.7344 52.3636C61.2003 52.3636 60.7382 52.4962 60.348 52.7614C59.9616 53.0227 59.6643 53.3636 59.456 53.7841C59.2476 54.2045 59.1435 54.6553 59.1435 55.1364V55.9091C59.1435 56.5682 59.2571 57.1269 59.4844 57.5852C59.7154 58.0398 60.0355 58.3864 60.4446 58.625C60.8537 58.8598 61.3291 58.9773 61.8707 58.9773C62.223 58.9773 62.5412 58.928 62.8253 58.8295C63.1132 58.7273 63.3613 58.5758 63.5696 58.375C63.7779 58.1705 63.9389 57.9167 64.0526 57.6136L65.348 57.9773C65.2116 58.4167 64.9825 58.803 64.6605 59.1364C64.3385 59.4659 63.9408 59.7235 63.4673 59.9091C62.9938 60.0909 62.4616 60.1818 61.8707 60.1818Z" fill="#4F4F4F"/>
<line y1="67.5" x2="70" y2="67.5" stroke="#F2F2F2"/>
<path d="M11.2273 96.1818C11.2273 97.4091 11.0057 98.4697 10.5625 99.3636C10.1193 100.258 9.51136 100.947 8.73864 101.432C7.96591 101.917 7.08333 102.159 6.09091 102.159C5.09849 102.159 4.21591 101.917 3.44318 101.432C2.67045 100.947 2.0625 100.258 1.61932 99.3636C1.17614 98.4697 0.954545 97.4091 0.954545 96.1818C0.954545 94.9545 1.17614 93.8939 1.61932 93C2.0625 92.1061 2.67045 91.4167 3.44318 90.9318C4.21591 90.447 5.09849 90.2045 6.09091 90.2045C7.08333 90.2045 7.96591 90.447 8.73864 90.9318C9.51136 91.4167 10.1193 92.1061 10.5625 93C11.0057 93.8939 11.2273 94.9545 11.2273 96.1818ZM9.86364 96.1818C9.86364 95.1742 9.69508 94.3239 9.35795 93.6307C9.02462 92.9375 8.57197 92.4129 8 92.0568C7.43182 91.7008 6.79545 91.5227 6.09091 91.5227C5.38636 91.5227 4.74811 91.7008 4.17614 92.0568C3.60795 92.4129 3.1553 92.9375 2.81818 93.6307C2.48485 94.3239 2.31818 95.1742 2.31818 96.1818C2.31818 97.1894 2.48485 98.0398 2.81818 98.733C3.1553 99.4261 3.60795 99.9508 4.17614 100.307C4.74811 100.663 5.38636 100.841 6.09091 100.841C6.79545 100.841 7.43182 100.663 8 100.307C8.57197 99.9508 9.02462 99.4261 9.35795 98.733C9.69508 98.0398 9.86364 97.1894 9.86364 96.1818ZM18.9148 98.4318V93.2727H20.2557V102H18.9148V100.523H18.8239C18.6193 100.966 18.3011 101.343 17.8693 101.653C17.4375 101.96 16.892 102.114 16.233 102.114C15.6875 102.114 15.2027 101.994 14.7784 101.756C14.3542 101.513 14.0208 101.15 13.7784 100.665C13.536 100.176 13.4148 99.5606 13.4148 98.8182V93.2727H14.7557V98.7273C14.7557 99.3636 14.9337 99.8712 15.2898 100.25C15.6496 100.629 16.108 100.818 16.6648 100.818C16.9981 100.818 17.3371 100.733 17.6818 100.562C18.0303 100.392 18.322 100.131 18.5568 99.7784C18.7955 99.4261 18.9148 98.9773 18.9148 98.4318ZM22.7116 102V93.2727H24.0071V94.5909H24.098C24.2571 94.1591 24.545 93.8087 24.9616 93.5398C25.3783 93.2708 25.848 93.1364 26.3707 93.1364C26.4692 93.1364 26.5923 93.1383 26.7401 93.142C26.8878 93.1458 26.9995 93.1515 27.0753 93.1591V94.5227C27.0298 94.5114 26.9257 94.4943 26.7628 94.4716C26.6037 94.4451 26.4351 94.4318 26.2571 94.4318C25.8329 94.4318 25.4541 94.5208 25.1207 94.6989C24.7912 94.8731 24.5298 95.1155 24.3366 95.4261C24.1473 95.733 24.0526 96.0833 24.0526 96.4773V102H22.7116ZM39.7102 93.2727C39.642 92.697 39.3655 92.25 38.8807 91.9318C38.3958 91.6136 37.8011 91.4545 37.0966 91.4545C36.5814 91.4545 36.1307 91.5379 35.7443 91.7045C35.3617 91.8712 35.0625 92.1004 34.8466 92.392C34.6345 92.6837 34.5284 93.0152 34.5284 93.3864C34.5284 93.697 34.6023 93.964 34.75 94.1875C34.9015 94.4072 35.0947 94.5909 35.3295 94.7386C35.5644 94.8826 35.8106 95.0019 36.0682 95.0966C36.3258 95.1875 36.5625 95.2614 36.7784 95.3182L37.9602 95.6364C38.2633 95.7159 38.6004 95.8258 38.9716 95.9659C39.3466 96.1061 39.7045 96.2973 40.0455 96.5398C40.3902 96.7784 40.6742 97.0852 40.8977 97.4602C41.1212 97.8352 41.233 98.2955 41.233 98.8409C41.233 99.4697 41.0682 100.038 40.7386 100.545C40.4129 101.053 39.9356 101.456 39.3068 101.756C38.6818 102.055 37.9223 102.205 37.0284 102.205C36.1951 102.205 35.4735 102.07 34.8636 101.801C34.2576 101.532 33.7803 101.157 33.4318 100.676C33.0871 100.195 32.892 99.6364 32.8466 99H34.3011C34.339 99.4394 34.4867 99.803 34.7443 100.091C35.0057 100.375 35.3352 100.587 35.733 100.727C36.1345 100.864 36.5663 100.932 37.0284 100.932C37.5663 100.932 38.0492 100.845 38.4773 100.67C38.9053 100.492 39.2443 100.246 39.4943 99.9318C39.7443 99.6136 39.8693 99.2424 39.8693 98.8182C39.8693 98.4318 39.7614 98.1174 39.5455 97.875C39.3295 97.6326 39.0455 97.4356 38.6932 97.2841C38.3409 97.1326 37.9602 97 37.5511 96.8864L36.1193 96.4773C35.2102 96.2159 34.4905 95.8428 33.9602 95.358C33.4299 94.8731 33.1648 94.2386 33.1648 93.4545C33.1648 92.803 33.3409 92.2348 33.6932 91.75C34.0492 91.2614 34.5265 90.8826 35.125 90.6136C35.7273 90.3409 36.3996 90.2045 37.142 90.2045C37.892 90.2045 38.5587 90.339 39.142 90.608C39.7254 90.8731 40.1875 91.2367 40.5284 91.6989C40.8731 92.161 41.0549 92.6856 41.0739 93.2727H39.7102ZM44.7088 96.75V102H43.3679V90.3636H44.7088V94.6364H44.8224C45.027 94.1856 45.3338 93.8277 45.7429 93.5625C46.1558 93.2936 46.705 93.1591 47.3906 93.1591C47.9853 93.1591 48.5062 93.2784 48.9531 93.517C49.4001 93.7519 49.7467 94.1136 49.9929 94.6023C50.2429 95.0871 50.3679 95.7045 50.3679 96.4545V102H49.027V96.5455C49.027 95.8523 48.8471 95.3163 48.4872 94.9375C48.1312 94.5549 47.6368 94.3636 47.0043 94.3636C46.5649 94.3636 46.1709 94.4564 45.8224 94.642C45.4777 94.8277 45.205 95.0985 45.0043 95.4545C44.8073 95.8106 44.7088 96.2424 44.7088 96.75ZM56.3665 102.182C55.5786 102.182 54.8873 101.994 54.2926 101.619C53.7017 101.244 53.2396 100.72 52.9062 100.045C52.5767 99.3712 52.4119 98.5833 52.4119 97.6818C52.4119 96.7727 52.5767 95.9792 52.9062 95.3011C53.2396 94.6231 53.7017 94.0966 54.2926 93.7216C54.8873 93.3466 55.5786 93.1591 56.3665 93.1591C57.1544 93.1591 57.8438 93.3466 58.4347 93.7216C59.0294 94.0966 59.4915 94.6231 59.821 95.3011C60.1544 95.9792 60.321 96.7727 60.321 97.6818C60.321 98.5833 60.1544 99.3712 59.821 100.045C59.4915 100.72 59.0294 101.244 58.4347 101.619C57.8438 101.994 57.1544 102.182 56.3665 102.182ZM56.3665 100.977C56.965 100.977 57.4574 100.824 57.8438 100.517C58.2301 100.21 58.5161 99.8068 58.7017 99.3068C58.8873 98.8068 58.9801 98.2652 58.9801 97.6818C58.9801 97.0985 58.8873 96.5549 58.7017 96.0511C58.5161 95.5473 58.2301 95.1402 57.8438 94.8295C57.4574 94.5189 56.965 94.3636 56.3665 94.3636C55.768 94.3636 55.2756 94.5189 54.8892 94.8295C54.5028 95.1402 54.2169 95.5473 54.0312 96.0511C53.8456 96.5549 53.7528 97.0985 53.7528 97.6818C53.7528 98.2652 53.8456 98.8068 54.0312 99.3068C54.2169 99.8068 54.5028 100.21 54.8892 100.517C55.2756 100.824 55.768 100.977 56.3665 100.977ZM62.3679 105.273V93.2727H63.6634V94.6591H63.8224C63.9209 94.5076 64.0573 94.3144 64.2315 94.0795C64.4096 93.8409 64.6634 93.6288 64.9929 93.4432C65.3262 93.2538 65.777 93.1591 66.3452 93.1591C67.08 93.1591 67.7277 93.3428 68.2884 93.7102C68.849 94.0777 69.2865 94.5985 69.6009 95.2727C69.9152 95.947 70.0724 96.7424 70.0724 97.6591C70.0724 98.5833 69.9152 99.3845 69.6009 100.062C69.2865 100.737 68.8509 101.259 68.294 101.631C67.7372 101.998 67.0952 102.182 66.3679 102.182C65.8073 102.182 65.3584 102.089 65.0213 101.903C64.6842 101.714 64.4247 101.5 64.2429 101.261C64.0611 101.019 63.9209 100.818 63.8224 100.659H63.7088V105.273H62.3679ZM63.6861 97.6364C63.6861 98.2955 63.7827 98.8769 63.9759 99.3807C64.169 99.8807 64.4512 100.273 64.8224 100.557C65.1937 100.837 65.6482 100.977 66.1861 100.977C66.7467 100.977 67.2145 100.83 67.5895 100.534C67.9683 100.235 68.2524 99.8333 68.4418 99.3295C68.6349 98.822 68.7315 98.2576 68.7315 97.6364C68.7315 97.0227 68.6368 96.4697 68.4474 95.9773C68.2618 95.4811 67.9796 95.089 67.6009 94.8011C67.2259 94.5095 66.7543 94.3636 66.1861 94.3636C65.6406 94.3636 65.1823 94.5019 64.8111 94.7784C64.4399 95.0511 64.1596 95.4337 63.9702 95.9261C63.7808 96.4148 63.6861 96.9848 63.6861 97.6364Z" fill="#4F4F4F"/>
<line y1="109.5" x2="70" y2="109.5" stroke="#F2F2F2"/>
<path d="M87.7727 91.6136V90.3636H96.5V91.6136H92.8409V102H91.4318V91.6136H87.7727ZM99.8736 102.205C99.3205 102.205 98.8187 102.1 98.3679 101.892C97.9171 101.68 97.5592 101.375 97.294 100.977C97.0289 100.576 96.8963 100.091 96.8963 99.5227C96.8963 99.0227 96.9948 98.6174 97.1918 98.3068C97.3887 97.9924 97.652 97.7462 97.9815 97.5682C98.3111 97.3902 98.6747 97.2576 99.0724 97.1705C99.474 97.0795 99.8774 97.0076 100.283 96.9545C100.813 96.8864 101.243 96.8352 101.572 96.8011C101.906 96.7633 102.148 96.7008 102.3 96.6136C102.455 96.5265 102.533 96.375 102.533 96.1591V96.1136C102.533 95.553 102.379 95.1174 102.072 94.8068C101.769 94.4962 101.309 94.3409 100.692 94.3409C100.052 94.3409 99.5497 94.4811 99.1861 94.7614C98.8224 95.0417 98.5668 95.3409 98.419 95.6591L97.1463 95.2045C97.3736 94.6742 97.6766 94.2614 98.0554 93.9659C98.438 93.6667 98.8546 93.4583 99.3054 93.3409C99.7599 93.2197 100.207 93.1591 100.646 93.1591C100.927 93.1591 101.249 93.1932 101.612 93.2614C101.98 93.3258 102.334 93.4602 102.675 93.6648C103.019 93.8693 103.305 94.178 103.533 94.5909C103.76 95.0038 103.874 95.5568 103.874 96.25V102H102.533V100.818H102.464C102.374 101.008 102.222 101.21 102.01 101.426C101.798 101.642 101.516 101.826 101.163 101.977C100.811 102.129 100.381 102.205 99.8736 102.205ZM100.078 101C100.608 101 101.055 100.896 101.419 100.688C101.786 100.479 102.063 100.21 102.249 99.8807C102.438 99.5511 102.533 99.2045 102.533 98.8409V97.6136C102.476 97.6818 102.351 97.7443 102.158 97.8011C101.968 97.8542 101.749 97.9015 101.499 97.9432C101.252 97.9811 101.012 98.0152 100.777 98.0455C100.546 98.072 100.358 98.0947 100.214 98.1136C99.866 98.1591 99.5402 98.233 99.2372 98.3352C98.938 98.4337 98.6955 98.5833 98.5099 98.7841C98.3281 98.9811 98.2372 99.25 98.2372 99.5909C98.2372 100.057 98.4096 100.409 98.7543 100.648C99.1027 100.883 99.544 101 100.078 101ZM107.662 96.75V102H106.321V93.2727H107.616V94.6364H107.73C107.935 94.1932 108.245 93.8371 108.662 93.5682C109.079 93.2955 109.616 93.1591 110.276 93.1591C110.866 93.1591 111.384 93.2803 111.827 93.5227C112.27 93.7614 112.615 94.125 112.861 94.6136C113.107 95.0985 113.23 95.7121 113.23 96.4545V102H111.889V96.5455C111.889 95.8598 111.711 95.3258 111.355 94.9432C110.999 94.5568 110.51 94.3636 109.889 94.3636C109.461 94.3636 109.079 94.4564 108.741 94.642C108.408 94.8277 108.145 95.0985 107.952 95.4545C107.759 95.8106 107.662 96.2424 107.662 96.75ZM118.976 102.182C118.249 102.182 117.607 101.998 117.05 101.631C116.493 101.259 116.057 100.737 115.743 100.062C115.429 99.3845 115.271 98.5833 115.271 97.6591C115.271 96.7424 115.429 95.947 115.743 95.2727C116.057 94.5985 116.495 94.0777 117.055 93.7102C117.616 93.3428 118.264 93.1591 118.999 93.1591C119.567 93.1591 120.016 93.2538 120.345 93.4432C120.679 93.6288 120.932 93.8409 121.107 94.0795C121.285 94.3144 121.423 94.5076 121.521 94.6591H121.635V90.3636H122.976V102H121.68V100.659H121.521C121.423 100.818 121.283 101.019 121.101 101.261C120.919 101.5 120.66 101.714 120.322 101.903C119.985 102.089 119.536 102.182 118.976 102.182ZM119.158 100.977C119.696 100.977 120.15 100.837 120.521 100.557C120.893 100.273 121.175 99.8807 121.368 99.3807C121.561 98.8769 121.658 98.2955 121.658 97.6364C121.658 96.9848 121.563 96.4148 121.374 95.9261C121.184 95.4337 120.904 95.0511 120.533 94.7784C120.161 94.5019 119.703 94.3636 119.158 94.3636C118.589 94.3636 118.116 94.5095 117.737 94.8011C117.362 95.089 117.08 95.4811 116.891 95.9773C116.705 96.4697 116.612 97.0227 116.612 97.6364C116.612 98.2576 116.707 98.822 116.896 99.3295C117.089 99.8333 117.374 100.235 117.749 100.534C118.127 100.83 118.597 100.977 119.158 100.977ZM129.163 102.182C128.375 102.182 127.684 101.994 127.089 101.619C126.499 101.244 126.036 100.72 125.703 100.045C125.374 99.3712 125.209 98.5833 125.209 97.6818C125.209 96.7727 125.374 95.9792 125.703 95.3011C126.036 94.6231 126.499 94.0966 127.089 93.7216C127.684 93.3466 128.375 93.1591 129.163 93.1591C129.951 93.1591 130.641 93.3466 131.232 93.7216C131.826 94.0966 132.288 94.6231 132.618 95.3011C132.951 95.9792 133.118 96.7727 133.118 97.6818C133.118 98.5833 132.951 99.3712 132.618 100.045C132.288 100.72 131.826 101.244 131.232 101.619C130.641 101.994 129.951 102.182 129.163 102.182ZM129.163 100.977C129.762 100.977 130.254 100.824 130.641 100.517C131.027 100.21 131.313 99.8068 131.499 99.3068C131.684 98.8068 131.777 98.2652 131.777 97.6818C131.777 97.0985 131.684 96.5549 131.499 96.0511C131.313 95.5473 131.027 95.1402 130.641 94.8295C130.254 94.5189 129.762 94.3636 129.163 94.3636C128.565 94.3636 128.072 94.5189 127.686 94.8295C127.3 95.1402 127.014 95.5473 126.828 96.0511C126.643 96.5549 126.55 97.0985 126.55 97.6818C126.55 98.2652 126.643 98.8068 126.828 99.3068C127.014 99.8068 127.3 100.21 127.686 100.517C128.072 100.824 128.565 100.977 129.163 100.977ZM138.71 102.182C137.922 102.182 137.231 101.994 136.636 101.619C136.045 101.244 135.583 100.72 135.25 100.045C134.92 99.3712 134.756 98.5833 134.756 97.6818C134.756 96.7727 134.92 95.9792 135.25 95.3011C135.583 94.6231 136.045 94.0966 136.636 93.7216C137.231 93.3466 137.922 93.1591 138.71 93.1591C139.498 93.1591 140.188 93.3466 140.778 93.7216C141.373 94.0966 141.835 94.6231 142.165 95.3011C142.498 95.9792 142.665 96.7727 142.665 97.6818C142.665 98.5833 142.498 99.3712 142.165 100.045C141.835 100.72 141.373 101.244 140.778 101.619C140.188 101.994 139.498 102.182 138.71 102.182ZM138.71 100.977C139.309 100.977 139.801 100.824 140.188 100.517C140.574 100.21 140.86 99.8068 141.045 99.3068C141.231 98.8068 141.324 98.2652 141.324 97.6818C141.324 97.0985 141.231 96.5549 141.045 96.0511C140.86 95.5473 140.574 95.1402 140.188 94.8295C139.801 94.5189 139.309 94.3636 138.71 94.3636C138.112 94.3636 137.619 94.5189 137.233 94.8295C136.847 95.1402 136.561 95.5473 136.375 96.0511C136.189 96.5549 136.097 97.0985 136.097 97.6818C136.097 98.2652 136.189 98.8068 136.375 99.3068C136.561 99.8068 136.847 100.21 137.233 100.517C137.619 100.824 138.112 100.977 138.71 100.977ZM144.712 102V93.2727H146.007V94.5909H146.098C146.257 94.1591 146.545 93.8087 146.962 93.5398C147.378 93.2708 147.848 93.1364 148.371 93.1364C148.469 93.1364 148.592 93.1383 148.74 93.142C148.888 93.1458 149 93.1515 149.075 93.1591V94.5227C149.03 94.5114 148.926 94.4943 148.763 94.4716C148.604 94.4451 148.435 94.4318 148.257 94.4318C147.833 94.4318 147.454 94.5208 147.121 94.6989C146.791 94.8731 146.53 95.1155 146.337 95.4261C146.147 95.733 146.053 96.0833 146.053 96.4773V102H144.712ZM150.665 102V93.2727H152.006V102H150.665ZM151.347 91.8182C151.085 91.8182 150.86 91.7292 150.67 91.5511C150.485 91.3731 150.392 91.1591 150.392 90.9091C150.392 90.6591 150.485 90.4451 150.67 90.267C150.86 90.089 151.085 90 151.347 90C151.608 90 151.831 90.089 152.017 90.267C152.206 90.4451 152.301 90.6591 152.301 90.9091C152.301 91.1591 152.206 91.3731 152.017 91.5511C151.831 91.7292 151.608 91.8182 151.347 91.8182ZM168.507 94H167.098C167.015 93.5947 166.869 93.2386 166.661 92.9318C166.456 92.625 166.206 92.3674 165.911 92.1591C165.619 91.947 165.295 91.7879 164.939 91.6818C164.583 91.5758 164.212 91.5227 163.825 91.5227C163.121 91.5227 162.482 91.7008 161.911 92.0568C161.342 92.4129 160.89 92.9375 160.553 93.6307C160.219 94.3239 160.053 95.1742 160.053 96.1818C160.053 97.1894 160.219 98.0398 160.553 98.733C160.89 99.4261 161.342 99.9508 161.911 100.307C162.482 100.663 163.121 100.841 163.825 100.841C164.212 100.841 164.583 100.788 164.939 100.682C165.295 100.576 165.619 100.419 165.911 100.21C166.206 99.9981 166.456 99.7386 166.661 99.4318C166.869 99.1212 167.015 98.7652 167.098 98.3636H168.507C168.401 98.9583 168.208 99.4905 167.928 99.9602C167.647 100.43 167.299 100.83 166.882 101.159C166.465 101.485 165.998 101.733 165.479 101.903C164.964 102.074 164.412 102.159 163.825 102.159C162.833 102.159 161.95 101.917 161.178 101.432C160.405 100.947 159.797 100.258 159.354 99.3636C158.911 98.4697 158.689 97.4091 158.689 96.1818C158.689 94.9545 158.911 93.8939 159.354 93C159.797 92.1061 160.405 91.4167 161.178 90.9318C161.95 90.447 162.833 90.2045 163.825 90.2045C164.412 90.2045 164.964 90.2898 165.479 90.4602C165.998 90.6307 166.465 90.8807 166.882 91.2102C167.299 91.536 167.647 91.9337 167.928 92.4034C168.208 92.8693 168.401 93.4015 168.507 94ZM171.943 96.75V102H170.602V90.3636H171.943V94.6364H172.057C172.261 94.1856 172.568 93.8277 172.977 93.5625C173.39 93.2936 173.939 93.1591 174.625 93.1591C175.22 93.1591 175.741 93.2784 176.188 93.517C176.634 93.7519 176.981 94.1136 177.227 94.6023C177.477 95.0871 177.602 95.7045 177.602 96.4545V102H176.261V96.5455C176.261 95.8523 176.081 95.3163 175.722 94.9375C175.366 94.5549 174.871 94.3636 174.239 94.3636C173.799 94.3636 173.405 94.4564 173.057 94.642C172.712 94.8277 172.439 95.0985 172.239 95.4545C172.042 95.8106 171.943 96.2424 171.943 96.75ZM180.055 102V93.2727H181.396V102H180.055ZM180.737 91.8182C180.476 91.8182 180.25 91.7292 180.061 91.5511C179.875 91.3731 179.783 91.1591 179.783 90.9091C179.783 90.6591 179.875 90.4451 180.061 90.267C180.25 90.089 180.476 90 180.737 90C180.999 90 181.222 90.089 181.408 90.267C181.597 90.4451 181.692 90.6591 181.692 90.9091C181.692 91.1591 181.597 91.3731 181.408 91.5511C181.222 91.7292 180.999 91.8182 180.737 91.8182ZM187.398 102.182C186.58 102.182 185.875 101.989 185.284 101.602C184.693 101.216 184.239 100.684 183.92 100.006C183.602 99.3277 183.443 98.553 183.443 97.6818C183.443 96.7955 183.606 96.0133 183.932 95.3352C184.261 94.6534 184.72 94.1212 185.307 93.7386C185.898 93.3523 186.587 93.1591 187.375 93.1591C187.989 93.1591 188.542 93.2727 189.034 93.5C189.527 93.7273 189.93 94.0455 190.244 94.4545C190.559 94.8636 190.754 95.3409 190.83 95.8864H189.489C189.386 95.4886 189.159 95.1364 188.807 94.8295C188.458 94.5189 187.989 94.3636 187.398 94.3636C186.875 94.3636 186.417 94.5 186.023 94.7727C185.633 95.0417 185.328 95.4223 185.108 95.9148C184.892 96.4034 184.784 96.9773 184.784 97.6364C184.784 98.3106 184.89 98.8977 185.102 99.3977C185.318 99.8977 185.621 100.286 186.011 100.562C186.405 100.839 186.867 100.977 187.398 100.977C187.746 100.977 188.062 100.917 188.347 100.795C188.631 100.674 188.871 100.5 189.068 100.273C189.265 100.045 189.405 99.7727 189.489 99.4545H190.83C190.754 99.9697 190.566 100.434 190.267 100.847C189.972 101.256 189.58 101.581 189.091 101.824C188.606 102.062 188.042 102.182 187.398 102.182ZM194.04 98.8182L194.017 97.1591H194.29L198.108 93.2727H199.767L195.699 97.3864H195.585L194.04 98.8182ZM192.79 102V90.3636H194.131V102H192.79ZM198.335 102L194.926 97.6818L195.881 96.75L200.04 102H198.335ZM204.793 102.182C203.952 102.182 203.226 101.996 202.616 101.625C202.01 101.25 201.543 100.727 201.213 100.057C200.887 99.3826 200.724 98.5985 200.724 97.7045C200.724 96.8106 200.887 96.0227 201.213 95.3409C201.543 94.6553 202.001 94.1212 202.588 93.7386C203.179 93.3523 203.868 93.1591 204.656 93.1591C205.111 93.1591 205.56 93.2348 206.003 93.3864C206.446 93.5379 206.849 93.7841 207.213 94.125C207.577 94.4621 207.866 94.9091 208.082 95.4659C208.298 96.0227 208.406 96.7083 208.406 97.5227V98.0909H201.679V96.9318H207.043C207.043 96.4394 206.944 96 206.747 95.6136C206.554 95.2273 206.277 94.9223 205.918 94.6989C205.562 94.4754 205.141 94.3636 204.656 94.3636C204.122 94.3636 203.66 94.4962 203.27 94.7614C202.884 95.0227 202.586 95.3636 202.378 95.7841C202.17 96.2045 202.065 96.6553 202.065 97.1364V97.9091C202.065 98.5682 202.179 99.1269 202.406 99.5852C202.637 100.04 202.957 100.386 203.366 100.625C203.776 100.86 204.251 100.977 204.793 100.977C205.145 100.977 205.463 100.928 205.747 100.83C206.035 100.727 206.283 100.576 206.491 100.375C206.7 100.17 206.861 99.9167 206.974 99.6136L208.27 99.9773C208.134 100.417 207.904 100.803 207.582 101.136C207.26 101.466 206.863 101.723 206.389 101.909C205.916 102.091 205.384 102.182 204.793 102.182ZM211.787 96.75V102H210.446V93.2727H211.741V94.6364H211.855C212.06 94.1932 212.37 93.8371 212.787 93.5682C213.204 93.2955 213.741 93.1591 214.401 93.1591C214.991 93.1591 215.509 93.2803 215.952 93.5227C216.395 93.7614 216.74 94.125 216.986 94.6136C217.232 95.0985 217.355 95.7121 217.355 96.4545V102H216.014V96.5455C216.014 95.8598 215.836 95.3258 215.48 94.9432C215.124 94.5568 214.635 94.3636 214.014 94.3636C213.586 94.3636 213.204 94.4564 212.866 94.642C212.533 94.8277 212.27 95.0985 212.077 95.4545C211.884 95.8106 211.787 96.2424 211.787 96.75Z" fill="#4F4F4F"/>
<line x1="87" y1="109.5" x2="219" y2="109.5" stroke="#F2F2F2"/>
<path d="M87.4091 60V48.3636H91.4773C92.2879 48.3636 92.9564 48.5038 93.483 48.7841C94.0095 49.0606 94.4015 49.4337 94.6591 49.9034C94.9167 50.3693 95.0455 50.8864 95.0455 51.4545C95.0455 51.9545 94.9564 52.3674 94.7784 52.6932C94.6042 53.0189 94.3731 53.2765 94.0852 53.4659C93.8011 53.6553 93.4924 53.7955 93.1591 53.8864V54C93.5152 54.0227 93.8731 54.1477 94.233 54.375C94.5928 54.6023 94.8939 54.928 95.1364 55.3523C95.3788 55.7765 95.5 56.2955 95.5 56.9091C95.5 57.4924 95.3674 58.017 95.1023 58.483C94.8371 58.9489 94.4186 59.3182 93.8466 59.5909C93.2746 59.8636 92.5303 60 91.6136 60H87.4091ZM88.8182 58.75H91.6136C92.5341 58.75 93.1875 58.572 93.5739 58.2159C93.964 57.8561 94.1591 57.4205 94.1591 56.9091C94.1591 56.5152 94.0587 56.1515 93.858 55.8182C93.6572 55.4811 93.3712 55.2121 93 55.0114C92.6288 54.8068 92.1894 54.7045 91.6818 54.7045H88.8182V58.75ZM88.8182 53.4773H91.4318C91.8561 53.4773 92.2386 53.3939 92.5795 53.2273C92.9242 53.0606 93.197 52.8258 93.3977 52.5227C93.6023 52.2197 93.7045 51.8636 93.7045 51.4545C93.7045 50.9432 93.5265 50.5095 93.1705 50.1534C92.8144 49.7936 92.25 49.6136 91.4773 49.6136H88.8182V53.4773ZM103.134 56.4318V51.2727H104.474V60H103.134V58.5227H103.043C102.838 58.9659 102.52 59.3428 102.088 59.6534C101.656 59.9602 101.111 60.1136 100.452 60.1136C99.9062 60.1136 99.4214 59.9943 98.9972 59.7557C98.5729 59.5133 98.2396 59.1496 97.9972 58.6648C97.7547 58.1761 97.6335 57.5606 97.6335 56.8182V51.2727H98.9744V56.7273C98.9744 57.3636 99.1525 57.8712 99.5085 58.25C99.8684 58.6288 100.327 58.8182 100.884 58.8182C101.217 58.8182 101.556 58.733 101.901 58.5625C102.249 58.392 102.541 58.1307 102.776 57.7784C103.014 57.4261 103.134 56.9773 103.134 56.4318ZM106.93 60V51.2727H108.226V52.5909H108.317C108.476 52.1591 108.764 51.8087 109.18 51.5398C109.597 51.2708 110.067 51.1364 110.589 51.1364C110.688 51.1364 110.811 51.1383 110.959 51.142C111.107 51.1458 111.218 51.1515 111.294 51.1591V52.5227C111.249 52.5114 111.144 52.4943 110.982 52.4716C110.822 52.4451 110.654 52.4318 110.476 52.4318C110.052 52.4318 109.673 52.5208 109.339 52.6989C109.01 52.8731 108.749 53.1155 108.555 53.4261C108.366 53.733 108.271 54.0833 108.271 54.4773V60H106.93ZM116.141 63.4545C115.493 63.4545 114.936 63.3712 114.47 63.2045C114.004 63.0417 113.616 62.8258 113.305 62.5568C112.999 62.2917 112.754 62.0076 112.572 61.7045L113.641 60.9545C113.762 61.1136 113.915 61.2955 114.101 61.5C114.286 61.7083 114.54 61.8883 114.862 62.0398C115.188 62.1951 115.614 62.2727 116.141 62.2727C116.845 62.2727 117.427 62.1023 117.885 61.7614C118.343 61.4205 118.572 60.8864 118.572 60.1591V58.3864H118.459C118.36 58.5455 118.22 58.7424 118.038 58.9773C117.86 59.2083 117.603 59.4148 117.266 59.5966C116.932 59.7746 116.482 59.8636 115.913 59.8636C115.209 59.8636 114.576 59.697 114.016 59.3636C113.459 59.0303 113.018 58.5455 112.692 57.9091C112.37 57.2727 112.209 56.5 112.209 55.5909C112.209 54.697 112.366 53.9186 112.68 53.2557C112.995 52.589 113.432 52.0739 113.993 51.7102C114.554 51.3428 115.201 51.1591 115.936 51.1591C116.504 51.1591 116.955 51.2538 117.288 51.4432C117.625 51.6288 117.883 51.8409 118.061 52.0795C118.243 52.3144 118.383 52.5076 118.482 52.6591H118.618V51.2727H119.913V60.25C119.913 61 119.743 61.6098 119.402 62.0795C119.065 62.553 118.61 62.8996 118.038 63.1193C117.47 63.3428 116.838 63.4545 116.141 63.4545ZM116.095 58.6591C116.633 58.6591 117.088 58.536 117.459 58.2898C117.83 58.0436 118.112 57.6894 118.305 57.2273C118.499 56.7652 118.595 56.2121 118.595 55.5682C118.595 54.9394 118.5 54.3845 118.311 53.9034C118.122 53.4223 117.841 53.0455 117.47 52.7727C117.099 52.5 116.641 52.3636 116.095 52.3636C115.527 52.3636 115.054 52.5076 114.675 52.7955C114.3 53.0833 114.018 53.4697 113.828 53.9545C113.643 54.4394 113.55 54.9773 113.55 55.5682C113.55 56.1742 113.644 56.7102 113.834 57.1761C114.027 57.6383 114.311 58.0019 114.686 58.267C115.065 58.5284 115.535 58.6591 116.095 58.6591ZM126.027 60.1818C125.186 60.1818 124.461 59.9962 123.851 59.625C123.245 59.25 122.777 58.7273 122.447 58.0568C122.122 57.3826 121.959 56.5985 121.959 55.7045C121.959 54.8106 122.122 54.0227 122.447 53.3409C122.777 52.6553 123.235 52.1212 123.822 51.7386C124.413 51.3523 125.103 51.1591 125.891 51.1591C126.345 51.1591 126.794 51.2348 127.237 51.3864C127.68 51.5379 128.084 51.7841 128.447 52.125C128.811 52.4621 129.101 52.9091 129.317 53.4659C129.533 54.0227 129.641 54.7083 129.641 55.5227V56.0909H122.913V54.9318H128.277C128.277 54.4394 128.179 54 127.982 53.6136C127.788 53.2273 127.512 52.9223 127.152 52.6989C126.796 52.4754 126.375 52.3636 125.891 52.3636C125.357 52.3636 124.894 52.4962 124.504 52.7614C124.118 53.0227 123.821 53.3636 123.612 53.7841C123.404 54.2045 123.3 54.6553 123.3 55.1364V55.9091C123.3 56.5682 123.413 57.1269 123.641 57.5852C123.872 58.0398 124.192 58.3864 124.601 58.625C125.01 58.8598 125.485 58.9773 126.027 58.9773C126.379 58.9773 126.697 58.928 126.982 58.8295C127.269 58.7273 127.518 58.5758 127.726 58.375C127.934 58.1705 128.095 57.9167 128.209 57.6136L129.504 57.9773C129.368 58.4167 129.139 58.803 128.817 59.1364C128.495 59.4659 128.097 59.7235 127.624 59.9091C127.15 60.0909 126.618 60.1818 126.027 60.1818ZM131.68 60V51.2727H132.976V52.5909H133.067C133.226 52.1591 133.514 51.8087 133.93 51.5398C134.347 51.2708 134.817 51.1364 135.339 51.1364C135.438 51.1364 135.561 51.1383 135.709 51.142C135.857 51.1458 135.968 51.1515 136.044 51.1591V52.5227C135.999 52.5114 135.894 52.4943 135.732 52.4716C135.572 52.4451 135.404 52.4318 135.226 52.4318C134.802 52.4318 134.423 52.5208 134.089 52.6989C133.76 52.8731 133.499 53.1155 133.305 53.4261C133.116 53.733 133.021 54.0833 133.021 54.4773V60H131.68Z" fill="#FF9F0D"/>
<line x1="86" y1="67.5" x2="137" y2="67.5" stroke="#FF9F0D"/>
<path d="M163.773 52H162.364C162.28 51.5947 162.134 51.2386 161.926 50.9318C161.722 50.625 161.472 50.3674 161.176 50.1591C160.884 49.947 160.561 49.7879 160.205 49.6818C159.848 49.5758 159.477 49.5227 159.091 49.5227C158.386 49.5227 157.748 49.7008 157.176 50.0568C156.608 50.4129 156.155 50.9375 155.818 51.6307C155.485 52.3239 155.318 53.1742 155.318 54.1818C155.318 55.1894 155.485 56.0398 155.818 56.733C156.155 57.4261 156.608 57.9508 157.176 58.3068C157.748 58.6629 158.386 58.8409 159.091 58.8409C159.477 58.8409 159.848 58.7879 160.205 58.6818C160.561 58.5758 160.884 58.4186 161.176 58.2102C161.472 57.9981 161.722 57.7386 161.926 57.4318C162.134 57.1212 162.28 56.7652 162.364 56.3636H163.773C163.667 56.9583 163.473 57.4905 163.193 57.9602C162.913 58.4299 162.564 58.8295 162.148 59.1591C161.731 59.4848 161.263 59.733 160.744 59.9034C160.229 60.0739 159.678 60.1591 159.091 60.1591C158.098 60.1591 157.216 59.9167 156.443 59.4318C155.67 58.947 155.063 58.2576 154.619 57.3636C154.176 56.4697 153.955 55.4091 153.955 54.1818C153.955 52.9545 154.176 51.8939 154.619 51C155.063 50.1061 155.67 49.4167 156.443 48.9318C157.216 48.447 158.098 48.2045 159.091 48.2045C159.678 48.2045 160.229 48.2898 160.744 48.4602C161.263 48.6307 161.731 48.8807 162.148 49.2102C162.564 49.536 162.913 49.9337 163.193 50.4034C163.473 50.8693 163.667 51.4015 163.773 52ZM169.413 60.1818C168.625 60.1818 167.934 59.9943 167.339 59.6193C166.749 59.2443 166.286 58.7197 165.953 58.0455C165.624 57.3712 165.459 56.5833 165.459 55.6818C165.459 54.7727 165.624 53.9792 165.953 53.3011C166.286 52.6231 166.749 52.0966 167.339 51.7216C167.934 51.3466 168.625 51.1591 169.413 51.1591C170.201 51.1591 170.891 51.3466 171.482 51.7216C172.076 52.0966 172.538 52.6231 172.868 53.3011C173.201 53.9792 173.368 54.7727 173.368 55.6818C173.368 56.5833 173.201 57.3712 172.868 58.0455C172.538 58.7197 172.076 59.2443 171.482 59.6193C170.891 59.9943 170.201 60.1818 169.413 60.1818ZM169.413 58.9773C170.012 58.9773 170.504 58.8239 170.891 58.517C171.277 58.2102 171.563 57.8068 171.749 57.3068C171.934 56.8068 172.027 56.2652 172.027 55.6818C172.027 55.0985 171.934 54.5549 171.749 54.0511C171.563 53.5473 171.277 53.1402 170.891 52.8295C170.504 52.5189 170.012 52.3636 169.413 52.3636C168.815 52.3636 168.322 52.5189 167.936 52.8295C167.55 53.1402 167.264 53.5473 167.078 54.0511C166.893 54.5549 166.8 55.0985 166.8 55.6818C166.8 56.2652 166.893 56.8068 167.078 57.3068C167.264 57.8068 167.55 58.2102 167.936 58.517C168.322 58.8239 168.815 58.9773 169.413 58.9773ZM178.96 60.1818C178.172 60.1818 177.481 59.9943 176.886 59.6193C176.295 59.2443 175.833 58.7197 175.5 58.0455C175.17 57.3712 175.006 56.5833 175.006 55.6818C175.006 54.7727 175.17 53.9792 175.5 53.3011C175.833 52.6231 176.295 52.0966 176.886 51.7216C177.481 51.3466 178.172 51.1591 178.96 51.1591C179.748 51.1591 180.438 51.3466 181.028 51.7216C181.623 52.0966 182.085 52.6231 182.415 53.3011C182.748 53.9792 182.915 54.7727 182.915 55.6818C182.915 56.5833 182.748 57.3712 182.415 58.0455C182.085 58.7197 181.623 59.2443 181.028 59.6193C180.438 59.9943 179.748 60.1818 178.96 60.1818ZM178.96 58.9773C179.559 58.9773 180.051 58.8239 180.438 58.517C180.824 58.2102 181.11 57.8068 181.295 57.3068C181.481 56.8068 181.574 56.2652 181.574 55.6818C181.574 55.0985 181.481 54.5549 181.295 54.0511C181.11 53.5473 180.824 53.1402 180.438 52.8295C180.051 52.5189 179.559 52.3636 178.96 52.3636C178.362 52.3636 177.869 52.5189 177.483 52.8295C177.097 53.1402 176.811 53.5473 176.625 54.0511C176.439 54.5549 176.347 55.0985 176.347 55.6818C176.347 56.2652 176.439 56.8068 176.625 57.3068C176.811 57.8068 177.097 58.2102 177.483 58.517C177.869 58.8239 178.362 58.9773 178.96 58.9773ZM186.212 56.8182L186.189 55.1591H186.462L190.28 51.2727H191.939L187.871 55.3864H187.757L186.212 56.8182ZM184.962 60V48.3636H186.303V60H184.962ZM190.507 60L187.098 55.6818L188.053 54.75L192.212 60H190.507ZM193.665 60V51.2727H195.006V60H193.665ZM194.347 49.8182C194.085 49.8182 193.86 49.7292 193.67 49.5511C193.485 49.3731 193.392 49.1591 193.392 48.9091C193.392 48.6591 193.485 48.4451 193.67 48.267C193.86 48.089 194.085 48 194.347 48C194.608 48 194.831 48.089 195.017 48.267C195.206 48.4451 195.301 48.6591 195.301 48.9091C195.301 49.1591 195.206 49.3731 195.017 49.5511C194.831 49.7292 194.608 49.8182 194.347 49.8182ZM201.121 60.1818C200.28 60.1818 199.554 59.9962 198.945 59.625C198.339 59.25 197.871 58.7273 197.541 58.0568C197.215 57.3826 197.053 56.5985 197.053 55.7045C197.053 54.8106 197.215 54.0227 197.541 53.3409C197.871 52.6553 198.329 52.1212 198.916 51.7386C199.507 51.3523 200.196 51.1591 200.984 51.1591C201.439 51.1591 201.888 51.2348 202.331 51.3864C202.774 51.5379 203.178 51.7841 203.541 52.125C203.905 52.4621 204.195 52.9091 204.411 53.4659C204.626 54.0227 204.734 54.7083 204.734 55.5227V56.0909H198.007V54.9318H203.371C203.371 54.4394 203.272 54 203.075 53.6136C202.882 53.2273 202.606 52.9223 202.246 52.6989C201.89 52.4754 201.469 52.3636 200.984 52.3636C200.45 52.3636 199.988 52.4962 199.598 52.7614C199.212 53.0227 198.914 53.3636 198.706 53.7841C198.498 54.2045 198.393 54.6553 198.393 55.1364V55.9091C198.393 56.5682 198.507 57.1269 198.734 57.5852C198.965 58.0398 199.286 58.3864 199.695 58.625C200.104 58.8598 200.579 58.9773 201.121 58.9773C201.473 58.9773 201.791 58.928 202.075 58.8295C202.363 58.7273 202.611 58.5758 202.82 58.375C203.028 58.1705 203.189 57.9167 203.303 57.6136L204.598 57.9773C204.462 58.4167 204.232 58.803 203.911 59.1364C203.589 59.4659 203.191 59.7235 202.717 59.9091C202.244 60.0909 201.712 60.1818 201.121 60.1818ZM212.956 53.2273L211.751 53.5682C211.676 53.3674 211.564 53.1723 211.416 52.983C211.272 52.7898 211.075 52.6307 210.825 52.5057C210.575 52.3807 210.255 52.3182 209.865 52.3182C209.331 52.3182 208.886 52.4413 208.53 52.6875C208.178 52.9299 208.001 53.2386 208.001 53.6136C208.001 53.947 208.123 54.2102 208.365 54.4034C208.607 54.5966 208.986 54.7576 209.501 54.8864L210.797 55.2045C211.577 55.3939 212.159 55.6837 212.541 56.0739C212.924 56.4602 213.115 56.9583 213.115 57.5682C213.115 58.0682 212.971 58.5152 212.683 58.9091C212.399 59.303 212.001 59.6136 211.49 59.8409C210.979 60.0682 210.384 60.1818 209.706 60.1818C208.816 60.1818 208.079 59.9886 207.496 59.6023C206.912 59.2159 206.543 58.6515 206.388 57.9091L207.661 57.5909C207.782 58.0606 208.011 58.4129 208.348 58.6477C208.689 58.8826 209.134 59 209.683 59C210.308 59 210.804 58.8674 211.172 58.6023C211.543 58.3333 211.729 58.0114 211.729 57.6364C211.729 57.3333 211.623 57.0795 211.411 56.875C211.198 56.6667 210.873 56.5114 210.433 56.4091L208.979 56.0682C208.179 55.8788 207.592 55.5852 207.217 55.1875C206.846 54.786 206.661 54.2841 206.661 53.6818C206.661 53.1894 206.799 52.7538 207.075 52.375C207.356 51.9962 207.736 51.6989 208.217 51.483C208.702 51.267 209.251 51.1591 209.865 51.1591C210.729 51.1591 211.407 51.3485 211.899 51.7273C212.395 52.1061 212.748 52.6061 212.956 53.2273Z" fill="#4F4F4F"/>
<line x1="153" y1="67.5" x2="214" y2="67.5" stroke="#F2F2F2"/>
<path d="M97.2273 12.1818C97.2273 13.4091 97.0057 14.4697 96.5625 15.3636C96.1193 16.2576 95.5114 16.947 94.7386 17.4318C93.9659 17.9167 93.0833 18.1591 92.0909 18.1591C91.0985 18.1591 90.2159 17.9167 89.4432 17.4318C88.6705 16.947 88.0625 16.2576 87.6193 15.3636C87.1761 14.4697 86.9545 13.4091 86.9545 12.1818C86.9545 10.9545 87.1761 9.89394 87.6193 9C88.0625 8.10606 88.6705 7.41667 89.4432 6.93182C90.2159 6.44697 91.0985 6.20455 92.0909 6.20455C93.0833 6.20455 93.9659 6.44697 94.7386 6.93182C95.5114 7.41667 96.1193 8.10606 96.5625 9C97.0057 9.89394 97.2273 10.9545 97.2273 12.1818ZM95.8636 12.1818C95.8636 11.1742 95.6951 10.3239 95.358 9.63068C95.0246 8.9375 94.572 8.41288 94 8.05682C93.4318 7.70076 92.7955 7.52273 92.0909 7.52273C91.3864 7.52273 90.7481 7.70076 90.1761 8.05682C89.608 8.41288 89.1553 8.9375 88.8182 9.63068C88.4848 10.3239 88.3182 11.1742 88.3182 12.1818C88.3182 13.1894 88.4848 14.0398 88.8182 14.733C89.1553 15.4261 89.608 15.9508 90.1761 16.3068C90.7481 16.6629 91.3864 16.8409 92.0909 16.8409C92.7955 16.8409 93.4318 16.6629 94 16.3068C94.572 15.9508 95.0246 15.4261 95.358 14.733C95.6951 14.0398 95.8636 13.1894 95.8636 12.1818ZM104.915 14.4318V9.27273H106.256V18H104.915V16.5227H104.824C104.619 16.9659 104.301 17.3428 103.869 17.6534C103.438 17.9602 102.892 18.1136 102.233 18.1136C101.688 18.1136 101.203 17.9943 100.778 17.7557C100.354 17.5133 100.021 17.1496 99.7784 16.6648C99.536 16.1761 99.4148 15.5606 99.4148 14.8182V9.27273H100.756V14.7273C100.756 15.3636 100.934 15.8712 101.29 16.25C101.65 16.6288 102.108 16.8182 102.665 16.8182C102.998 16.8182 103.337 16.733 103.682 16.5625C104.03 16.392 104.322 16.1307 104.557 15.7784C104.795 15.4261 104.915 14.9773 104.915 14.4318ZM108.712 18V9.27273H110.007V10.5909H110.098C110.257 10.1591 110.545 9.80871 110.962 9.53977C111.378 9.27083 111.848 9.13636 112.371 9.13636C112.469 9.13636 112.592 9.13826 112.74 9.14205C112.888 9.14583 113 9.15152 113.075 9.15909V10.5227C113.03 10.5114 112.926 10.4943 112.763 10.4716C112.604 10.4451 112.435 10.4318 112.257 10.4318C111.833 10.4318 111.454 10.5208 111.121 10.6989C110.791 10.8731 110.53 11.1155 110.337 11.4261C110.147 11.733 110.053 12.0833 110.053 12.4773V18H108.712ZM119.347 6.36364H121.028L124.983 16.0227H125.119L129.074 6.36364H130.756V18H129.438V9.15909H129.324L125.688 18H124.415L120.778 9.15909H120.665V18H119.347V6.36364ZM137.058 18.1818C136.217 18.1818 135.492 17.9962 134.882 17.625C134.276 17.25 133.808 16.7273 133.479 16.0568C133.153 15.3826 132.99 14.5985 132.99 13.7045C132.99 12.8106 133.153 12.0227 133.479 11.3409C133.808 10.6553 134.267 10.1212 134.854 9.73864C135.445 9.35227 136.134 9.15909 136.922 9.15909C137.376 9.15909 137.825 9.23485 138.268 9.38636C138.712 9.53788 139.115 9.78409 139.479 10.125C139.842 10.4621 140.132 10.9091 140.348 11.4659C140.564 12.0227 140.672 12.7083 140.672 13.5227V14.0909H133.945V12.9318H139.308C139.308 12.4394 139.21 12 139.013 11.6136C138.82 11.2273 138.543 10.9223 138.183 10.6989C137.827 10.4754 137.407 10.3636 136.922 10.3636C136.388 10.3636 135.926 10.4962 135.536 10.7614C135.149 11.0227 134.852 11.3636 134.643 11.7841C134.435 12.2045 134.331 12.6553 134.331 13.1364V13.9091C134.331 14.5682 134.445 15.1269 134.672 15.5852C134.903 16.0398 135.223 16.3864 135.632 16.625C136.041 16.8598 136.517 16.9773 137.058 16.9773C137.411 16.9773 137.729 16.928 138.013 16.8295C138.301 16.7273 138.549 16.5758 138.757 16.375C138.965 16.1705 139.126 15.9167 139.24 15.6136L140.536 15.9773C140.399 16.4167 140.17 16.803 139.848 17.1364C139.526 17.4659 139.128 17.7235 138.655 17.9091C138.181 18.0909 137.649 18.1818 137.058 18.1818ZM144.053 12.75V18H142.712V9.27273H144.007V10.6364H144.121C144.325 10.1932 144.636 9.83712 145.053 9.56818C145.469 9.29545 146.007 9.15909 146.666 9.15909C147.257 9.15909 147.774 9.2803 148.217 9.52273C148.661 9.76136 149.005 10.125 149.251 10.6136C149.498 11.0985 149.621 11.7121 149.621 12.4545V18H148.28V12.5455C148.28 11.8598 148.102 11.3258 147.746 10.9432C147.39 10.5568 146.901 10.3636 146.28 10.3636C145.852 10.3636 145.469 10.4564 145.132 10.642C144.799 10.8277 144.536 11.0985 144.342 11.4545C144.149 11.8106 144.053 12.2424 144.053 12.75ZM157.571 14.4318V9.27273H158.912V18H157.571V16.5227H157.48C157.276 16.9659 156.957 17.3428 156.526 17.6534C156.094 17.9602 155.548 18.1136 154.889 18.1136C154.344 18.1136 153.859 17.9943 153.435 17.7557C153.01 17.5133 152.677 17.1496 152.435 16.6648C152.192 16.1761 152.071 15.5606 152.071 14.8182V9.27273H153.412V14.7273C153.412 15.3636 153.59 15.8712 153.946 16.25C154.306 16.6288 154.764 16.8182 155.321 16.8182C155.654 16.8182 155.993 16.733 156.338 16.5625C156.687 16.392 156.978 16.1307 157.213 15.7784C157.452 15.4261 157.571 14.9773 157.571 14.4318Z" fill="#4F4F4F"/>
<line x1="89" y1="25.5" x2="161" y2="25.5" stroke="#F2F2F2"/>
<path d="M180.409 18V6.36364H184.341C185.254 6.36364 186 6.52841 186.58 6.85795C187.163 7.18371 187.595 7.625 187.875 8.18182C188.155 8.73864 188.295 9.35985 188.295 10.0455C188.295 10.7311 188.155 11.3542 187.875 11.9148C187.598 12.4754 187.17 12.9223 186.591 13.2557C186.011 13.5852 185.269 13.75 184.364 13.75H181.545V12.5H184.318C184.943 12.5 185.445 12.392 185.824 12.1761C186.203 11.9602 186.477 11.6686 186.648 11.3011C186.822 10.9299 186.909 10.5114 186.909 10.0455C186.909 9.57955 186.822 9.16288 186.648 8.79545C186.477 8.42803 186.201 8.14015 185.818 7.93182C185.436 7.7197 184.928 7.61364 184.295 7.61364H181.818V18H180.409ZM190.384 18V9.27273H191.724V18H190.384ZM191.065 7.81818C190.804 7.81818 190.579 7.72917 190.389 7.55114C190.204 7.37311 190.111 7.15909 190.111 6.90909C190.111 6.65909 190.204 6.44508 190.389 6.26705C190.579 6.08902 190.804 6 191.065 6C191.327 6 191.55 6.08902 191.736 6.26705C191.925 6.44508 192.02 6.65909 192.02 6.90909C192.02 7.15909 191.925 7.37311 191.736 7.55114C191.55 7.72917 191.327 7.81818 191.065 7.81818ZM193.93 18V16.9773L198.885 10.6136V10.5227H194.089V9.27273H200.612V10.3409L195.794 16.6591V16.75H200.771V18H193.93ZM202.587 18V16.9773L207.541 10.6136V10.5227H202.746V9.27273H209.268V10.3409L204.45 16.6591V16.75H209.428V18H202.587ZM214.061 18.2045C213.508 18.2045 213.006 18.1004 212.555 17.892C212.105 17.6799 211.747 17.375 211.482 16.9773C211.216 16.5758 211.084 16.0909 211.084 15.5227C211.084 15.0227 211.182 14.6174 211.379 14.3068C211.576 13.9924 211.839 13.7462 212.169 13.5682C212.499 13.3902 212.862 13.2576 213.26 13.1705C213.661 13.0795 214.065 13.0076 214.47 12.9545C215 12.8864 215.43 12.8352 215.76 12.8011C216.093 12.7633 216.336 12.7008 216.487 12.6136C216.643 12.5265 216.72 12.375 216.72 12.1591V12.1136C216.72 11.553 216.567 11.1174 216.26 10.8068C215.957 10.4962 215.497 10.3409 214.879 10.3409C214.239 10.3409 213.737 10.4811 213.374 10.7614C213.01 11.0417 212.754 11.3409 212.607 11.6591L211.334 11.2045C211.561 10.6742 211.864 10.2614 212.243 9.96591C212.625 9.66667 213.042 9.45833 213.493 9.34091C213.947 9.2197 214.394 9.15909 214.834 9.15909C215.114 9.15909 215.436 9.19318 215.8 9.26136C216.167 9.32576 216.521 9.46023 216.862 9.66477C217.207 9.86932 217.493 10.178 217.72 10.5909C217.947 11.0038 218.061 11.5568 218.061 12.25V18H216.72V16.8182H216.652C216.561 17.0076 216.41 17.2102 216.197 17.4261C215.985 17.642 215.703 17.8258 215.351 17.9773C214.999 18.1288 214.569 18.2045 214.061 18.2045ZM214.266 17C214.796 17 215.243 16.8958 215.607 16.6875C215.974 16.4792 216.25 16.2102 216.436 15.8807C216.625 15.5511 216.72 15.2045 216.72 14.8409V13.6136C216.663 13.6818 216.538 13.7443 216.345 13.8011C216.156 13.8542 215.936 13.9015 215.686 13.9432C215.44 13.9811 215.199 14.0152 214.964 14.0455C214.733 14.072 214.546 14.0947 214.402 14.1136C214.054 14.1591 213.728 14.233 213.425 14.3352C213.125 14.4337 212.883 14.5833 212.697 14.7841C212.516 14.9811 212.425 15.25 212.425 15.5909C212.425 16.0568 212.597 16.4091 212.942 16.6477C213.29 16.8826 213.732 17 214.266 17Z" fill="#4F4F4F"/>
<line x1="177" y1="25.5" x2="223" y2="25.5" stroke="#F2F2F2"/>
</svg>
