<svg width="165" height="37" viewBox="0 0 165 37" fill="none" xmlns="http://www.w3.org/2000/svg">
<path d="M11.8848 29.232C9.53808 29.232 7.49008 28.8693 5.74075 28.144C4.01275 27.4187 2.66875 26.4267 1.70875 25.168C0.770083 23.888 0.30075 22.4373 0.30075 20.816C0.30075 19.4933 0.535417 18.288 1.00475 17.2C1.47408 16.112 2.09275 15.2053 2.86075 14.48C3.65008 13.7547 4.51408 13.2747 5.45275 13.04C5.60208 13.0187 5.67675 13.072 5.67675 13.2C5.67675 13.3067 5.62342 13.392 5.51675 13.456C4.40742 14.1173 3.55408 15.0667 2.95675 16.304C2.38075 17.5413 2.09275 18.9173 2.09275 20.432C2.09275 22.0747 2.51942 23.4933 3.37275 24.688C4.22608 25.8613 5.38875 26.7573 6.86075 27.376C8.35408 28.016 10.0288 28.336 11.8848 28.336C13.4848 28.336 14.9994 28.048 16.4288 27.472C17.8794 26.9173 19.2128 26.1493 20.4288 25.168C21.6448 24.1867 22.7328 23.0773 23.6928 21.84C24.6741 20.5813 25.4954 19.2693 26.1568 17.904C26.3061 17.584 26.4554 17.2747 26.6048 16.976C26.7541 16.6773 26.9034 16.3787 27.0528 16.08C26.5408 16.0587 26.0714 16.0373 25.6448 16.016C25.2394 15.9947 24.9621 15.984 24.8128 15.984C24.2368 15.984 23.6181 16.0267 22.9568 16.112C22.3168 16.176 21.7088 16.3147 21.1328 16.528C20.5781 16.7413 20.1194 17.072 19.7568 17.52C19.6074 17.6693 19.5114 17.7867 19.4688 17.872C19.4474 17.9573 19.4048 18 19.3408 18C19.2554 18 19.1808 17.936 19.1168 17.808C19.0528 17.6587 19.0634 17.4987 19.1488 17.328C19.6394 16.24 20.3328 15.504 21.2288 15.12C22.1248 14.7147 23.1274 14.512 24.2368 14.512C24.4714 14.512 24.9088 14.5547 25.5488 14.64C26.2101 14.704 26.9034 14.7787 27.6288 14.864C28.5674 12.9653 29.4208 11.248 30.1888 9.712C30.9781 8.176 31.7141 6.896 32.3968 5.872C30.8608 5.36 29.2288 4.912 27.5008 4.528C25.7728 4.12267 23.9168 3.92 21.9328 3.92C20.4608 3.92 19.1274 4.12267 17.9328 4.528C16.7381 4.93333 15.7141 5.47733 14.8608 6.16C14.0288 6.84267 13.3888 7.6 12.9408 8.432C12.4928 9.264 12.2688 10.096 12.2688 10.928C12.2688 11.8667 12.4501 12.6133 12.8128 13.168C13.1754 13.7227 13.6448 14.128 14.2208 14.384C14.8181 14.6187 15.4261 14.736 16.0448 14.736C16.9621 14.736 17.7408 14.512 18.3808 14.064C19.0421 13.616 19.5648 13.1147 19.9488 12.56C20.3328 11.984 20.5674 11.5147 20.6528 11.152C20.7381 10.8107 20.8661 10.64 21.0368 10.64C21.2928 10.64 21.3994 10.7893 21.3568 11.088C21.2288 12.0267 20.8981 12.8373 20.3648 13.52C19.8314 14.2027 19.1808 14.7253 18.4128 15.088C17.6448 15.4293 16.8341 15.6 15.9808 15.6C15.1061 15.6 14.2634 15.3867 13.4528 14.96C12.6421 14.5333 11.9808 13.9147 11.4688 13.104C10.9568 12.2933 10.7008 11.312 10.7008 10.16C10.7008 9.22133 10.9034 8.29333 11.3088 7.376C11.7354 6.43733 12.3648 5.584 13.1968 4.816C14.0501 4.02666 15.1274 3.39733 16.4288 2.928C17.7301 2.45867 19.2661 2.224 21.0368 2.224C22.2954 2.224 23.5861 2.37333 24.9088 2.672C26.2314 2.94933 27.5648 3.312 28.9088 3.76C30.2741 4.18667 31.6181 4.63467 32.9408 5.104C33.3888 4.528 33.8154 4.09067 34.2208 3.792C34.6261 3.472 35.0314 3.312 35.4368 3.312C35.6074 3.312 35.7248 3.35467 35.7888 3.44C35.8528 3.504 35.8848 3.568 35.8848 3.632C35.8848 3.71733 35.8528 3.81333 35.7888 3.92C35.7248 4.02666 35.6074 4.08 35.4368 4.08C34.7328 4.08 34.0714 4.47467 33.4528 5.264C34.9888 5.776 36.4608 6.23467 37.8688 6.64C39.2981 7.024 40.6208 7.216 41.8368 7.216C42.7754 7.216 43.3941 7.12 43.6928 6.928C43.9914 6.71467 44.1408 6.42667 44.1408 6.064C44.1408 5.82933 44.2154 5.712 44.3648 5.712C44.4714 5.712 44.5674 5.78667 44.6528 5.936C44.7594 6.064 44.8128 6.224 44.8128 6.416C44.8128 6.928 44.5248 7.344 43.9488 7.664C43.3941 7.984 42.6154 8.144 41.6128 8.144C40.2901 8.144 38.9141 7.93067 37.4848 7.504C36.0554 7.056 34.5408 6.56533 32.9408 6.032C32.3648 6.992 31.7994 8.25067 31.2448 9.808C30.6901 11.344 30.0394 13.0827 29.2928 15.024C30.2101 15.1093 31.1808 15.184 32.2048 15.248C33.2288 15.2907 34.0608 15.312 34.7008 15.312C34.9141 15.312 35.0208 15.376 35.0208 15.504C35.0208 15.6747 34.7754 15.824 34.2848 15.952C33.9648 16.0373 33.4208 16.1013 32.6528 16.144C31.9061 16.1867 31.1274 16.208 30.3168 16.208C30.1461 16.208 29.9328 16.208 29.6768 16.208C29.4208 16.1867 29.1434 16.176 28.8448 16.176C28.6528 16.6667 28.4501 17.168 28.2368 17.68C28.0448 18.1707 27.8314 18.6827 27.5968 19.216C26.7008 21.328 25.6021 23.0453 24.3008 24.368C23.0208 25.6693 21.6448 26.672 20.1728 27.376C18.7221 28.1013 17.2714 28.592 15.8208 28.848C14.3914 29.104 13.0794 29.232 11.8848 29.232ZM35.4955 26C34.6208 26 33.9702 25.6907 33.5435 25.072C33.1382 24.432 32.9355 23.664 32.9355 22.768C32.9355 21.936 33.0955 21.072 33.4155 20.176C33.7568 19.1947 34.2262 18.2987 34.8235 17.488C35.4422 16.6773 36.1142 16.0267 36.8395 15.536C37.5862 15.024 38.3222 14.768 39.0475 14.768C39.9222 14.768 40.5622 15.0667 40.9675 15.664C41.3942 16.2613 41.6075 17.0187 41.6075 17.936C41.6075 18.576 41.5008 19.248 41.2875 19.952C41.0742 20.656 40.7862 21.3493 40.4235 22.032C40.7008 22.3093 41.0955 22.448 41.6075 22.448C42.2048 22.448 42.7168 22.256 43.1435 21.872C43.5702 21.488 43.9862 20.8053 44.3915 19.824C44.6475 19.824 44.7755 19.92 44.7755 20.112C44.3702 21.0933 43.9008 21.8187 43.3675 22.288C42.8555 22.736 42.1942 22.9493 41.3835 22.928C40.8928 22.928 40.4875 22.7893 40.1675 22.512C39.5702 23.4933 38.8555 24.3253 38.0235 25.008C37.2128 25.6693 36.3702 26 35.4955 26ZM35.9435 25.296C36.4342 25.296 36.9248 25.0933 37.4155 24.688C37.9062 24.2613 38.3542 23.7813 38.7595 23.248C39.1648 22.7147 39.4528 22.256 39.6235 21.872C39.2822 21.2533 39.0795 20.7947 39.0155 20.496C38.9728 20.176 38.9515 19.9413 38.9515 19.792C38.9515 19.3867 39.0582 19.0773 39.2715 18.864C39.4848 18.6507 39.6982 18.544 39.9115 18.544C40.2102 18.544 40.4662 18.672 40.6795 18.928C40.7222 18.6933 40.7542 18.48 40.7755 18.288C40.7968 18.0747 40.8075 17.872 40.8075 17.68C40.8075 17.1253 40.7008 16.6773 40.4875 16.336C40.2955 15.9733 39.9862 15.792 39.5595 15.792C39.1115 15.792 38.6422 15.984 38.1515 16.368C37.6608 16.752 37.1915 17.264 36.7435 17.904C36.3168 18.544 35.9435 19.2587 35.6235 20.048C35.3462 20.7093 35.1328 21.3387 34.9835 21.936C34.8342 22.512 34.7595 23.0453 34.7595 23.536C34.7595 24.0693 34.8555 24.496 35.0475 24.816C35.2395 25.136 35.5382 25.296 35.9435 25.296ZM46.308 26C45.4333 26 44.7827 25.6907 44.356 25.072C43.9507 24.432 43.748 23.664 43.748 22.768C43.748 21.936 43.908 21.072 44.228 20.176C44.5693 19.1947 45.0387 18.2987 45.636 17.488C46.2547 16.6773 46.9267 16.0267 47.652 15.536C48.3987 15.024 49.1347 14.768 49.86 14.768C50.7347 14.768 51.3747 15.0667 51.78 15.664C52.2067 16.2613 52.42 17.0187 52.42 17.936C52.42 18.576 52.3133 19.248 52.1 19.952C51.8867 20.656 51.5987 21.3493 51.236 22.032C51.5133 22.3093 51.908 22.448 52.42 22.448C53.0173 22.448 53.5293 22.256 53.956 21.872C54.3827 21.488 54.7987 20.8053 55.204 19.824C55.46 19.824 55.588 19.92 55.588 20.112C55.1827 21.0933 54.7133 21.8187 54.18 22.288C53.668 22.736 53.0067 22.9493 52.196 22.928C51.7053 22.928 51.3 22.7893 50.98 22.512C50.3827 23.4933 49.668 24.3253 48.836 25.008C48.0253 25.6693 47.1827 26 46.308 26ZM46.756 25.296C47.2467 25.296 47.7373 25.0933 48.228 24.688C48.7187 24.2613 49.1667 23.7813 49.572 23.248C49.9773 22.7147 50.2653 22.256 50.436 21.872C50.0947 21.2533 49.892 20.7947 49.828 20.496C49.7853 20.176 49.764 19.9413 49.764 19.792C49.764 19.3867 49.8707 19.0773 50.084 18.864C50.2973 18.6507 50.5107 18.544 50.724 18.544C51.0227 18.544 51.2787 18.672 51.492 18.928C51.5347 18.6933 51.5667 18.48 51.588 18.288C51.6093 18.0747 51.62 17.872 51.62 17.68C51.62 17.1253 51.5133 16.6773 51.3 16.336C51.108 15.9733 50.7987 15.792 50.372 15.792C49.924 15.792 49.4547 15.984 48.964 16.368C48.4733 16.752 48.004 17.264 47.556 17.904C47.1293 18.544 46.756 19.2587 46.436 20.048C46.1587 20.7093 45.9453 21.3387 45.796 21.936C45.6467 22.512 45.572 23.0453 45.572 23.536C45.572 24.0693 45.668 24.496 45.86 24.816C46.052 25.136 46.3507 25.296 46.756 25.296ZM62.5285 26C61.8032 26 61.2698 25.7547 60.9285 25.264C60.5872 24.7733 60.4165 24.1973 60.4165 23.536C60.4165 23.344 60.4272 23.152 60.4485 22.96C60.4698 22.7467 60.5125 22.5333 60.5765 22.32C60.2778 22.7893 59.9258 23.312 59.5205 23.888C59.1365 24.4427 58.6885 24.9333 58.1765 25.36C57.6858 25.7653 57.1312 25.968 56.5125 25.968C56.2352 25.968 55.9152 25.904 55.5525 25.776C55.2112 25.648 54.9018 25.4027 54.6245 25.04C54.3685 24.6773 54.2405 24.144 54.2405 23.44C54.2405 22.5227 54.4432 21.552 54.8485 20.528C55.2538 19.504 55.8085 18.544 56.5125 17.648C57.2165 16.7307 58.0165 15.9947 58.9125 15.44C59.8085 14.864 60.7365 14.576 61.6965 14.576C62.4645 14.576 63.1898 14.7787 63.8725 15.184C64.1925 14.5867 64.5338 13.9253 64.8965 13.2C65.2592 12.4533 65.6218 11.7173 65.9845 10.992C66.3472 10.2667 66.6672 9.60533 66.9445 9.008C67.2218 8.38933 67.4352 7.92 67.5845 7.6C67.9045 6.85333 68.2032 6.384 68.4805 6.192C68.7792 5.97867 69.1312 5.872 69.5365 5.872C69.7712 5.872 70.0272 5.904 70.3045 5.968C70.6032 6.01067 70.8912 6.02133 71.1685 6C71.0618 6.10667 70.8165 6.45867 70.4325 7.056C70.0485 7.65333 69.5792 8.432 69.0245 9.392C68.4698 10.3307 67.8725 11.3653 67.2325 12.496C66.6138 13.6267 65.9952 14.7893 65.3765 15.984C64.7792 17.1573 64.2245 18.288 63.7125 19.376C63.2005 20.464 62.7952 21.424 62.4965 22.256C62.1978 23.088 62.0485 23.7173 62.0485 24.144C62.0485 24.4213 62.1125 24.6667 62.2405 24.88C62.3685 25.072 62.5818 25.168 62.8805 25.168C63.2858 25.168 63.7018 24.9653 64.1285 24.56C64.5552 24.1547 64.9605 23.6533 65.3445 23.056C65.7498 22.4373 66.1018 21.84 66.4005 21.264C66.7205 20.6667 66.9552 20.1867 67.1045 19.824C67.3605 19.824 67.4885 19.92 67.4885 20.112C67.2965 20.56 67.0405 21.1147 66.7205 21.776C66.4005 22.4373 66.0272 23.088 65.6005 23.728C65.1738 24.368 64.6938 24.912 64.1605 25.36C63.6485 25.7867 63.1045 26 62.5285 26ZM56.7365 25.04C57.0352 25.04 57.4085 24.88 57.8565 24.56C58.3045 24.2187 58.7845 23.6853 59.2965 22.96C59.8938 22.1067 60.5765 21.04 61.3445 19.76C62.1125 18.48 62.8698 17.1253 63.6165 15.696C63.4672 15.568 63.3072 15.472 63.1365 15.408C62.9658 15.344 62.7312 15.312 62.4325 15.312C61.9418 15.312 61.3978 15.5253 60.8005 15.952C60.2245 16.3573 59.6378 16.8907 59.0405 17.552C58.4645 18.2133 57.9312 18.928 57.4405 19.696C56.9712 20.464 56.5872 21.2107 56.2885 21.936C56.0112 22.64 55.8725 23.248 55.8725 23.76C55.8725 24.6133 56.1605 25.04 56.7365 25.04ZM82.5595 29.424C80.6182 29.424 78.8902 29.0293 77.3755 28.24C75.8822 27.472 74.7088 26.3307 73.8555 24.816C73.0235 23.28 72.6075 21.4027 72.6075 19.184C72.6075 17.8613 72.7782 16.5387 73.1195 15.216C73.4608 13.8933 73.9195 12.624 74.4955 11.408C75.0928 10.192 75.7542 9.072 76.4795 8.048C76.1595 6.768 75.9995 5.38133 75.9995 3.888C75.9995 2.75733 76.1275 1.68 76.3835 0.655998C76.4688 0.357332 76.6182 0.207998 76.8315 0.207998C77.0022 0.207998 77.0768 0.314665 77.0555 0.527998C76.9915 0.954666 76.9382 1.41333 76.8955 1.904C76.8528 2.37333 76.8315 2.93867 76.8315 3.6C76.8315 4.83733 76.9488 6.01067 77.1835 7.12C77.3968 6.84267 77.6102 6.58667 77.8235 6.352C78.6982 5.392 79.7328 4.496 80.9275 3.664C82.1222 2.81067 83.4448 2.128 84.8955 1.616C86.3675 1.104 87.9248 0.848 89.5675 0.848C91.1035 0.848 92.5115 1.136 93.7915 1.712C95.0715 2.26667 96.0955 3.07733 96.8635 4.144C97.6528 5.18933 98.0475 6.45867 98.0475 7.952C98.0475 8.89067 97.7915 9.85067 97.2795 10.832C96.7888 11.8133 96.0742 12.72 95.1355 13.552C94.2182 14.3627 93.0982 15.024 91.7755 15.536C90.4742 16.048 89.0128 16.304 87.3915 16.304C85.2582 16.304 83.3062 15.8347 81.5355 14.896C79.7648 13.9573 78.3888 12.528 77.4075 10.608C76.5542 12.1227 75.9248 13.6587 75.5195 15.216C75.1142 16.7733 74.9115 18.256 74.9115 19.664C74.9115 21.712 75.2528 23.376 75.9355 24.656C76.6182 25.936 77.5568 26.8747 78.7515 27.472C79.9675 28.0907 81.3542 28.4 82.9115 28.4C85.6848 28.4 88.1168 27.696 90.2075 26.288C92.3195 24.9013 94.0582 22.7467 95.4235 19.824C95.6795 19.824 95.8075 19.92 95.8075 20.112C94.4848 23.2693 92.6715 25.6053 90.3675 27.12C88.0848 28.656 85.4822 29.424 82.5595 29.424ZM78.7835 8.464C78.5062 8.848 78.2395 9.24267 77.9835 9.648C78.7302 11.3973 79.8715 12.8053 81.4075 13.872C82.9435 14.9387 84.8742 15.472 87.1995 15.472C88.6715 15.472 89.9835 15.248 91.1355 14.8C92.3088 14.352 93.2902 13.7547 94.0795 13.008C94.8902 12.2613 95.5088 11.44 95.9355 10.544C96.3622 9.62667 96.5755 8.70933 96.5755 7.792C96.5755 6.66133 96.2662 5.66933 95.6475 4.816C95.0502 3.96267 94.2288 3.30133 93.1835 2.832C92.1382 2.34133 90.9542 2.096 89.6315 2.096C88.3088 2.096 86.9755 2.37333 85.6315 2.928C84.3088 3.48267 83.0502 4.24 81.8555 5.2C80.6822 6.16 79.6582 7.248 78.7835 8.464ZM102.363 26.096C101.873 26.096 101.435 25.9573 101.051 25.68C100.689 25.4027 100.507 24.8373 100.507 23.984C100.507 23.6213 100.529 23.28 100.571 22.96C100.635 22.64 100.71 22.2987 100.795 21.936C100.603 22.256 100.337 22.6507 99.9953 23.12C99.6539 23.5893 99.2699 24.048 98.8433 24.496C98.4379 24.944 98.0113 25.3173 97.5633 25.616C97.1366 25.9147 96.7313 26.064 96.3473 26.064C95.7926 26.064 95.3446 25.8187 95.0033 25.328C94.6619 24.816 94.4913 24.1547 94.4913 23.344C94.4913 22.4693 94.6939 21.5307 95.0993 20.528C95.5046 19.5253 96.0593 18.5653 96.7633 17.648C97.4673 16.7307 98.2779 15.984 99.1953 15.408C100.113 14.832 101.073 14.544 102.075 14.544C102.566 14.544 103.035 14.6293 103.483 14.8C103.931 14.9493 104.326 15.2053 104.667 15.568C104.817 15.7173 104.891 15.888 104.891 16.08C104.891 16.208 104.838 16.3147 104.731 16.4C104.625 16.4853 104.486 16.5067 104.315 16.464C104.081 15.7173 103.579 15.344 102.811 15.344C102.449 15.344 102.033 15.4613 101.563 15.696C100.987 15.9947 100.369 16.4747 99.7073 17.136C99.0673 17.776 98.4593 18.512 97.8833 19.344C97.3286 20.1547 96.8699 20.976 96.5073 21.808C96.1446 22.64 95.9633 23.3973 95.9633 24.08C95.9633 24.784 96.2299 25.136 96.7633 25.136C97.2326 25.136 97.7126 24.912 98.2033 24.464C98.7153 24.016 99.1953 23.4613 99.6433 22.8C100.113 22.1173 100.539 21.4453 100.923 20.784C101.307 20.1227 101.606 19.5893 101.819 19.184C102.139 18.608 102.438 18.128 102.715 17.744C102.993 17.36 103.387 17.168 103.899 17.168C104.134 17.168 104.369 17.2 104.603 17.264C104.838 17.328 105.083 17.3387 105.339 17.296C104.699 17.936 104.134 18.6933 103.643 19.568C103.174 20.4427 102.811 21.3067 102.555 22.16C102.299 22.992 102.171 23.696 102.171 24.272C102.171 24.912 102.385 25.232 102.811 25.232C103.153 25.232 103.515 25.04 103.899 24.656C104.305 24.272 104.689 23.792 105.051 23.216C105.435 22.6187 105.787 22.0213 106.107 21.424C106.427 20.8053 106.683 20.272 106.875 19.824C106.982 19.824 107.067 19.8347 107.131 19.856C107.217 19.8773 107.259 19.9627 107.259 20.112C107.238 20.1973 107.195 20.2933 107.131 20.4C107.089 20.4853 107.014 20.6453 106.907 20.88C106.737 21.2213 106.502 21.68 106.203 22.256C105.905 22.832 105.553 23.4187 105.147 24.016C104.742 24.592 104.305 25.0827 103.835 25.488C103.366 25.8933 102.875 26.096 102.363 26.096ZM113.512 9.104C113.235 9.50933 112.925 10.0213 112.584 10.64C112.243 11.2587 111.923 11.856 111.624 12.432C111.347 13.008 111.133 13.4453 110.984 13.744H113.928C113.928 13.8293 113.885 13.968 113.8 14.16C113.736 14.352 113.597 14.4907 113.384 14.576H110.6C110.344 15.152 110.045 15.8453 109.704 16.656C109.384 17.4667 109.064 18.3093 108.744 19.184C108.445 20.0587 108.189 20.88 107.976 21.648C107.784 22.3947 107.688 23.0027 107.688 23.472C107.688 24.112 107.773 24.592 107.944 24.912C108.115 25.2107 108.424 25.36 108.872 25.36C109.448 25.36 110.003 25.0827 110.536 24.528C111.069 23.952 111.571 23.2373 112.04 22.384C112.531 21.5307 112.957 20.6773 113.32 19.824C113.576 19.824 113.704 19.92 113.704 20.112C113.469 20.688 113.181 21.3173 112.84 22C112.499 22.6827 112.104 23.344 111.656 23.984C111.229 24.6027 110.739 25.1147 110.184 25.52C109.651 25.904 109.053 26.096 108.392 26.096C107.496 26.096 106.888 25.8507 106.568 25.36C106.248 24.848 106.088 24.1973 106.088 23.408C106.088 22.832 106.195 22.1387 106.408 21.328C106.621 20.496 106.877 19.6427 107.176 18.768C107.496 17.8933 107.805 17.0827 108.104 16.336C108.403 15.568 108.637 14.9813 108.808 14.576H106.76C106.76 14.4053 106.835 14.224 106.984 14.032C107.133 13.84 107.293 13.744 107.464 13.744H109.16C109.331 13.4027 109.523 12.976 109.736 12.464C109.971 11.952 110.28 11.3867 110.664 10.768C110.984 10.256 111.389 9.85067 111.88 9.552C112.392 9.25333 112.936 9.104 113.512 9.104ZM115.63 26.128C114.84 26.128 114.126 25.872 113.486 25.36C112.867 24.848 112.558 24.0693 112.558 23.024C112.558 22.1493 112.75 21.2213 113.134 20.24C113.539 19.2587 114.062 18.3413 114.702 17.488C115.363 16.6133 116.088 15.9093 116.878 15.376C117.688 14.8213 118.499 14.544 119.31 14.544C119.715 14.544 120.11 14.6613 120.494 14.896C120.878 15.1307 121.07 15.536 121.07 16.112C121.07 16.6453 120.867 17.232 120.462 17.872C120.056 18.512 119.48 19.1093 118.734 19.664C118.414 19.8987 118.008 20.1227 117.518 20.336C117.027 20.5493 116.536 20.7307 116.046 20.88C115.555 21.008 115.15 21.072 114.83 21.072C114.723 21.328 114.616 21.6693 114.51 22.096C114.424 22.5227 114.382 22.96 114.382 23.408C114.382 23.9413 114.488 24.4213 114.702 24.848C114.915 25.2747 115.31 25.488 115.886 25.488C116.59 25.488 117.24 25.2853 117.838 24.88C118.456 24.4747 119 23.9627 119.47 23.344C119.96 22.7253 120.376 22.096 120.718 21.456C121.059 20.816 121.326 20.272 121.518 19.824C121.774 19.824 121.902 19.92 121.902 20.112C121.624 20.7093 121.304 21.36 120.942 22.064C120.6 22.768 120.184 23.4293 119.694 24.048C119.224 24.6453 118.648 25.1467 117.966 25.552C117.304 25.936 116.526 26.128 115.63 26.128ZM115.054 20.496C115.352 20.496 115.854 20.3893 116.558 20.176C117.262 19.9413 117.902 19.5787 118.478 19.088C119.032 18.5973 119.459 18.064 119.758 17.488C120.056 16.8907 120.206 16.3893 120.206 15.984C120.206 15.5147 120.035 15.28 119.694 15.28C119.438 15.28 119.086 15.4507 118.638 15.792C118.19 16.1333 117.635 16.7093 116.974 17.52C116.568 18.032 116.184 18.5867 115.822 19.184C115.459 19.7813 115.203 20.2187 115.054 20.496ZM119.305 36.208C117.278 36.208 116.265 35.376 116.265 33.712C116.265 32.9227 116.542 32.2187 117.097 31.6C117.652 30.9813 118.313 30.448 119.081 30C120.148 29.36 121.193 28.848 122.217 28.464C123.241 28.08 124.222 27.7387 125.161 27.44C126.1 27.1627 126.974 26.8533 127.785 26.512C127.977 25.9573 128.137 25.3493 128.265 24.688C128.393 24.0053 128.489 23.344 128.553 22.704C128.617 22.064 128.649 21.5093 128.649 21.04C128.649 20.5493 128.617 20.2293 128.553 20.08C128.318 20.528 127.998 21.0827 127.593 21.744C127.209 22.4053 126.75 23.0667 126.217 23.728C125.705 24.368 125.161 24.9013 124.585 25.328C124.009 25.7547 123.422 25.968 122.825 25.968C122.612 25.968 122.409 25.936 122.217 25.872C121.62 25.616 121.182 25.2533 120.905 24.784C120.649 24.3147 120.521 23.7813 120.521 23.184C120.521 22.224 120.798 21.1893 121.353 20.08C121.908 18.9707 122.569 17.9573 123.337 17.04C123.956 16.2933 124.681 15.696 125.513 15.248C126.345 14.8 127.188 14.576 128.041 14.576C129.022 14.576 129.94 14.9067 130.793 15.568C131.113 15.824 131.273 16.1013 131.273 16.4C131.273 16.72 131.145 16.88 130.889 16.88C130.676 16.88 130.526 16.7413 130.441 16.464C130.142 15.6747 129.662 15.28 129.001 15.28C128.468 15.28 127.86 15.5147 127.177 15.984C126.494 16.432 125.854 16.9973 125.257 17.68C124.745 18.256 124.244 18.9173 123.753 19.664C123.284 20.4107 122.889 21.1467 122.569 21.872C122.27 22.5973 122.121 23.2267 122.121 23.76C122.121 24.1227 122.206 24.432 122.377 24.688C122.548 24.944 122.814 25.072 123.177 25.072C123.668 25.072 124.18 24.8373 124.713 24.368C125.268 23.8987 125.79 23.3227 126.281 22.64C126.793 21.9573 127.23 21.264 127.593 20.56C127.977 19.856 128.244 19.2693 128.393 18.8C128.542 18.3093 128.745 18.0107 129.001 17.904C129.257 17.776 129.513 17.712 129.769 17.712C130.025 17.712 130.238 17.648 130.409 17.52C130.494 17.9893 130.548 18.4693 130.569 18.96C130.612 19.4293 130.633 19.9093 130.633 20.4C130.633 21.3813 130.569 22.2773 130.441 23.088C130.334 23.8987 130.142 24.7627 129.865 25.68C130.633 25.2107 131.294 24.624 131.849 23.92C132.425 23.1947 132.894 22.4693 133.257 21.744C133.641 20.9973 133.95 20.3573 134.185 19.824C134.441 19.824 134.569 19.92 134.569 20.112C134.292 20.688 133.94 21.392 133.513 22.224C133.108 23.056 132.585 23.8667 131.945 24.656C131.326 25.424 130.548 26.0213 129.609 26.448C129.246 27.472 128.724 28.5493 128.041 29.68C127.38 30.8107 126.59 31.8667 125.673 32.848C124.756 33.8507 123.753 34.6613 122.665 35.28C121.577 35.8987 120.457 36.208 119.305 36.208ZM118.537 35.568C119.006 35.568 119.497 35.4613 120.009 35.248C120.542 35.056 121.044 34.8213 121.513 34.544C121.982 34.2667 122.345 34.032 122.601 33.84C123.092 33.456 123.593 32.976 124.105 32.4C124.617 31.824 125.065 31.2693 125.449 30.736C125.812 30.224 126.185 29.68 126.569 29.104C126.953 28.5493 127.262 27.9947 127.497 27.44L126.185 27.856C125.481 28.0693 124.702 28.3253 123.849 28.624C123.017 28.944 122.185 29.296 121.353 29.68C120.521 30.064 119.764 30.48 119.081 30.928C118.484 31.3333 117.993 31.8667 117.609 32.528C117.204 33.1893 117.001 33.7653 117.001 34.256C117.001 34.6187 117.129 34.928 117.385 35.184C117.62 35.44 118.004 35.568 118.537 35.568ZM139.673 14.768C140.483 14.768 141.091 15.0347 141.497 15.568C141.923 16.1013 142.169 16.7733 142.233 17.584C142.297 18.5653 142.137 19.568 141.753 20.592C141.689 20.7627 141.625 20.9333 141.561 21.104C142.265 21.2107 142.883 20.9653 143.417 20.368C143.95 19.7493 144.398 18.9067 144.761 17.84C145.123 16.9013 145.422 15.984 145.657 15.088C145.913 14.1707 146.115 13.3173 146.265 12.528C146.329 12.1867 146.446 11.9413 146.617 11.792C146.787 11.6213 146.969 11.536 147.161 11.536C147.438 11.536 147.694 11.6747 147.929 11.952C148.163 12.208 148.281 12.5813 148.281 13.072C148.281 13.1573 148.27 13.2533 148.249 13.36C148.249 13.4667 148.238 13.5733 148.217 13.68C148.131 14.128 147.875 14.5547 147.449 14.96C147.043 15.344 146.713 15.632 146.457 15.824C146.67 15.8453 146.894 15.8667 147.129 15.888C147.363 15.888 147.619 15.888 147.897 15.888C148.899 15.888 149.891 15.824 150.873 15.696C150.915 15.824 150.937 15.92 150.937 15.984C150.937 16.2613 150.851 16.6133 150.681 17.04C150.531 17.4667 150.371 17.8507 150.201 18.192C150.115 18.384 149.945 18.736 149.689 19.248C149.433 19.7387 149.155 20.304 148.857 20.944C148.558 21.5627 148.302 22.1813 148.089 22.8C147.897 23.3973 147.801 23.9093 147.801 24.336C147.801 24.8907 148.014 25.168 148.441 25.168C148.761 25.168 149.113 24.9653 149.497 24.56C149.881 24.1547 150.265 23.6533 150.649 23.056C151.033 22.4587 151.374 21.872 151.673 21.296C151.993 20.6987 152.227 20.208 152.377 19.824C152.633 19.824 152.761 19.92 152.761 20.112C152.462 20.7947 152.078 21.5627 151.609 22.416C151.161 23.2693 150.638 24.0373 150.041 24.72C149.443 25.4027 148.793 25.8293 148.089 26C148.025 26.0213 147.907 26.032 147.737 26.032C147.331 26.032 146.926 25.872 146.521 25.552C146.115 25.2107 145.913 24.6667 145.913 23.92C145.913 23.344 146.051 22.6827 146.329 21.936C146.585 21.2107 146.926 20.5067 147.353 19.824C147.801 19.1413 148.121 18.5867 148.312 18.16C148.377 17.9893 148.409 17.84 148.409 17.712C148.409 17.328 148.163 17.0507 147.673 16.88C147.203 16.7093 146.585 16.6133 145.817 16.592L145.433 17.648C144.985 19.12 144.409 20.2293 143.705 20.976C143.022 21.7013 142.201 21.9573 141.241 21.744C140.878 22.448 140.419 23.1307 139.865 23.792C139.31 24.432 138.713 24.9653 138.073 25.392C137.433 25.7973 136.782 26 136.121 26C135.31 26 134.691 25.7333 134.265 25.2C133.859 24.6453 133.625 23.9733 133.561 23.184C133.497 22.2453 133.657 21.2427 134.041 20.176C134.382 19.1947 134.851 18.2987 135.449 17.488C136.067 16.6773 136.739 16.0267 137.465 15.536C138.211 15.024 138.947 14.768 139.673 14.768ZM141.305 18.928C141.433 18.3733 141.475 17.8507 141.433 17.36C141.411 16.8693 141.294 16.4853 141.081 16.208C140.867 15.9307 140.569 15.792 140.185 15.792C139.737 15.792 139.267 15.984 138.777 16.368C138.286 16.752 137.817 17.264 137.369 17.904C136.942 18.544 136.569 19.2587 136.249 20.048C135.95 20.7733 135.726 21.4773 135.577 22.16C135.427 22.8213 135.374 23.3973 135.417 23.888C135.459 24.3147 135.566 24.656 135.737 24.912C135.929 25.168 136.206 25.296 136.569 25.296C137.059 25.296 137.561 25.0827 138.073 24.656C138.585 24.2293 139.054 23.7173 139.481 23.12C139.907 22.5227 140.238 21.968 140.473 21.456C140.174 21.1573 139.95 20.848 139.801 20.528C139.651 20.1867 139.577 19.9307 139.577 19.76C139.555 19.4187 139.619 19.1307 139.769 18.896C139.918 18.6613 140.174 18.544 140.536 18.544C140.835 18.544 141.091 18.672 141.305 18.928ZM147.972 36.208C146.863 36.208 146.073 35.984 145.604 35.536C145.135 35.1093 144.9 34.5973 144.9 34C144.9 33.0827 145.241 32.2293 145.924 31.44C146.585 30.672 147.407 30.0533 148.388 29.584C149.497 29.072 150.756 28.656 152.164 28.336C153.593 28.016 154.959 27.664 156.26 27.28C156.665 26.576 157.039 25.776 157.38 24.88C157.721 23.9627 158.031 23.0773 158.308 22.224C158.585 21.3493 158.809 20.6347 158.98 20.08C158.724 20.5493 158.393 21.1253 157.988 21.808C157.604 22.4693 157.167 23.12 156.676 23.76C156.185 24.4 155.652 24.9333 155.076 25.36C154.521 25.7867 153.935 26 153.316 26C153.081 26 152.793 25.9467 152.452 25.84C152.132 25.7333 151.844 25.5413 151.588 25.264C151.353 24.9653 151.236 24.528 151.236 23.952C151.236 23.3973 151.407 22.7893 151.748 22.128C152.089 21.4453 152.431 20.7733 152.772 20.112C152.665 20.112 152.569 20.1013 152.484 20.08C152.42 20.0587 152.388 19.9733 152.388 19.824C152.452 19.696 152.58 19.4187 152.772 18.992C152.964 18.5653 153.177 18.096 153.412 17.584C153.668 17.072 153.892 16.624 154.084 16.24C154.319 15.7493 154.575 15.408 154.852 15.216C155.151 15.024 155.439 14.928 155.716 14.928H157.7C157.551 15.056 157.359 15.2053 157.124 15.376C156.911 15.5253 156.708 15.76 156.516 16.08C155.94 17.0613 155.439 18.0107 155.012 18.928C154.585 19.824 154.127 20.784 153.636 21.808C153.401 22.2987 153.231 22.7467 153.124 23.152C153.017 23.5573 152.964 23.9093 152.964 24.208C152.964 24.912 153.199 25.264 153.668 25.264C154.18 25.264 154.799 24.848 155.524 24.016C156.121 23.312 156.719 22.48 157.316 21.52C157.935 20.5387 158.521 19.536 159.076 18.512C159.652 17.4667 160.153 16.5067 160.58 15.632C160.815 15.1627 161.231 14.928 161.828 14.928H163.588C162.969 15.3547 162.489 15.9093 162.148 16.592C161.828 17.2747 161.465 18.1493 161.06 19.216C160.612 20.3893 160.185 21.6053 159.78 22.864C159.375 24.1227 158.927 25.4133 158.436 26.736C159.481 26.3733 160.356 25.904 161.06 25.328C161.764 24.752 162.383 24.016 162.916 23.12C163.471 22.2027 164.025 21.104 164.58 19.824C164.836 19.824 164.964 19.92 164.964 20.112C164.495 21.0933 164.068 21.9573 163.684 22.704C163.3 23.4507 162.873 24.112 162.404 24.688C161.935 25.2427 161.348 25.7547 160.644 26.224C159.94 26.7147 159.033 27.184 157.924 27.632C157.412 28.5493 156.825 29.4987 156.164 30.48C155.524 31.4827 154.788 32.4107 153.956 33.264C153.145 34.1387 152.239 34.8427 151.236 35.376C150.255 35.9307 149.167 36.208 147.972 36.208ZM147.204 35.568C147.908 35.568 148.633 35.3547 149.38 34.928C150.127 34.5013 150.852 33.9573 151.556 33.296C152.26 32.656 152.9 31.9947 153.476 31.312C154.073 30.6507 154.553 30.064 154.916 29.552C155.023 29.4027 155.14 29.2107 155.268 28.976C155.396 28.7413 155.524 28.5173 155.652 28.304C154.607 28.5813 153.455 28.88 152.196 29.2C150.959 29.5413 149.881 29.9147 148.964 30.32C147.94 30.7467 147.14 31.3547 146.564 32.144C145.967 32.9333 145.668 33.6373 145.668 34.256C145.668 34.64 145.796 34.9493 146.052 35.184C146.287 35.44 146.671 35.568 147.204 35.568Z" fill="#FF9F0D"/>
</svg>
