<svg width="245" height="39" viewBox="0 0 245 39" fill="none" xmlns="http://www.w3.org/2000/svg">
<path d="M11.752 33.208C10.2373 33.208 8.79733 32.984 7.432 32.536C6.06667 32.1093 4.85067 31.5013 3.784 30.712C2.73867 29.944 1.90667 29.048 1.288 28.024C0.690667 27 0.392 25.9013 0.392 24.728C0.392 23.512 0.562667 22.456 0.904 21.56C1.224 20.6427 1.61867 19.8853 2.088 19.288C2.55733 18.6907 3.016 18.232 3.464 17.912C3.976 17.5493 4.43467 17.304 4.84 17.176C5.24533 17.0267 5.49067 16.952 5.576 16.952C5.704 16.952 5.768 17.0053 5.768 17.112C5.768 17.2187 5.71467 17.304 5.608 17.368C4.49867 18.0293 3.64533 18.968 3.048 20.184C2.472 21.3787 2.184 22.648 2.184 23.992C2.184 25.016 2.36533 26.0187 2.728 27C3.112 27.96 3.69867 28.8347 4.488 29.624C5.27733 30.4347 6.312 31.0747 7.592 31.544C8.872 32.0133 10.4187 32.248 12.232 32.248C13.576 32.248 14.8667 31.96 16.104 31.384C17.3627 30.8293 18.5467 30.0827 19.656 29.144C20.7653 28.2267 21.8 27.2027 22.76 26.072C23.72 24.9413 24.584 23.8107 25.352 22.68C26.12 21.5493 26.7707 20.504 27.304 19.544C28.328 17.7307 29.2027 15.9387 29.928 14.168C30.6533 12.376 31.368 10.616 32.072 8.888C32.7973 7.16 33.6613 5.47467 34.664 3.832C33.6827 4.00267 32.6587 4.216 31.592 4.472C30.5253 4.70667 29.48 5.016 28.456 5.4C27.432 5.76267 26.504 6.22133 25.672 6.776C24.84 7.33067 24.1787 8.00267 23.688 8.792C23.1973 9.56 22.952 10.4667 22.952 11.512C22.952 12.3653 23.176 13.048 23.624 13.56C24.072 14.0507 24.6907 14.296 25.48 14.296C25.9707 14.296 26.4613 14.1467 26.952 13.848C27.464 13.5493 27.8907 13.1333 28.232 12.6C28.5947 12.0453 28.776 11.384 28.776 10.616C28.776 10.296 28.744 10.0507 28.68 9.88C28.616 9.688 28.5627 9.54933 28.52 9.464C28.52 9.37867 28.5413 9.29333 28.584 9.208C28.648 9.12267 28.7227 9.08 28.808 9.08C29 9.08 29.1387 9.272 29.224 9.656C29.3307 10.0187 29.384 10.3173 29.384 10.552C29.384 11.32 29.2133 12.0453 28.872 12.728C28.552 13.4107 28.0613 13.9653 27.4 14.392C26.76 14.8187 25.96 15.032 25 15.032C23.9547 15.032 23.0587 14.7013 22.312 14.04C21.5867 13.3787 21.224 12.4933 21.224 11.384C21.224 10.3173 21.512 9.368 22.088 8.536C22.6853 7.68267 23.4747 6.94667 24.456 6.328C25.4587 5.688 26.568 5.144 27.784 4.696C29 4.248 30.248 3.88533 31.528 3.608C32.808 3.33067 34.024 3.11733 35.176 2.968C35.496 2.30666 35.9333 1.688 36.488 1.112C37.064 0.535999 37.7147 0.247999 38.44 0.247999C38.7387 0.247999 38.984 0.322666 39.176 0.471998C39.368 0.621332 39.464 0.855999 39.464 1.176C39.464 1.56 39.3253 1.90133 39.048 2.2C38.7707 2.49867 38.4187 2.75467 37.992 2.968C37.5653 3.16 37.1387 3.32 36.712 3.448C36.3067 3.55467 35.9547 3.62933 35.656 3.672C34.7387 5.35733 33.992 7 33.416 8.6C32.8613 10.2 32.3493 11.7787 31.88 13.336C31.432 14.872 30.888 16.408 30.248 17.944C29.3307 20.0987 28.2747 22.104 27.08 23.96C25.9067 25.816 24.5627 27.4373 23.048 28.824C21.5547 30.2107 19.8693 31.288 17.992 32.056C16.1147 32.824 14.0347 33.208 11.752 33.208ZM36.2 2.84C37.032 2.66933 37.5867 2.47733 37.864 2.264C38.1627 2.05066 38.312 1.85867 38.312 1.688C38.312 1.41067 38.1947 1.272 37.96 1.272C37.6827 1.272 37.3733 1.41067 37.032 1.688C36.712 1.96533 36.4347 2.34933 36.2 2.84ZM39.6058 10.104C39.3284 10.5093 39.0191 11.0213 38.6778 11.64C38.3364 12.2587 38.0164 12.856 37.7178 13.432C37.4404 14.008 37.2271 14.4453 37.0778 14.744H40.0218C40.0218 14.8293 39.9791 14.968 39.8938 15.16C39.8298 15.352 39.6911 15.4907 39.4778 15.576H36.6938C36.4378 16.152 36.1391 16.8453 35.7977 17.656C35.4777 18.4667 35.1578 19.3093 34.8378 20.184C34.5391 21.0587 34.2831 21.88 34.0698 22.648C33.8778 23.3947 33.7818 24.0027 33.7818 24.472C33.7818 25.112 33.8671 25.592 34.0378 25.912C34.2084 26.2107 34.5178 26.36 34.9658 26.36C35.5418 26.36 36.0964 26.0827 36.6298 25.528C37.1631 24.952 37.6644 24.2373 38.1338 23.384C38.6244 22.5307 39.0511 21.6773 39.4138 20.824C39.6698 20.824 39.7978 20.92 39.7978 21.112C39.5631 21.688 39.2751 22.3173 38.9338 23C38.5924 23.6827 38.1978 24.344 37.7498 24.984C37.3231 25.6027 36.8324 26.1147 36.2778 26.52C35.7444 26.904 35.1471 27.096 34.4858 27.096C33.5898 27.096 32.9818 26.8507 32.6618 26.36C32.3418 25.848 32.1818 25.1973 32.1818 24.408C32.1818 23.832 32.2884 23.1387 32.5018 22.328C32.7151 21.496 32.9711 20.6427 33.2698 19.768C33.5898 18.8933 33.8991 18.0827 34.1978 17.336C34.4964 16.568 34.7311 15.9813 34.9018 15.576H32.8538C32.8538 15.4053 32.9284 15.224 33.0778 15.032C33.2271 14.84 33.3871 14.744 33.5578 14.744H35.2538C35.4244 14.4027 35.6164 13.976 35.8298 13.464C36.0644 12.952 36.3738 12.3867 36.7578 11.768C37.0778 11.256 37.4831 10.8507 37.9738 10.552C38.4858 10.2533 39.0298 10.104 39.6058 10.104ZM40.0913 27.128C39.2166 27.128 38.5019 26.8613 37.9473 26.328C37.4139 25.7733 37.1472 25.1973 37.1472 24.6C37.1472 24.1093 37.2752 23.6613 37.5312 23.256C37.7659 22.8293 38.0859 22.616 38.4913 22.616L38.5233 22.552C38.9926 21.6987 39.4406 20.8347 39.8673 19.96C40.3153 19.064 40.8059 18.1147 41.3393 17.112C41.7873 16.28 42.2673 15.5973 42.7793 15.064C43.3126 14.5307 43.9313 14.264 44.6353 14.264C44.8059 14.264 45.0406 14.3067 45.3393 14.392C45.6379 14.456 45.7873 14.6053 45.7873 14.84C45.7873 15.0107 45.6913 15.096 45.4993 15.096C45.3499 15.096 45.1793 15.0533 44.9873 14.968C44.8166 14.8827 44.6779 14.84 44.5713 14.84C44.1659 14.84 43.8246 15.0747 43.5473 15.544C43.2699 16.0133 43.1313 16.5147 43.1313 17.048C43.1313 17.624 43.2273 18.1467 43.4193 18.616C43.6113 19.064 43.8353 19.5013 44.0913 19.928C44.3473 20.3547 44.5713 20.792 44.7633 21.24C44.9553 21.6667 45.0513 22.136 45.0513 22.648C45.0513 23.672 44.8486 24.504 44.4433 25.144C44.0593 25.7627 43.5473 26.232 42.9073 26.552H42.9393C44.0699 26.552 44.9979 26.0293 45.7233 24.984C46.4699 23.9173 47.2059 22.5307 47.9313 20.824C48.1873 20.824 48.3153 20.92 48.3153 21.112C47.9099 22.072 47.4619 23.0107 46.9713 23.928C46.4806 24.8453 45.9046 25.6027 45.2433 26.2C44.5819 26.7973 43.7713 27.096 42.8113 27.096C42.4059 27.096 42.0326 27.0533 41.6913 26.968C41.2006 27.0747 40.6673 27.128 40.0913 27.128ZM39.6113 23.736C39.6113 24.248 39.7286 24.7387 39.9633 25.208C40.1979 25.6773 40.6246 26.0293 41.2433 26.264C41.7979 25.944 42.2246 25.4533 42.5233 24.792C42.8433 24.1093 43.0033 23.4053 43.0033 22.68C43.0033 22.0827 42.9393 21.4747 42.8113 20.856C42.6833 20.2373 42.5446 19.6293 42.3953 19.032C42.2673 18.4347 42.2033 17.9013 42.2033 17.432C42.2033 17.2827 42.2033 17.1547 42.2033 17.048C42.2246 16.92 42.2459 16.8027 42.2673 16.696C41.8833 17.272 41.4886 17.944 41.0833 18.712C40.6993 19.48 40.3259 20.216 39.9633 20.92C39.6006 21.624 39.2699 22.2 38.9713 22.648C39.3979 22.712 39.6113 23.0747 39.6113 23.736ZM38.5553 25.336C38.5553 25.6773 38.6726 25.976 38.9073 26.232C39.1419 26.488 39.4939 26.616 39.9633 26.616C40.1766 26.616 40.3793 26.5947 40.5713 26.552C40.1233 26.2747 39.7606 25.9227 39.4833 25.496C39.2273 25.0693 39.0993 24.5787 39.0993 24.024C38.9073 24.2373 38.7686 24.4613 38.6833 24.696C38.5979 24.9093 38.5553 25.1227 38.5553 25.336ZM61.6433 29.016C60.3206 29.016 59.0833 28.6853 57.9313 28.024C56.8006 27.384 55.9366 26.3173 55.3393 24.824C55.0833 24.2053 54.8913 23.5653 54.7633 22.904C54.6566 22.2213 54.6033 21.5493 54.6033 20.888C54.6033 19.4587 54.8273 18.0293 55.2753 16.6C55.7446 15.1493 56.3739 13.784 57.1633 12.504C57.9739 11.224 58.8699 10.0933 59.8513 9.112C60.8539 8.10933 61.8993 7.32 62.9873 6.744C64.0966 6.168 65.1739 5.88 66.2193 5.88C67.0513 5.88 67.8299 6.08267 68.5553 6.488C68.7259 6.59467 68.8113 6.69067 68.8113 6.776C68.8113 6.84 68.7579 6.89333 68.6513 6.936C68.5446 6.97867 68.4273 6.97867 68.2993 6.936C68.0433 6.85067 67.7233 6.808 67.3393 6.808C66.4219 6.808 65.4619 7.11733 64.4593 7.736C63.4566 8.35467 62.4753 9.19733 61.5153 10.264C60.5766 11.3093 59.7233 12.4933 58.9553 13.816C58.1873 15.1387 57.5686 16.5147 57.0993 17.944C56.6513 19.352 56.4273 20.728 56.4273 22.072C56.4273 22.8827 56.5233 23.6613 56.7153 24.408C57.1206 25.816 57.7499 26.8293 58.6033 27.448C59.4779 28.0667 60.4699 28.376 61.5793 28.376C62.5393 28.376 63.5526 28.1627 64.6193 27.736C65.6859 27.3093 66.7099 26.7227 67.6912 25.976C69.2486 24.8027 70.5286 23.512 71.5312 22.104C72.5553 20.6747 73.3126 19.2027 73.8033 17.688C74.3153 16.152 74.5713 14.648 74.5713 13.176C74.5713 11.768 74.3366 10.4347 73.8673 9.176C73.4193 7.896 72.7366 6.76533 71.8193 5.784C70.9233 4.80267 69.8033 4.03467 68.4593 3.48C67.1366 2.904 65.6113 2.616 63.8833 2.616C63.5419 2.616 63.1899 2.63733 62.8273 2.68C62.4646 2.70133 62.0913 2.73333 61.7073 2.776C59.6379 3.05333 58.0699 3.832 57.0033 5.112C55.9366 6.392 55.4033 7.98133 55.4033 9.88C55.4033 10.2853 55.4246 10.712 55.4673 11.16C55.5313 11.5867 55.6166 12.024 55.7233 12.472C55.7446 12.536 55.7552 12.632 55.7552 12.76C55.7552 13.016 55.6699 13.144 55.4993 13.144C55.3286 13.144 55.1473 12.9733 54.9553 12.632C54.6993 12.12 54.5073 11.608 54.3793 11.096C54.2726 10.584 54.2193 10.0827 54.2193 9.592C54.2193 8.35467 54.5393 7.21333 55.1793 6.168C55.8193 5.10133 56.6939 4.20533 57.8033 3.48C58.9126 2.75467 60.1713 2.27467 61.5793 2.04C62.2619 1.93333 62.9126 1.848 63.5313 1.784C64.1713 1.72 64.7793 1.688 65.3553 1.688C67.8939 1.688 69.9633 2.15733 71.5633 3.096C73.1846 4.01333 74.3793 5.25067 75.1473 6.808C75.9153 8.36533 76.2993 10.072 76.2993 11.928C76.2993 13.7627 75.9473 15.6293 75.2433 17.528C74.5606 19.4267 73.5793 21.208 72.2993 22.872C71.0406 24.5147 69.5473 25.912 67.8193 27.064C66.8806 27.6827 65.8673 28.1627 64.7793 28.504C63.6913 28.8453 62.6459 29.016 61.6433 29.016ZM72.9393 38.872C71.0619 38.872 69.4193 38.6587 68.0113 38.232C66.6246 37.8053 65.4086 37.2507 64.3633 36.568C63.3393 35.8853 62.4219 35.16 61.6113 34.392C60.8219 33.6453 60.0753 32.9307 59.3713 32.248C58.6673 31.5653 57.9526 31.0107 57.2273 30.584C56.5233 30.1573 55.7339 29.944 54.8593 29.944C54.6459 29.944 54.3899 29.9973 54.0913 30.104C53.8139 30.2107 53.5579 30.3707 53.3233 30.584C53.1099 30.7973 53.0033 31.0853 53.0033 31.448C53.0033 31.5973 52.9713 31.6933 52.9073 31.736C52.8433 31.8 52.7899 31.832 52.7473 31.832C52.5553 31.832 52.4593 31.672 52.4593 31.352C52.4593 30.6907 52.7153 30.1253 53.2273 29.656C53.7393 29.208 54.3579 28.984 55.0833 28.984C56.2353 28.984 57.2806 29.2293 58.2193 29.72C59.1793 30.2107 60.1179 30.8293 61.0353 31.576C61.9739 32.344 62.9979 33.1333 64.1073 33.944C65.1099 34.6693 66.1979 35.3413 67.3713 35.96C68.5659 36.6 69.7713 37.112 70.9873 37.496C72.2246 37.88 73.3873 38.072 74.4753 38.072C75.0086 38.072 75.5099 38.008 75.9793 37.88C76.4486 37.752 76.8326 37.5173 77.1313 37.176C77.4513 36.8347 77.6113 36.3653 77.6113 35.768C77.6113 35.1493 77.3979 34.5093 76.9713 33.848C76.5659 33.208 75.9686 32.632 75.1793 32.12C74.3899 31.6293 73.4406 31.2987 72.3313 31.128C72.1606 31.0853 72.0326 31.0213 71.9473 30.936C71.8619 30.8507 71.8193 30.7653 71.8193 30.68C71.8193 30.5093 71.9579 30.4347 72.2353 30.456C73.5793 30.6693 74.7099 31.0427 75.6273 31.576C76.5659 32.1307 77.2806 32.7493 77.7713 33.432C78.2619 34.136 78.5073 34.8293 78.5073 35.512C78.5073 36.408 78.0593 37.1867 77.1633 37.848C76.2673 38.5307 74.8593 38.872 72.9393 38.872ZM77.7223 27C77.4876 27 77.1996 26.9467 76.8583 26.84C76.5383 26.7333 76.2503 26.5413 75.9943 26.264C75.7596 25.9653 75.6423 25.528 75.6423 24.952C75.6423 24.3973 75.8236 23.7573 76.1863 23.032C76.5489 22.3067 76.8689 21.6667 77.1463 21.112C76.9116 21.112 76.7943 21.016 76.7943 20.824C76.8156 20.76 76.9116 20.5573 77.0823 20.216C77.2529 19.8747 77.4556 19.4693 77.6903 19C77.9249 18.5307 78.1489 18.0827 78.3623 17.656C78.5969 17.208 78.7783 16.8667 78.9062 16.632C79.1623 16.1627 79.5676 15.928 80.1223 15.928H82.1063C81.7436 16.2053 81.4129 16.5147 81.1143 16.856C80.8369 17.176 80.4849 17.7733 80.0583 18.648C80.0583 18.648 79.9836 18.7973 79.8343 19.096C79.6849 19.3947 79.4929 19.7787 79.2583 20.248C79.0449 20.696 78.8209 21.1547 78.5863 21.624C78.3729 22.0933 78.1916 22.488 78.0423 22.808C77.7649 23.4053 77.5836 23.8853 77.4983 24.248C77.4129 24.5893 77.3703 24.9093 77.3703 25.208C77.3703 25.912 77.6049 26.264 78.0743 26.264C78.5863 26.264 79.2049 25.848 79.9303 25.016C80.5276 24.312 81.1143 23.4693 81.6903 22.488C82.2663 21.5067 82.8103 20.4933 83.3223 19.448C83.8556 18.4027 84.3249 17.464 84.7303 16.632C84.9649 16.1627 85.3809 15.928 85.9783 15.928H87.7383C87.2689 16.312 86.7889 16.888 86.2983 17.656C85.8289 18.424 85.3063 19.4053 84.7303 20.6C84.5809 20.92 84.3889 21.3253 84.1543 21.816C83.9196 22.3067 83.7063 22.8293 83.5143 23.384C83.3436 23.9387 83.2583 24.4933 83.2583 25.048C83.2583 25.7947 83.5249 26.168 84.0583 26.168C84.7836 26.168 85.4876 25.6667 86.1703 24.664C86.8529 23.6613 87.5249 22.3813 88.1863 20.824C88.3569 20.824 88.4529 20.8347 88.4743 20.856C88.5169 20.8773 88.5489 20.9627 88.5703 21.112C88.3356 21.688 88.0476 22.3173 87.7063 23C87.3863 23.6613 87.0129 24.3013 86.5863 24.92C86.1809 25.5387 85.7223 26.04 85.2103 26.424C84.7196 26.808 84.1756 27 83.5783 27C83.0449 27 82.6076 26.808 82.2663 26.424C81.9249 26.0187 81.7543 25.4533 81.7543 24.728C81.7543 24.152 81.8609 23.5333 82.0743 22.872C81.7116 23.512 81.2956 24.152 80.8263 24.792C80.3569 25.432 79.8556 25.9653 79.3223 26.392C78.7889 26.7973 78.2556 27 77.7223 27ZM89.0965 27C88.3072 27 87.7525 26.776 87.4325 26.328C87.1125 25.8587 86.9525 25.3253 86.9525 24.728C86.9525 24.408 86.9845 24.088 87.0485 23.768C87.1338 23.4267 87.2298 23.1173 87.3365 22.84L89.4805 17.368C89.5445 17.1973 89.5765 17.048 89.5765 16.92C89.5765 16.7067 89.5232 16.5253 89.4165 16.376C89.3098 16.2053 89.2352 16.088 89.1925 16.024L90.9525 15.96C91.2725 15.9387 91.4965 15.9813 91.6245 16.088C91.7738 16.1733 91.8485 16.28 91.8485 16.408C91.8485 16.536 91.7738 16.7707 91.6245 17.112C91.4112 17.624 91.1232 18.264 90.7605 19.032C90.3978 19.8 90.0352 20.5893 89.6725 21.4C89.3312 22.2107 89.0325 22.968 88.7765 23.672C88.5418 24.376 88.4245 24.92 88.4245 25.304C88.4245 25.5813 88.4885 25.816 88.6165 26.008C88.7658 26.2 89.0112 26.296 89.3525 26.296C89.8005 26.296 90.2378 26.1253 90.6645 25.784C91.1125 25.4213 91.5285 24.9627 91.9125 24.408C92.2965 23.8533 92.6485 23.256 92.9685 22.616C93.3098 21.976 93.5978 21.3787 93.8325 20.824C94.0885 20.824 94.2165 20.92 94.2165 21.112C94.0032 21.6453 93.7258 22.2533 93.3845 22.936C93.0432 23.6187 92.6485 24.2693 92.2005 24.888C91.7738 25.4853 91.2938 25.9867 90.7605 26.392C90.2485 26.7973 89.6938 27 89.0965 27ZM91.9445 13.976C91.6672 13.976 91.4218 13.8693 91.2085 13.656C91.0165 13.4427 90.9205 13.1867 90.9205 12.888C90.9205 12.5253 91.0698 12.2053 91.3685 11.928C91.6672 11.6293 91.9978 11.48 92.3605 11.48C92.6592 11.48 92.9152 11.576 93.1285 11.768C93.3418 11.96 93.4485 12.2053 93.4485 12.504C93.4485 12.888 93.2992 13.2293 93.0005 13.528C92.7018 13.8267 92.3498 13.976 91.9445 13.976ZM96.5775 27.128C95.4042 27.128 94.5295 26.8187 93.9535 26.2C93.3988 25.5813 93.1215 24.7493 93.1215 23.704C93.1215 23.2133 93.2175 22.648 93.4095 22.008C93.6015 21.368 93.8575 20.7173 94.1775 20.056C94.4975 19.3947 94.8495 18.808 95.2335 18.296C95.8522 17.464 96.5348 16.824 97.2815 16.376C98.0282 15.9067 98.7855 15.672 99.5535 15.672C100.364 15.672 100.94 15.8533 101.282 16.216C101.644 16.5573 101.826 16.9627 101.826 17.432C101.826 17.88 101.719 18.2853 101.506 18.648C101.292 18.9893 101.047 19.2667 100.77 19.48C100.514 19.6933 100.29 19.8 100.098 19.8C99.9268 19.8 99.7775 19.736 99.6495 19.608C99.8202 19.3947 100.002 19.1387 100.194 18.84C100.386 18.5413 100.524 18.2533 100.61 17.976C100.695 17.72 100.738 17.464 100.738 17.208C100.738 16.6533 100.482 16.376 99.9695 16.376C99.3508 16.376 98.7428 16.632 98.1455 17.144C97.5695 17.656 97.0362 18.3173 96.5455 19.128C96.0762 19.9173 95.6922 20.76 95.3935 21.656C95.1162 22.5307 94.9775 23.3413 94.9775 24.088C94.9775 24.7707 95.1162 25.336 95.3935 25.784C95.6922 26.232 96.1722 26.456 96.8335 26.456C97.7082 26.456 98.4762 26.1787 99.1375 25.624C99.7988 25.048 100.386 24.3333 100.898 23.48C101.41 22.6053 101.858 21.72 102.242 20.824C102.327 20.824 102.412 20.8453 102.498 20.888C102.583 20.9093 102.626 20.984 102.626 21.112C102.199 22.1787 101.698 23.1707 101.122 24.088C100.546 25.0053 99.8842 25.7413 99.1375 26.296C98.4122 26.8507 97.5588 27.128 96.5775 27.128ZM107.8 27.224C107.202 27.16 106.712 26.936 106.328 26.552C105.944 26.1467 105.666 25.6773 105.496 25.144C105.325 24.6107 105.24 24.12 105.24 23.672C105.24 22.8187 105.432 22.136 105.816 21.624C106.2 21.0907 106.552 20.8133 106.872 20.792C107.213 20.8133 107.629 20.7387 108.12 20.568C108.61 20.376 109.037 20.12 109.4 19.8C110.018 19.3093 110.328 18.808 110.328 18.296C110.328 17.7627 110.018 17.496 109.4 17.496C109.058 17.496 108.621 17.6133 108.088 17.848C107.576 18.0827 106.978 18.488 106.296 19.064C105.442 19.7893 104.557 20.76 103.64 21.976C103.512 22.2533 103.362 22.6693 103.192 23.224C103.021 23.7573 102.872 24.312 102.744 24.888C102.637 25.464 102.584 25.9547 102.584 26.36C102.584 26.68 102.637 26.8933 102.744 27H100.728C100.493 27 100.376 26.904 100.376 26.712C100.376 26.648 100.386 26.5947 100.408 26.552C100.429 26.5093 100.45 26.424 100.472 26.296C100.77 25.1867 101.122 24.2053 101.528 23.352C101.954 22.4987 102.306 21.752 102.584 21.112C102.392 21.176 102.285 21.1653 102.264 21.08C102.242 20.9733 102.232 20.888 102.232 20.824C102.381 20.4827 102.626 19.9387 102.968 19.192C103.33 18.424 103.746 17.5493 104.216 16.568C104.706 15.5653 105.229 14.52 105.784 13.432C106.338 12.344 106.893 11.2987 107.448 10.296C108.002 9.272 108.45 8.54667 108.792 8.12C109.154 7.69333 109.592 7.48 110.104 7.48C110.296 7.48 110.52 7.512 110.776 7.576C111.053 7.64 111.298 7.65067 111.512 7.608C111.042 8.01333 110.456 8.76 109.752 9.848C109.048 10.9147 108.301 12.1627 107.512 13.592C106.722 15.0213 105.965 16.4827 105.24 17.976C105.026 18.4027 104.824 18.8507 104.632 19.32C104.44 19.7893 104.258 20.2587 104.088 20.728C104.536 20.1733 105.048 19.5973 105.624 19C106.2 18.4027 106.797 17.8587 107.416 17.368C108.056 16.856 108.685 16.4827 109.304 16.248C110.008 15.992 110.594 15.864 111.064 15.864C111.554 15.864 111.906 15.9813 112.12 16.216C112.354 16.4507 112.472 16.7493 112.472 17.112C112.472 17.5173 112.312 18.008 111.992 18.584C111.672 19.1387 111.234 19.6187 110.68 20.024C110.21 20.344 109.72 20.6213 109.208 20.856C108.696 21.0907 108.088 21.24 107.384 21.304C107.256 21.6027 107.16 21.912 107.096 22.232C107.053 22.5307 107.032 22.8293 107.032 23.128C107.032 23.96 107.224 24.696 107.608 25.336C107.992 25.9547 108.493 26.264 109.112 26.264C109.41 26.264 109.73 26.1787 110.072 26.008C110.434 25.8373 110.808 25.5493 111.192 25.144C111.618 24.7173 112.045 24.1307 112.472 23.384C112.898 22.616 113.325 21.7627 113.752 20.824C114.008 20.824 114.136 20.92 114.136 21.112C113.368 22.968 112.621 24.344 111.896 25.24C111.17 26.136 110.466 26.712 109.784 26.968C109.122 27.2027 108.461 27.288 107.8 27.224ZM125.76 28.44C123.946 28.44 122.442 28.152 121.248 27.576C120.053 27.0213 119.157 26.2853 118.56 25.368C117.984 24.4293 117.696 23.4373 117.696 22.392C117.696 21.2187 118.048 20.056 118.752 18.904C119.456 17.7307 120.501 16.728 121.888 15.896C123.296 15.0427 125.013 14.5093 127.04 14.296C126.741 13.8907 126.517 13.432 126.368 12.92C126.218 12.3867 126.144 11.8853 126.144 11.416C126.165 10.2853 126.485 9.29333 127.104 8.44C127.722 7.56533 128.512 6.82933 129.472 6.232C130.453 5.63467 131.498 5.18667 132.608 4.888C133.717 4.568 134.762 4.408 135.744 4.408C136.341 4.408 136.949 4.49333 137.568 4.664C138.186 4.81333 138.709 5.09067 139.136 5.496C139.562 5.90133 139.776 6.47733 139.776 7.224C139.776 7.84267 139.584 8.39733 139.2 8.888C138.816 9.37867 138.346 9.624 137.792 9.624C137.386 9.624 137.034 9.47467 136.736 9.176C136.437 8.87733 136.288 8.536 136.288 8.152C136.288 7.704 136.426 7.34133 136.704 7.064C137.002 6.76533 137.365 6.616 137.792 6.616C137.984 6.616 138.197 6.68 138.432 6.808C138.688 6.936 138.848 7.064 138.912 7.192C138.933 7.10667 138.944 6.98933 138.944 6.84C138.944 6.264 138.709 5.85867 138.24 5.624C137.77 5.38933 137.269 5.272 136.736 5.272C135.882 5.272 134.89 5.48533 133.76 5.912C132.629 6.31733 131.53 6.98933 130.464 7.928C130.08 8.26933 129.685 8.71733 129.28 9.272C128.874 9.82667 128.533 10.424 128.256 11.064C127.978 11.6827 127.84 12.312 127.84 12.952C127.84 13.4427 127.925 13.8693 128.096 14.232C128.416 14.232 128.778 14.2213 129.184 14.2C129.61 14.1573 130.048 14.136 130.496 14.136C131.05 14.136 131.488 14.2533 131.808 14.488C132.128 14.7227 132.288 14.9893 132.288 15.288C132.288 15.5013 132.16 15.704 131.904 15.896C131.648 16.088 131.242 16.184 130.688 16.184C129.984 16.184 129.344 16.0347 128.768 15.736C128.213 15.416 127.776 15.096 127.456 14.776C126.048 14.968 124.853 15.4907 123.872 16.344C122.89 17.1973 122.144 18.2107 121.632 19.384C121.12 20.536 120.864 21.688 120.864 22.84C120.864 23.7573 121.034 24.6107 121.376 25.4C121.738 26.1893 122.282 26.8187 123.008 27.288C123.733 27.7787 124.65 28.024 125.76 28.024C126.912 28.024 127.957 27.8107 128.896 27.384C129.856 26.9787 130.677 26.4453 131.36 25.784C132.042 25.1227 132.565 24.4293 132.928 23.704C133.312 22.9573 133.504 22.264 133.504 21.624C133.504 21.0693 133.301 20.6107 132.896 20.248C132.512 19.864 132 19.5867 131.36 19.416C130.72 19.224 130.037 19.128 129.312 19.128C128.565 19.128 127.818 19.2347 127.072 19.448C126.346 19.64 125.728 19.9493 125.216 20.376C124.704 20.7813 124.394 21.304 124.288 21.944C124.288 21.9867 124.277 22.04 124.256 22.104C124.256 22.1467 124.256 22.1893 124.256 22.232C124.256 22.7013 124.426 23.1707 124.768 23.64C125.13 24.088 125.685 24.504 126.432 24.888C126.624 24.9733 126.72 25.1333 126.72 25.368C126.72 25.6027 126.613 25.6667 126.4 25.56C125.226 24.9413 124.362 24.2693 123.808 23.544C123.274 22.7973 123.008 22.0933 123.008 21.432C123.008 20.472 123.52 19.6507 124.544 18.968C125.589 18.264 127.072 17.912 128.992 17.912H134.656C134.997 17.912 135.498 17.8373 136.16 17.688C136.842 17.5387 137.536 17.3253 138.24 17.048C138.944 16.7493 139.541 16.408 140.032 16.024C140.544 15.6187 140.8 15.16 140.8 14.648C140.8 14.3707 140.704 14.072 140.512 13.752C140.469 13.688 140.448 13.6133 140.448 13.528C140.448 13.4 140.501 13.336 140.608 13.336C140.693 13.336 140.768 13.3893 140.832 13.496C141.152 13.9653 141.312 14.4453 141.312 14.936C141.312 15.512 141.098 16.0453 140.672 16.536C140.266 17.0267 139.712 17.464 139.008 17.848C138.304 18.2107 137.514 18.488 136.64 18.68C135.786 18.872 134.912 18.9573 134.016 18.936C134.421 19.2773 134.72 19.6613 134.912 20.088C135.104 20.5147 135.2 20.9627 135.2 21.432C135.2 22.2213 134.965 23.032 134.496 23.864C134.026 24.6747 133.365 25.432 132.512 26.136C131.658 26.8187 130.656 27.3733 129.504 27.8C128.373 28.2267 127.125 28.44 125.76 28.44ZM130.688 15.64C131.392 15.64 131.744 15.5013 131.744 15.224C131.744 15.1173 131.648 15.0107 131.456 14.904C131.285 14.776 131.05 14.7013 130.752 14.68C130.624 14.6587 130.41 14.648 130.112 14.648C129.813 14.648 129.493 14.648 129.152 14.648C128.832 14.648 128.565 14.648 128.352 14.648C128.885 15.3093 129.664 15.64 130.688 15.64ZM159.784 29.048C158.845 29.048 158.184 28.6747 157.8 27.928C157.416 27.2027 157.224 26.3493 157.224 25.368C157.224 24.4933 157.341 23.6293 157.576 22.776C157.832 21.9227 158.13 21.272 158.472 20.824C157.896 21.5067 157.181 22.2853 156.328 23.16C155.474 24.0347 154.536 24.8773 153.512 25.688C152.488 26.4987 151.432 27.1707 150.344 27.704C149.256 28.2373 148.178 28.504 147.112 28.504C145.704 28.504 144.648 28.056 143.944 27.16C143.261 26.264 142.92 25.0373 142.92 23.48C142.92 22.264 143.122 20.9627 143.528 19.576C143.954 18.168 144.573 16.7387 145.384 15.288C145.768 14.584 146.194 13.8907 146.664 13.208C147.154 12.504 147.677 11.8427 148.232 11.224C147.57 10.904 146.93 10.552 146.312 10.168C145.693 9.76267 145.192 9.28267 144.808 8.728C144.424 8.17333 144.232 7.512 144.232 6.744C144.232 6.33867 144.317 5.976 144.488 5.656C144.68 5.31467 144.882 5.144 145.096 5.144C145.288 5.144 145.384 5.26133 145.384 5.496C145.384 5.64533 145.341 5.80533 145.256 5.976C145.149 6.25333 145.096 6.50933 145.096 6.744C145.096 7.32 145.298 7.864 145.704 8.376C146.109 8.86667 146.6 9.29333 147.176 9.656C147.752 10.0187 148.285 10.3067 148.776 10.52C150.141 9.02667 151.634 7.65067 153.256 6.392C154.898 5.112 156.658 4.088 158.536 3.32C160.413 2.552 162.386 2.168 164.456 2.168C166.184 2.168 167.538 2.552 168.52 3.32C169.501 4.06667 169.992 5.03733 169.992 6.232C169.992 7.29867 169.682 8.216 169.064 8.984C168.466 9.73067 167.677 10.36 166.696 10.872C165.714 11.3627 164.648 11.7573 163.496 12.056C162.365 12.3333 161.245 12.536 160.136 12.664C159.026 12.7707 158.056 12.824 157.224 12.824C156.008 12.824 154.824 12.7493 153.672 12.6C152.541 12.4507 151.41 12.216 150.28 11.896C149.725 12.6853 149.117 13.6027 148.456 14.648C147.816 15.672 147.197 16.76 146.6 17.912C146.024 19.0427 145.544 20.1733 145.16 21.304C144.797 22.4133 144.616 23.448 144.616 24.408C144.616 25.4533 144.861 26.2427 145.352 26.776C145.842 27.288 146.504 27.544 147.336 27.544C148.338 27.544 149.394 27.2453 150.504 26.648C151.634 26.0293 152.765 25.2293 153.896 24.248C155.026 23.2667 156.104 22.2 157.128 21.048C158.152 19.896 159.069 18.7547 159.88 17.624C160.69 16.4933 161.33 15.4907 161.8 14.616C162.162 13.9333 162.514 13.4533 162.856 13.176C163.197 12.8773 163.485 12.728 163.72 12.728C163.954 12.728 164.136 12.824 164.264 13.016C164.392 13.1867 164.456 13.4213 164.456 13.72C164.456 14.3173 164.189 14.9147 163.656 15.512C162.93 16.344 162.226 17.3573 161.544 18.552C160.861 19.7253 160.306 20.9627 159.88 22.264C159.453 23.544 159.24 24.7493 159.24 25.88C159.24 26.6693 159.357 27.2347 159.592 27.576C159.848 27.9173 160.178 28.088 160.584 28.088C161.202 28.088 161.821 27.8747 162.44 27.448C163.08 27.0427 163.688 26.488 164.264 25.784C164.84 25.08 165.373 24.3013 165.864 23.448C166.354 22.5733 166.781 21.6987 167.144 20.824C167.25 20.824 167.336 20.8347 167.4 20.856C167.485 20.8773 167.528 20.9627 167.528 21.112C167.165 22.0293 166.728 22.9573 166.216 23.896C165.725 24.8347 165.16 25.6987 164.52 26.488C163.88 27.256 163.165 27.8747 162.376 28.344C161.586 28.8133 160.722 29.048 159.784 29.048ZM156.936 12.056C157.789 12.056 158.738 12.0133 159.784 11.928C160.829 11.8213 161.864 11.64 162.888 11.384C163.933 11.128 164.893 10.7653 165.768 10.296C166.642 9.82667 167.346 9.22933 167.88 8.504C168.413 7.77867 168.68 6.89333 168.68 5.848C168.68 4.90933 168.285 4.19467 167.496 3.704C166.728 3.21333 165.746 2.968 164.552 2.968C162.568 2.968 160.754 3.36267 159.112 4.152C157.49 4.92 155.997 5.93333 154.632 7.192C153.288 8.45067 152.008 9.80533 150.792 11.256C151.73 11.5333 152.69 11.736 153.672 11.864C154.674 11.992 155.762 12.056 156.936 12.056ZM164.034 27.16C164.823 25.6453 165.57 24.1307 166.274 22.616C166.978 21.08 167.693 19.6293 168.418 18.264C168.845 17.496 169.197 16.9627 169.474 16.664C169.773 16.344 170.167 16.184 170.658 16.184C170.829 16.184 171.01 16.216 171.202 16.28C171.394 16.3227 171.586 16.344 171.778 16.344C171.906 16.344 172.002 16.3333 172.066 16.312C171.767 16.4827 171.383 16.9093 170.914 17.592C170.445 18.2533 169.965 19.0213 169.474 19.896C168.983 20.7707 168.546 21.592 168.162 22.36C168.567 21.8693 168.983 21.3787 169.41 20.888C169.858 20.3973 170.349 19.928 170.882 19.48C171.351 19.0747 171.842 18.6373 172.354 18.168C172.887 17.6773 173.41 17.2613 173.922 16.92C174.434 16.5787 174.882 16.408 175.266 16.408C175.415 16.408 175.511 16.4187 175.554 16.44C175.959 16.6107 176.162 16.888 176.162 17.272C176.162 17.4 176.109 17.592 176.002 17.848C175.725 18.5733 175.362 19.32 174.914 20.088C174.487 20.8347 174.082 21.592 173.698 22.36C174.018 21.976 174.413 21.5067 174.882 20.952C175.373 20.3973 175.863 19.9067 176.354 19.48C176.823 19.0533 177.421 18.6053 178.146 18.136C178.871 17.6667 179.586 17.2613 180.29 16.92C180.994 16.5787 181.559 16.408 181.986 16.408C182.135 16.408 182.242 16.4187 182.306 16.44C182.306 16.44 182.189 16.6533 181.954 17.08C181.719 17.4853 181.421 18.0293 181.058 18.712C180.717 19.3733 180.365 20.088 180.002 20.856C179.639 21.6027 179.309 22.328 179.01 23.032C178.733 23.7147 178.551 24.2907 178.466 24.76C178.402 25.0373 178.37 25.2933 178.37 25.528C178.37 25.8693 178.434 26.0933 178.562 26.2C178.69 26.3067 178.829 26.36 178.978 26.36C179.405 26.36 179.821 26.1787 180.226 25.816C180.653 25.4533 181.069 24.9947 181.474 24.44C181.879 23.864 182.242 23.256 182.562 22.616C182.903 21.976 183.191 21.3787 183.426 20.824C183.682 20.824 183.81 20.92 183.81 21.112C183.575 21.688 183.277 22.328 182.914 23.032C182.573 23.7147 182.178 24.3653 181.73 24.984C181.282 25.6027 180.791 26.1147 180.258 26.52C179.725 26.9253 179.149 27.128 178.53 27.128C178.082 27.128 177.655 26.9787 177.25 26.68C176.866 26.3813 176.674 25.8267 176.674 25.016C176.674 24.1413 176.877 23.2667 177.282 22.392C177.709 21.5173 178.146 20.7173 178.594 19.992C178.807 19.6293 178.914 19.3413 178.914 19.128C178.914 18.872 178.786 18.744 178.53 18.744C178.317 18.744 178.018 18.8507 177.634 19.064C177.271 19.2773 176.813 19.6507 176.258 20.184C175.917 20.504 175.511 20.952 175.042 21.528C174.594 22.0827 174.135 22.6907 173.666 23.352C173.197 24.0133 172.791 24.664 172.45 25.304C172.109 25.944 171.885 26.5093 171.778 27C171.458 27 171.202 26.872 171.01 26.616C170.818 26.3387 170.722 26.0187 170.722 25.656C170.722 25.592 170.722 25.528 170.722 25.464C170.722 25.4 170.733 25.3253 170.754 25.24C170.861 24.5787 171.031 24.024 171.266 23.576C171.501 23.1067 171.767 22.5627 172.066 21.944C172.215 21.6667 172.386 21.3467 172.578 20.984C172.77 20.6 172.941 20.2373 173.09 19.896C173.239 19.5333 173.314 19.2347 173.314 19C173.314 18.7867 173.229 18.68 173.058 18.68C172.866 18.68 172.61 18.776 172.29 18.968C171.991 19.16 171.703 19.384 171.426 19.64C171.149 19.8747 170.935 20.056 170.786 20.184C170.253 20.696 169.602 21.432 168.834 22.392C168.087 23.352 167.266 24.7173 166.37 26.488C166.242 26.7227 166.093 26.872 165.922 26.936C165.751 26.9787 165.485 27 165.122 27C164.887 27 164.695 27 164.546 27C164.375 27.0213 164.205 27.0747 164.034 27.16ZM184.347 27C184.113 27 183.825 26.9467 183.483 26.84C183.163 26.7333 182.875 26.5413 182.619 26.264C182.385 25.9653 182.267 25.528 182.267 24.952C182.267 24.3973 182.449 23.7573 182.811 23.032C183.174 22.3067 183.494 21.6667 183.771 21.112C183.537 21.112 183.419 21.016 183.419 20.824C183.441 20.76 183.537 20.5573 183.707 20.216C183.878 19.8747 184.081 19.4693 184.315 19C184.55 18.5307 184.774 18.0827 184.987 17.656C185.222 17.208 185.403 16.8667 185.531 16.632C185.787 16.1627 186.193 15.928 186.747 15.928H188.731C188.369 16.2053 188.038 16.5147 187.739 16.856C187.462 17.176 187.11 17.7733 186.683 18.648C186.683 18.648 186.609 18.7973 186.459 19.096C186.31 19.3947 186.118 19.7787 185.883 20.248C185.67 20.696 185.446 21.1547 185.211 21.624C184.998 22.0933 184.817 22.488 184.667 22.808C184.39 23.4053 184.209 23.8853 184.123 24.248C184.038 24.5893 183.995 24.9093 183.995 25.208C183.995 25.912 184.23 26.264 184.699 26.264C185.211 26.264 185.83 25.848 186.555 25.016C187.153 24.312 187.739 23.4693 188.315 22.488C188.891 21.5067 189.435 20.4933 189.947 19.448C190.481 18.4027 190.95 17.464 191.355 16.632C191.59 16.1627 192.006 15.928 192.603 15.928H194.363C193.894 16.312 193.414 16.888 192.923 17.656C192.454 18.424 191.931 19.4053 191.355 20.6C191.206 20.92 191.014 21.3253 190.779 21.816C190.545 22.3067 190.331 22.8293 190.139 23.384C189.969 23.9387 189.883 24.4933 189.883 25.048C189.883 25.7947 190.15 26.168 190.683 26.168C191.409 26.168 192.113 25.6667 192.795 24.664C193.478 23.6613 194.15 22.3813 194.811 20.824C194.982 20.824 195.078 20.8347 195.099 20.856C195.142 20.8773 195.174 20.9627 195.195 21.112C194.961 21.688 194.673 22.3173 194.331 23C194.011 23.6613 193.638 24.3013 193.211 24.92C192.806 25.5387 192.347 26.04 191.835 26.424C191.345 26.808 190.801 27 190.203 27C189.67 27 189.233 26.808 188.891 26.424C188.55 26.0187 188.379 25.4533 188.379 24.728C188.379 24.152 188.486 23.5333 188.699 22.872C188.337 23.512 187.921 24.152 187.451 24.792C186.982 25.432 186.481 25.9653 185.947 26.392C185.414 26.7973 184.881 27 184.347 27ZM195.498 27.128C194.623 27.128 193.908 26.8613 193.354 26.328C192.82 25.7733 192.553 25.1973 192.553 24.6C192.553 24.1093 192.681 23.6613 192.938 23.256C193.172 22.8293 193.492 22.616 193.898 22.616L193.93 22.552C194.399 21.6987 194.847 20.8347 195.274 19.96C195.722 19.064 196.212 18.1147 196.746 17.112C197.194 16.28 197.674 15.5973 198.186 15.064C198.719 14.5307 199.338 14.264 200.042 14.264C200.212 14.264 200.447 14.3067 200.746 14.392C201.044 14.456 201.194 14.6053 201.194 14.84C201.194 15.0107 201.098 15.096 200.906 15.096C200.756 15.096 200.586 15.0533 200.394 14.968C200.223 14.8827 200.084 14.84 199.978 14.84C199.572 14.84 199.231 15.0747 198.954 15.544C198.676 16.0133 198.538 16.5147 198.538 17.048C198.538 17.624 198.634 18.1467 198.826 18.616C199.018 19.064 199.242 19.5013 199.498 19.928C199.754 20.3547 199.978 20.792 200.17 21.24C200.362 21.6667 200.458 22.136 200.458 22.648C200.458 23.672 200.255 24.504 199.85 25.144C199.466 25.7627 198.954 26.232 198.314 26.552H198.346C199.476 26.552 200.404 26.0293 201.13 24.984C201.876 23.9173 202.612 22.5307 203.338 20.824C203.594 20.824 203.722 20.92 203.722 21.112C203.316 22.072 202.868 23.0107 202.378 23.928C201.887 24.8453 201.311 25.6027 200.65 26.2C199.988 26.7973 199.178 27.096 198.218 27.096C197.812 27.096 197.439 27.0533 197.098 26.968C196.607 27.0747 196.074 27.128 195.498 27.128ZM195.018 23.736C195.018 24.248 195.135 24.7387 195.37 25.208C195.604 25.6773 196.031 26.0293 196.65 26.264C197.204 25.944 197.631 25.4533 197.93 24.792C198.25 24.1093 198.41 23.4053 198.41 22.68C198.41 22.0827 198.346 21.4747 198.218 20.856C198.09 20.2373 197.951 19.6293 197.802 19.032C197.674 18.4347 197.61 17.9013 197.61 17.432C197.61 17.2827 197.61 17.1547 197.61 17.048C197.631 16.92 197.652 16.8027 197.674 16.696C197.29 17.272 196.895 17.944 196.49 18.712C196.106 19.48 195.732 20.216 195.37 20.92C195.007 21.624 194.676 22.2 194.378 22.648C194.804 22.712 195.018 23.0747 195.018 23.736ZM193.962 25.336C193.962 25.6773 194.079 25.976 194.314 26.232C194.548 26.488 194.9 26.616 195.37 26.616C195.583 26.616 195.786 26.5947 195.978 26.552C195.53 26.2747 195.167 25.9227 194.89 25.496C194.634 25.0693 194.506 24.5787 194.506 24.024C194.314 24.2373 194.175 24.4613 194.09 24.696C194.004 24.9093 193.962 25.1227 193.962 25.336ZM204.253 27C203.463 27 202.909 26.776 202.589 26.328C202.269 25.8587 202.109 25.3253 202.109 24.728C202.109 24.408 202.141 24.088 202.205 23.768C202.29 23.4267 202.386 23.1173 202.493 22.84L204.637 17.368C204.701 17.1973 204.733 17.048 204.733 16.92C204.733 16.7067 204.679 16.5253 204.573 16.376C204.466 16.2053 204.391 16.088 204.349 16.024L206.109 15.96C206.429 15.9387 206.653 15.9813 206.781 16.088C206.93 16.1733 207.005 16.28 207.005 16.408C207.005 16.536 206.93 16.7707 206.781 17.112C206.567 17.624 206.279 18.264 205.917 19.032C205.554 19.8 205.191 20.5893 204.829 21.4C204.487 22.2107 204.189 22.968 203.933 23.672C203.698 24.376 203.581 24.92 203.581 25.304C203.581 25.5813 203.645 25.816 203.773 26.008C203.922 26.2 204.167 26.296 204.509 26.296C204.957 26.296 205.394 26.1253 205.821 25.784C206.269 25.4213 206.685 24.9627 207.069 24.408C207.453 23.8533 207.805 23.256 208.125 22.616C208.466 21.976 208.754 21.3787 208.989 20.824C209.245 20.824 209.373 20.92 209.373 21.112C209.159 21.6453 208.882 22.2533 208.541 22.936C208.199 23.6187 207.805 24.2693 207.357 24.888C206.93 25.4853 206.45 25.9867 205.917 26.392C205.405 26.7973 204.85 27 204.253 27ZM207.101 13.976C206.823 13.976 206.578 13.8693 206.365 13.656C206.173 13.4427 206.077 13.1867 206.077 12.888C206.077 12.5253 206.226 12.2053 206.525 11.928C206.823 11.6293 207.154 11.48 207.517 11.48C207.815 11.48 208.071 11.576 208.285 11.768C208.498 11.96 208.605 12.2053 208.605 12.504C208.605 12.888 208.455 13.2293 208.157 13.528C207.858 13.8267 207.506 13.976 207.101 13.976ZM205.91 27.256C206.678 25.6987 207.414 24.1627 208.118 22.648C208.822 21.112 209.547 19.6507 210.294 18.264C210.72 17.496 211.083 16.9627 211.382 16.664C211.68 16.344 212.075 16.184 212.566 16.184C212.736 16.184 212.918 16.216 213.11 16.28C213.302 16.3227 213.494 16.344 213.686 16.344C213.814 16.344 213.91 16.3333 213.974 16.312C213.675 16.4827 213.28 16.9093 212.79 17.592C212.32 18.2533 211.84 19.0213 211.35 19.896C210.859 20.7707 210.422 21.592 210.038 22.36C210.443 21.8693 210.87 21.3787 211.318 20.888C211.766 20.3973 212.256 19.928 212.79 19.48C213.302 19.032 213.91 18.5733 214.614 18.104C215.339 17.6133 216.043 17.208 216.726 16.888C217.408 16.568 217.952 16.408 218.358 16.408C218.507 16.408 218.614 16.4187 218.678 16.44C218.678 16.44 218.56 16.6533 218.326 17.08C218.091 17.4853 217.792 18.0293 217.43 18.712C217.088 19.3733 216.736 20.088 216.374 20.856C216.011 21.6027 215.68 22.328 215.382 23.032C215.104 23.7147 214.923 24.2907 214.838 24.76C214.774 25.0373 214.742 25.2933 214.742 25.528C214.742 25.8693 214.806 26.0933 214.934 26.2C215.062 26.3067 215.2 26.36 215.35 26.36C215.755 26.36 216.171 26.1787 216.598 25.816C217.024 25.4533 217.43 24.9947 217.814 24.44C218.219 23.864 218.592 23.256 218.934 22.616C219.275 21.976 219.563 21.3787 219.798 20.824C220.054 20.824 220.182 20.92 220.182 21.112C219.947 21.688 219.648 22.328 219.286 23.032C218.944 23.7147 218.55 24.3653 218.102 24.984C217.675 25.6027 217.195 26.1147 216.662 26.52C216.128 26.9253 215.552 27.128 214.934 27.128C214.507 27.128 214.059 26.9787 213.59 26.68C213.142 26.3813 212.918 25.8267 212.918 25.016C212.918 24.7813 212.939 24.536 212.982 24.28C213.024 24.0027 213.099 23.704 213.206 23.384C213.376 22.9573 213.579 22.4987 213.814 22.008C214.048 21.5173 214.432 20.8453 214.966 19.992C215.115 19.7573 215.2 19.576 215.222 19.448C215.264 19.32 215.286 19.2133 215.286 19.128C215.286 18.872 215.168 18.744 214.934 18.744C214.742 18.744 214.454 18.8507 214.07 19.064C213.707 19.2773 213.248 19.6507 212.694 20.184C212.16 20.696 211.52 21.4213 210.774 22.36C210.048 23.2987 209.206 24.6853 208.246 26.52C208.096 26.7973 207.926 26.9467 207.734 26.968C207.563 26.9893 207.318 27.0107 206.998 27.032C206.784 27.0533 206.582 27.064 206.39 27.064C206.198 27.0853 206.038 27.1493 205.91 27.256ZM217.586 37.208C215.56 37.208 214.546 36.376 214.546 34.712C214.546 33.9227 214.824 33.2187 215.378 32.6C215.933 31.9813 216.594 31.448 217.362 31C218.429 30.36 219.474 29.848 220.498 29.464C221.522 29.08 222.504 28.7387 223.442 28.44C224.381 28.1627 225.256 27.8533 226.066 27.512C226.258 26.9573 226.418 26.3493 226.546 25.688C226.674 25.0053 226.77 24.344 226.834 23.704C226.898 23.064 226.93 22.5093 226.93 22.04C226.93 21.5493 226.898 21.2293 226.834 21.08C226.6 21.528 226.28 22.0827 225.874 22.744C225.49 23.4053 225.032 24.0667 224.498 24.728C223.986 25.368 223.442 25.9013 222.866 26.328C222.29 26.7547 221.704 26.968 221.106 26.968C220.893 26.968 220.69 26.936 220.498 26.872C219.901 26.616 219.464 26.2533 219.186 25.784C218.93 25.3147 218.802 24.7813 218.802 24.184C218.802 23.224 219.08 22.1893 219.634 21.08C220.189 19.9707 220.85 18.9573 221.618 18.04C222.237 17.2933 222.962 16.696 223.794 16.248C224.626 15.8 225.469 15.576 226.322 15.576C227.304 15.576 228.221 15.9067 229.074 16.568C229.394 16.824 229.554 17.1013 229.554 17.4C229.554 17.72 229.426 17.88 229.17 17.88C228.957 17.88 228.808 17.7413 228.722 17.464C228.424 16.6747 227.944 16.28 227.282 16.28C226.749 16.28 226.141 16.5147 225.458 16.984C224.776 17.432 224.136 17.9973 223.538 18.68C223.026 19.256 222.525 19.9173 222.034 20.664C221.565 21.4107 221.17 22.1467 220.85 22.872C220.552 23.5973 220.402 24.2267 220.402 24.76C220.402 25.1227 220.488 25.432 220.658 25.688C220.829 25.944 221.096 26.072 221.458 26.072C221.949 26.072 222.461 25.8373 222.994 25.368C223.549 24.8987 224.072 24.3227 224.562 23.64C225.074 22.9573 225.512 22.264 225.874 21.56C226.258 20.856 226.525 20.2693 226.674 19.8C226.824 19.3093 227.026 19.0107 227.282 18.904C227.538 18.776 227.794 18.712 228.05 18.712C228.306 18.712 228.52 18.648 228.69 18.52C228.776 18.9893 228.829 19.4693 228.85 19.96C228.893 20.4293 228.914 20.9093 228.914 21.4C228.914 22.3813 228.85 23.2773 228.722 24.088C228.616 24.8987 228.424 25.7627 228.146 26.68C228.914 26.2107 229.576 25.624 230.13 24.92C230.706 24.1947 231.176 23.4693 231.538 22.744C231.922 21.9973 232.232 21.3573 232.466 20.824C232.722 20.824 232.85 20.92 232.85 21.112C232.573 21.688 232.221 22.392 231.794 23.224C231.389 24.056 230.866 24.8667 230.226 25.656C229.608 26.424 228.829 27.0213 227.89 27.448C227.528 28.472 227.005 29.5493 226.322 30.68C225.661 31.8107 224.872 32.8667 223.954 33.848C223.037 34.8507 222.034 35.6613 220.946 36.28C219.858 36.8987 218.738 37.208 217.586 37.208ZM216.818 36.568C217.288 36.568 217.778 36.4613 218.29 36.248C218.824 36.056 219.325 35.8213 219.794 35.544C220.264 35.2667 220.626 35.032 220.882 34.84C221.373 34.456 221.874 33.976 222.386 33.4C222.898 32.824 223.346 32.2693 223.73 31.736C224.093 31.224 224.466 30.68 224.85 30.104C225.234 29.5493 225.544 28.9947 225.778 28.44L224.466 28.856C223.762 29.0693 222.984 29.3253 222.13 29.624C221.298 29.944 220.466 30.296 219.634 30.68C218.802 31.064 218.045 31.48 217.362 31.928C216.765 32.3333 216.274 32.8667 215.89 33.528C215.485 34.1893 215.282 34.7653 215.282 35.256C215.282 35.6187 215.41 35.928 215.666 36.184C215.901 36.44 216.285 36.568 216.818 36.568ZM235.618 23.576L235.266 23.512L235.298 23.32L241.858 7.736C241.964 7.43733 242.167 7.256 242.466 7.192C242.764 7.128 243.084 7.096 243.426 7.096H244.45L244.61 7.192L244.674 7.352C244.631 7.50133 244.46 7.87466 244.162 8.472C243.863 9.048 243.468 9.784 242.978 10.68C242.487 11.5547 241.943 12.5253 241.346 13.592C240.748 14.6373 240.14 15.6933 239.522 16.76C238.924 17.8053 238.348 18.7973 237.794 19.736C237.26 20.6747 236.802 21.4853 236.418 22.168C236.034 22.8507 235.767 23.32 235.618 23.576ZM234.37 27.48C233.964 27.48 233.655 27.3413 233.442 27.064C233.228 26.7867 233.132 26.4667 233.154 26.104C233.154 25.72 233.303 25.4107 233.602 25.176C233.9 24.9413 234.22 24.824 234.562 24.824C234.903 24.824 235.191 24.9307 235.426 25.144C235.66 25.336 235.788 25.592 235.81 25.912C235.852 26.3173 235.724 26.68 235.426 27C235.127 27.32 234.775 27.48 234.37 27.48Z" fill="#FF9F0D"/>
</svg>
