<svg width="90" height="40" viewBox="0 0 90 40" fill="none" xmlns="http://www.w3.org/2000/svg">
<path d="M17.44 29.048C16.5013 29.048 15.84 28.6747 15.456 27.928C15.072 27.2027 14.88 26.3493 14.88 25.368C14.88 24.4933 14.9973 23.6293 15.232 22.776C15.488 21.9227 15.7867 21.272 16.128 20.824C15.552 21.5067 14.8373 22.2853 13.984 23.16C13.1307 24.0347 12.192 24.8773 11.168 25.688C10.144 26.4987 9.088 27.1707 8 27.704C6.912 28.2373 5.83467 28.504 4.768 28.504C3.36 28.504 2.304 28.056 1.6 27.16C0.917333 26.264 0.576 25.0373 0.576 23.48C0.576 22.264 0.778667 20.9627 1.184 19.576C1.61067 18.168 2.22933 16.7387 3.04 15.288C3.424 14.584 3.85067 13.8907 4.32 13.208C4.81067 12.504 5.33333 11.8427 5.888 11.224C5.22667 10.904 4.58667 10.552 3.968 10.168C3.34933 9.76267 2.848 9.28267 2.464 8.728C2.08 8.17333 1.888 7.512 1.888 6.744C1.888 6.33867 1.97333 5.976 2.144 5.656C2.336 5.31467 2.53867 5.144 2.752 5.144C2.944 5.144 3.04 5.26133 3.04 5.496C3.04 5.64533 2.99733 5.80533 2.912 5.976C2.80533 6.25333 2.752 6.50933 2.752 6.744C2.752 7.32 2.95467 7.864 3.36 8.376C3.76533 8.86667 4.256 9.29333 4.832 9.656C5.408 10.0187 5.94133 10.3067 6.432 10.52C7.79733 9.02667 9.29067 7.65067 10.912 6.392C12.5547 5.112 14.3147 4.088 16.192 3.32C18.0693 2.552 20.0427 2.168 22.112 2.168C23.84 2.168 25.1947 2.552 26.176 3.32C27.1573 4.06667 27.648 5.03733 27.648 6.232C27.648 7.29867 27.3387 8.216 26.72 8.984C26.1227 9.73067 25.3333 10.36 24.352 10.872C23.3707 11.3627 22.304 11.7573 21.152 12.056C20.0213 12.3333 18.9013 12.536 17.792 12.664C16.6827 12.7707 15.712 12.824 14.88 12.824C13.664 12.824 12.48 12.7493 11.328 12.6C10.1973 12.4507 9.06667 12.216 7.936 11.896C7.38133 12.6853 6.77333 13.6027 6.112 14.648C5.472 15.672 4.85333 16.76 4.256 17.912C3.68 19.0427 3.2 20.1733 2.816 21.304C2.45333 22.4133 2.272 23.448 2.272 24.408C2.272 25.4533 2.51733 26.2427 3.008 26.776C3.49867 27.288 4.16 27.544 4.992 27.544C5.99467 27.544 7.05067 27.2453 8.16 26.648C9.29067 26.0293 10.4213 25.2293 11.552 24.248C12.6827 23.2667 13.76 22.2 14.784 21.048C15.808 19.896 16.7253 18.7547 17.536 17.624C18.3467 16.4933 18.9867 15.4907 19.456 14.616C19.8187 13.9333 20.1707 13.4533 20.512 13.176C20.8533 12.8773 21.1413 12.728 21.376 12.728C21.6107 12.728 21.792 12.824 21.92 13.016C22.048 13.1867 22.112 13.4213 22.112 13.72C22.112 14.3173 21.8453 14.9147 21.312 15.512C20.5867 16.344 19.8827 17.3573 19.2 18.552C18.5173 19.7253 17.9627 20.9627 17.536 22.264C17.1093 23.544 16.896 24.7493 16.896 25.88C16.896 26.6693 17.0133 27.2347 17.248 27.576C17.504 27.9173 17.8347 28.088 18.24 28.088C18.8587 28.088 19.4773 27.8747 20.096 27.448C20.736 27.0427 21.344 26.488 21.92 25.784C22.496 25.08 23.0293 24.3013 23.52 23.448C24.0107 22.5733 24.4373 21.6987 24.8 20.824C24.9067 20.824 24.992 20.8347 25.056 20.856C25.1413 20.8773 25.184 20.9627 25.184 21.112C24.8213 22.0293 24.384 22.9573 23.872 23.896C23.3813 24.8347 22.816 25.6987 22.176 26.488C21.536 27.256 20.8213 27.8747 20.032 28.344C19.2427 28.8133 18.3787 29.048 17.44 29.048ZM14.592 12.056C15.4453 12.056 16.3947 12.0133 17.44 11.928C18.4853 11.8213 19.52 11.64 20.544 11.384C21.5893 11.128 22.5493 10.7653 23.424 10.296C24.2987 9.82667 25.0027 9.22933 25.536 8.504C26.0693 7.77867 26.336 6.89333 26.336 5.848C26.336 4.90933 25.9413 4.19467 25.152 3.704C24.384 3.21333 23.4027 2.968 22.208 2.968C20.224 2.968 18.4107 3.36267 16.768 4.152C15.1467 4.92 13.6533 5.93333 12.288 7.192C10.944 8.45067 9.664 9.80533 8.448 11.256C9.38667 11.5333 10.3467 11.736 11.328 11.864C12.3307 11.992 13.4187 12.056 14.592 12.056ZM26.7463 27.16C25.8716 27.16 25.2529 26.8933 24.8903 26.36C24.5276 25.8267 24.3463 25.176 24.3463 24.408C24.3463 23.8747 24.3996 23.3733 24.5063 22.904C24.6343 22.4347 24.8156 21.9013 25.0503 21.304H24.9863C24.8156 21.304 24.7303 21.2187 24.7303 21.048C24.7303 20.9627 24.8156 20.7173 24.9863 20.312C25.1783 19.9067 25.4129 19.416 25.6903 18.84C25.9889 18.264 26.2876 17.6773 26.5863 17.08C26.9063 16.4827 27.1943 15.9493 27.4503 15.48C27.8769 14.6907 28.3463 13.88 28.8583 13.048C29.3703 12.1947 29.8716 11.384 30.3623 10.616C30.8743 9.848 31.3009 9.21867 31.6423 8.728C32.4103 7.66133 33.1249 7.128 33.7863 7.128H33.9463C34.1383 7.128 34.3516 7.16 34.5863 7.224C34.8423 7.288 35.0769 7.29867 35.2903 7.256C34.9703 7.59733 34.4796 8.216 33.8183 9.112C33.1783 9.98667 32.4743 10.9893 31.7063 12.12C31.3863 12.5893 30.9809 13.2187 30.4903 14.008C30.0209 14.7973 29.5196 15.6827 28.9863 16.664C28.4529 17.6453 27.9516 18.648 27.4823 19.672C27.0343 20.6747 26.6609 21.656 26.3623 22.616C26.0636 23.5547 25.9143 24.3973 25.9143 25.144C25.9143 25.6347 25.9996 25.976 26.1703 26.168C26.3409 26.36 26.5543 26.456 26.8103 26.456C27.1303 26.456 27.5036 26.2747 27.9303 25.912C28.3783 25.528 28.8263 25.0373 29.2743 24.44C29.7436 23.8213 30.1703 23.1493 30.5543 22.424C30.9383 21.6773 31.2476 20.9307 31.4823 20.184C31.7383 19.416 31.8663 18.712 31.8663 18.072C31.8663 17.4533 31.7489 17.0053 31.5143 16.728C31.3009 16.4507 31.0129 16.312 30.6503 16.312C30.5009 16.312 30.3516 16.3547 30.2023 16.44C30.0529 16.504 29.9249 16.536 29.8183 16.536C29.7116 16.536 29.6583 16.4827 29.6583 16.376C29.6583 16.2693 29.7649 16.152 29.9783 16.024C30.2129 15.896 30.5543 15.832 31.0023 15.832C31.4076 15.832 31.8129 15.9387 32.2183 16.152C32.6449 16.3653 32.9969 16.7173 33.2743 17.208C33.5516 17.6773 33.6903 18.296 33.6903 19.064C33.6903 19.9813 33.4769 20.92 33.0503 21.88C32.6236 22.8187 32.0689 23.6933 31.3863 24.504C30.7036 25.2933 29.9463 25.9333 29.1143 26.424C28.3036 26.9147 27.5143 27.16 26.7463 27.16ZM37.183 27C36.3083 27 35.6577 26.6907 35.231 26.072C34.8257 25.432 34.623 24.664 34.623 23.768C34.623 22.936 34.783 22.072 35.103 21.176C35.4443 20.1947 35.9137 19.2987 36.511 18.488C37.1297 17.6773 37.8017 17.0267 38.527 16.536C39.2737 16.024 40.0097 15.768 40.735 15.768C41.6097 15.768 42.2497 16.0667 42.655 16.664C43.0817 17.2613 43.295 18.0187 43.295 18.936C43.295 19.576 43.1883 20.248 42.975 20.952C42.7617 21.656 42.4737 22.3493 42.111 23.032C42.3883 23.3093 42.783 23.448 43.295 23.448C43.8923 23.448 44.4043 23.256 44.831 22.872C45.2577 22.488 45.6737 21.8053 46.079 20.824C46.335 20.824 46.463 20.92 46.463 21.112C46.0577 22.0933 45.5883 22.8187 45.055 23.288C44.543 23.736 43.8817 23.9493 43.071 23.928C42.5803 23.928 42.175 23.7893 41.855 23.512C41.2577 24.4933 40.543 25.3253 39.711 26.008C38.9003 26.6693 38.0577 27 37.183 27ZM37.631 26.296C38.1217 26.296 38.6123 26.0933 39.103 25.688C39.5937 25.2613 40.0417 24.7813 40.447 24.248C40.8523 23.7147 41.1403 23.256 41.311 22.872C40.9697 22.2533 40.767 21.7947 40.703 21.496C40.6603 21.176 40.639 20.9413 40.639 20.792C40.639 20.3867 40.7457 20.0773 40.959 19.864C41.1723 19.6507 41.3857 19.544 41.599 19.544C41.8977 19.544 42.1537 19.672 42.367 19.928C42.4097 19.6933 42.4417 19.48 42.463 19.288C42.4843 19.0747 42.495 18.872 42.495 18.68C42.495 18.1253 42.3883 17.6773 42.175 17.336C41.983 16.9733 41.6737 16.792 41.247 16.792C40.799 16.792 40.3297 16.984 39.839 17.368C39.3483 17.752 38.879 18.264 38.431 18.904C38.0043 19.544 37.631 20.2587 37.311 21.048C37.0337 21.7093 36.8203 22.3387 36.671 22.936C36.5217 23.512 36.447 24.0453 36.447 24.536C36.447 25.0693 36.543 25.496 36.735 25.816C36.927 26.136 37.2257 26.296 37.631 26.296ZM47.0035 27C46.7688 27 46.4808 26.9467 46.1395 26.84C45.8195 26.7333 45.5315 26.5413 45.2755 26.264C45.0408 25.9653 44.9235 25.528 44.9235 24.952C44.9235 24.3973 45.1048 23.7573 45.4675 23.032C45.8302 22.3067 46.1502 21.6667 46.4275 21.112C46.1928 21.112 46.0755 21.016 46.0755 20.824C46.0968 20.76 46.1928 20.5573 46.3635 20.216C46.5342 19.8747 46.7368 19.4693 46.9715 19C47.2062 18.5307 47.4302 18.0827 47.6435 17.656C47.8782 17.208 48.0595 16.8667 48.1875 16.632C48.4435 16.1627 48.8488 15.928 49.4035 15.928H51.3875C51.0248 16.2053 50.6942 16.5147 50.3955 16.856C50.1182 17.176 49.7662 17.7733 49.3395 18.648C49.3395 18.648 49.2648 18.7973 49.1155 19.096C48.9662 19.3947 48.7742 19.7787 48.5395 20.248C48.3262 20.696 48.1022 21.1547 47.8675 21.624C47.6542 22.0933 47.4728 22.488 47.3235 22.808C47.0462 23.4053 46.8648 23.8853 46.7795 24.248C46.6942 24.5893 46.6515 24.9093 46.6515 25.208C46.6515 25.912 46.8862 26.264 47.3555 26.264C47.8675 26.264 48.4862 25.848 49.2115 25.016C49.8088 24.312 50.3955 23.4693 50.9715 22.488C51.5475 21.5067 52.0915 20.4933 52.6035 19.448C53.1368 18.4027 53.6062 17.464 54.0115 16.632C54.2462 16.1627 54.6622 15.928 55.2595 15.928H57.0195C56.5502 16.312 56.0702 16.888 55.5795 17.656C55.1102 18.424 54.5875 19.4053 54.0115 20.6C53.8622 20.92 53.6702 21.3253 53.4355 21.816C53.2008 22.3067 52.9875 22.8293 52.7955 23.384C52.6248 23.9387 52.5395 24.4933 52.5395 25.048C52.5395 25.7947 52.8062 26.168 53.3395 26.168C54.0648 26.168 54.7688 25.6667 55.4515 24.664C56.1342 23.6613 56.8062 22.3813 57.4675 20.824C57.6382 20.824 57.7342 20.8347 57.7555 20.856C57.7982 20.8773 57.8302 20.9627 57.8515 21.112C57.6168 21.688 57.3288 22.3173 56.9875 23C56.6675 23.6613 56.2942 24.3013 55.8675 24.92C55.4622 25.5387 55.0035 26.04 54.4915 26.424C54.0008 26.808 53.4568 27 52.8595 27C52.3262 27 51.8888 26.808 51.5475 26.424C51.2062 26.0187 51.0355 25.4533 51.0355 24.728C51.0355 24.152 51.1422 23.5333 51.3555 22.872C50.9928 23.512 50.5768 24.152 50.1075 24.792C49.6382 25.432 49.1368 25.9653 48.6035 26.392C48.0702 26.7973 47.5368 27 47.0035 27ZM64.1058 10.104C63.8284 10.5093 63.5191 11.0213 63.1778 11.64C62.8364 12.2587 62.5164 12.856 62.2178 13.432C61.9404 14.008 61.7271 14.4453 61.5778 14.744H64.5218C64.5218 14.8293 64.4791 14.968 64.3938 15.16C64.3298 15.352 64.1911 15.4907 63.9778 15.576H61.1938C60.9378 16.152 60.6391 16.8453 60.2977 17.656C59.9777 18.4667 59.6578 19.3093 59.3378 20.184C59.0391 21.0587 58.7831 21.88 58.5698 22.648C58.3778 23.3947 58.2818 24.0027 58.2818 24.472C58.2818 25.112 58.3671 25.592 58.5378 25.912C58.7084 26.2107 59.0178 26.36 59.4658 26.36C60.0418 26.36 60.5964 26.0827 61.1298 25.528C61.6631 24.952 62.1644 24.2373 62.6338 23.384C63.1244 22.5307 63.5511 21.6773 63.9138 20.824C64.1698 20.824 64.2978 20.92 64.2978 21.112C64.0631 21.688 63.7751 22.3173 63.4338 23C63.0924 23.6827 62.6978 24.344 62.2498 24.984C61.8231 25.6027 61.3324 26.1147 60.7778 26.52C60.2444 26.904 59.6471 27.096 58.9858 27.096C58.0898 27.096 57.4818 26.8507 57.1618 26.36C56.8418 25.848 56.6818 25.1973 56.6818 24.408C56.6818 23.832 56.7884 23.1387 57.0018 22.328C57.2151 21.496 57.4711 20.6427 57.7698 19.768C58.0898 18.8933 58.3991 18.0827 58.6978 17.336C58.9964 16.568 59.2311 15.9813 59.4018 15.576H57.3538C57.3538 15.4053 57.4284 15.224 57.5778 15.032C57.7271 14.84 57.8871 14.744 58.0578 14.744H59.7538C59.9244 14.4027 60.1164 13.976 60.3298 13.464C60.5644 12.952 60.8738 12.3867 61.2578 11.768C61.5778 11.256 61.9831 10.8507 62.4738 10.552C62.9858 10.2533 63.5298 10.104 64.1058 10.104ZM70.316 27C70.0813 27 69.7933 26.9467 69.452 26.84C69.132 26.7333 68.844 26.5413 68.588 26.264C68.3533 25.9653 68.236 25.528 68.236 24.952C68.236 24.3973 68.4173 23.7573 68.78 23.032C69.1427 22.3067 69.4627 21.6667 69.74 21.112C69.5053 21.112 69.388 21.016 69.388 20.824C69.4093 20.76 69.5053 20.5573 69.676 20.216C69.8467 19.8747 70.0493 19.4693 70.284 19C70.5187 18.5307 70.7427 18.0827 70.956 17.656C71.1907 17.208 71.372 16.8667 71.5 16.632C71.756 16.1627 72.1613 15.928 72.716 15.928H74.7C74.3373 16.2053 74.0067 16.5147 73.708 16.856C73.4307 17.176 73.0787 17.7733 72.652 18.648C72.652 18.648 72.5773 18.7973 72.428 19.096C72.2787 19.3947 72.0867 19.7787 71.852 20.248C71.6387 20.696 71.4147 21.1547 71.18 21.624C70.9667 22.0933 70.7853 22.488 70.636 22.808C70.3587 23.4053 70.1773 23.8853 70.092 24.248C70.0067 24.5893 69.964 24.9093 69.964 25.208C69.964 25.912 70.1987 26.264 70.668 26.264C71.18 26.264 71.7987 25.848 72.524 25.016C73.1213 24.312 73.708 23.4693 74.284 22.488C74.86 21.5067 75.404 20.4933 75.916 19.448C76.4493 18.4027 76.9187 17.464 77.324 16.632C77.5587 16.1627 77.9747 15.928 78.572 15.928H80.332C79.8627 16.312 79.3827 16.888 78.892 17.656C78.4227 18.424 77.9 19.4053 77.324 20.6C77.1747 20.92 76.9827 21.3253 76.748 21.816C76.5133 22.3067 76.3 22.8293 76.108 23.384C75.9373 23.9387 75.852 24.4933 75.852 25.048C75.852 25.7947 76.1187 26.168 76.652 26.168C77.3773 26.168 78.0813 25.6667 78.764 24.664C79.4467 23.6613 80.1187 22.3813 80.78 20.824C80.9507 20.824 81.0467 20.8347 81.068 20.856C81.1107 20.8773 81.1427 20.9627 81.164 21.112C80.9293 21.688 80.6413 22.3173 80.3 23C79.98 23.6613 79.6067 24.3013 79.18 24.92C78.7747 25.5387 78.316 26.04 77.804 26.424C77.3133 26.808 76.7693 27 76.172 27C75.6387 27 75.2013 26.808 74.86 26.424C74.5187 26.0187 74.348 25.4533 74.348 24.728C74.348 24.152 74.4547 23.5333 74.668 22.872C74.3053 23.512 73.8893 24.152 73.42 24.792C72.9507 25.432 72.4493 25.9653 71.916 26.392C71.3827 26.7973 70.8493 27 70.316 27ZM81.4663 27.128C80.5916 27.128 79.8769 26.8613 79.3223 26.328C78.7889 25.7733 78.5222 25.1973 78.5222 24.6C78.5222 24.1093 78.6502 23.6613 78.9062 23.256C79.1409 22.8293 79.4609 22.616 79.8663 22.616L79.8983 22.552C80.3676 21.6987 80.8156 20.8347 81.2423 19.96C81.6903 19.064 82.1809 18.1147 82.7143 17.112C83.1623 16.28 83.6423 15.5973 84.1543 15.064C84.6876 14.5307 85.3063 14.264 86.0103 14.264C86.1809 14.264 86.4156 14.3067 86.7143 14.392C87.0129 14.456 87.1623 14.6053 87.1623 14.84C87.1623 15.0107 87.0663 15.096 86.8743 15.096C86.7249 15.096 86.5543 15.0533 86.3623 14.968C86.1916 14.8827 86.0529 14.84 85.9463 14.84C85.5409 14.84 85.1996 15.0747 84.9223 15.544C84.6449 16.0133 84.5063 16.5147 84.5063 17.048C84.5063 17.624 84.6023 18.1467 84.7943 18.616C84.9863 19.064 85.2103 19.5013 85.4663 19.928C85.7223 20.3547 85.9463 20.792 86.1383 21.24C86.3303 21.6667 86.4263 22.136 86.4263 22.648C86.4263 23.672 86.2236 24.504 85.8183 25.144C85.4343 25.7627 84.9223 26.232 84.2823 26.552H84.3143C85.4449 26.552 86.3729 26.0293 87.0983 24.984C87.8449 23.9173 88.5809 22.5307 89.3063 20.824C89.5623 20.824 89.6903 20.92 89.6903 21.112C89.2849 22.072 88.8369 23.0107 88.3463 23.928C87.8556 24.8453 87.2796 25.6027 86.6183 26.2C85.9569 26.7973 85.1463 27.096 84.1863 27.096C83.7809 27.096 83.4076 27.0533 83.0663 26.968C82.5756 27.0747 82.0423 27.128 81.4663 27.128ZM80.9863 23.736C80.9863 24.248 81.1036 24.7387 81.3383 25.208C81.5729 25.6773 81.9996 26.0293 82.6183 26.264C83.1729 25.944 83.5996 25.4533 83.8983 24.792C84.2183 24.1093 84.3783 23.4053 84.3783 22.68C84.3783 22.0827 84.3143 21.4747 84.1863 20.856C84.0583 20.2373 83.9196 19.6293 83.7703 19.032C83.6423 18.4347 83.5783 17.9013 83.5783 17.432C83.5783 17.2827 83.5783 17.1547 83.5783 17.048C83.5996 16.92 83.6209 16.8027 83.6423 16.696C83.2583 17.272 82.8636 17.944 82.4583 18.712C82.0743 19.48 81.7009 20.216 81.3383 20.92C80.9756 21.624 80.6449 22.2 80.3463 22.648C80.7729 22.712 80.9863 23.0747 80.9863 23.736ZM79.9303 25.336C79.9303 25.6773 80.0476 25.976 80.2823 26.232C80.5169 26.488 80.8689 26.616 81.3383 26.616C81.5516 26.616 81.7543 26.5947 81.9463 26.552C81.4983 26.2747 81.1356 25.9227 80.8583 25.496C80.6023 25.0693 80.4743 24.5787 80.4743 24.024C80.2823 24.2373 80.1436 24.4613 80.0583 24.696C79.9729 24.9093 79.9303 25.1227 79.9303 25.336Z" fill="#FF9F0D"/>
</svg>
