<svg width="76" height="20" viewBox="0 0 76 20" fill="none" xmlns="http://www.w3.org/2000/svg">
<path d="M34.043 15.7716L31.5272 17.8865C31.4361 17.9631 31.325 18.0121 31.207 18.0277C31.089 18.0433 30.969 18.0249 30.8611 17.9747C30.7532 17.9244 30.6619 17.8444 30.598 17.744C30.534 17.6437 30.5 17.5271 30.5 17.4081V5C30.5 4.83424 30.5658 4.67527 30.6831 4.55806C30.8003 4.44085 30.9592 4.375 31.125 4.375H44.875C45.0408 4.375 45.1997 4.44085 45.3169 4.55806C45.4342 4.67527 45.5 4.83424 45.5 5V15C45.5 15.1658 45.4342 15.3247 45.3169 15.4419C45.1997 15.5592 45.0408 15.625 44.875 15.625H34.4452C34.2981 15.625 34.1557 15.6769 34.043 15.7716Z" stroke="#FF9F0D" stroke-width="1.5" stroke-linecap="round" stroke-linejoin="round"/>
<path d="M38 10.9375C38.5178 10.9375 38.9375 10.5178 38.9375 10C38.9375 9.48223 38.5178 9.0625 38 9.0625C37.4822 9.0625 37.0625 9.48223 37.0625 10C37.0625 10.5178 37.4822 10.9375 38 10.9375Z" fill="#FF9F0D"/>
<path d="M34.25 10.9375C34.7678 10.9375 35.1875 10.5178 35.1875 10C35.1875 9.48223 34.7678 9.0625 34.25 9.0625C33.7322 9.0625 33.3125 9.48223 33.3125 10C33.3125 10.5178 33.7322 10.9375 34.25 10.9375Z" fill="#FF9F0D"/>
<path d="M41.75 10.9375C42.2678 10.9375 42.6875 10.5178 42.6875 10C42.6875 9.48223 42.2678 9.0625 41.75 9.0625C41.2322 9.0625 40.8125 9.48223 40.8125 10C40.8125 10.5178 41.2322 10.9375 41.75 10.9375Z" fill="#FF9F0D"/>
<path d="M61 12.5C62.3807 12.5 63.5 11.3807 63.5 10C63.5 8.61929 62.3807 7.5 61 7.5C59.6193 7.5 58.5 8.61929 58.5 10C58.5 11.3807 59.6193 12.5 61 12.5Z" stroke="white" stroke-width="1.5" stroke-linecap="round" stroke-linejoin="round"/>
<path d="M69.75 18.125C71.1307 18.125 72.25 17.0057 72.25 15.625C72.25 14.2443 71.1307 13.125 69.75 13.125C68.3693 13.125 67.25 14.2443 67.25 15.625C67.25 17.0057 68.3693 18.125 69.75 18.125Z" stroke="white" stroke-width="1.5" stroke-linecap="round" stroke-linejoin="round"/>
<path d="M69.75 6.875C71.1307 6.875 72.25 5.75571 72.25 4.375C72.25 2.99429 71.1307 1.875 69.75 1.875C68.3693 1.875 67.25 2.99429 67.25 4.375C67.25 5.75571 68.3693 6.875 69.75 6.875Z" stroke="white" stroke-width="1.5" stroke-linecap="round" stroke-linejoin="round"/>
<path d="M67.6472 5.72681L63.1025 8.64835" stroke="white" stroke-width="1.5" stroke-linecap="round" stroke-linejoin="round"/>
<path d="M63.1025 11.3516L67.6472 14.2731" stroke="white" stroke-width="1.5" stroke-linecap="round" stroke-linejoin="round"/>
<path d="M2.49951 8.125H6.24951V16.25H2.49951C2.33375 16.25 2.17478 16.1842 2.05757 16.0669C1.94036 15.9497 1.87451 15.7908 1.87451 15.625V8.75C1.87451 8.58424 1.94036 8.42527 2.05757 8.30806C2.17478 8.19085 2.33375 8.125 2.49951 8.125V8.125Z" stroke="white" stroke-width="1.5" stroke-linecap="round" stroke-linejoin="round"/>
<path d="M6.24951 8.125L9.37451 1.875C9.70282 1.875 10.0279 1.93966 10.3312 2.0653C10.6345 2.19094 10.9101 2.37509 11.1423 2.60723C11.3744 2.83938 11.5586 3.11498 11.6842 3.41829C11.8098 3.72161 11.8745 4.0467 11.8745 4.375V6.25H16.7085C16.8858 6.25 17.061 6.28769 17.2226 6.36058C17.3841 6.43346 17.5283 6.53987 17.6456 6.67275C17.7629 6.80562 17.8506 6.96192 17.9029 7.13128C17.9552 7.30063 17.9709 7.47917 17.9489 7.65504L17.0114 15.155C16.9736 15.4574 16.8267 15.7355 16.5983 15.9371C16.3699 16.1387 16.0757 16.25 15.771 16.25H6.24951" stroke="white" stroke-width="1.5" stroke-linecap="round" stroke-linejoin="round"/>
</svg>
